<svg xmlns="http://www.w3.org/2000/svg" width="16" height="16.1" viewBox="0 0 16 16.1"><rect width="16" height="16" style="fill:none"/><circle cx="8" cy="8" r="7.5" style="fill:#fff"/><path d="M11.3,9.9a.37.37,0,0,0-.3-.1l-3,2V8.3L9.7,7.1a.37.37,0,0,0,.1-.3.37.37,0,0,0-.3-.1L8,7.8v-2a.2.2,0,0,0-.4,0h0v6l-3-2c-.1-.1-.2,0-.3.1s0,.2.1.3l3.2,2.2v3.5c.1.1.2.1.2.2.1-.1.1-.1.1-.2V12.4l3.2-2.2C11.3,10.1,11.3,10,11.3,9.9Z" style="fill:#6e9284"/><path d="M11.5,7.9A4.78,4.78,0,0,0,8.1,2.3,4.35,4.35,0,0,0,2.9,5.9,5.3,5.3,0,0,0,3,8.4a2.3,2.3,0,0,0-.1,3.1c.8.9,1.4.8,2.2,0,0,0-.6-.5-.5-.6L4,10.4c-.5-.5-.2-.8,0-1.1a.71.71,0,0,1,1.1,0l1.7,1.1V5.5c0-1.1,1.7-1.6,1.7,0V6.6l1-.6c1.1-.6,1.6,1.1.5,1.7L8.4,8.8v1.6l2.8-1.6c.5-.4,1.6.6.6,1.6L9,12.6c.9,1.3,2.2,1.2,3.4.2a3,3,0,0,0,.5-4,3.07,3.07,0,0,0-1.4-.9Z" style="fill:#6e9284"/></svg>