<svg width="74" height="58" viewBox="0 0 74 58" fill="none" xmlns="http://www.w3.org/2000/svg">
<path d="M42.418 31.8181C42.319 32.2008 42.209 32.5836 42.0908 32.9663C41.8908 33.6086 41.6768 34.2427 41.4475 34.8678C41.4213 34.9395 41.395 35.0102 41.3677 35.0809C41.1052 35.7828 40.8224 36.4735 40.5185 37.1521C40.0196 38.268 39.4622 39.3536 38.8401 40.4079C38.2918 41.3399 37.6919 42.2468 37.0385 43.1304C35.1299 45.7095 32.6023 47.8938 29.6656 49.1481C29.0779 49.3995 28.474 49.6136 27.855 49.7853C24.1458 50.8163 19.9055 50.2094 16.9224 47.7757C13.9393 45.341 13.0698 41.2541 13.0698 37.4036C13.0698 33.961 14.6361 31.0829 16.8699 29.4773C17.7747 28.8269 19.0986 28.5048 20.472 28.214C20.8063 28.1423 21.1435 28.0736 21.4778 28.0009C22.9673 27.6828 24.4094 27.3132 25.3395 26.5194C25.4627 26.4134 25.5778 26.3003 25.6818 26.1791C25.7111 26.1458 25.7394 26.1115 25.7676 26.0771C27.7742 23.6707 28.264 20.6027 30.1978 18.1205C30.9118 17.2056 32.3094 16.1301 33.3425 15.601C37.9343 13.246 42.3241 16.736 43.0683 21.5884C43.5056 24.4321 43.3935 28.0998 42.418 31.8181Z" fill="white"/>
<path d="M24.5285 25.084L21.4778 28.0035C21.1435 28.0762 20.8062 28.1448 20.472 28.2165C18.9734 25.6677 16.3326 21.1789 14.8875 18.7361C12.7921 15.1936 12.1811 8.09535 11.7721 6.13322C11.5156 4.9002 11.0309 4.26197 10.5634 3.69444L9.8403 2.72499C9.83323 2.71287 9.82516 2.70075 9.81809 2.68964L9.81506 2.68459C9.62319 2.30994 9.67772 1.8545 9.96047 1.54246C10.2109 1.26576 10.53 0.967855 10.9289 0.689138H10.9299C10.9865 0.649754 11.044 0.611379 11.1006 0.575025C11.3369 0.421528 11.5682 0.297317 11.7883 0.195323C11.8923 0.14685 11.9943 0.103426 12.0913 0.0650523C12.0943 0.0640425 12.0973 0.0620228 12.1003 0.0610129C12.5376 -0.112681 13.0324 0.0973674 13.2213 0.527562C13.3727 0.873939 13.5454 1.26071 13.6535 1.47884C13.8898 1.95851 14.0887 2.68964 14.113 2.84415C14.2957 4.00143 14.0605 4.66793 14.1877 5.0032C14.3159 5.33746 17.8878 13.8363 19.2591 15.9742C20.1357 17.3395 22.7532 21.9403 24.5285 25.084Z" fill="white"/>
<path d="M9.84082 2.72656L10.5639 3.69602C10.3033 3.38094 10.0488 3.08809 9.84082 2.72656Z" fill="white"/>
<path d="M26.2672 28.1751L21.5896 30.118C21.5896 30.118 21.2674 29.5697 20.7544 28.6982C20.6666 28.5477 20.5717 28.3871 20.4717 28.2185C20.8059 28.1468 21.1432 28.0781 21.4775 28.0054L24.5282 25.0859C24.8261 25.6141 25.1008 26.1008 25.3391 26.524C25.9036 27.5267 26.2672 28.1751 26.2672 28.1751Z" fill="white"/>
<path d="M65.145 15.0045C65.0723 15.1236 64.9915 15.2559 64.8986 15.3953C64.8945 15.4024 64.8905 15.4094 64.8855 15.4165C64.8319 15.4973 64.7754 15.5801 64.7148 15.6649C64.5027 15.9598 64.2482 16.2668 63.9463 16.5394C63.097 17.3059 61.8387 18.5844 61.8387 18.5844C61.553 19.0883 60.1432 21.7523 58.5345 24.7707C58.5365 24.7727 54.8981 30.6743 54.6486 30.9045C54.3649 31.1681 50.8758 33.7604 47.7423 36.077C45.0975 38.032 42.7062 39.7912 42.7062 39.7912L41.3671 35.0863V35.0853L41.3318 34.9601L41.4469 34.8732V34.8722L45.5277 31.7811L51.5121 27.2469C51.6999 26.9924 53.6267 24.6031 55.3828 22.1926C55.3838 22.1936 55.3838 22.1936 55.3838 22.1936C56.4118 20.6909 59.7413 16.5687 59.7484 16.2678C59.7544 15.9517 60.12 14.7934 60.8451 13.7361C60.8935 13.6654 60.9632 13.5665 61.0581 13.4311C61.0591 13.4301 61.0602 13.4291 61.0602 13.4271C61.1389 13.315 61.2349 13.1767 61.348 13.008C61.349 13.007 61.349 13.006 61.35 13.006C61.7357 12.5405 62.2689 12.1719 62.6456 11.9648C63.4959 13.007 64.0422 14.1905 65.1339 14.9964C65.1379 14.9994 65.1409 15.0015 65.145 15.0045Z" fill="white"/>
<path d="M33.0791 39.1216C33.0791 39.1216 34.1051 34.954 44.9963 30.75L48.1198 36.8081C47.1917 37.5614 46.098 38.3612 44.8327 39.1449C43.6158 39.8982 42.4565 40.5031 41.4043 40.9878C38.6292 40.3658 35.8542 39.7437 33.0791 39.1216Z" fill="white"/>
<path d="M32.7677 32.2646C32.7677 32.2646 28.3507 31.9839 26.6036 33.8844C24.8566 35.7849 30.4794 50.8215 30.7975 53.2401C30.865 53.7531 30.7866 54.3743 30.6212 55.0347C31.0468 56.7497 36.036 57.2175 36.036 57.2175C36.036 57.2175 38.0629 57.3734 40.2457 56.7497C40.2457 56.7497 41.1812 56.5938 43.0337 54.2551C42.8754 49.2055 42.6779 43.9541 42.5198 43.0922C42.2017 41.3643 39.5549 34.3368 38.9187 33.6461C38.2825 32.9553 32.7677 32.2646 32.7677 32.2646Z" fill="white"/>
<path d="M34.2386 26.3753C34.2386 26.3753 34.2154 26.5056 34.175 26.7257C33.978 27.785 33.2197 31.3013 32.7077 32.2678C32.0886 33.4361 34.8273 37.1605 37.463 36.706C38.2477 36.5707 36.7996 33.2837 36.8692 32.9353C37.0025 32.2688 37.1833 31.3589 37.3681 30.4268C37.4721 29.9007 37.5781 29.3675 37.6771 28.8666C37.9589 27.4417 38.1891 26.2773 38.1891 26.2773L34.2386 26.3753Z" fill="white"/>
<path d="M34.1739 26.7257C34.2153 26.5046 34.2375 26.3753 34.2375 26.3753L38.187 26.2773C38.187 26.2773 37.9568 27.4427 37.675 28.8666C37.5761 29.3655 37.471 29.8956 37.368 30.4187C36.7581 30.3288 36.1209 30.033 35.4826 29.4755C34.7858 28.8666 34.3294 28.1355 34.0537 27.3549C34.1022 27.1044 34.1436 26.8893 34.1739 26.7257Z" fill="white"/>
<path d="M36.8965 17.4169C36.8965 17.4169 35.0344 17.2018 33.868 18.7085C32.7006 20.2151 31.4434 24.8726 34.3426 27.4053C37.2419 29.938 40.1058 27.071 40.531 24.0314C40.9541 20.9917 41.1197 17.3068 36.8965 17.4169Z" fill="white"/>
<path d="M41.3875 23.9888C41.0411 24.6604 40.4604 25.032 40.0898 24.8189C39.7192 24.6058 39.7 23.8899 40.0454 23.2183C40.3918 22.5468 40.9724 22.1751 41.343 22.3882C41.7137 22.6003 41.7328 23.3173 41.3875 23.9888Z" fill="white"/>
<path d="M37.1049 16.918C37.1049 16.918 34.6177 21.3482 32.8383 21.5522C31.059 21.7572 30.8257 24.1101 30.8257 24.1101C30.8257 24.1101 31.4619 18.6862 33.2231 17.64C34.9842 16.5959 37.1049 16.918 37.1049 16.918Z" fill="white"/>
<path d="M33.3049 22.6676C33.4493 23.4542 33.1585 24.1753 32.6546 24.2793C32.1507 24.3823 31.6256 23.8289 31.4801 23.0422C31.3357 22.2556 31.6266 21.5345 32.1305 21.4305C32.6344 21.3265 33.1605 21.8809 33.3049 22.6676Z" fill="white"/>
<path d="M28.4377 41.0212C28.057 41.0465 27.6056 40.795 27.1138 40.3487C24.3428 37.8342 20.2842 29.1444 20.2842 29.1444L20.7548 28.6941L21.4778 28.0013L24.5286 25.0818L24.7073 24.9102C24.7073 24.9102 25.1284 25.3616 25.7676 26.0775C27.1027 27.5721 29.39 30.2199 30.7876 32.3133C31.2966 33.0768 31.6874 33.7655 31.8702 34.2987C32.7972 36.995 30.9663 40.8526 28.4377 41.0212Z" fill="white"/>
<path d="M17.7851 9.4721C17.8608 9.47614 17.9265 9.41857 17.9285 9.34183C17.9426 8.94092 17.9679 7.71294 17.8114 6.31229C17.5538 4.00782 16.953 2.35268 16.0249 1.39332C15.3998 0.747021 14.6303 0.429929 13.7346 0.450126C12.4228 0.480421 11.3706 0.909606 10.6061 1.72556C8.97015 3.4726 8.85704 6.73844 8.97924 9.73466C8.98227 9.81039 9.04589 9.86796 9.12162 9.86493C9.19635 9.8619 9.25391 9.79929 9.25089 9.72456C9.13172 6.78489 9.23675 3.58671 10.805 1.91238C11.5271 1.14086 12.4874 0.75207 13.7407 0.722785C14.5566 0.704607 15.2585 0.993424 15.829 1.58317C17.7659 3.58671 17.6861 8.46528 17.6558 9.33274C17.6538 9.40646 17.7104 9.46806 17.7851 9.4721Z" fill="white"/>
<path d="M2.07025 7.98371L1.1311 6.78906L0.175781 32.529L2.06419 31.5848L3.61936 33.0703L2.07025 7.98371Z" fill="white"/>
<path d="M23.4984 5.52344L1.13135 6.79079L3.61961 33.072L25.1879 31.9693L23.4984 5.52344Z" fill="white"/>
<path d="M17.6958 9.74273C17.8735 9.77101 18.0462 9.61347 18.0816 9.3903C18.1169 9.16813 18.0008 8.96515 17.823 8.93688C17.6453 8.9086 17.4726 9.06614 17.4373 9.28931C17.4019 9.51148 17.5171 9.71446 17.6958 9.74273Z" fill="white"/>
<path d="M9.11533 10.273C9.29509 10.2761 9.44454 10.0953 9.44757 9.8701C9.4506 9.6449 9.30721 9.4601 9.12745 9.45707C8.9477 9.45404 8.79824 9.6348 8.79521 9.86C8.79218 10.0852 8.93558 10.27 9.11533 10.273Z" fill="white"/>
<path d="M17.7851 9.4721C17.8608 9.47614 17.9265 9.41857 17.9285 9.34183C17.9426 8.94092 17.9679 7.71294 17.8114 6.31229C17.5538 4.00782 16.953 2.35268 16.0249 1.39332C15.3998 0.747021 14.6303 0.429929 13.7346 0.450126C12.4228 0.480421 11.3706 0.909606 10.6061 1.72556C8.97015 3.4726 8.85704 6.73844 8.97924 9.73466C8.98227 9.81039 9.04589 9.86796 9.12162 9.86493C9.19635 9.8619 9.25391 9.79929 9.25089 9.72456C9.13172 6.78489 9.23675 3.58671 10.805 1.91238C11.5271 1.14086 12.4874 0.75207 13.7407 0.722785C14.5566 0.704607 15.2585 0.993424 15.829 1.58317C17.7659 3.58671 17.6861 8.46528 17.6558 9.33274C17.6538 9.40646 17.7104 9.46806 17.7851 9.4721Z" fill="white"/>
<path d="M66.4891 20.3834C66.5577 20.3875 66.6153 20.3349 66.6183 20.2663C66.6315 19.9058 66.6537 18.802 66.5133 17.5437C66.2821 15.4715 65.7418 13.984 64.9077 13.1216C64.3462 12.5409 63.6534 12.2552 62.8496 12.2743C61.6711 12.3016 60.7249 12.6874 60.0372 13.4205C58.5668 14.9908 58.4648 17.9275 58.5739 20.6197C58.5769 20.6874 58.6345 20.7399 58.7011 20.7369C58.7688 20.7338 58.8203 20.6773 58.8173 20.6106C58.7102 17.9679 58.8052 15.0928 60.2139 13.5871C60.8632 12.8934 61.7266 12.544 62.8526 12.5177C63.5858 12.5005 64.2169 12.7611 64.7299 13.2913C66.4709 15.0918 66.3992 19.4776 66.3719 20.2572C66.3709 20.3238 66.4224 20.3794 66.4891 20.3834Z" fill="white"/>
<path d="M52.3628 19.0422L51.5175 17.9688L50.6592 41.1074L52.3567 40.2591L53.7544 41.5941L52.3628 19.0422Z" fill="white"/>
<path d="M71.6249 16.832L51.5178 17.9711L53.7546 41.5965L73.1437 40.6048L71.6249 16.832Z" fill="white"/>
<path d="M66.4088 20.6264C66.5683 20.6517 66.7238 20.5103 66.7551 20.3093C66.7864 20.1094 66.6824 19.9266 66.5219 19.9014C66.3613 19.8761 66.2068 20.0175 66.1755 20.2184C66.1442 20.4184 66.2482 20.6012 66.4088 20.6264Z" fill="white"/>
<path d="M58.6958 21.1043C58.8574 21.1063 58.9917 20.9447 58.9947 20.7417C58.9978 20.5398 58.8685 20.3731 58.7069 20.3711C58.5453 20.3691 58.411 20.5307 58.408 20.7336C58.405 20.9356 58.5332 21.1022 58.6958 21.1043Z" fill="white"/>
<path d="M66.4891 20.3834C66.5577 20.3875 66.6153 20.3349 66.6183 20.2663C66.6315 19.9058 66.6537 18.802 66.5133 17.5437C66.2821 15.4715 65.7418 13.984 64.9077 13.1216C64.3462 12.5409 63.6534 12.2552 62.8496 12.2743C61.6711 12.3016 60.7249 12.6874 60.0372 13.4205C58.5668 14.9908 58.4648 17.9275 58.5739 20.6197C58.5769 20.6874 58.6345 20.7399 58.7011 20.7369C58.7688 20.7338 58.8203 20.6773 58.8173 20.6106C58.7102 17.9679 58.8052 15.0928 60.2139 13.5871C60.8632 12.8934 61.7266 12.544 62.8526 12.5177C63.5858 12.5005 64.2169 12.7611 64.7299 13.2913C66.4709 15.0918 66.3992 19.4776 66.3719 20.2572C66.3709 20.3238 66.4224 20.3794 66.4891 20.3834Z" fill="white"/>
<path d="M19.3328 22.7223C19.3591 22.7587 19.3338 22.8082 19.2884 22.8112L16.7749 22.9707C16.7537 22.9717 16.7345 22.9637 16.7234 22.9455L15.7489 21.4842C15.7327 21.457 15.7398 21.4206 15.765 21.4024L17.5828 20.1937C17.61 20.1755 17.6464 20.1826 17.6625 20.2098L19.3328 22.7223Z" fill="white"/>
<path d="M19.3784 22.974C19.4188 22.971 19.4501 23.0124 19.436 23.0508L18.6392 25.2876C18.6311 25.3098 18.611 25.325 18.5897 25.326L15.8036 25.5027C15.7733 25.5047 15.748 25.532 15.7501 25.5633L15.8096 26.5004C15.8127 26.555 15.748 26.5832 15.7127 26.5449L13.6688 24.5262C13.6486 24.504 13.6465 24.4706 13.6637 24.4484L15.436 22.1854C15.4663 22.145 15.535 22.1652 15.538 22.2197L15.5976 23.1568C15.5996 23.1871 15.6269 23.2124 15.6582 23.2104L19.3784 22.974Z" fill="white"/>
<path d="M12.2598 23.4979L12.3982 25.6752C12.4002 25.7085 12.376 25.7337 12.3447 25.7358L9.3343 25.9266C9.28886 25.9297 9.25756 25.8842 9.27674 25.8448L10.3977 23.5878C10.4058 23.5686 10.4239 23.5575 10.4451 23.5565L12.1992 23.4454C12.2295 23.4434 12.2578 23.4676 12.2598 23.4979Z" fill="white"/>
<path d="M9.09343 25.8396C9.07425 25.879 9.02275 25.884 8.99649 25.8527L7.45849 24.0441C7.44335 24.0259 7.43931 23.9997 7.4494 23.9805L8.68849 21.4801C8.70363 21.4528 8.69152 21.4185 8.66223 21.4033L7.82103 20.9863C7.77457 20.9631 7.78164 20.8934 7.83113 20.8782L10.6042 20.1198C10.6324 20.1107 10.6617 20.1259 10.6728 20.1532L11.7473 22.8181C11.7675 22.8666 11.715 22.9151 11.6665 22.8919L10.8253 22.4748C10.7981 22.4596 10.7637 22.4718 10.7486 22.501L9.09343 25.8396Z" fill="white"/>
<path d="M13.0853 17.6864C13.0984 17.7026 13.0994 17.7258 13.0893 17.743L12.3097 19.3183C12.2946 19.3476 12.2602 19.3598 12.233 19.3446L10.2779 18.3752C10.2486 18.36 10.2365 18.3257 10.2517 18.2984L11.5917 15.594C11.6109 15.5546 11.6675 15.5516 11.6907 15.588L13.0853 17.6864Z" fill="white"/>
<path d="M13.0774 19.2411C13.0249 19.233 13.0088 19.1643 13.0522 19.136L13.8348 18.616C13.8621 18.5978 13.8692 18.5614 13.851 18.5342L11.7889 15.4329C11.7656 15.3986 11.7858 15.3501 11.8262 15.3431L14.161 14.9149C14.1842 14.9109 14.2064 14.922 14.2196 14.9401L15.7646 17.2638C15.7828 17.2911 15.8192 17.2981 15.8464 17.28L16.6291 16.7599C16.6725 16.7306 16.729 16.77 16.7159 16.8235L15.9868 19.6026C15.9787 19.6289 15.9515 19.648 15.9232 19.645L13.0774 19.2411Z" fill="white"/>
<path d="M9.84058 2.72367L10.2021 3.25081L13.374 0.869591L13.0721 0.292969L10.9474 1.12609L9.84058 2.72367Z" fill="white"/>
<path d="M65.2278 14.826C65.2157 14.8472 65.1713 14.9249 65.1339 14.9906C65.0461 15.1451 64.9693 15.2774 64.8986 15.3895C64.8946 15.3965 64.8906 15.4036 64.8855 15.4107C64.8249 15.5076 64.7694 15.5894 64.7148 15.6591C64.6361 15.7601 64.5603 15.8338 64.4785 15.8893C63.4828 16.5528 61.0622 15.7338 60.8683 14.3453C60.8239 14.0231 60.9047 13.7131 61.0582 13.4253C61.0592 13.4243 61.0602 13.4233 61.0602 13.4213C61.14 13.2748 61.2379 13.1345 61.348 13.0022C61.349 13.0012 61.349 13.0002 61.35 13.0002C61.451 12.8739 61.6005 12.7043 61.8004 12.5265C61.9438 12.3993 62.265 12.1155 62.6457 11.959C63.1526 11.75 63.8221 11.7459 64.4028 12.0287C65.139 12.3882 65.7277 13.2062 65.6207 13.8282C65.5742 14.0968 65.348 14.6119 65.2278 14.826Z" fill="white"/>
</svg>
