<svg width="51" height="66" viewBox="0 0 51 66" fill="none" xmlns="http://www.w3.org/2000/svg">
<g clip-path="url(#clip0)">
<path d="M31.9487 41.8326C29.564 41.8326 28.2243 43.0217 26.6975 43.0421C26.6755 43.0421 26.6535 43.0421 26.6314 43.0421C24.1993 43.0421 21.5487 41.2444 20.6968 39.0066C19.5544 36.0044 21.774 33.2142 23.9198 30.515C26.0666 27.815 27.8018 25.064 27.2437 21.9401C27.0701 20.9663 25.3756 17.6969 25.0258 15.4412C24.6337 12.9165 26.2419 10.2276 25.948 8.07919C25.6542 5.93076 24.146 4.55778 23.4524 3.22906C22.1745 0.781019 17.6744 -0.484712 15.8893 0.889972C13.5469 2.69366 16.9724 8.20091 14.3209 10.809C12.2216 12.8748 9.02477 10.4515 6.94154 12.4935C4.48909 14.8973 7.93573 19.2197 5.28088 23.9098C3.71761 26.6727 1.90283 26.2667 1.13052 28.8697C0.312467 31.6276 2.20177 32.5809 2.23734 36.9178C2.26698 40.526 0.965382 40.789 1.03821 44.4977C1.07886 46.5176 1.14576 49.9147 3.2527 51.7958C6.23612 54.4601 10.7312 51.8546 12.015 53.7612C13.6282 56.1557 6.81875 62.0928 8.32528 64.4293C9.10183 65.6346 11.3282 64.6736 17.3645 64.242C23.0815 63.8335 27.4292 63.5228 32.4916 64.7102C35.5825 65.4346 38.179 66.5394 38.7641 65.6457C39.4289 64.6293 36.5386 62.4869 37.1958 60.4985C37.9325 58.27 42.1896 59.0719 43.0068 57.2231C46.1596 49.501 38.0528 45.6664 36.6699 44.5641C35.287 43.4626 34.3335 41.8326 31.9487 41.8326Z" fill="white"/>
<path d="M27.5359 15.0465C27.7984 16.7362 28.3082 17.492 28.8493 18.293C29.3701 19.065 29.9604 19.9392 30.2297 21.4467C30.9919 25.7103 28.2887 29.1092 25.9049 32.1079C24.0495 34.4411 22.4472 36.4559 23.0705 38.0927C23.5955 39.4725 25.3748 40.4871 26.6332 40.4871C26.6433 40.4871 26.6543 40.4871 26.6645 40.4871C27.3487 40.4778 27.8026 40.1688 28.547 39.6232C29.3227 39.0546 30.289 38.3464 31.7193 38.2783C31.7955 38.2749 31.8709 38.2732 31.9462 38.2732C33.9541 38.2732 35.6944 40.2258 38.1739 40.2258C40.844 40.2258 48.8958 38.0723 49.8349 33.7346C50.8342 29.1202 42.8925 24.7757 44.5777 18.762C45.1011 16.8945 45.9902 16.8775 46.3298 14.9257C47.0505 10.7829 44.051 5.07307 40.0573 4.07036C35.6512 2.96465 30.6082 6.82994 29.1373 8.71023C27.961 10.2109 27.2302 13.0752 27.5359 15.0465Z" fill="white"/>
<path d="M23.9425 30.48C22.928 31.756 21.8966 33.0523 21.2123 34.3828C21.2843 29.5505 25.8869 26.5475 24.9376 21.3543C24.2669 17.6874 21.4994 17.2014 21.861 13.6604C22.1514 10.8208 24.0382 9.64272 23.4353 7.40578C22.7281 4.78239 19.395 3.6571 18.7853 3.45111C17.3914 2.9804 16.0889 2.94806 15.0405 3.06893C15.0558 2.14027 15.2616 1.35461 15.9111 0.854962C17.6962 -0.519722 22.1963 0.745158 23.4751 3.19405C24.1686 4.52277 25.676 5.89575 25.9699 8.04417C26.2637 10.1926 24.6564 12.8815 25.0476 15.4062C25.3982 17.6619 27.0919 20.9313 27.2655 21.9051C27.8236 25.0281 26.0893 27.7792 23.9425 30.48Z" fill="white"/>
<path d="M49.9872 33.6994C49.7297 34.8902 48.9354 35.9168 47.8633 36.779C48.4408 35.5984 48.7796 34.2927 48.6026 32.9291C48.4459 31.717 47.981 31.219 46.4567 28.7591C43.2666 23.6093 41.4409 20.9544 41.8787 18.8366C42.3876 16.3741 44.2718 15.6804 44.1677 13.2281C43.9848 8.92019 39.6498 6.71984 38.8741 6.32659C37.0009 5.37495 35.1378 5.17407 33.5974 5.26345C35.6036 4.18413 37.9874 3.47763 40.2095 4.03517C44.2024 5.03703 47.2019 10.7477 46.4821 14.8905C46.1425 16.8423 45.2525 16.8593 44.7291 18.7268C43.0448 24.7405 50.9856 29.0851 49.9872 33.6994Z" fill="white"/>
</g>
<defs>
<clipPath id="clip0">
<rect x="0.925537" y="0.289062" width="49.1489" height="65.6894" rx="5" fill="white"/>
</clipPath>
</defs>
</svg>
