<svg width="99" height="127" viewBox="0 0 99 127" fill="none" xmlns="http://www.w3.org/2000/svg">
<g clip-path="url(#clip0)">
<path d="M57.6449 59.2576C54.2434 59.2576 52.3324 60.9537 50.1546 60.9829C50.1232 60.9829 50.0918 60.9829 50.0603 60.9829C46.5912 60.9829 42.8104 58.4186 41.5953 55.2267C39.9658 50.9444 43.1317 46.9645 46.1926 43.1145C49.2547 39.2632 51.7297 35.3391 50.9337 30.8833C50.6861 29.4943 48.269 24.8308 47.7701 21.6134C47.2109 18.0123 49.5047 14.1768 49.0856 11.1123C48.6664 8.04786 46.5151 6.08946 45.5258 4.1942C43.7031 0.702353 37.2842 -1.10306 34.7379 0.857762C31.3968 3.43051 36.2828 11.286 32.5008 15.0061C29.5064 17.9528 24.9465 14.4961 21.975 17.4088C18.4769 20.8375 23.3931 27.0029 19.6063 33.6928C17.3765 37.6339 14.7879 37.0547 13.6863 40.7675C12.5194 44.7013 15.2143 46.0612 15.265 52.2472C15.3073 57.3939 13.4507 57.769 13.5546 63.059C13.6126 65.9402 13.708 70.7858 16.7133 73.469C20.9688 77.2692 27.3805 73.5528 29.2117 76.2724C31.5128 79.6878 21.7999 88.1564 23.9488 91.4892C25.0564 93.2084 28.232 91.8376 36.8421 91.2221C44.9968 90.6393 51.1982 90.1961 58.4192 91.8898C62.8281 92.9231 66.5315 94.499 67.3662 93.2242C68.3144 91.7745 64.1918 88.7185 65.1291 85.8823C66.18 82.7037 72.2522 83.8474 73.4179 81.2103C77.915 70.1957 66.3516 64.726 64.379 63.1537C62.4065 61.5826 61.0464 59.2576 57.6449 59.2576Z" fill="#FADAC6"/>
<path d="M51.3508 21.0521C51.7252 23.4621 52.4524 24.5403 53.2243 25.6828C53.9671 26.784 54.809 28.0309 55.1932 30.1812C56.2803 36.2628 52.4246 41.1108 49.0243 45.3882C46.3778 48.7161 44.0924 51.59 44.9814 53.9247C45.7303 55.8929 48.2682 57.3401 50.0631 57.3401C50.0776 57.3401 50.0933 57.3401 50.1078 57.3401C51.0838 57.3267 51.7313 56.886 52.793 56.1078C53.8995 55.2967 55.2777 54.2866 57.3179 54.1894C57.4266 54.1846 57.5341 54.1821 57.6416 54.1821C60.5056 54.1821 62.9879 56.9674 66.5247 56.9674C70.3332 56.9674 81.8181 53.8956 83.1577 47.7084C84.583 41.1266 73.2552 34.9296 75.6589 26.3518C76.4054 23.688 77.6737 23.6637 78.1581 20.8797C79.1861 14.9705 74.9076 6.82609 69.2111 5.39584C62.9263 3.81868 55.7331 9.33206 53.635 12.0141C51.9572 14.1546 50.9147 18.2402 51.3508 21.0521Z" fill="#AA6451"/>
<path d="M46.225 43.0639C44.7779 44.8839 43.3067 46.733 42.3307 48.6307C42.4333 41.738 48.9984 37.4546 47.6443 30.0472C46.6876 24.8167 42.7401 24.1234 43.2559 19.0726C43.6702 15.0223 46.3615 13.3419 45.5014 10.1512C44.4928 6.4092 39.7385 4.80412 38.8688 4.5103C36.8805 3.83888 35.0227 3.79274 33.5273 3.96515C33.5491 2.64053 33.8426 1.51989 34.7691 0.807189C37.3154 -1.15364 43.7343 0.650566 45.5582 4.14363C46.5475 6.03889 48.6976 7.99729 49.1167 11.0618C49.5359 14.1262 47.2433 17.9617 47.8013 21.5628C48.3014 24.7803 50.7172 29.4437 50.9649 30.8327C51.7609 35.2874 49.2871 39.2114 46.225 43.0639Z" fill="#FFDDC4"/>
<path d="M83.3742 47.6576C83.0069 49.3561 81.8739 50.8204 80.3447 52.0503C81.1685 50.3663 81.6517 48.5038 81.3992 46.5588C81.1757 44.8299 80.5126 44.1196 78.3383 40.6107C73.7881 33.2652 71.1838 29.4783 71.8083 26.4576C72.5343 22.9451 75.2219 21.9556 75.0733 18.4577C74.8124 12.3129 68.6291 9.17439 67.5226 8.61346C64.8507 7.25606 62.1933 6.96952 59.9961 7.09701C62.8577 5.55749 66.2579 4.54976 69.4275 5.34501C75.1229 6.77405 79.4013 14.9197 78.3746 20.8289C77.8902 23.6129 76.6207 23.6371 75.8742 26.301C73.4716 34.8788 84.7983 41.0758 83.3742 47.6576Z" fill="#D18A7C"/>
</g>
<path d="M16.4985 102.915V112.715H21.5385V111.595H17.6885V102.915H16.4985ZM22.1712 109.495C22.1712 110.139 22.3159 110.718 22.6052 111.231C22.9039 111.735 23.3052 112.132 23.8092 112.421C24.3132 112.71 24.8779 112.855 25.5032 112.855C26.1379 112.855 26.7026 112.71 27.1972 112.421C27.7012 112.132 28.0979 111.735 28.3872 111.231C28.6859 110.718 28.8352 110.139 28.8352 109.495C28.8352 108.842 28.6859 108.263 28.3872 107.759C28.0979 107.255 27.7012 106.858 27.1972 106.569C26.7026 106.28 26.1379 106.135 25.5032 106.135C24.8779 106.135 24.3132 106.28 23.8092 106.569C23.3052 106.858 22.9039 107.255 22.6052 107.759C22.3159 108.263 22.1712 108.842 22.1712 109.495ZM23.3052 109.495C23.3052 109.047 23.3986 108.65 23.5852 108.305C23.7812 107.95 24.0426 107.675 24.3692 107.479C24.7052 107.283 25.0832 107.185 25.5032 107.185C25.9232 107.185 26.2966 107.283 26.6232 107.479C26.9592 107.675 27.2206 107.95 27.4072 108.305C27.6032 108.65 27.7012 109.047 27.7012 109.495C27.7012 109.943 27.6032 110.34 27.4072 110.685C27.2206 111.03 26.9592 111.306 26.6232 111.511C26.2966 111.707 25.9232 111.805 25.5032 111.805C25.0832 111.805 24.7052 111.707 24.3692 111.511C24.0426 111.306 23.7812 111.03 23.5852 110.685C23.3986 110.34 23.3052 109.943 23.3052 109.495ZM30.3038 101.795V112.715H31.4238V101.795H30.3038ZM33.8038 106.275L31.0038 108.935L34.0838 112.715H35.4838L32.4038 108.935L35.2038 106.275H33.8038ZM37.0438 110.727C37.0438 110.494 37.0998 110.293 37.2118 110.125C37.3238 109.957 37.4918 109.826 37.7158 109.733C37.9491 109.64 38.2478 109.593 38.6118 109.593C39.0038 109.593 39.3725 109.644 39.7178 109.747C40.0631 109.84 40.3991 109.999 40.7258 110.223V109.565C40.6605 109.481 40.5345 109.374 40.3478 109.243C40.1611 109.103 39.9091 108.982 39.5918 108.879C39.2838 108.767 38.8965 108.711 38.4298 108.711C37.9071 108.711 37.4545 108.8 37.0718 108.977C36.6985 109.145 36.4091 109.383 36.2038 109.691C36.0078 109.999 35.9098 110.363 35.9098 110.783C35.9098 111.222 36.0125 111.595 36.2178 111.903C36.4231 112.211 36.6938 112.449 37.0298 112.617C37.3751 112.776 37.7438 112.855 38.1358 112.855C38.4905 112.855 38.8451 112.79 39.1998 112.659C39.5638 112.528 39.8671 112.328 40.1098 112.057C40.3618 111.786 40.4878 111.446 40.4878 111.035L40.2638 110.195C40.2638 110.531 40.1798 110.83 40.0118 111.091C39.8531 111.343 39.6338 111.539 39.3538 111.679C39.0831 111.819 38.7751 111.889 38.4298 111.889C38.1591 111.889 37.9165 111.847 37.7018 111.763C37.4965 111.67 37.3331 111.534 37.2118 111.357C37.0998 111.18 37.0438 110.97 37.0438 110.727ZM36.8758 107.759C36.9785 107.684 37.1185 107.596 37.2958 107.493C37.4731 107.39 37.6878 107.302 37.9398 107.227C38.2011 107.152 38.4905 107.115 38.8078 107.115C39.0038 107.115 39.1905 107.134 39.3678 107.171C39.5451 107.208 39.6991 107.269 39.8298 107.353C39.9698 107.437 40.0771 107.554 40.1518 107.703C40.2265 107.843 40.2638 108.025 40.2638 108.249V112.715H41.3838V108.095C41.3838 107.675 41.2765 107.32 41.0618 107.031C40.8565 106.742 40.5625 106.522 40.1798 106.373C39.8065 106.214 39.3678 106.135 38.8638 106.135C38.2665 106.135 37.7531 106.224 37.3238 106.401C36.9038 106.578 36.5725 106.756 36.3298 106.933L36.8758 107.759ZM43.28 101.795V112.715H44.4V101.795H43.28ZM46.5066 103.615C46.5066 103.82 46.5813 104.002 46.7306 104.161C46.8893 104.31 47.0713 104.385 47.2766 104.385C47.4913 104.385 47.6733 104.31 47.8226 104.161C47.9719 104.002 48.0466 103.82 48.0466 103.615C48.0466 103.4 47.9719 103.218 47.8226 103.069C47.6733 102.92 47.4913 102.845 47.2766 102.845C47.0713 102.845 46.8893 102.92 46.7306 103.069C46.5813 103.218 46.5066 103.4 46.5066 103.615ZM46.7166 106.275V112.715H47.8366V106.275H46.7166ZM50.4093 110.741L49.5273 111.287C49.6487 111.539 49.826 111.786 50.0593 112.029C50.302 112.272 50.596 112.472 50.9413 112.631C51.2867 112.78 51.674 112.855 52.1033 112.855C52.542 112.855 52.9247 112.771 53.2513 112.603C53.5873 112.426 53.8487 112.192 54.0353 111.903C54.222 111.604 54.3153 111.268 54.3153 110.895C54.3153 110.512 54.222 110.2 54.0353 109.957C53.858 109.714 53.6153 109.509 53.3073 109.341C52.9993 109.164 52.6587 109 52.2853 108.851C52.0613 108.758 51.8467 108.66 51.6413 108.557C51.436 108.454 51.268 108.338 51.1373 108.207C51.0067 108.076 50.9413 107.927 50.9413 107.759C50.9413 107.544 51.0253 107.386 51.1933 107.283C51.3613 107.18 51.562 107.129 51.7953 107.129C52.1313 107.129 52.43 107.208 52.6913 107.367C52.962 107.526 53.186 107.726 53.3633 107.969L54.2593 107.395C54.1287 107.152 53.9467 106.938 53.7133 106.751C53.48 106.564 53.2093 106.415 52.9013 106.303C52.6027 106.191 52.2807 106.135 51.9353 106.135C51.59 106.135 51.254 106.196 50.9273 106.317C50.61 106.438 50.3487 106.625 50.1433 106.877C49.9473 107.129 49.8493 107.446 49.8493 107.829C49.8493 108.202 49.9427 108.515 50.1293 108.767C50.3253 109.01 50.5633 109.21 50.8433 109.369C51.1327 109.518 51.4173 109.649 51.6973 109.761C51.9493 109.854 52.1873 109.957 52.4113 110.069C52.6353 110.172 52.8173 110.302 52.9573 110.461C53.1067 110.61 53.1813 110.797 53.1813 111.021C53.1813 111.273 53.088 111.474 52.9013 111.623C52.724 111.763 52.4767 111.833 52.1593 111.833C51.898 111.833 51.6553 111.786 51.4313 111.693C51.2167 111.59 51.0253 111.455 50.8573 111.287C50.6893 111.119 50.54 110.937 50.4093 110.741ZM56.2938 110.727C56.2938 110.494 56.3498 110.293 56.4618 110.125C56.5738 109.957 56.7418 109.826 56.9658 109.733C57.1991 109.64 57.4978 109.593 57.8618 109.593C58.2538 109.593 58.6225 109.644 58.9678 109.747C59.3131 109.84 59.6491 109.999 59.9758 110.223V109.565C59.9105 109.481 59.7845 109.374 59.5978 109.243C59.4111 109.103 59.1591 108.982 58.8418 108.879C58.5338 108.767 58.1465 108.711 57.6798 108.711C57.1571 108.711 56.7045 108.8 56.3218 108.977C55.9485 109.145 55.6591 109.383 55.4538 109.691C55.2578 109.999 55.1598 110.363 55.1598 110.783C55.1598 111.222 55.2625 111.595 55.4678 111.903C55.6731 112.211 55.9438 112.449 56.2798 112.617C56.6251 112.776 56.9938 112.855 57.3858 112.855C57.7405 112.855 58.0951 112.79 58.4498 112.659C58.8138 112.528 59.1171 112.328 59.3598 112.057C59.6118 111.786 59.7378 111.446 59.7378 111.035L59.5138 110.195C59.5138 110.531 59.4298 110.83 59.2618 111.091C59.1031 111.343 58.8838 111.539 58.6038 111.679C58.3331 111.819 58.0251 111.889 57.6798 111.889C57.4091 111.889 57.1665 111.847 56.9518 111.763C56.7465 111.67 56.5831 111.534 56.4618 111.357C56.3498 111.18 56.2938 110.97 56.2938 110.727ZM56.1258 107.759C56.2285 107.684 56.3685 107.596 56.5458 107.493C56.7231 107.39 56.9378 107.302 57.1898 107.227C57.4511 107.152 57.7405 107.115 58.0578 107.115C58.2538 107.115 58.4405 107.134 58.6178 107.171C58.7951 107.208 58.9491 107.269 59.0798 107.353C59.2198 107.437 59.3271 107.554 59.4018 107.703C59.4765 107.843 59.5138 108.025 59.5138 108.249V112.715H60.6338V108.095C60.6338 107.675 60.5265 107.32 60.3118 107.031C60.1065 106.742 59.8125 106.522 59.4298 106.373C59.0565 106.214 58.6178 106.135 58.1138 106.135C57.5165 106.135 57.0031 106.224 56.5738 106.401C56.1538 106.578 55.8225 106.756 55.5798 106.933L56.1258 107.759ZM61.55 106.275V107.325H64.77V106.275H61.55ZM62.6 104.035V112.715H63.72V104.035H62.6ZM65.8933 103.615C65.8933 103.82 65.968 104.002 66.1173 104.161C66.276 104.31 66.458 104.385 66.6633 104.385C66.878 104.385 67.06 104.31 67.2093 104.161C67.3587 104.002 67.4333 103.82 67.4333 103.615C67.4333 103.4 67.3587 103.218 67.2093 103.069C67.06 102.92 66.878 102.845 66.6633 102.845C66.458 102.845 66.276 102.92 66.1173 103.069C65.968 103.218 65.8933 103.4 65.8933 103.615ZM66.1033 106.275V112.715H67.2233V106.275H66.1033ZM68.97 109.495C68.97 110.139 69.1147 110.718 69.404 111.231C69.7027 111.735 70.104 112.132 70.608 112.421C71.112 112.71 71.6767 112.855 72.302 112.855C72.9367 112.855 73.5014 112.71 73.996 112.421C74.5 112.132 74.8967 111.735 75.186 111.231C75.4847 110.718 75.634 110.139 75.634 109.495C75.634 108.842 75.4847 108.263 75.186 107.759C74.8967 107.255 74.5 106.858 73.996 106.569C73.5014 106.28 72.9367 106.135 72.302 106.135C71.6767 106.135 71.112 106.28 70.608 106.569C70.104 106.858 69.7027 107.255 69.404 107.759C69.1147 108.263 68.97 108.842 68.97 109.495ZM70.104 109.495C70.104 109.047 70.1974 108.65 70.384 108.305C70.58 107.95 70.8414 107.675 71.168 107.479C71.504 107.283 71.882 107.185 72.302 107.185C72.722 107.185 73.0954 107.283 73.422 107.479C73.758 107.675 74.0194 107.95 74.206 108.305C74.402 108.65 74.5 109.047 74.5 109.495C74.5 109.943 74.402 110.34 74.206 110.685C74.0194 111.03 73.758 111.306 73.422 111.511C73.0954 111.707 72.722 111.805 72.302 111.805C71.882 111.805 71.504 111.707 71.168 111.511C70.8414 111.306 70.58 111.03 70.384 110.685C70.1974 110.34 70.104 109.943 70.104 109.495ZM81.3026 108.795V112.715H82.4226V108.655C82.4226 108.132 82.3293 107.684 82.1426 107.311C81.9653 106.938 81.7133 106.648 81.3866 106.443C81.06 106.238 80.668 106.135 80.2106 106.135C79.7906 106.135 79.4173 106.228 79.0906 106.415C78.7733 106.602 78.5073 106.891 78.2926 107.283V106.275H77.1726V112.715H78.2926V108.795C78.2926 108.478 78.358 108.198 78.4886 107.955C78.6286 107.712 78.82 107.526 79.0626 107.395C79.3146 107.255 79.604 107.185 79.9306 107.185C80.2293 107.185 80.4813 107.246 80.6866 107.367C80.892 107.488 81.046 107.67 81.1486 107.913C81.2513 108.146 81.3026 108.44 81.3026 108.795Z" fill="white"/>
<defs>
<clipPath id="clip0">
<rect width="70.1052" height="93.6983" fill="white" transform="translate(13.3936)"/>
</clipPath>
</defs>
</svg>
