<svg width="105" height="122" viewBox="0 0 105 122" fill="none" xmlns="http://www.w3.org/2000/svg">
<path d="M60.7272 45.4704C60.5857 46.0173 60.4284 46.5643 60.2596 47.1112C59.9738 48.029 59.6679 48.9353 59.3403 49.8286C59.3028 49.9311 59.2653 50.0321 59.2263 50.1331C58.8511 51.1361 58.447 52.1232 58.0126 53.093C57.2997 54.6876 56.5031 56.239 55.6142 57.7456C54.8306 59.0776 53.9733 60.3735 53.0396 61.6363C50.3121 65.322 46.7 68.4435 42.5034 70.2358C41.6635 70.5952 40.8005 70.9011 39.9159 71.1464C34.6153 72.6199 28.5556 71.7526 24.2926 68.2746C20.0296 64.7953 18.7871 58.9549 18.7871 53.4523C18.7871 48.5327 21.0254 44.4198 24.2176 42.1252C25.5106 41.1959 27.4026 40.7355 29.3652 40.3199C29.8429 40.2174 30.3249 40.1193 30.8026 40.0154C32.9312 39.5608 34.9919 39.0326 36.3211 37.8983C36.4971 37.7468 36.6616 37.5852 36.8103 37.412C36.8521 37.3644 36.8925 37.3153 36.9329 37.2662C39.8004 33.8273 40.5003 29.4431 43.2639 25.8959C44.2842 24.5884 46.2815 23.0515 47.7578 22.2953C54.3197 18.9299 60.5929 23.9173 61.6565 30.8516C62.2814 34.9154 62.1212 40.1568 60.7272 45.4704Z" fill="#353535"/>
<path d="M35.1626 35.8463L30.8029 40.0184C30.3253 40.1223 29.8433 40.2204 29.3656 40.3229C27.224 36.6805 23.4502 30.2658 21.3851 26.7749C18.3906 21.7124 17.5175 11.5687 16.9331 8.76469C16.5665 7.00264 15.8738 6.09058 15.2057 5.27955L14.1724 3.89415C14.1623 3.87683 14.1507 3.85951 14.1406 3.84364L14.1363 3.83642C13.8621 3.30103 13.94 2.65018 14.3441 2.20425C14.702 1.80884 15.158 1.38312 15.7281 0.984813H15.7295C15.8103 0.928531 15.8926 0.873693 15.9734 0.82174C16.3111 0.602386 16.6416 0.424881 16.9562 0.279126C17.1048 0.209856 17.2506 0.147802 17.3891 0.0929631C17.3934 0.09152 17.3978 0.0886337 17.4021 0.0871906C18.027 -0.161027 18.7341 0.139143 19.004 0.753914C19.2204 1.2489 19.4672 1.80162 19.6216 2.11334C19.9593 2.79882 20.2436 3.84364 20.2782 4.06444C20.5394 5.71826 20.2032 6.67072 20.385 7.14984C20.5683 7.62751 25.6726 19.7728 27.6324 22.8279C28.885 24.779 32.6256 31.3539 35.1626 35.8463Z" fill="#E4C8AC"/>
<path d="M14.1719 3.89453L15.2052 5.27993C14.8328 4.82968 14.4692 4.41117 14.1719 3.89453Z" fill="#E4C8AC"/>
<path d="M37.6473 40.2622L30.9628 43.0387C30.9628 43.0387 30.5024 42.2551 29.7693 41.0097C29.6438 40.7947 29.5081 40.5652 29.3652 40.3242C29.8429 40.2218 30.3249 40.1236 30.8026 40.0197L35.1623 35.8477C35.588 36.6024 35.9805 37.298 36.3211 37.9027C37.1278 39.3357 37.6473 40.2622 37.6473 40.2622Z" fill="#E4C8AC"/>
<path d="M93.208 21.4376C93.1041 21.6078 92.9887 21.7969 92.8559 21.996C92.8501 22.0061 92.8444 22.0162 92.8371 22.0263C92.7607 22.1418 92.6798 22.2601 92.5933 22.3814C92.2902 22.8027 91.9265 23.2415 91.495 23.6311C90.2814 24.7264 88.4832 26.5534 88.4832 26.5534C88.0748 27.2735 86.0602 31.0805 83.7613 35.394C83.7642 35.3969 78.5647 43.8305 78.2082 44.1595C77.8027 44.5362 72.8167 48.2407 68.3387 51.5512C64.5591 54.3451 61.1418 56.859 61.1418 56.859L59.2282 50.1355V50.1341L59.1777 49.9551L59.3423 49.831V49.8296L65.1739 45.4122L73.7259 38.9325C73.9943 38.5689 76.7478 35.1544 79.2574 31.7097C79.2588 31.7111 79.2588 31.7111 79.2588 31.7111C80.7279 29.5638 85.4859 23.6729 85.496 23.2429C85.5046 22.7912 86.027 21.1359 87.0632 19.625C87.1325 19.524 87.2321 19.3825 87.3677 19.1892C87.3692 19.1877 87.3706 19.1863 87.3706 19.1834C87.4832 19.0232 87.6203 18.8255 87.7819 18.5845C87.7833 18.5831 87.7833 18.5816 87.7848 18.5816C88.336 17.9163 89.098 17.3896 89.6363 17.0938C90.8514 18.5831 91.6321 20.2744 93.1922 21.426C93.1979 21.4303 93.2023 21.4332 93.208 21.4376Z" fill="#E4C8AC"/>
<path d="M47.3818 55.901C47.3818 55.901 48.848 49.9452 64.4121 43.9375L68.8757 52.5948C67.5495 53.6714 65.9866 54.8143 64.1783 55.9342C62.4394 57.0108 60.7827 57.8752 59.2789 58.5679C55.3132 57.6789 51.3475 56.79 47.3818 55.901Z" fill="#E9EFC6"/>
<path d="M46.9371 46.1107C46.9371 46.1107 40.6249 45.7095 38.1283 48.4255C35.6317 51.1414 43.667 72.6295 44.1216 76.0858C44.218 76.8189 44.106 77.7066 43.8696 78.6503C44.4778 81.1012 51.6077 81.7696 51.6077 81.7696C51.6077 81.7696 54.5042 81.9925 57.6235 81.1012C57.6235 81.1012 58.9604 80.8784 61.6078 77.5363C61.3815 70.3201 61.0993 62.8157 60.8734 61.5839C60.4188 59.1147 56.6364 49.072 55.7272 48.0849C54.818 47.0978 46.9371 46.1107 46.9371 46.1107Z" fill="#F2F6DA"/>
<path d="M49.0389 37.6947C49.0389 37.6947 49.0057 37.8808 48.948 38.1954C48.6666 39.7093 47.5828 44.7342 46.8511 46.1153C45.9665 47.785 49.8802 53.1072 53.6468 52.4578C54.7681 52.2644 52.6986 47.5671 52.7982 47.0692C52.9887 46.1167 53.247 44.8165 53.5111 43.4845C53.6598 42.7326 53.8113 41.9706 53.9527 41.2549C54.3553 39.2186 54.6844 37.5547 54.6844 37.5547L49.0389 37.6947Z" fill="#E4C8AC"/>
<path d="M48.9471 38.1993C49.0063 37.8833 49.038 37.6986 49.038 37.6986L54.6821 37.5586C54.6821 37.5586 54.3531 39.224 53.9504 41.2588C53.809 41.9717 53.6589 42.7293 53.5117 43.4768C52.6401 43.3484 51.7295 42.9256 50.8174 42.129C49.8217 41.2588 49.1694 40.2139 48.7754 39.0984C48.8447 38.7405 48.9038 38.4331 48.9471 38.1993Z" fill="#CCA386"/>
<path d="M52.838 24.8902C52.838 24.8902 50.1769 24.5828 48.5101 26.7359C46.8419 28.8891 45.0452 35.5447 49.1884 39.1641C53.3316 42.7834 57.4243 38.6864 58.0318 34.3426C58.6365 29.9988 58.8732 24.7329 52.838 24.8902Z" fill="#E4C8AC"/>
<path d="M59.256 34.2795C58.761 35.2391 57.9312 35.7702 57.4015 35.4657C56.8719 35.1612 56.8445 34.138 57.3381 33.1784C57.833 32.2187 58.6628 31.6876 59.1925 31.9921C59.7221 32.2952 59.7495 33.3198 59.256 34.2795Z" fill="#E4C8AC"/>
<path d="M53.1354 24.1764C53.1354 24.1764 49.581 30.5074 47.0383 30.7989C44.4955 31.0918 44.1621 34.4543 44.1621 34.4543C44.1621 34.4543 45.0713 26.7033 47.5881 25.2082C50.1049 23.716 53.1354 24.1764 53.1354 24.1764Z" fill="#353535"/>
<path d="M47.7046 32.3912C47.9109 33.5154 47.4953 34.5458 46.7752 34.6944C46.0551 34.8416 45.3047 34.0508 45.0968 32.9266C44.8905 31.8024 45.3061 30.772 46.0262 30.6234C46.7463 30.4748 47.4982 31.267 47.7046 32.3912Z" fill="#E4C8AC"/>
<path d="M40.7494 58.6212C40.2054 58.6573 39.5603 58.298 38.8575 57.6601C34.8976 54.0667 29.0977 41.6487 29.0977 41.6487L29.7702 41.005L30.8034 40.0151L35.1631 35.843L35.4185 35.5977C35.4185 35.5977 36.0203 36.2427 36.9338 37.2659C38.8416 39.4017 42.1103 43.1856 44.1076 46.1772C44.8349 47.2682 45.3934 48.2524 45.6546 49.0144C46.9794 52.8675 44.363 58.3802 40.7494 58.6212Z" fill="#F2F6DA"/>
<path d="M25.5266 13.5387C25.6348 13.5445 25.7286 13.4622 25.7315 13.3525C25.7517 12.7796 25.7878 11.0248 25.5641 9.02316C25.1961 5.72995 24.3374 3.36467 23.0112 1.9937C22.1179 1.07011 21.0182 0.616965 19.7382 0.645828C17.8636 0.689121 16.3598 1.30245 15.2674 2.46849C12.9295 4.9651 12.7679 9.63215 12.9425 13.9139C12.9469 14.0221 13.0378 14.1044 13.146 14.1001C13.2528 14.0957 13.3351 14.0063 13.3307 13.8995C13.1604 9.69854 13.3105 5.12817 15.5517 2.73547C16.5835 1.63292 17.9559 1.07732 19.7468 1.03547C20.9129 1.00949 21.9159 1.42223 22.7312 2.26501C25.4991 5.12817 25.3851 12.0999 25.3418 13.3395C25.339 13.4449 25.4198 13.5329 25.5266 13.5387Z" fill="#2B2B2B"/>
<path d="M3.0696 11.4103L1.7275 9.70312L0.362305 46.4869L3.06095 45.1376L5.28335 47.2604L3.0696 11.4103Z" fill="#588074"/>
<path d="M33.6913 7.89453L1.72754 9.70565L5.2834 47.2629L36.1056 45.687L33.6913 7.89453Z" fill="#84A394"/>
<path d="M25.4 13.9258C25.654 13.9662 25.9008 13.7411 25.9513 13.4222C26.0018 13.1047 25.8359 12.8146 25.5819 12.7742C25.3279 12.7338 25.0811 12.9589 25.0306 13.2779C24.9801 13.5954 25.1446 13.8854 25.4 13.9258Z" fill="#F0F0F0"/>
<path d="M13.1362 14.6856C13.3931 14.69 13.6067 14.4316 13.611 14.1098C13.6154 13.788 13.4104 13.5239 13.1536 13.5196C12.8967 13.5153 12.6831 13.7736 12.6788 14.0954C12.6744 14.4172 12.8794 14.6813 13.1362 14.6856Z" fill="#F0F0F0"/>
<path d="M25.5266 13.5387C25.6348 13.5445 25.7286 13.4622 25.7315 13.3525C25.7517 12.7796 25.7878 11.0248 25.5641 9.02316C25.1961 5.72995 24.3374 3.36467 23.0112 1.9937C22.1179 1.07011 21.0182 0.616965 19.7382 0.645828C17.8636 0.689121 16.3598 1.30245 15.2674 2.46849C12.9295 4.9651 12.7679 9.63215 12.9425 13.9139C12.9469 14.0221 13.0378 14.1044 13.146 14.1001C13.2528 14.0957 13.3351 14.0063 13.3307 13.8995C13.1604 9.69854 13.3105 5.12817 15.5517 2.73547C16.5835 1.63292 17.9559 1.07732 19.7468 1.03547C20.9129 1.00949 21.9159 1.42223 22.7312 2.26501C25.4991 5.12817 25.3851 12.0999 25.3418 13.3395C25.339 13.4449 25.4198 13.5329 25.5266 13.5387Z" fill="#2B2B2B"/>
<path d="M95.126 29.1325C95.2241 29.1383 95.3064 29.0633 95.3107 28.9651C95.3295 28.4499 95.3612 26.8726 95.1606 25.0745C94.8301 22.1132 94.0581 19.9875 92.866 18.755C92.0637 17.9252 91.0737 17.5168 89.925 17.5443C88.2408 17.5832 86.8886 18.1345 85.9059 19.1822C83.8047 21.4263 83.6589 25.6229 83.8148 29.4702C83.8191 29.5669 83.9014 29.642 83.9966 29.6376C84.0933 29.6333 84.1669 29.5525 84.1626 29.4572C84.0096 25.6806 84.1453 21.572 86.1584 19.4203C87.0863 18.4289 88.3202 17.9296 89.9293 17.8921C90.977 17.8675 91.8789 18.2398 92.6121 18.9975C95.1 21.5706 94.9975 27.8381 94.9586 28.9522C94.9571 29.0474 95.0307 29.1268 95.126 29.1325Z" fill="#2B2B2B"/>
<path d="M74.9404 27.2176L73.7325 25.6836L72.5059 58.7499L74.9317 57.5377L76.929 59.4455L74.9404 27.2176Z" fill="#AFB878"/>
<path d="M102.466 24.0547L73.7324 25.6825L76.9289 59.4444L104.637 58.0273L102.466 24.0547Z" fill="#CFD59F"/>
<path d="M95.0142 29.4778C95.2422 29.5139 95.4644 29.3119 95.5091 29.0247C95.5539 28.739 95.4052 28.4777 95.1758 28.4417C94.9463 28.4056 94.7255 28.6076 94.6808 28.8948C94.6361 29.1805 94.7847 29.4418 95.0142 29.4778Z" fill="#F0F0F0"/>
<path d="M83.9905 30.161C84.2214 30.1639 84.4133 29.933 84.4176 29.6429C84.422 29.3543 84.2372 29.1162 84.0063 29.1133C83.7754 29.1104 83.5835 29.3413 83.5792 29.6314C83.5748 29.92 83.7581 30.1581 83.9905 30.161Z" fill="#F0F0F0"/>
<path d="M95.126 29.1325C95.2241 29.1383 95.3064 29.0633 95.3107 28.9651C95.3295 28.4499 95.3612 26.8726 95.1606 25.0745C94.8301 22.1132 94.0581 19.9875 92.866 18.755C92.0637 17.9252 91.0737 17.5168 89.925 17.5443C88.2408 17.5832 86.8886 18.1345 85.9059 19.1822C83.8047 21.4263 83.6589 25.6229 83.8148 29.4702C83.8191 29.5669 83.9014 29.642 83.9966 29.6376C84.0933 29.6333 84.1669 29.5525 84.1626 29.4572C84.0096 25.6806 84.1453 21.572 86.1584 19.4203C87.0863 18.4289 88.3202 17.9296 89.9293 17.8921C90.977 17.8675 91.8789 18.2398 92.6121 18.9975C95.1 21.5706 94.9975 27.8381 94.9586 28.9522C94.9571 29.0474 95.0307 29.1268 95.126 29.1325Z" fill="#2B2B2B"/>
<path d="M27.7385 32.4756C27.776 32.5276 27.7399 32.5983 27.675 32.6026L24.0831 32.8306C24.0528 32.8321 24.0253 32.8205 24.0095 32.7945L22.6169 30.7064C22.5938 30.6674 22.6039 30.6154 22.64 30.5895L25.2376 28.862C25.2765 28.8361 25.3285 28.8462 25.3516 28.8851L27.7385 32.4756Z" fill="white"/>
<path d="M27.8043 32.8294C27.862 32.8251 27.9068 32.8842 27.8866 32.9391L26.748 36.1356C26.7364 36.1673 26.7076 36.189 26.6772 36.1904L22.6957 36.443C22.6524 36.4459 22.6163 36.4848 22.6192 36.5296L22.7043 37.8688C22.7087 37.9467 22.6163 37.9871 22.5658 37.9323L19.6449 35.0475C19.616 35.0157 19.6132 34.9681 19.6377 34.9363L22.1704 31.7023C22.2137 31.6446 22.3118 31.6734 22.3161 31.7514L22.4013 33.0906C22.4042 33.1339 22.4431 33.17 22.4879 33.1671L27.8043 32.8294Z" fill="white"/>
<path d="M17.6306 33.5791L17.8283 36.6905C17.8312 36.7381 17.7965 36.7742 17.7518 36.7771L13.4498 37.0498C13.3849 37.0542 13.3402 36.9892 13.3676 36.9329L14.9695 33.7076C14.981 33.6801 15.007 33.6643 15.0373 33.6628L17.544 33.5041C17.5873 33.5012 17.6277 33.5358 17.6306 33.5791Z" fill="white"/>
<path d="M13.1044 36.9276C13.077 36.9839 13.0034 36.9911 12.9659 36.9464L10.768 34.3618C10.7464 34.3358 10.7406 34.2983 10.755 34.2708L12.5257 30.6977C12.5474 30.6587 12.5301 30.6096 12.4882 30.588L11.2861 29.992C11.2197 29.9588 11.2298 29.8592 11.3005 29.8376L15.2633 28.7538C15.3037 28.7408 15.3456 28.7624 15.3615 28.8014L16.8969 32.6098C16.9258 32.6791 16.8508 32.7483 16.7815 32.7151L15.5794 32.1191C15.5404 32.0975 15.4913 32.1148 15.4697 32.1567L13.1044 36.9276Z" fill="white"/>
<path d="M18.8107 25.2813C18.8295 25.3044 18.8309 25.3376 18.8165 25.3621L17.7024 27.6134C17.6807 27.6552 17.6317 27.6726 17.5927 27.6509L14.7988 26.2655C14.757 26.2439 14.7397 26.1948 14.7613 26.1558L16.6763 22.2912C16.7038 22.2349 16.7846 22.2305 16.8178 22.2825L18.8107 25.2813Z" fill="white"/>
<path d="M18.7988 27.496C18.7238 27.4845 18.7007 27.3863 18.7627 27.3459L19.8812 26.6027C19.9201 26.5768 19.9302 26.5248 19.9042 26.4858L16.9574 22.054C16.9242 22.0049 16.9531 21.9357 17.0108 21.9256L20.3473 21.3137C20.3805 21.3079 20.4122 21.3238 20.431 21.3498L22.639 24.6704C22.6649 24.7094 22.7169 24.7195 22.7559 24.6935L23.8743 23.9503C23.9363 23.9084 24.0171 23.9647 23.9984 24.0412L22.9565 28.0127C22.9449 28.0502 22.9059 28.0776 22.8655 28.0733L18.7988 27.496Z" fill="white"/>
<path d="M14.1729 3.89547L14.6895 4.64878L19.2223 1.2459L18.7908 0.421875L15.7545 1.61245L14.1729 3.89547Z" fill="#E4C8AC"/>
<path d="M93.3245 21.1948C93.3071 21.2251 93.2436 21.3362 93.1902 21.43C93.0647 21.6508 92.955 21.8399 92.854 22C92.8482 22.0101 92.8424 22.0202 92.8352 22.0303C92.7486 22.1689 92.6693 22.2858 92.5913 22.3854C92.4788 22.5297 92.3705 22.635 92.2537 22.7144C90.8307 23.6625 87.3716 22.4921 87.0945 20.5079C87.031 20.0475 87.1464 19.6045 87.3658 19.1932C87.3672 19.1917 87.3687 19.1903 87.3687 19.1874C87.4827 18.9781 87.6227 18.7775 87.78 18.5885C87.7814 18.5871 87.7814 18.5856 87.7829 18.5856C87.9272 18.4052 88.1408 18.1628 88.4265 17.9088C88.6314 17.727 89.0903 17.3214 89.6344 17.0978C90.3588 16.799 91.3156 16.7933 92.1454 17.1973C93.1975 17.7111 94.0388 18.88 93.8858 19.769C93.8194 20.1528 93.4962 20.8888 93.3245 21.1948Z" fill="#E4C8AC"/>
<path d="M84.963 40.9161L85.1418 44.9402L80.8574 40.8277L81.1097 46.5047L81.7662 46.4755L81.5874 42.4514L85.8718 46.5639L85.6196 40.887L84.963 40.9161Z" fill="white"/>
<path d="M87.4616 46.2224L90.1881 46.1013L90.1607 45.4834L87.4342 45.6045L87.4616 46.2224ZM87.2488 41.4337L89.9753 41.3125L89.9479 40.6946L87.2214 40.8158L87.2488 41.4337ZM87.3449 43.5964L89.917 43.4821L89.8895 42.8642L87.3175 42.9785L87.3449 43.5964ZM86.8584 40.8319L87.0986 46.2386L87.7551 46.2094L87.5149 40.8028L86.8584 40.8319Z" fill="white"/>
<path d="M96.0936 44.4072L94.2983 40.2305L92.9114 44.5486L91.298 40.6347L90.5643 40.6673L92.9406 46.2498L94.3759 41.976L96.1846 46.1057L98.0563 40.3343L97.3226 40.3669L96.0936 44.4072Z" fill="white"/>
<path d="M17.9554 98.5148H19.3154V103.331L23.7154 98.5148H25.3954L20.5474 103.763L25.6354 109.715H23.9554L19.3154 104.275V109.715H17.9554V98.5148ZM25.7979 106.035C25.7979 105.288 25.9632 104.627 26.2939 104.051C26.6352 103.475 27.0939 103.022 27.6699 102.691C28.2459 102.36 28.8912 102.195 29.6059 102.195C30.3312 102.195 30.9765 102.36 31.5419 102.691C32.1179 103.022 32.5712 103.475 32.9019 104.051C33.2432 104.627 33.4139 105.288 33.4139 106.035C33.4139 106.771 33.2432 107.432 32.9019 108.019C32.5712 108.595 32.1179 109.048 31.5419 109.379C30.9765 109.71 30.3312 109.875 29.6059 109.875C28.8912 109.875 28.2459 109.71 27.6699 109.379C27.0939 109.048 26.6352 108.595 26.2939 108.019C25.9632 107.432 25.7979 106.771 25.7979 106.035ZM27.0939 106.035C27.0939 106.547 27.2005 107 27.4139 107.395C27.6379 107.79 27.9365 108.104 28.3099 108.339C28.6939 108.563 29.1259 108.675 29.6059 108.675C30.0859 108.675 30.5125 108.563 30.8859 108.339C31.2699 108.104 31.5685 107.79 31.7819 107.395C32.0059 107 32.1179 106.547 32.1179 106.035C32.1179 105.523 32.0059 105.07 31.7819 104.675C31.5685 104.27 31.2699 103.955 30.8859 103.731C30.5125 103.507 30.0859 103.395 29.6059 103.395C29.1259 103.395 28.6939 103.507 28.3099 103.731C27.9365 103.955 27.6379 104.27 27.4139 104.675C27.2005 105.07 27.0939 105.523 27.0939 106.035ZM39.8922 105.235C39.8922 104.008 39.3696 103.395 38.3242 103.395C37.7696 103.395 37.3162 103.566 36.9642 103.907C36.6229 104.248 36.4522 104.691 36.4522 105.235V109.715H35.1722V102.355H36.4522V103.507C36.9322 102.632 37.6629 102.195 38.6442 102.195C39.4229 102.195 40.0362 102.456 40.4842 102.979C40.9429 103.491 41.1722 104.19 41.1722 105.075V109.715H39.8922V105.235ZM43.8825 107.459C44.1065 107.8 44.3785 108.094 44.6985 108.339C45.0292 108.584 45.4238 108.707 45.8825 108.707C46.2452 108.707 46.5278 108.627 46.7305 108.467C46.9438 108.296 47.0505 108.067 47.0505 107.779C47.0505 107.523 46.9652 107.31 46.7945 107.139C46.6345 106.958 46.4265 106.808 46.1705 106.691C45.9145 106.563 45.6425 106.446 45.3545 106.339C45.0345 106.211 44.7092 106.062 44.3785 105.891C44.0585 105.71 43.7865 105.48 43.5625 105.203C43.3492 104.915 43.2425 104.558 43.2425 104.131C43.2425 103.694 43.3545 103.331 43.5785 103.043C43.8132 102.755 44.1118 102.542 44.4745 102.403C44.8478 102.264 45.2318 102.195 45.6265 102.195C46.2132 102.195 46.7465 102.334 47.2265 102.611C47.7065 102.888 48.0585 103.23 48.2825 103.635L47.2585 104.291C47.0558 104.014 46.7998 103.784 46.4905 103.603C46.1918 103.422 45.8505 103.331 45.4665 103.331C45.1998 103.331 44.9705 103.39 44.7785 103.507C44.5865 103.624 44.4905 103.806 44.4905 104.051C44.4905 104.35 44.6452 104.595 44.9545 104.787C45.2745 104.968 45.6318 105.139 46.0265 105.299C46.4532 105.47 46.8425 105.656 47.1945 105.859C47.5465 106.051 47.8238 106.286 48.0265 106.563C48.2398 106.84 48.3465 107.198 48.3465 107.635C48.3465 108.275 48.1118 108.808 47.6425 109.235C47.1838 109.662 46.5758 109.875 45.8185 109.875C45.3278 109.875 44.8852 109.79 44.4905 109.619C44.0958 109.438 43.7598 109.208 43.4825 108.931C43.2158 108.654 43.0132 108.371 42.8745 108.083L43.8825 107.459ZM51.3116 106.835C51.3116 107.422 51.4449 107.875 51.7116 108.195C51.9783 108.515 52.3676 108.675 52.8796 108.675C53.4449 108.675 53.8983 108.504 54.2396 108.163C54.5809 107.822 54.7516 107.379 54.7516 106.835V102.355H56.0316V109.715H54.7516V108.563C54.2609 109.438 53.5303 109.875 52.5596 109.875C51.7916 109.875 51.1783 109.614 50.7196 109.091C50.2609 108.568 50.0316 107.87 50.0316 106.995V102.355H51.3116V106.835ZM68.5179 105.075V109.715H67.2379V105.235C67.2379 104.606 67.1205 104.142 66.8859 103.843C66.6619 103.544 66.3099 103.395 65.8299 103.395C65.3072 103.395 64.8912 103.56 64.5819 103.891C64.2725 104.211 64.1179 104.659 64.1179 105.235V109.715H62.8379V105.235C62.8379 104.606 62.7205 104.142 62.4859 103.843C62.2619 103.544 61.9099 103.395 61.4299 103.395C60.9072 103.395 60.4912 103.56 60.1819 103.891C59.8725 104.211 59.7179 104.659 59.7179 105.235V109.715H58.4379V102.355H59.7179V103.427C60.1552 102.606 60.8325 102.195 61.7499 102.195C62.2619 102.195 62.6992 102.318 63.0619 102.563C63.4352 102.798 63.7072 103.134 63.8779 103.571C64.3899 102.654 65.1472 102.195 66.1499 102.195C66.9072 102.195 67.4885 102.446 67.8939 102.947C68.3099 103.448 68.5179 104.158 68.5179 105.075ZM71.3062 104.051L70.6822 103.107C70.9596 102.904 71.3382 102.702 71.8182 102.499C72.3089 102.296 72.8956 102.195 73.5782 102.195C74.4316 102.195 75.1249 102.392 75.6582 102.787C76.1916 103.171 76.4582 103.72 76.4582 104.435V109.715H75.1782V108.723C74.9436 109.107 74.5916 109.395 74.1222 109.587C73.6529 109.779 73.1942 109.875 72.7462 109.875C72.2982 109.875 71.8769 109.784 71.4822 109.603C71.0982 109.411 70.7889 109.139 70.5542 108.787C70.3196 108.435 70.2022 108.008 70.2022 107.507C70.2022 106.792 70.4529 106.222 70.9542 105.795C71.4662 105.358 72.1756 105.139 73.0822 105.139C73.5729 105.139 73.9889 105.198 74.3302 105.315C74.6822 105.422 74.9649 105.544 75.1782 105.683V104.611C75.1782 104.11 75.0129 103.768 74.6822 103.587C74.3622 103.406 73.9729 103.315 73.5142 103.315C72.9596 103.315 72.4956 103.406 72.1222 103.587C71.7489 103.768 71.4769 103.923 71.3062 104.051ZM71.4982 107.443C71.4982 107.87 71.6422 108.2 71.9302 108.435C72.2289 108.659 72.6129 108.771 73.0822 108.771C73.6689 108.771 74.1649 108.595 74.5702 108.243C74.9756 107.891 75.1782 107.422 75.1782 106.835V106.563C74.8796 106.414 74.5756 106.307 74.2662 106.243C73.9569 106.179 73.6316 106.147 73.2902 106.147C72.6716 106.147 72.2182 106.264 71.9302 106.499C71.6422 106.723 71.4982 107.038 71.4982 107.443ZM82.1294 103.763C81.9587 103.635 81.804 103.544 81.6654 103.491C81.5267 103.427 81.3507 103.395 81.1374 103.395C80.6574 103.395 80.332 103.571 80.1614 103.923C79.9907 104.264 79.9054 104.702 79.9054 105.235V109.715H78.6254V102.355H79.9054V103.203C80.108 102.894 80.348 102.648 80.6254 102.467C80.9027 102.286 81.18 102.195 81.4574 102.195C81.724 102.195 81.9694 102.232 82.1934 102.307C82.428 102.371 82.6414 102.504 82.8334 102.707L82.1294 103.763ZM82.9897 102.355H84.1897V99.7948H85.4697V102.355H86.6697V103.555H85.4697V109.715H84.1897V103.555H82.9897V102.355Z" fill="white"/>
</svg>
