<svg width="81" height="115" viewBox="0 0 81 115" fill="none" xmlns="http://www.w3.org/2000/svg">
<g clip-path="url(#clip0)">
<path d="M49.6449 59.2576C46.2434 59.2576 44.3324 60.9537 42.1546 60.9829C42.1232 60.9829 42.0918 60.9829 42.0603 60.9829C38.5912 60.9829 34.8104 58.4186 33.5953 55.2267C31.9658 50.9444 35.1317 46.9645 38.1926 43.1145C41.2547 39.2632 43.7297 35.3391 42.9337 30.8833C42.6861 29.4943 40.269 24.8308 39.7701 21.6134C39.2109 18.0123 41.5047 14.1768 41.0856 11.1123C40.6664 8.04786 38.5151 6.08946 37.5258 4.1942C35.7031 0.702353 29.2842 -1.10306 26.7379 0.857762C23.3968 3.43051 28.2828 11.286 24.5008 15.0061C21.5064 17.9528 16.9465 14.4961 13.975 17.4088C10.4769 20.8375 15.3931 27.0029 11.6063 33.6928C9.37647 37.6339 6.7879 37.0547 5.68628 40.7675C4.51943 44.7013 7.2143 46.0612 7.26503 52.2472C7.30731 57.3939 5.45074 57.769 5.55462 63.059C5.6126 65.9402 5.70802 70.7858 8.71333 73.469C12.9688 77.2692 19.3805 73.5528 21.2117 76.2724C23.5128 79.6878 13.7999 88.1564 15.9488 91.4892C17.0564 93.2084 20.232 91.8376 28.8421 91.2221C36.9968 90.6393 43.1982 90.1961 50.4192 91.8898C54.8281 92.9231 58.5315 94.499 59.3662 93.2242C60.3144 91.7745 56.1918 88.7185 57.1291 85.8823C58.18 82.7037 64.2522 83.8474 65.4179 81.2103C69.915 70.1957 58.3516 64.726 56.379 63.1537C54.4065 61.5826 53.0464 59.2576 49.6449 59.2576Z" fill="#FADAC6"/>
<path d="M43.3508 21.0521C43.7252 23.4621 44.4524 24.5403 45.2243 25.6828C45.9671 26.784 46.809 28.0309 47.1932 30.1812C48.2803 36.2628 44.4246 41.1108 41.0243 45.3882C38.3778 48.7161 36.0924 51.59 36.9814 53.9247C37.7303 55.8929 40.2682 57.3401 42.0631 57.3401C42.0776 57.3401 42.0933 57.3401 42.1078 57.3401C43.0838 57.3267 43.7313 56.886 44.793 56.1078C45.8995 55.2967 47.2777 54.2866 49.3179 54.1894C49.4266 54.1846 49.5341 54.1821 49.6416 54.1821C52.5056 54.1821 54.9879 56.9674 58.5247 56.9674C62.3332 56.9674 73.8181 53.8956 75.1577 47.7084C76.583 41.1266 65.2552 34.9296 67.6589 26.3518C68.4054 23.688 69.6737 23.6637 70.1581 20.8797C71.1861 14.9705 66.9076 6.82609 61.2111 5.39584C54.9263 3.81868 47.7331 9.33206 45.635 12.0141C43.9572 14.1546 42.9147 18.2402 43.3508 21.0521Z" fill="#AA6451"/>
<path d="M38.225 43.0639C36.7779 44.8839 35.3067 46.733 34.3307 48.6307C34.4333 41.738 40.9984 37.4546 39.6443 30.0472C38.6876 24.8167 34.7401 24.1234 35.2559 19.0726C35.6702 15.0223 38.3615 13.3419 37.5014 10.1512C36.4928 6.4092 31.7385 4.80412 30.8688 4.5103C28.8805 3.83888 27.0227 3.79274 25.5273 3.96515C25.5491 2.64053 25.8426 1.51989 26.7691 0.807189C29.3154 -1.15364 35.7343 0.650566 37.5582 4.14363C38.5475 6.03889 40.6976 7.99729 41.1167 11.0618C41.5359 14.1262 39.2433 17.9617 39.8013 21.5628C40.3014 24.7803 42.7172 29.4437 42.9649 30.8327C43.7609 35.2874 41.2871 39.2114 38.225 43.0639Z" fill="#FFDDC4"/>
<path d="M75.3742 47.6576C75.0069 49.3561 73.8739 50.8204 72.3447 52.0503C73.1685 50.3663 73.6517 48.5038 73.3992 46.5588C73.1757 44.8299 72.5126 44.1196 70.3383 40.6107C65.7881 33.2652 63.1838 29.4783 63.8083 26.4576C64.5343 22.9451 67.2219 21.9556 67.0733 18.4577C66.8124 12.3129 60.6291 9.17439 59.5226 8.61346C56.8507 7.25606 54.1933 6.96952 51.9961 7.09701C54.8577 5.55749 58.2579 4.54976 61.4275 5.34501C67.1229 6.77405 71.4013 14.9197 70.3746 20.8289C69.8902 23.6129 68.6207 23.6371 67.8742 26.301C65.4716 34.8788 76.7983 41.0758 75.3742 47.6576Z" fill="#D18A7C"/>
</g>
<path d="M3.79395 103.514V114.714H9.55395V113.434H5.15395V103.514H3.79395Z" fill="white"/>
<path d="M10.2771 111.034C10.2771 111.77 10.4424 112.432 10.7731 113.018C11.1144 113.594 11.5731 114.048 12.1491 114.378C12.7251 114.709 13.3704 114.874 14.0851 114.874C14.8104 114.874 15.4557 114.709 16.0211 114.378C16.5971 114.048 17.0504 113.594 17.3811 113.018C17.7224 112.432 17.8931 111.77 17.8931 111.034C17.8931 110.288 17.7224 109.626 17.3811 109.05C17.0504 108.474 16.5971 108.021 16.0211 107.69C15.4557 107.36 14.8104 107.194 14.0851 107.194C13.3704 107.194 12.7251 107.36 12.1491 107.69C11.5731 108.021 11.1144 108.474 10.7731 109.05C10.4424 109.626 10.2771 110.288 10.2771 111.034ZM11.5731 111.034C11.5731 110.522 11.6797 110.069 11.8931 109.674C12.1171 109.269 12.4157 108.954 12.7891 108.73C13.1731 108.506 13.6051 108.394 14.0851 108.394C14.5651 108.394 14.9917 108.506 15.3651 108.73C15.7491 108.954 16.0477 109.269 16.2611 109.674C16.4851 110.069 16.5971 110.522 16.5971 111.034C16.5971 111.546 16.4851 112 16.2611 112.394C16.0477 112.789 15.7491 113.104 15.3651 113.338C14.9917 113.562 14.5651 113.674 14.0851 113.674C13.6051 113.674 13.1731 113.562 12.7891 113.338C12.4157 113.104 12.1171 112.789 11.8931 112.394C11.6797 112 11.5731 111.546 11.5731 111.034Z" fill="white"/>
<path d="M19.5714 102.234V114.714H20.8514V102.234H19.5714ZM23.5714 107.354L20.3714 110.394L23.8914 114.714H25.4914L21.9714 110.394L25.1714 107.354H23.5714Z" fill="white"/>
<path d="M27.2743 112.442C27.2743 112.176 27.3383 111.946 27.4663 111.754C27.5943 111.562 27.7863 111.413 28.0423 111.306C28.309 111.2 28.6503 111.146 29.0663 111.146C29.5143 111.146 29.9357 111.205 30.3303 111.322C30.725 111.429 31.109 111.61 31.4823 111.866V111.114C31.4077 111.018 31.2637 110.896 31.0503 110.746C30.837 110.586 30.549 110.448 30.1863 110.33C29.8343 110.202 29.3917 110.138 28.8583 110.138C27.9517 110.138 27.2423 110.357 26.7303 110.794C26.229 111.221 25.9783 111.792 25.9783 112.506C25.9783 113.008 26.0957 113.434 26.3303 113.786C26.565 114.138 26.8743 114.41 27.2583 114.602C27.653 114.784 28.0743 114.874 28.5223 114.874C28.9277 114.874 29.333 114.8 29.7383 114.65C30.1543 114.501 30.501 114.272 30.7783 113.962C31.0663 113.653 31.2103 113.264 31.2103 112.794L30.9543 111.834C30.9543 112.218 30.8583 112.56 30.6663 112.858C30.485 113.146 30.2343 113.37 29.9143 113.53C29.605 113.69 29.253 113.77 28.8583 113.77C28.549 113.77 28.2717 113.722 28.0263 113.626C27.7917 113.52 27.605 113.365 27.4663 113.162C27.3383 112.96 27.2743 112.72 27.2743 112.442ZM27.0823 109.05C27.1997 108.965 27.3597 108.864 27.5623 108.746C27.765 108.629 28.0103 108.528 28.2983 108.442C28.597 108.357 28.9277 108.314 29.2903 108.314C29.5143 108.314 29.7277 108.336 29.9303 108.378C30.133 108.421 30.309 108.49 30.4583 108.586C30.6183 108.682 30.741 108.816 30.8263 108.986C30.9117 109.146 30.9543 109.354 30.9543 109.61V114.714H32.2343V109.434C32.2343 108.954 32.1117 108.549 31.8663 108.218C31.6317 107.888 31.2957 107.637 30.8583 107.466C30.4317 107.285 29.9303 107.194 29.3543 107.194C28.6717 107.194 28.085 107.296 27.5943 107.498C27.1143 107.701 26.7357 107.904 26.4583 108.106L27.0823 109.05Z" fill="white"/>
<path d="M34.4014 102.234V114.714H35.6814V102.234H34.4014Z" fill="white"/>
<path d="M38.0889 104.314C38.0889 104.549 38.1743 104.757 38.3449 104.938C38.5263 105.109 38.7343 105.194 38.9689 105.194C39.2143 105.194 39.4223 105.109 39.5929 104.938C39.7636 104.757 39.8489 104.549 39.8489 104.314C39.8489 104.069 39.7636 103.861 39.5929 103.69C39.4223 103.52 39.2143 103.434 38.9689 103.434C38.7343 103.434 38.5263 103.52 38.3449 103.69C38.1743 103.861 38.0889 104.069 38.0889 104.314ZM38.3289 107.354V114.714H39.6089V107.354H38.3289Z" fill="white"/>
<path d="M42.5492 112.458L41.5412 113.082C41.6799 113.37 41.8825 113.653 42.1492 113.93C42.4265 114.208 42.7625 114.437 43.1572 114.618C43.5519 114.789 43.9945 114.874 44.4852 114.874C45.2425 114.874 45.8505 114.661 46.3092 114.234C46.7785 113.808 47.0132 113.274 47.0132 112.634C47.0132 112.197 46.9065 111.84 46.6932 111.562C46.4905 111.285 46.2132 111.05 45.8612 110.858C45.5092 110.656 45.1199 110.469 44.6932 110.298C44.4372 110.192 44.1919 110.08 43.9572 109.962C43.7225 109.845 43.5305 109.712 43.3812 109.562C43.2319 109.413 43.1572 109.242 43.1572 109.05C43.1572 108.805 43.2532 108.624 43.4452 108.506C43.6372 108.389 43.8665 108.33 44.1332 108.33C44.5172 108.33 44.8585 108.421 45.1572 108.602C45.4665 108.784 45.7225 109.013 45.9252 109.29L46.9492 108.634C46.7999 108.357 46.5919 108.112 46.3252 107.898C46.0585 107.685 45.7492 107.514 45.3972 107.386C45.0559 107.258 44.6879 107.194 44.2932 107.194C43.8985 107.194 43.5145 107.264 43.1412 107.402C42.7785 107.541 42.4799 107.754 42.2452 108.042C42.0212 108.33 41.9092 108.693 41.9092 109.13C41.9092 109.557 42.0159 109.914 42.2292 110.202C42.4532 110.48 42.7252 110.709 43.0452 110.89C43.3759 111.061 43.7012 111.21 44.0212 111.338C44.3092 111.445 44.5812 111.562 44.8372 111.69C45.0932 111.808 45.3012 111.957 45.4612 112.138C45.6319 112.309 45.7172 112.522 45.7172 112.778C45.7172 113.066 45.6105 113.296 45.3972 113.466C45.1945 113.626 44.9119 113.706 44.5492 113.706C44.2505 113.706 43.9732 113.653 43.7172 113.546C43.4719 113.429 43.2532 113.274 43.0612 113.082C42.8692 112.89 42.6985 112.682 42.5492 112.458Z" fill="white"/>
<path d="M49.2743 112.442C49.2743 112.176 49.3383 111.946 49.4663 111.754C49.5943 111.562 49.7863 111.413 50.0423 111.306C50.309 111.2 50.6503 111.146 51.0663 111.146C51.5143 111.146 51.9357 111.205 52.3303 111.322C52.725 111.429 53.109 111.61 53.4823 111.866V111.114C53.4077 111.018 53.2637 110.896 53.0503 110.746C52.837 110.586 52.549 110.448 52.1863 110.33C51.8343 110.202 51.3917 110.138 50.8583 110.138C49.9517 110.138 49.2423 110.357 48.7303 110.794C48.229 111.221 47.9783 111.792 47.9783 112.506C47.9783 113.008 48.0957 113.434 48.3303 113.786C48.565 114.138 48.8743 114.41 49.2583 114.602C49.653 114.784 50.0743 114.874 50.5223 114.874C50.9277 114.874 51.333 114.8 51.7383 114.65C52.1543 114.501 52.501 114.272 52.7783 113.962C53.0663 113.653 53.2103 113.264 53.2103 112.794L52.9543 111.834C52.9543 112.218 52.8583 112.56 52.6663 112.858C52.485 113.146 52.2343 113.37 51.9143 113.53C51.605 113.69 51.253 113.77 50.8583 113.77C50.549 113.77 50.2717 113.722 50.0263 113.626C49.7917 113.52 49.605 113.365 49.4663 113.162C49.3383 112.96 49.2743 112.72 49.2743 112.442ZM49.0823 109.05C49.1997 108.965 49.3597 108.864 49.5623 108.746C49.765 108.629 50.0103 108.528 50.2983 108.442C50.597 108.357 50.9277 108.314 51.2903 108.314C51.5143 108.314 51.7277 108.336 51.9303 108.378C52.133 108.421 52.309 108.49 52.4583 108.586C52.6183 108.682 52.741 108.816 52.8263 108.986C52.9117 109.146 52.9543 109.354 52.9543 109.61V114.714H54.2343V109.434C54.2343 108.954 54.1117 108.549 53.8663 108.218C53.6317 107.888 53.2957 107.637 52.8583 107.466C52.4317 107.285 51.9303 107.194 51.3543 107.194C50.6717 107.194 50.085 107.296 49.5943 107.498C49.1143 107.701 48.7357 107.904 48.4583 108.106L49.0823 109.05Z" fill="white"/>
<path d="M55.2814 107.354V108.554H58.9614V107.354H55.2814ZM56.4814 104.794V114.714H57.7614V104.794H56.4814Z" fill="white"/>
<path d="M60.2452 104.314C60.2452 104.549 60.3305 104.757 60.5012 104.938C60.6825 105.109 60.8905 105.194 61.1252 105.194C61.3705 105.194 61.5785 105.109 61.7492 104.938C61.9199 104.757 62.0052 104.549 62.0052 104.314C62.0052 104.069 61.9199 103.861 61.7492 103.69C61.5785 103.52 61.3705 103.434 61.1252 103.434C60.8905 103.434 60.6825 103.52 60.5012 103.69C60.3305 103.861 60.2452 104.069 60.2452 104.314ZM60.4852 107.354V114.714H61.7652V107.354H60.4852Z" fill="white"/>
<path d="M63.7614 111.034C63.7614 111.77 63.9268 112.432 64.2574 113.018C64.5988 113.594 65.0574 114.048 65.6334 114.378C66.2094 114.709 66.8548 114.874 67.5695 114.874C68.2948 114.874 68.9401 114.709 69.5054 114.378C70.0814 114.048 70.5348 113.594 70.8654 113.018C71.2068 112.432 71.3774 111.77 71.3774 111.034C71.3774 110.288 71.2068 109.626 70.8654 109.05C70.5348 108.474 70.0814 108.021 69.5054 107.69C68.9401 107.36 68.2948 107.194 67.5695 107.194C66.8548 107.194 66.2094 107.36 65.6334 107.69C65.0574 108.021 64.5988 108.474 64.2574 109.05C63.9268 109.626 63.7614 110.288 63.7614 111.034ZM65.0574 111.034C65.0574 110.522 65.1641 110.069 65.3774 109.674C65.6014 109.269 65.9001 108.954 66.2734 108.73C66.6574 108.506 67.0895 108.394 67.5695 108.394C68.0495 108.394 68.4761 108.506 68.8494 108.73C69.2334 108.954 69.5321 109.269 69.7454 109.674C69.9694 110.069 70.0814 110.522 70.0814 111.034C70.0814 111.546 69.9694 112 69.7454 112.394C69.5321 112.789 69.2334 113.104 68.8494 113.338C68.4761 113.562 68.0495 113.674 67.5695 113.674C67.0895 113.674 66.6574 113.562 66.2734 113.338C65.9001 113.104 65.6014 112.789 65.3774 112.394C65.1641 112 65.0574 111.546 65.0574 111.034Z" fill="white"/>
<path d="M77.8558 110.234V114.714H79.1358V110.074C79.1358 109.189 78.9065 108.49 78.4478 107.978C77.9998 107.456 77.3865 107.194 76.6078 107.194C76.1278 107.194 75.7012 107.301 75.3278 107.514C74.9652 107.728 74.6612 108.058 74.4158 108.506V107.354H73.1358V114.714H74.4158V110.234C74.4158 109.872 74.4905 109.552 74.6398 109.274C74.7998 108.997 75.0185 108.784 75.2958 108.634C75.5838 108.474 75.9145 108.394 76.2878 108.394C76.7998 108.394 77.1892 108.549 77.4558 108.858C77.7225 109.168 77.8558 109.626 77.8558 110.234Z" fill="white"/>
<defs>
<clipPath id="clip0">
<rect width="70.1052" height="93.6983" fill="white" transform="translate(5.39355)"/>
</clipPath>
</defs>
</svg>
