<svg width="69" height="89" viewBox="0 0 69 89" fill="none" xmlns="http://www.w3.org/2000/svg">
<g clip-path="url(#clip0)">
<path d="M39.9492 41.8326C37.5645 41.8326 36.2248 43.0217 34.698 43.0421C34.676 43.0421 34.6539 43.0421 34.6319 43.0421C32.1998 43.0421 29.5492 41.2444 28.6973 39.0066C27.5549 36.0044 29.7744 33.2142 31.9203 30.515C34.0671 27.815 35.8023 25.064 35.2442 21.9401C35.0706 20.9663 33.3761 17.6969 33.0263 15.4412C32.6342 12.9165 34.2424 10.2276 33.9485 8.07919C33.6547 5.93076 32.1464 4.55778 31.4529 3.22906C30.175 0.781019 25.6749 -0.484712 23.8897 0.889972C21.5474 2.69366 24.9729 8.20091 22.3214 10.809C20.2221 12.8748 17.0253 10.4515 14.942 12.4935C12.4896 14.8973 15.9362 19.2197 13.2814 23.9098C11.7181 26.6727 9.90332 26.2667 9.131 28.8697C8.31296 31.6276 10.2023 32.5809 10.2378 36.9178C10.2675 40.526 8.96587 40.789 9.0387 44.4977C9.07935 46.5176 9.14625 49.9147 11.2532 51.7958C14.2366 54.4601 18.7316 51.8546 20.0154 53.7612C21.6287 56.1557 14.8192 62.0928 16.3258 64.4293C17.1023 65.6346 19.3287 64.6736 25.3649 64.242C31.082 63.8335 35.4296 63.5228 40.4921 64.7102C43.583 65.4346 46.1794 66.5394 46.7646 65.6457C47.4294 64.6293 44.5391 62.4869 45.1963 60.4985C45.933 58.27 50.1901 59.0719 51.0073 57.2231C54.1601 49.501 46.0533 45.6664 44.6704 44.5641C43.2875 43.4626 42.3339 41.8326 39.9492 41.8326Z" fill="white"/>
<path d="M35.5369 15.0465C35.7994 16.7362 36.3092 17.492 36.8503 18.293C37.3711 19.065 37.9614 19.9392 38.2307 21.4467C38.9928 25.7103 36.2897 29.1092 33.9059 32.1079C32.0504 34.4411 30.4482 36.4559 31.0715 38.0927C31.5965 39.4725 33.3757 40.4871 34.6341 40.4871C34.6443 40.4871 34.6553 40.4871 34.6655 40.4871C35.3497 40.4778 35.8036 40.1688 36.548 39.6232C37.3237 39.0546 38.2899 38.3464 39.7203 38.2783C39.7965 38.2749 39.8718 38.2732 39.9472 38.2732C41.9551 38.2732 43.6953 40.2258 46.1749 40.2258C48.845 40.2258 56.8967 38.0723 57.8359 33.7346C58.8351 29.1202 50.8935 24.7757 52.5787 18.762C53.102 16.8945 53.9912 16.8775 54.3308 14.9257C55.0515 10.7829 52.052 5.07307 48.0583 4.07036C43.6521 2.96465 38.6092 6.82994 37.1382 8.71023C35.962 10.2109 35.2312 13.0752 35.5369 15.0465Z" fill="white"/>
<path d="M31.943 30.48C30.9285 31.756 29.897 33.0523 29.2128 34.3828C29.2848 29.5505 33.8874 26.5475 32.938 21.3543C32.2673 17.6874 29.4999 17.2014 29.8615 13.6604C30.1519 10.8208 32.0387 9.64272 31.4357 7.40578C30.7286 4.78239 27.3955 3.6571 26.7857 3.45111C25.3918 2.9804 24.0894 2.94806 23.041 3.06893C23.0563 2.14027 23.262 1.35461 23.9116 0.854962C25.6967 -0.519722 30.1968 0.745158 31.4756 3.19405C32.1691 4.52277 33.6765 5.89575 33.9703 8.04417C34.2642 10.1926 32.6569 12.8815 33.0481 15.4062C33.3987 17.6619 35.0924 20.9313 35.266 21.9051C35.8241 25.0281 34.0897 27.7792 31.943 30.48Z" fill="white"/>
<path d="M57.9874 33.6994C57.73 34.8902 56.9356 35.9168 55.8635 36.779C56.4411 35.5984 56.7798 34.2927 56.6028 32.9291C56.4462 31.717 55.9812 31.219 54.4569 28.7591C51.2669 23.6093 49.4411 20.9544 49.8789 18.8366C50.3879 16.3741 52.2721 15.6804 52.1679 13.2281C51.985 8.92019 47.65 6.71984 46.8743 6.32659C45.0011 5.37495 43.1381 5.17407 41.5977 5.26345C43.6038 4.18413 45.9877 3.47763 48.2098 4.03517C52.2026 5.03703 55.2022 10.7477 54.4823 14.8905C54.1428 16.8423 53.2527 16.8593 52.7294 18.7268C51.045 24.7405 58.9858 29.0851 57.9874 33.6994Z" fill="white"/>
</g>
<path d="M1.5702 74.2V84H6.6102V82.88H2.7602V74.2H1.5702ZM7.24293 80.78C7.24293 81.424 7.3876 82.0027 7.67693 82.516C7.9756 83.02 8.37693 83.4167 8.88093 83.706C9.38493 83.9953 9.9496 84.14 10.5749 84.14C11.2096 84.14 11.7743 83.9953 12.2689 83.706C12.7729 83.4167 13.1696 83.02 13.4589 82.516C13.7576 82.0027 13.9069 81.424 13.9069 80.78C13.9069 80.1267 13.7576 79.548 13.4589 79.044C13.1696 78.54 12.7729 78.1433 12.2689 77.854C11.7743 77.5647 11.2096 77.42 10.5749 77.42C9.9496 77.42 9.38493 77.5647 8.88093 77.854C8.37693 78.1433 7.9756 78.54 7.67693 79.044C7.3876 79.548 7.24293 80.1267 7.24293 80.78ZM8.37693 80.78C8.37693 80.332 8.47026 79.9353 8.65693 79.59C8.85293 79.2353 9.11426 78.96 9.44093 78.764C9.77693 78.568 10.1549 78.47 10.5749 78.47C10.9949 78.47 11.3683 78.568 11.6949 78.764C12.0309 78.96 12.2923 79.2353 12.4789 79.59C12.6749 79.9353 12.7729 80.332 12.7729 80.78C12.7729 81.228 12.6749 81.6247 12.4789 81.97C12.2923 82.3153 12.0309 82.5907 11.6949 82.796C11.3683 82.992 10.9949 83.09 10.5749 83.09C10.1549 83.09 9.77693 82.992 9.44093 82.796C9.11426 82.5907 8.85293 82.3153 8.65693 81.97C8.47026 81.6247 8.37693 81.228 8.37693 80.78ZM15.3755 73.08V84H16.4955V73.08H15.3755ZM18.8755 77.56L16.0755 80.22L19.1555 84H20.5555L17.4755 80.22L20.2755 77.56H18.8755ZM22.1155 82.012C22.1155 81.7787 22.1715 81.578 22.2835 81.41C22.3955 81.242 22.5635 81.1113 22.7875 81.018C23.0209 80.9247 23.3195 80.878 23.6835 80.878C24.0755 80.878 24.4442 80.9293 24.7895 81.032C25.1349 81.1253 25.4709 81.284 25.7975 81.508V80.85C25.7322 80.766 25.6062 80.6587 25.4195 80.528C25.2329 80.388 24.9809 80.2667 24.6635 80.164C24.3555 80.052 23.9682 79.996 23.5015 79.996C22.9789 79.996 22.5262 80.0847 22.1435 80.262C21.7702 80.43 21.4809 80.668 21.2755 80.976C21.0795 81.284 20.9815 81.648 20.9815 82.068C20.9815 82.5067 21.0842 82.88 21.2895 83.188C21.4949 83.496 21.7655 83.734 22.1015 83.902C22.4469 84.0607 22.8155 84.14 23.2075 84.14C23.5622 84.14 23.9169 84.0747 24.2715 83.944C24.6355 83.8133 24.9389 83.6127 25.1815 83.342C25.4335 83.0713 25.5595 82.7307 25.5595 82.32L25.3355 81.48C25.3355 81.816 25.2515 82.1147 25.0835 82.376C24.9249 82.628 24.7055 82.824 24.4255 82.964C24.1549 83.104 23.8469 83.174 23.5015 83.174C23.2309 83.174 22.9882 83.132 22.7735 83.048C22.5682 82.9547 22.4049 82.8193 22.2835 82.642C22.1715 82.4647 22.1155 82.2547 22.1155 82.012ZM21.9475 79.044C22.0502 78.9693 22.1902 78.8807 22.3675 78.778C22.5449 78.6753 22.7595 78.5867 23.0115 78.512C23.2729 78.4373 23.5622 78.4 23.8795 78.4C24.0755 78.4 24.2622 78.4187 24.4395 78.456C24.6169 78.4933 24.7709 78.554 24.9015 78.638C25.0415 78.722 25.1489 78.8387 25.2235 78.988C25.2982 79.128 25.3355 79.31 25.3355 79.534V84H26.4555V79.38C26.4555 78.96 26.3482 78.6053 26.1335 78.316C25.9282 78.0267 25.6342 77.8073 25.2515 77.658C24.8782 77.4993 24.4395 77.42 23.9355 77.42C23.3382 77.42 22.8249 77.5087 22.3955 77.686C21.9755 77.8633 21.6442 78.0407 21.4015 78.218L21.9475 79.044ZM28.3518 73.08V84H29.4718V73.08H28.3518ZM31.5783 74.9C31.5783 75.1053 31.653 75.2873 31.8023 75.446C31.961 75.5953 32.143 75.67 32.3483 75.67C32.563 75.67 32.745 75.5953 32.8943 75.446C33.0437 75.2873 33.1183 75.1053 33.1183 74.9C33.1183 74.6853 33.0437 74.5033 32.8943 74.354C32.745 74.2047 32.563 74.13 32.3483 74.13C32.143 74.13 31.961 74.2047 31.8023 74.354C31.653 74.5033 31.5783 74.6853 31.5783 74.9ZM31.7883 77.56V84H32.9083V77.56H31.7883ZM35.481 82.026L34.599 82.572C34.7204 82.824 34.8977 83.0713 35.131 83.314C35.3737 83.5567 35.6677 83.7573 36.013 83.916C36.3584 84.0653 36.7457 84.14 37.175 84.14C37.6137 84.14 37.9964 84.056 38.323 83.888C38.659 83.7107 38.9204 83.4773 39.107 83.188C39.2937 82.8893 39.387 82.5533 39.387 82.18C39.387 81.7973 39.2937 81.4847 39.107 81.242C38.9297 80.9993 38.687 80.794 38.379 80.626C38.071 80.4487 37.7304 80.2853 37.357 80.136C37.133 80.0427 36.9184 79.9447 36.713 79.842C36.5077 79.7393 36.3397 79.6227 36.209 79.492C36.0784 79.3613 36.013 79.212 36.013 79.044C36.013 78.8293 36.097 78.6707 36.265 78.568C36.433 78.4653 36.6337 78.414 36.867 78.414C37.203 78.414 37.5017 78.4933 37.763 78.652C38.0337 78.8107 38.2577 79.0113 38.435 79.254L39.331 78.68C39.2004 78.4373 39.0184 78.2227 38.785 78.036C38.5517 77.8493 38.281 77.7 37.973 77.588C37.6744 77.476 37.3524 77.42 37.007 77.42C36.6617 77.42 36.3257 77.4807 35.999 77.602C35.6817 77.7233 35.4204 77.91 35.215 78.162C35.019 78.414 34.921 78.7313 34.921 79.114C34.921 79.4873 35.0144 79.8 35.201 80.052C35.397 80.2947 35.635 80.4953 35.915 80.654C36.2044 80.8033 36.489 80.934 36.769 81.046C37.021 81.1393 37.259 81.242 37.483 81.354C37.707 81.4567 37.889 81.5873 38.029 81.746C38.1784 81.8953 38.253 82.082 38.253 82.306C38.253 82.558 38.1597 82.7587 37.973 82.908C37.7957 83.048 37.5484 83.118 37.231 83.118C36.9697 83.118 36.727 83.0713 36.503 82.978C36.2884 82.8753 36.097 82.74 35.929 82.572C35.761 82.404 35.6117 82.222 35.481 82.026ZM41.3655 82.012C41.3655 81.7787 41.4215 81.578 41.5335 81.41C41.6455 81.242 41.8135 81.1113 42.0375 81.018C42.2709 80.9247 42.5695 80.878 42.9335 80.878C43.3255 80.878 43.6942 80.9293 44.0395 81.032C44.3849 81.1253 44.7209 81.284 45.0475 81.508V80.85C44.9822 80.766 44.8562 80.6587 44.6695 80.528C44.4829 80.388 44.2309 80.2667 43.9135 80.164C43.6055 80.052 43.2182 79.996 42.7515 79.996C42.2289 79.996 41.7762 80.0847 41.3935 80.262C41.0202 80.43 40.7309 80.668 40.5255 80.976C40.3295 81.284 40.2315 81.648 40.2315 82.068C40.2315 82.5067 40.3342 82.88 40.5395 83.188C40.7449 83.496 41.0155 83.734 41.3515 83.902C41.6969 84.0607 42.0655 84.14 42.4575 84.14C42.8122 84.14 43.1669 84.0747 43.5215 83.944C43.8855 83.8133 44.1889 83.6127 44.4315 83.342C44.6835 83.0713 44.8095 82.7307 44.8095 82.32L44.5855 81.48C44.5855 81.816 44.5015 82.1147 44.3335 82.376C44.1749 82.628 43.9555 82.824 43.6755 82.964C43.4049 83.104 43.0969 83.174 42.7515 83.174C42.4809 83.174 42.2382 83.132 42.0235 83.048C41.8182 82.9547 41.6549 82.8193 41.5335 82.642C41.4215 82.4647 41.3655 82.2547 41.3655 82.012ZM41.1975 79.044C41.3002 78.9693 41.4402 78.8807 41.6175 78.778C41.7949 78.6753 42.0095 78.5867 42.2615 78.512C42.5229 78.4373 42.8122 78.4 43.1295 78.4C43.3255 78.4 43.5122 78.4187 43.6895 78.456C43.8669 78.4933 44.0209 78.554 44.1515 78.638C44.2915 78.722 44.3989 78.8387 44.4735 78.988C44.5482 79.128 44.5855 79.31 44.5855 79.534V84H45.7055V79.38C45.7055 78.96 45.5982 78.6053 45.3835 78.316C45.1782 78.0267 44.8842 77.8073 44.5015 77.658C44.1282 77.4993 43.6895 77.42 43.1855 77.42C42.5882 77.42 42.0749 77.5087 41.6455 77.686C41.2255 77.8633 40.8942 78.0407 40.6515 78.218L41.1975 79.044ZM46.6218 77.56V78.61H49.8418V77.56H46.6218ZM47.6718 75.32V84H48.7918V75.32H47.6718ZM50.965 74.9C50.965 75.1053 51.0397 75.2873 51.189 75.446C51.3477 75.5953 51.5297 75.67 51.735 75.67C51.9497 75.67 52.1317 75.5953 52.281 75.446C52.4304 75.2873 52.505 75.1053 52.505 74.9C52.505 74.6853 52.4304 74.5033 52.281 74.354C52.1317 74.2047 51.9497 74.13 51.735 74.13C51.5297 74.13 51.3477 74.2047 51.189 74.354C51.0397 74.5033 50.965 74.6853 50.965 74.9ZM51.175 77.56V84H52.295V77.56H51.175ZM54.0418 80.78C54.0418 81.424 54.1864 82.0027 54.4758 82.516C54.7744 83.02 55.1758 83.4167 55.6798 83.706C56.1838 83.9953 56.7484 84.14 57.3738 84.14C58.0084 84.14 58.5731 83.9953 59.0678 83.706C59.5718 83.4167 59.9684 83.02 60.2578 82.516C60.5564 82.0027 60.7058 81.424 60.7058 80.78C60.7058 80.1267 60.5564 79.548 60.2578 79.044C59.9684 78.54 59.5718 78.1433 59.0678 77.854C58.5731 77.5647 58.0084 77.42 57.3738 77.42C56.7484 77.42 56.1838 77.5647 55.6798 77.854C55.1758 78.1433 54.7744 78.54 54.4758 79.044C54.1864 79.548 54.0418 80.1267 54.0418 80.78ZM55.1758 80.78C55.1758 80.332 55.2691 79.9353 55.4558 79.59C55.6518 79.2353 55.9131 78.96 56.2398 78.764C56.5758 78.568 56.9538 78.47 57.3738 78.47C57.7938 78.47 58.1671 78.568 58.4938 78.764C58.8298 78.96 59.0911 79.2353 59.2778 79.59C59.4738 79.9353 59.5718 80.332 59.5718 80.78C59.5718 81.228 59.4738 81.6247 59.2778 81.97C59.0911 82.3153 58.8298 82.5907 58.4938 82.796C58.1671 82.992 57.7938 83.09 57.3738 83.09C56.9538 83.09 56.5758 82.992 56.2398 82.796C55.9131 82.5907 55.6518 82.3153 55.4558 81.97C55.2691 81.6247 55.1758 81.228 55.1758 80.78ZM66.3743 80.08V84H67.4943V79.94C67.4943 79.4173 67.401 78.9693 67.2143 78.596C67.037 78.2227 66.785 77.9333 66.4583 77.728C66.1317 77.5227 65.7397 77.42 65.2823 77.42C64.8623 77.42 64.489 77.5133 64.1623 77.7C63.845 77.8867 63.579 78.176 63.3643 78.568V77.56H62.2443V84H63.3643V80.08C63.3643 79.7627 63.4297 79.4827 63.5603 79.24C63.7003 78.9973 63.8917 78.8107 64.1343 78.68C64.3863 78.54 64.6757 78.47 65.0023 78.47C65.301 78.47 65.553 78.5307 65.7583 78.652C65.9637 78.7733 66.1177 78.9553 66.2203 79.198C66.323 79.4313 66.3743 79.7253 66.3743 80.08Z" fill="white"/>
<defs>
<clipPath id="clip0">
<rect x="8.92578" y="0.289062" width="49.1489" height="65.6894" rx="5" fill="white"/>
</clipPath>
</defs>
</svg>
