<svg width="74" height="85" viewBox="0 0 74 85" fill="none" xmlns="http://www.w3.org/2000/svg">
<path d="M42.4185 31.8181C42.3195 32.2008 42.2094 32.5836 42.0913 32.9663C41.8913 33.6086 41.6772 34.2427 41.448 34.8678C41.4218 34.9395 41.3955 35.0102 41.3682 35.0809C41.1057 35.7828 40.8229 36.4735 40.519 37.1521C40.0201 38.268 39.4627 39.3536 38.8406 40.4079C38.2922 41.3399 37.6924 42.2468 37.039 43.1304C35.1304 45.7095 32.6028 47.8938 29.6661 49.1481C29.0784 49.3995 28.4745 49.6136 27.8555 49.7853C24.1463 50.8163 19.906 50.2094 16.9229 47.7757C13.9398 45.341 13.0703 41.2541 13.0703 37.4036C13.0703 33.961 14.6366 31.0829 16.8704 29.4773C17.7752 28.8269 19.0991 28.5048 20.4725 28.214C20.8067 28.1423 21.144 28.0736 21.4783 28.0009C22.9678 27.6828 24.4099 27.3132 25.3399 26.5194C25.4632 26.4134 25.5783 26.3003 25.6823 26.1791C25.7116 26.1458 25.7398 26.1115 25.7681 26.0771C27.7747 23.6707 28.2645 20.6027 30.1983 18.1205C30.9123 17.2056 32.3099 16.1301 33.343 15.601C37.9348 13.246 42.3246 16.736 43.0688 21.5884C43.5061 24.4321 43.394 28.0998 42.4185 31.8181Z" fill="white"/>
<path d="M24.5288 25.084L21.478 28.0035C21.1438 28.0762 20.8065 28.1448 20.4722 28.2165C18.9736 25.6677 16.3329 21.1789 14.8878 18.7361C12.7923 15.1936 12.1814 8.09535 11.7724 6.13322C11.5159 4.9002 11.0312 4.26197 10.5636 3.69444L9.84055 2.72499C9.83348 2.71287 9.8254 2.70075 9.81833 2.68964L9.8153 2.68459C9.62343 2.30994 9.67796 1.8545 9.96072 1.54246C10.2112 1.26576 10.5303 0.967855 10.9292 0.689138H10.9302C10.9867 0.649754 11.0443 0.611379 11.1008 0.575025C11.3371 0.421528 11.5684 0.297317 11.7885 0.195323C11.8926 0.14685 11.9945 0.103426 12.0915 0.0650523C12.0945 0.0640425 12.0976 0.0620228 12.1006 0.0610129C12.5378 -0.112681 13.0327 0.0973674 13.2215 0.527562C13.373 0.873939 13.5457 1.26071 13.6537 1.47884C13.89 1.95851 14.089 2.68964 14.1132 2.84415C14.296 4.00143 14.0607 4.66793 14.1879 5.0032C14.3162 5.33746 17.888 13.8363 19.2594 15.9742C20.1359 17.3395 22.7535 21.9403 24.5288 25.084Z" fill="white"/>
<path d="M9.84082 2.72656L10.5639 3.69602C10.3033 3.38094 10.0488 3.08809 9.84082 2.72656Z" fill="white"/>
<path d="M26.2672 28.1751L21.5896 30.118C21.5896 30.118 21.2674 29.5697 20.7544 28.6982C20.6666 28.5477 20.5717 28.3871 20.4717 28.2185C20.8059 28.1468 21.1432 28.0781 21.4775 28.0054L24.5282 25.0859C24.8261 25.6141 25.1008 26.1008 25.3391 26.524C25.9036 27.5267 26.2672 28.1751 26.2672 28.1751Z" fill="white"/>
<path d="M65.1452 15.0045C65.0725 15.1236 64.9917 15.2559 64.8988 15.3953C64.8948 15.4024 64.8907 15.4094 64.8857 15.4165C64.8322 15.4973 64.7756 15.5801 64.715 15.6649C64.503 15.9598 64.2485 16.2668 63.9465 16.5394C63.0973 17.3059 61.839 18.5844 61.839 18.5844C61.5532 19.0883 60.1435 21.7523 58.5348 24.7707C58.5368 24.7727 54.8983 30.6743 54.6489 30.9045C54.3651 31.1681 50.8761 33.7604 47.7425 36.077C45.0978 38.032 42.7064 39.7912 42.7064 39.7912L41.3674 35.0863V35.0853L41.332 34.9601L41.4472 34.8732V34.8722L45.5279 31.7811L51.5123 27.2469C51.7001 26.9924 53.6269 24.6031 55.383 22.1926C55.384 22.1936 55.3841 22.1936 55.3841 22.1936C56.4121 20.6909 59.7415 16.5687 59.7486 16.2678C59.7547 15.9517 60.1202 14.7934 60.8453 13.7361C60.8938 13.6654 60.9635 13.5665 61.0584 13.4311C61.0594 13.4301 61.0604 13.4291 61.0604 13.4271C61.1392 13.315 61.2351 13.1767 61.3482 13.008C61.3492 13.007 61.3492 13.006 61.3502 13.006C61.736 12.5405 62.2692 12.1719 62.6459 11.9648C63.4961 13.007 64.0425 14.1905 65.1341 14.9964C65.1382 14.9994 65.1412 15.0015 65.1452 15.0045Z" fill="white"/>
<path d="M33.0791 39.1216C33.0791 39.1216 34.1051 34.954 44.9963 30.75L48.1198 36.8081C47.1917 37.5614 46.098 38.3612 44.8327 39.1449C43.6158 39.8982 42.4565 40.5031 41.4043 40.9878C38.6292 40.3658 35.8542 39.7437 33.0791 39.1216Z" fill="white"/>
<path d="M32.7675 32.2646C32.7675 32.2646 28.3504 31.9839 26.6034 33.8844C24.8563 35.7849 30.4792 50.8215 30.7973 53.2401C30.8647 53.7531 30.7863 54.3743 30.6209 55.0347C31.0465 56.7497 36.0358 57.2175 36.0358 57.2175C36.0358 57.2175 38.0626 57.3734 40.2454 56.7497C40.2454 56.7497 41.1809 56.5938 43.0335 54.2551C42.8752 49.2055 42.6777 43.9541 42.5196 43.0922C42.2015 41.3643 39.5547 34.3368 38.9185 33.6461C38.2823 32.9553 32.7675 32.2646 32.7675 32.2646Z" fill="white"/>
<path d="M34.2386 26.3753C34.2386 26.3753 34.2154 26.5056 34.175 26.7257C33.978 27.785 33.2197 31.3013 32.7077 32.2678C32.0886 33.4361 34.8273 37.1605 37.463 36.706C38.2477 36.5707 36.7996 33.2837 36.8692 32.9353C37.0025 32.2688 37.1833 31.3589 37.3681 30.4268C37.4721 29.9007 37.5781 29.3675 37.6771 28.8666C37.9589 27.4417 38.1891 26.2773 38.1891 26.2773L34.2386 26.3753Z" fill="white"/>
<path d="M34.1739 26.7257C34.2153 26.5046 34.2375 26.3753 34.2375 26.3753L38.187 26.2773C38.187 26.2773 37.9568 27.4427 37.675 28.8666C37.5761 29.3655 37.471 29.8956 37.368 30.4187C36.7581 30.3288 36.1209 30.033 35.4826 29.4755C34.7858 28.8666 34.3294 28.1355 34.0537 27.3549C34.1022 27.1044 34.1436 26.8893 34.1739 26.7257Z" fill="white"/>
<path d="M36.8973 17.4169C36.8973 17.4169 35.0351 17.2018 33.8687 18.7085C32.7014 20.2151 31.4441 24.8726 34.3434 27.4053C37.2426 29.938 40.1066 27.071 40.5317 24.0314C40.9548 20.9917 41.1205 17.3068 36.8973 17.4169Z" fill="white"/>
<path d="M41.3877 23.9888C41.0413 24.6604 40.4607 25.032 40.0901 24.8189C39.7195 24.6058 39.7003 23.8899 40.0456 23.2183C40.392 22.5468 40.9727 22.1751 41.3433 22.3882C41.7139 22.6003 41.7331 23.3173 41.3877 23.9888Z" fill="white"/>
<path d="M37.1054 16.918C37.1054 16.918 34.6181 21.3482 32.8388 21.5522C31.0594 21.7572 30.8262 24.1101 30.8262 24.1101C30.8262 24.1101 31.4624 18.6862 33.2235 17.64C34.9847 16.5959 37.1054 16.918 37.1054 16.918Z" fill="white"/>
<path d="M33.3052 22.6676C33.4496 23.4542 33.1587 24.1753 32.6548 24.2793C32.1509 24.3823 31.6258 23.8289 31.4804 23.0422C31.336 22.2556 31.6268 21.5345 32.1307 21.4305C32.6346 21.3265 33.1608 21.8809 33.3052 22.6676Z" fill="white"/>
<path d="M28.4377 41.0212C28.057 41.0465 27.6056 40.795 27.1138 40.3487C24.3428 37.8342 20.2842 29.1444 20.2842 29.1444L20.7548 28.6941L21.4778 28.0013L24.5286 25.0818L24.7073 24.9102C24.7073 24.9102 25.1284 25.3616 25.7676 26.0775C27.1027 27.5721 29.39 30.2199 30.7876 32.3133C31.2966 33.0768 31.6874 33.7655 31.8702 34.2987C32.7972 36.995 30.9663 40.8526 28.4377 41.0212Z" fill="white"/>
<path d="M17.7849 9.4721C17.8606 9.47614 17.9262 9.41857 17.9283 9.34183C17.9424 8.94092 17.9676 7.71294 17.8111 6.31229C17.5536 4.00782 16.9527 2.35268 16.0247 1.39332C15.3996 0.747021 14.6301 0.429929 13.7344 0.450126C12.4226 0.480421 11.3703 0.909606 10.6059 1.72556C8.9699 3.4726 8.8568 6.73844 8.97899 9.73466C8.98202 9.81039 9.04564 9.86796 9.12138 9.86493C9.19611 9.8619 9.25367 9.79929 9.25064 9.72456C9.13148 6.78489 9.2365 3.58671 10.8048 1.91238C11.5268 1.14086 12.4872 0.75207 13.7404 0.722785C14.5564 0.704607 15.2582 0.993424 15.8288 1.58317C17.7657 3.58671 17.6859 8.46528 17.6556 9.33274C17.6536 9.40646 17.7101 9.46806 17.7849 9.4721Z" fill="white"/>
<path d="M2.07025 7.98371L1.1311 6.78906L0.175781 32.529L2.06419 31.5848L3.61936 33.0703L2.07025 7.98371Z" fill="white"/>
<path d="M23.4989 5.52344L1.13184 6.79079L3.6201 33.072L25.1884 31.9693L23.4989 5.52344Z" fill="white"/>
<path d="M17.6956 9.74273C17.8733 9.77101 18.046 9.61347 18.0813 9.3903C18.1167 9.16813 18.0005 8.96515 17.8228 8.93688C17.6451 8.9086 17.4724 9.06614 17.437 9.28931C17.4017 9.51148 17.5168 9.71446 17.6956 9.74273Z" fill="white"/>
<path d="M9.11509 10.273C9.29484 10.2761 9.4443 10.0953 9.44733 9.8701C9.45036 9.6449 9.30696 9.4601 9.12721 9.45707C8.94746 9.45404 8.798 9.6348 8.79497 9.86C8.79194 10.0852 8.93534 10.27 9.11509 10.273Z" fill="white"/>
<path d="M17.7849 9.4721C17.8606 9.47614 17.9262 9.41857 17.9283 9.34183C17.9424 8.94092 17.9676 7.71294 17.8111 6.31229C17.5536 4.00782 16.9527 2.35268 16.0247 1.39332C15.3996 0.747021 14.6301 0.429929 13.7344 0.450126C12.4226 0.480421 11.3703 0.909606 10.6059 1.72556C8.9699 3.4726 8.8568 6.73844 8.97899 9.73466C8.98202 9.81039 9.04564 9.86796 9.12138 9.86493C9.19611 9.8619 9.25367 9.79929 9.25064 9.72456C9.13148 6.78489 9.2365 3.58671 10.8048 1.91238C11.5268 1.14086 12.4872 0.75207 13.7404 0.722785C14.5564 0.704607 15.2582 0.993424 15.8288 1.58317C17.7657 3.58671 17.6859 8.46528 17.6556 9.33274C17.6536 9.40646 17.7101 9.46806 17.7849 9.4721Z" fill="white"/>
<path d="M66.4888 20.3834C66.5575 20.3875 66.6151 20.3349 66.6181 20.2663C66.6312 19.9058 66.6534 18.802 66.5131 17.5437C66.2818 15.4715 65.7415 13.984 64.9074 13.1216C64.3459 12.5409 63.6532 12.2552 62.8493 12.2743C61.6709 12.3016 60.7246 12.6874 60.0369 13.4205C58.5666 14.9908 58.4646 17.9275 58.5737 20.6197C58.5767 20.6874 58.6342 20.7399 58.7009 20.7369C58.7686 20.7338 58.8201 20.6773 58.817 20.6106C58.71 17.9679 58.8049 15.0928 60.2136 13.5871C60.863 12.8934 61.7264 12.544 62.8524 12.5177C63.5855 12.5005 64.2167 12.7611 64.7297 13.2913C66.4707 15.0918 66.399 19.4776 66.3717 20.2572C66.3707 20.3238 66.4222 20.3794 66.4888 20.3834Z" fill="white"/>
<path d="M52.3628 19.0422L51.5175 17.9688L50.6592 41.1074L52.3567 40.2591L53.7544 41.5941L52.3628 19.0422Z" fill="white"/>
<path d="M71.6246 16.832L51.5176 17.9711L53.7544 41.5965L73.1434 40.6048L71.6246 16.832Z" fill="white"/>
<path d="M66.4088 20.6264C66.5683 20.6517 66.7238 20.5103 66.7551 20.3093C66.7864 20.1094 66.6824 19.9266 66.5219 19.9014C66.3613 19.8761 66.2068 20.0175 66.1755 20.2184C66.1442 20.4184 66.2482 20.6012 66.4088 20.6264Z" fill="white"/>
<path d="M58.6961 21.1043C58.8576 21.1063 58.9919 20.9447 58.995 20.7417C58.998 20.5398 58.8687 20.3731 58.7072 20.3711C58.5456 20.3691 58.4113 20.5307 58.4083 20.7336C58.4052 20.9356 58.5335 21.1022 58.6961 21.1043Z" fill="white"/>
<path d="M66.4888 20.3834C66.5575 20.3875 66.6151 20.3349 66.6181 20.2663C66.6312 19.9058 66.6534 18.802 66.5131 17.5437C66.2818 15.4715 65.7415 13.984 64.9074 13.1216C64.3459 12.5409 63.6532 12.2552 62.8493 12.2743C61.6709 12.3016 60.7246 12.6874 60.0369 13.4205C58.5666 14.9908 58.4646 17.9275 58.5737 20.6197C58.5767 20.6874 58.6342 20.7399 58.7009 20.7369C58.7686 20.7338 58.8201 20.6773 58.817 20.6106C58.71 17.9679 58.8049 15.0928 60.2136 13.5871C60.863 12.8934 61.7264 12.544 62.8524 12.5177C63.5855 12.5005 64.2167 12.7611 64.7297 13.2913C66.4707 15.0918 66.399 19.4776 66.3717 20.2572C66.3707 20.3238 66.4222 20.3794 66.4888 20.3834Z" fill="white"/>
<path d="M19.3328 22.7223C19.3591 22.7587 19.3338 22.8082 19.2884 22.8112L16.7749 22.9707C16.7537 22.9717 16.7345 22.9637 16.7234 22.9455L15.7489 21.4842C15.7327 21.457 15.7398 21.4206 15.765 21.4024L17.5828 20.1937C17.61 20.1755 17.6464 20.1826 17.6625 20.2098L19.3328 22.7223Z" fill="white"/>
<path d="M19.3787 22.974C19.4191 22.971 19.4504 23.0124 19.4362 23.0508L18.6395 25.2876C18.6314 25.3098 18.6112 25.325 18.59 25.326L15.8038 25.5027C15.7735 25.5047 15.7483 25.532 15.7503 25.5633L15.8099 26.5004C15.8129 26.555 15.7483 26.5832 15.7129 26.5449L13.669 24.5262C13.6488 24.504 13.6468 24.4706 13.664 24.4484L15.4362 22.1854C15.4665 22.145 15.5352 22.1652 15.5382 22.2197L15.5978 23.1568C15.5998 23.1871 15.6271 23.2124 15.6584 23.2104L19.3787 22.974Z" fill="white"/>
<path d="M12.2603 23.4979L12.3987 25.6752C12.4007 25.7085 12.3765 25.7337 12.3451 25.7358L9.33479 25.9266C9.28935 25.9297 9.25804 25.8842 9.27723 25.8448L10.3982 23.5878C10.4062 23.5686 10.4244 23.5575 10.4456 23.5565L12.1997 23.4454C12.23 23.4434 12.2583 23.4676 12.2603 23.4979Z" fill="white"/>
<path d="M9.09295 25.8396C9.07376 25.879 9.02226 25.884 8.996 25.8527L7.458 24.0441C7.44286 24.0259 7.43882 23.9997 7.44892 23.9805L8.688 21.4801C8.70315 21.4528 8.69103 21.4185 8.66174 21.4033L7.82054 20.9863C7.77409 20.9631 7.78116 20.8934 7.83064 20.8782L10.6037 20.1198C10.632 20.1107 10.6612 20.1259 10.6723 20.1532L11.7468 22.8181C11.767 22.8666 11.7145 22.9151 11.666 22.8919L10.8248 22.4748C10.7976 22.4596 10.7632 22.4718 10.7481 22.501L9.09295 25.8396Z" fill="white"/>
<path d="M13.0853 17.6864C13.0984 17.7026 13.0994 17.7258 13.0893 17.743L12.3097 19.3183C12.2946 19.3476 12.2602 19.3598 12.233 19.3446L10.2779 18.3752C10.2486 18.36 10.2365 18.3257 10.2517 18.2984L11.5917 15.594C11.6109 15.5546 11.6675 15.5516 11.6907 15.588L13.0853 17.6864Z" fill="white"/>
<path d="M13.0777 19.2411C13.0252 19.233 13.009 19.1643 13.0524 19.136L13.8351 18.616C13.8623 18.5978 13.8694 18.5614 13.8512 18.5342L11.7891 15.4329C11.7659 15.3986 11.7861 15.3501 11.8265 15.3431L14.1612 14.9149C14.1845 14.9109 14.2067 14.922 14.2198 14.9401L15.7649 17.2638C15.7831 17.2911 15.8194 17.2981 15.8467 17.28L16.6293 16.7599C16.6727 16.7306 16.7293 16.77 16.7162 16.8235L15.987 19.6026C15.979 19.6289 15.9517 19.648 15.9234 19.645L13.0777 19.2411Z" fill="white"/>
<path d="M9.84082 2.72367L10.2023 3.25081L13.3743 0.869591L13.0723 0.292969L10.9476 1.12609L9.84082 2.72367Z" fill="white"/>
<path d="M65.2281 14.826C65.216 14.8472 65.1715 14.9249 65.1342 14.9906C65.0463 15.1451 64.9696 15.2774 64.8989 15.3895C64.8948 15.3965 64.8908 15.4036 64.8857 15.4107C64.8252 15.5076 64.7696 15.5894 64.7151 15.6591C64.6363 15.7601 64.5606 15.8338 64.4788 15.8893C63.4831 16.5528 61.0625 15.7338 60.8686 14.3453C60.8241 14.0231 60.9049 13.7131 61.0584 13.4253C61.0594 13.4243 61.0604 13.4233 61.0604 13.4213C61.1402 13.2748 61.2382 13.1345 61.3483 13.0022C61.3493 13.0012 61.3493 13.0002 61.3503 13.0002C61.4513 12.8739 61.6007 12.7043 61.8007 12.5265C61.9441 12.3993 62.2652 12.1155 62.6459 11.959C63.1529 11.75 63.8224 11.7459 64.403 12.0287C65.1392 12.3882 65.728 13.2062 65.6209 13.8282C65.5745 14.0968 65.3483 14.6119 65.2281 14.826Z" fill="white"/>
<path d="M6.46082 70.2V80H7.65082V70.2H6.46082ZM11.5008 70.2L7.28682 74.82L11.7108 80H13.1808L8.72882 74.792L12.9708 70.2H11.5008ZM13.323 76.78C13.323 77.424 13.4677 78.0027 13.757 78.516C14.0557 79.02 14.457 79.4167 14.961 79.706C15.465 79.9953 16.0297 80.14 16.655 80.14C17.2897 80.14 17.8543 79.9953 18.349 79.706C18.853 79.4167 19.2497 79.02 19.539 78.516C19.8377 78.0027 19.987 77.424 19.987 76.78C19.987 76.1267 19.8377 75.548 19.539 75.044C19.2497 74.54 18.853 74.1433 18.349 73.854C17.8543 73.5647 17.2897 73.42 16.655 73.42C16.0297 73.42 15.465 73.5647 14.961 73.854C14.457 74.1433 14.0557 74.54 13.757 75.044C13.4677 75.548 13.323 76.1267 13.323 76.78ZM14.457 76.78C14.457 76.332 14.5503 75.9353 14.737 75.59C14.933 75.2353 15.1943 74.96 15.521 74.764C15.857 74.568 16.235 74.47 16.655 74.47C17.075 74.47 17.4483 74.568 17.775 74.764C18.111 74.96 18.3723 75.2353 18.559 75.59C18.755 75.9353 18.853 76.332 18.853 76.78C18.853 77.228 18.755 77.6247 18.559 77.97C18.3723 78.3153 18.111 78.5907 17.775 78.796C17.4483 78.992 17.075 79.09 16.655 79.09C16.235 79.09 15.857 78.992 15.521 78.796C15.1943 78.5907 14.933 78.3153 14.737 77.97C14.5503 77.6247 14.457 77.228 14.457 76.78ZM25.6556 76.08V80H26.7756V75.94C26.7756 75.4173 26.6823 74.9693 26.4956 74.596C26.3183 74.2227 26.0663 73.9333 25.7396 73.728C25.4129 73.5227 25.0209 73.42 24.5636 73.42C24.1436 73.42 23.7703 73.5133 23.4436 73.7C23.1263 73.8867 22.8603 74.176 22.6456 74.568V73.56H21.5256V80H22.6456V76.08C22.6456 75.7627 22.7109 75.4827 22.8416 75.24C22.9816 74.9973 23.1729 74.8107 23.4156 74.68C23.6676 74.54 23.9569 74.47 24.2836 74.47C24.5823 74.47 24.8343 74.5307 25.0396 74.652C25.2449 74.7733 25.3989 74.9553 25.5016 75.198C25.6043 75.4313 25.6556 75.7253 25.6556 76.08ZM29.1471 78.026L28.2651 78.572C28.3864 78.824 28.5637 79.0713 28.7971 79.314C29.0397 79.5567 29.3337 79.7573 29.6791 79.916C30.0244 80.0653 30.4117 80.14 30.8411 80.14C31.2797 80.14 31.6624 80.056 31.9891 79.888C32.3251 79.7107 32.5864 79.4773 32.7731 79.188C32.9597 78.8893 33.0531 78.5533 33.0531 78.18C33.0531 77.7973 32.9597 77.4847 32.7731 77.242C32.5957 76.9993 32.3531 76.794 32.0451 76.626C31.7371 76.4487 31.3964 76.2853 31.0231 76.136C30.7991 76.0427 30.5844 75.9447 30.3791 75.842C30.1737 75.7393 30.0057 75.6227 29.8751 75.492C29.7444 75.3613 29.6791 75.212 29.6791 75.044C29.6791 74.8293 29.7631 74.6707 29.9311 74.568C30.0991 74.4653 30.2997 74.414 30.5331 74.414C30.8691 74.414 31.1677 74.4933 31.4291 74.652C31.6997 74.8107 31.9237 75.0113 32.1011 75.254L32.9971 74.68C32.8664 74.4373 32.6844 74.2227 32.4511 74.036C32.2177 73.8493 31.9471 73.7 31.6391 73.588C31.3404 73.476 31.0184 73.42 30.6731 73.42C30.3277 73.42 29.9917 73.4807 29.6651 73.602C29.3477 73.7233 29.0864 73.91 28.8811 74.162C28.6851 74.414 28.5871 74.7313 28.5871 75.114C28.5871 75.4873 28.6804 75.8 28.8671 76.052C29.0631 76.2947 29.3011 76.4953 29.5811 76.654C29.8704 76.8033 30.1551 76.934 30.4351 77.046C30.6871 77.1393 30.9251 77.242 31.1491 77.354C31.3731 77.4567 31.5551 77.5873 31.6951 77.746C31.8444 77.8953 31.9191 78.082 31.9191 78.306C31.9191 78.558 31.8257 78.7587 31.6391 78.908C31.4617 79.048 31.2144 79.118 30.8971 79.118C30.6357 79.118 30.3931 79.0713 30.1691 78.978C29.9544 78.8753 29.7631 78.74 29.5951 78.572C29.4271 78.404 29.2777 78.222 29.1471 78.026ZM35.6475 77.48V73.56H34.5275V77.62C34.5275 78.1333 34.6162 78.5813 34.7935 78.964C34.9802 79.3373 35.2369 79.6267 35.5635 79.832C35.8995 80.0373 36.2915 80.14 36.7395 80.14C37.1689 80.14 37.5422 80.0467 37.8595 79.86C38.1769 79.664 38.4429 79.3747 38.6575 78.992V80H39.7775V73.56H38.6575V77.48C38.6575 77.7973 38.5875 78.0773 38.4475 78.32C38.3169 78.5627 38.1255 78.754 37.8735 78.894C37.6309 79.0247 37.3462 79.09 37.0195 79.09C36.7209 79.09 36.4689 79.0293 36.2635 78.908C36.0582 78.7773 35.9042 78.5953 35.8015 78.362C35.6989 78.1193 35.6475 77.8253 35.6475 77.48ZM50.703 75.94C50.703 75.408 50.619 74.9553 50.451 74.582C50.2923 74.1993 50.059 73.91 49.751 73.714C49.443 73.518 49.0697 73.42 48.631 73.42C48.2017 73.42 47.819 73.5227 47.483 73.728C47.147 73.924 46.867 74.2227 46.643 74.624C46.5497 74.3627 46.4097 74.1433 46.223 73.966C46.0457 73.7887 45.8357 73.6533 45.593 73.56C45.3503 73.4667 45.0797 73.42 44.781 73.42C44.5197 73.42 44.277 73.462 44.053 73.546C43.829 73.6207 43.6283 73.7373 43.451 73.896C43.283 74.0547 43.1337 74.2553 43.003 74.498V73.56H41.883V80H43.003V76.08C43.003 75.744 43.0637 75.4547 43.185 75.212C43.3063 74.9693 43.479 74.7873 43.703 74.666C43.927 74.5353 44.193 74.47 44.501 74.47C44.781 74.47 45.0097 74.5307 45.187 74.652C45.3737 74.764 45.509 74.9367 45.593 75.17C45.6863 75.4033 45.733 75.7067 45.733 76.08V80H46.853V76.08C46.853 75.744 46.9137 75.4547 47.035 75.212C47.1563 74.9693 47.329 74.7873 47.553 74.666C47.777 74.5353 48.043 74.47 48.351 74.47C48.631 74.47 48.8597 74.5307 49.037 74.652C49.2237 74.764 49.359 74.9367 49.443 75.17C49.5363 75.4033 49.583 75.7067 49.583 76.08V80H50.703V75.94ZM53.3108 78.012C53.3108 77.7787 53.3668 77.578 53.4788 77.41C53.5908 77.242 53.7588 77.1113 53.9828 77.018C54.2162 76.9247 54.5148 76.878 54.8788 76.878C55.2708 76.878 55.6395 76.9293 55.9848 77.032C56.3302 77.1253 56.6662 77.284 56.9928 77.508V76.85C56.9275 76.766 56.8015 76.6587 56.6148 76.528C56.4282 76.388 56.1762 76.2667 55.8588 76.164C55.5508 76.052 55.1635 75.996 54.6968 75.996C54.1742 75.996 53.7215 76.0847 53.3388 76.262C52.9655 76.43 52.6762 76.668 52.4708 76.976C52.2748 77.284 52.1768 77.648 52.1768 78.068C52.1768 78.5067 52.2795 78.88 52.4848 79.188C52.6902 79.496 52.9608 79.734 53.2968 79.902C53.6422 80.0607 54.0108 80.14 54.4028 80.14C54.7575 80.14 55.1122 80.0747 55.4668 79.944C55.8308 79.8133 56.1342 79.6127 56.3768 79.342C56.6288 79.0713 56.7548 78.7307 56.7548 78.32L56.5308 77.48C56.5308 77.816 56.4468 78.1147 56.2788 78.376C56.1202 78.628 55.9008 78.824 55.6208 78.964C55.3502 79.104 55.0422 79.174 54.6968 79.174C54.4262 79.174 54.1835 79.132 53.9688 79.048C53.7635 78.9547 53.6002 78.8193 53.4788 78.642C53.3668 78.4647 53.3108 78.2547 53.3108 78.012ZM53.1428 75.044C53.2455 74.9693 53.3855 74.8807 53.5628 74.778C53.7402 74.6753 53.9548 74.5867 54.2068 74.512C54.4682 74.4373 54.7575 74.4 55.0748 74.4C55.2708 74.4 55.4575 74.4187 55.6348 74.456C55.8122 74.4933 55.9662 74.554 56.0968 74.638C56.2368 74.722 56.3442 74.8387 56.4188 74.988C56.4935 75.128 56.5308 75.31 56.5308 75.534V80H57.6508V75.38C57.6508 74.96 57.5435 74.6053 57.3288 74.316C57.1235 74.0267 56.8295 73.8073 56.4468 73.658C56.0735 73.4993 55.6348 73.42 55.1308 73.42C54.5335 73.42 54.0202 73.5087 53.5908 73.686C53.1708 73.8633 52.8395 74.0407 52.5968 74.218L53.1428 75.044ZM60.6671 73.56H59.5471V80H60.6671V73.56ZM62.6131 74.792L63.2291 73.868C63.0611 73.6907 62.8744 73.574 62.6691 73.518C62.4731 73.4527 62.2584 73.42 62.0251 73.42C61.7264 73.42 61.4324 73.5367 61.1431 73.77C60.8537 74.0033 60.6157 74.3207 60.4291 74.722C60.2517 75.114 60.1631 75.5667 60.1631 76.08H60.6671C60.6671 75.772 60.6951 75.4967 60.7511 75.254C60.8164 75.0113 60.9284 74.82 61.0871 74.68C61.2457 74.54 61.4651 74.47 61.7451 74.47C61.9317 74.47 62.0857 74.498 62.2071 74.554C62.3284 74.6007 62.4637 74.68 62.6131 74.792ZM63.3659 73.56V74.61H66.5859V73.56H63.3659ZM64.4159 71.32V80H65.5359V71.32H64.4159Z" fill="white"/>
</svg>
