<svg width="479" height="425" viewBox="0 0 479 425" fill="none" xmlns="http://www.w3.org/2000/svg">
<g filter="url(#filter0_d)">
<path d="M66.4099 31.2248L397.693 119.507C426.113 127.991 442.311 158.145 433.678 186.506L409.818 265.043C401.234 293.404 370.05 314.201 340.564 311.244L328.779 310.081L283.968 386C283.968 386 287.341 351.323 283.968 334.269C280.594 317.215 268.594 304.118 268.594 304.118L114.47 288.75C84.9843 285.792 55.6921 259.71 49.3874 230.768L26.2544 68.4573C19.9497 39.4664 38.0391 22.6924 66.4099 31.2248Z" fill="url(#paint0_linear)"/>
</g>
<g filter="url(#filter1_d)">
<rect x="131.814" y="40" width="208.706" height="45" rx="5" transform="rotate(10 131.814 40)" fill="url(#paint1_linear)"/>
<rect x="131.814" y="40" width="208.706" height="45" rx="5" transform="rotate(10 131.814 40)" stroke="url(#paint2_linear)" stroke-width="3"/>
</g>
<path d="M149.851 57.3834L148.16 56.7561L148.429 55.2925L155.605 56.6087L155.337 58.0723L153.298 58.0155L152.211 63.9406L159.387 65.2569L160.474 59.3317L158.712 58.6914L158.981 57.2278L166.063 58.5267L165.794 59.9903L163.944 59.9681L161.355 74.0847L163.106 74.6498L162.846 76.0662L155.74 74.7629L156 73.3466L157.885 73.4482L159.058 67.0509L151.882 65.7347L150.708 72.132L152.648 72.7318L152.388 74.1481L145.165 72.8233L145.425 71.4069L147.262 71.4999L149.851 57.3834ZM172.193 78.0488C169.627 77.5784 167.855 76.4236 166.874 74.5846C165.894 72.7456 165.658 70.4411 166.166 67.6714C166.498 65.8615 167.12 64.3327 168.032 63.0847C168.96 61.8397 170.097 60.9585 171.445 60.4411C172.792 59.9236 174.253 59.8093 175.827 60.0979C178.423 60.5742 180.225 61.7018 181.233 63.4807C182.259 65.2468 182.52 67.5069 182.015 70.261C181.68 72.0865 181.036 73.644 180.084 74.9334C179.15 76.2099 177.999 77.1212 176.63 77.6671C175.261 78.2131 173.782 78.3404 172.193 78.0488ZM175.468 61.5206C174.178 61.2839 173.053 61.7365 172.096 62.8785C171.138 64.0204 170.43 65.8426 169.971 68.3448C169.518 70.8156 169.519 72.7597 169.975 74.1772C170.449 75.5818 171.339 76.4039 172.646 76.6435C173.92 76.8773 175.042 76.3918 176.012 75.1868C176.984 73.9662 177.702 72.089 178.167 69.5553C178.617 67.1002 178.606 65.2112 178.133 63.8881C177.662 62.5493 176.774 61.7601 175.468 61.5206ZM189.934 81.3027C187.258 80.812 185.358 79.6421 184.233 77.7928C183.111 75.9278 182.804 73.6104 183.312 70.8406C183.647 69.0151 184.308 67.4934 185.296 66.2756C186.303 65.045 187.527 64.1797 188.969 63.6796C190.411 63.1795 191.958 63.081 193.61 63.3841C194.303 63.5111 194.963 63.6809 195.591 63.8937C196.222 64.0907 196.965 64.3409 197.82 64.6442C198.461 64.8756 198.813 64.997 198.876 65.0086L197.724 69.8238L195.552 69.4255L195.44 65.9156C195.298 65.7107 195.025 65.5143 194.621 65.3262C194.216 65.1381 193.683 64.9834 193.022 64.8622C191.684 64.6168 190.492 65.0407 189.446 66.1339C188.418 67.2142 187.689 68.9268 187.259 71.2717C186.844 73.5379 186.89 75.4578 187.399 77.0313C187.907 78.6049 188.901 79.5273 190.38 79.7986C191.088 79.9285 191.643 79.9652 192.044 79.9085C192.463 79.8391 192.83 79.7029 193.143 79.5002L194.628 77.2593L196.576 77.8118L195.433 81.3842C195.097 81.3551 194.755 81.3574 194.407 81.3912C194.078 81.4122 193.872 81.4233 193.791 81.4246C193.13 81.4823 192.515 81.5078 191.947 81.5012C191.392 81.5132 190.72 81.4471 189.934 81.3027ZM202.273 66.9982L200.583 66.3709L200.851 64.9073L208.028 66.2235L207.759 67.6871L205.72 67.6303L204.633 73.5555L211.81 74.8717L212.896 68.9465L211.135 68.3062L211.403 66.8427L218.485 68.1415L218.217 69.6051L216.366 69.583L213.777 83.6995L215.528 84.2646L215.268 85.681L208.163 84.3778L208.423 82.9614L210.307 83.063L211.48 76.6657L204.304 75.3495L203.131 81.7468L205.07 82.3466L204.811 83.763L197.587 82.4381L197.847 81.0217L199.684 81.1147L202.273 66.9982ZM223.246 87.4125C222.396 87.2567 221.646 87.0459 220.995 86.7801C220.344 86.5144 219.623 86.187 218.833 85.7979C218.311 85.5395 217.957 85.3851 217.771 85.3348L218.784 81.0066L220.696 81.3573L220.657 84.4977C220.821 84.7556 221.147 85.0187 221.635 85.2871C222.138 85.5583 222.728 85.756 223.405 85.8801C224.459 86.0735 225.288 85.9896 225.891 85.6285C226.513 85.2545 226.9 84.6505 227.053 83.8164C227.154 83.2656 227.083 82.7646 226.841 82.3134C226.601 81.8465 226.235 81.4052 225.742 80.9894C225.251 80.5579 224.565 80.0416 223.683 79.4406C222.487 78.6031 221.531 77.6957 220.815 76.7186C220.118 75.7286 219.9 74.5255 220.16 73.1091C220.321 72.2278 220.695 71.4749 221.281 70.8504C221.871 70.2102 222.651 69.7678 223.623 69.5231C224.614 69.2656 225.762 69.2567 227.069 69.4962C227.84 69.6377 228.506 69.8169 229.068 70.0338C229.646 70.2537 230.264 70.5215 230.922 70.8374C231.311 71.0226 231.605 71.1497 231.804 71.2187L230.904 75.3238L229.016 74.9774L229.053 71.9829C228.937 71.8153 228.678 71.6296 228.276 71.4258C227.877 71.2062 227.418 71.0488 226.899 70.9535C225.955 70.7804 225.198 70.8693 224.63 71.2205C224.08 71.5588 223.738 72.09 223.605 72.8139C223.499 73.3962 223.579 73.9315 223.848 74.4199C224.132 74.9112 224.498 75.3526 224.947 75.744C225.398 76.1196 226.118 76.6745 227.106 77.4088C227.909 77.9953 228.588 78.5509 229.143 79.0755C229.697 79.6002 230.142 80.2348 230.477 80.9795C230.815 81.7085 230.903 82.5136 230.742 83.3949C230.583 84.2604 230.211 85.0462 229.626 85.7523C229.057 86.4612 228.229 86.9845 227.142 87.322C226.071 87.6623 224.772 87.6925 223.246 87.4125ZM239.405 90.3763C236.73 89.8857 234.83 88.7157 233.705 86.8664C232.583 85.0014 232.276 82.684 232.784 79.9142C233.119 78.0887 233.78 76.567 234.768 75.3492C235.775 74.1186 236.999 73.2533 238.441 72.7532C239.882 72.2531 241.43 72.1546 243.082 72.4577C243.775 72.5847 244.435 72.7546 245.063 72.9673C245.693 73.1644 246.437 73.4145 247.292 73.7178C247.933 73.9492 248.284 74.0706 248.347 74.0822L247.196 78.8975L245.024 78.4991L244.911 74.9892C244.77 74.7844 244.497 74.5879 244.092 74.3998C243.688 74.2117 243.155 74.057 242.494 73.9358C241.156 73.6904 239.964 74.1144 238.918 75.2075C237.89 76.2878 237.161 78.0004 236.731 80.3453C236.315 82.6115 236.362 84.5314 236.87 86.1049C237.379 87.6785 238.373 88.6009 239.852 88.8723C240.56 89.0021 241.115 89.0388 241.515 88.9821C241.935 88.9127 242.301 88.7766 242.615 88.5738L244.1 86.3329L246.048 86.8854L244.905 90.4578C244.568 90.4287 244.226 90.431 243.879 90.4648C243.549 90.4858 243.344 90.4969 243.263 90.4982C242.601 90.5559 241.987 90.5814 241.418 90.5748C240.863 90.5868 240.192 90.5207 239.405 90.3763ZM251.745 76.0718L250.055 75.4445L250.323 73.9809L257.499 75.2971L257.231 76.7607L255.192 76.7039L254.105 82.6291L261.281 83.9453L262.368 78.0201L260.607 77.3799L260.875 75.9163L267.957 77.2152L267.688 78.6787L265.838 78.6566L263.249 92.7731L265 93.3382L264.74 94.7546L257.634 93.4514L257.894 92.035L259.779 92.1366L260.952 85.7394L253.776 84.4232L252.603 90.8204L254.542 91.4202L254.282 92.8366L247.059 91.5117L247.319 90.0953L249.156 90.1883L251.745 76.0718ZM274.808 96.7964C272.416 96.3576 270.747 95.4334 269.802 94.0238C268.857 92.6141 268.619 90.6267 269.09 88.0615L270.653 79.5396L269.151 78.947L269.419 77.4834L276.549 78.791L276.28 80.2546L274.213 80.217L272.598 89.0222C271.911 92.7677 272.897 94.8843 275.557 95.3721C276.863 95.6117 277.919 95.3092 278.725 94.4647C279.533 93.6044 280.098 92.3009 280.418 90.554L282.05 81.6545L280.081 80.9516L280.349 79.488L286.251 80.5705L285.982 82.034L284.321 82.0465L282.719 90.7808C282.269 93.2359 281.337 94.9439 279.925 95.9048C278.528 96.8686 276.822 97.1658 274.808 96.7964ZM288.999 82.9045L287.237 82.2642L287.506 80.8006L295.06 82.1861L294.791 83.6497L292.469 83.5409L289.884 97.6339L294.975 98.3479L297.272 94.2063L299.136 94.8167L297.296 100.726L284.242 98.3314L284.501 96.915L286.41 97.021L288.999 82.9045ZM304.029 85.6611L302.196 85.0079L302.465 83.5443L315.047 85.852L314.627 89.8741L312.974 89.571L312.624 87.0912L307.564 85.9435L306.399 92.2936L309.693 92.8246L310.426 90.9581L311.937 91.2352L310.889 96.9479L309.378 96.6708L309.373 94.5714L306.105 93.8988L304.884 100.556L310.648 101.32L312.572 98.5498L314.251 99.3702L312.845 103.578L299.272 101.088L299.531 99.6717L301.44 99.7777L304.029 85.6611Z" fill="#3D3D3D"/>
<g style="mix-blend-mode:overlay" opacity="0.4">
<path d="M73.8174 124.097C71.0071 123.603 68.6246 122.174 66.6698 119.808C64.8151 117.372 63.5337 114.421 62.8255 110.956C62.1173 107.49 62.0852 103.923 62.7293 100.256C63.7778 94.2849 65.8234 88.8849 68.8661 84.0556C71.9238 79.1411 75.3501 75.1266 79.1451 72.0121C82.9551 68.8124 86.4501 66.6564 89.6301 65.5442L89.7578 65.5667L93.9533 70.9196L93.5938 72.9667C91.1203 74.5547 88.6247 77.0181 86.1071 80.3568C83.6747 83.7106 81.9867 88.0743 81.043 93.448C80.5787 96.0922 80.5799 98.3346 81.0468 100.175C81.5136 102.016 82.3062 104.001 83.4243 106.132C84.4022 108.062 85.0693 109.762 85.4258 111.232C85.7972 112.616 85.8107 114.289 85.4661 116.251C84.9868 118.98 83.6031 121.111 81.3149 122.644C79.1268 124.106 76.6276 124.59 73.8174 124.097ZM110.606 130.557C107.796 130.064 105.414 128.634 103.459 126.268C101.604 123.833 100.323 120.882 99.6144 117.416C98.9062 113.951 98.8742 110.384 99.5182 106.716C100.567 100.745 102.612 95.3453 105.655 90.516C108.713 85.6015 112.139 81.587 115.934 78.4725C119.744 75.2728 123.239 73.1168 126.419 72.0046L126.547 72.0271L130.742 77.38L130.383 79.4271C127.909 81.0151 125.406 83.5211 122.874 86.9452C120.356 90.2839 118.633 94.5975 117.704 99.8859C117.24 102.53 117.241 104.773 117.708 106.613C118.175 108.454 118.967 110.439 120.086 112.57C121.063 114.5 121.731 116.2 122.087 117.67C122.458 119.054 122.472 120.727 122.127 122.688C121.648 125.418 120.307 127.556 118.104 129.104C115.916 130.566 113.417 131.051 110.606 130.557Z" fill="#3D3D3D"/>
</g>
<g style="mix-blend-mode:overlay" opacity="0.4">
<path d="M373.773 238.096C376.023 238.518 377.921 239.687 379.468 241.603C380.933 243.574 381.934 245.954 382.47 248.74C383.006 251.527 382.998 254.389 382.448 257.326C381.551 262.106 379.86 266.419 377.375 270.265C374.876 274.18 372.09 277.369 369.017 279.832C365.93 282.364 363.107 284.061 360.545 284.924L360.443 284.905L357.127 280.571L357.434 278.932C359.433 277.681 361.458 275.728 363.509 273.073C365.491 270.405 366.886 266.92 367.693 262.618C368.089 260.5 368.109 258.702 367.752 257.221C367.394 255.74 366.777 254.139 365.899 252.42C365.133 250.862 364.613 249.492 364.341 248.31C364.056 247.196 364.061 245.854 364.355 244.283C364.765 242.098 365.895 240.401 367.745 239.193C369.514 238.04 371.523 237.674 373.773 238.096ZM344.319 232.573C346.569 232.995 348.467 234.164 350.013 236.08C351.479 238.051 352.479 240.43 353.015 243.217C353.551 246.004 353.544 248.866 352.993 251.802C352.097 256.582 350.406 260.896 347.92 264.742C345.422 268.656 342.636 271.845 339.562 274.309C336.476 276.84 333.652 278.538 331.091 279.4L330.989 279.381L327.672 275.048L327.98 273.409C329.979 272.158 332.01 270.171 334.074 267.447C336.124 264.792 337.547 261.347 338.341 257.113C338.738 254.996 338.757 253.197 338.4 251.716C338.042 250.235 337.425 248.635 336.547 246.915C335.781 245.358 335.261 243.988 334.989 242.806C334.704 241.692 334.709 240.35 335.003 238.779C335.413 236.594 336.509 234.89 338.29 233.669C340.059 232.516 342.069 232.151 344.319 232.573Z" fill="#3D3D3D"/>
</g>
<path d="M119.144 116.92L117.199 127.95L119.957 128.436L121.902 117.406L119.144 116.92ZM121.123 128.642C122.026 128.801 122.863 128.819 123.632 128.694C124.403 128.56 125.088 128.301 125.686 127.919C126.296 127.529 126.797 127.021 127.189 126.397C127.582 125.763 127.854 125.02 128.004 124.169C128.154 123.318 128.152 122.532 127.997 121.812C127.845 121.081 127.547 120.433 127.106 119.867C126.676 119.294 126.121 118.817 125.441 118.437C124.762 118.046 123.971 117.771 123.068 117.612L120.893 117.229L120.474 119.608L122.569 119.977C122.99 120.052 123.385 120.175 123.755 120.349C124.125 120.523 124.436 120.756 124.688 121.05C124.95 121.345 125.134 121.713 125.24 122.154C125.348 122.585 125.35 123.094 125.247 123.683C125.143 124.271 124.966 124.754 124.715 125.132C124.466 125.5 124.168 125.778 123.821 125.966C123.484 126.155 123.112 126.269 122.705 126.305C122.298 126.342 121.884 126.323 121.464 126.249L119.368 125.879L118.948 128.259L121.123 128.642ZM130.31 125.502L138.646 126.971L139.068 124.576L130.733 123.107L130.31 125.502ZM138.106 120.264L136.161 131.294L138.808 131.76L140.753 120.731L138.106 120.264ZM130.7 118.958L128.756 129.988L131.403 130.455L133.348 119.425L130.7 118.958ZM144.079 127.036L146.159 127.403C146.915 127.536 147.606 127.549 148.231 127.443C148.857 127.337 149.374 127.108 149.782 126.758C150.19 126.407 150.446 125.938 150.55 125.35C150.634 124.877 150.606 124.45 150.468 124.068C150.34 123.688 150.123 123.352 149.817 123.06C149.523 122.759 149.145 122.508 148.682 122.307C148.219 122.107 147.704 121.956 147.137 121.856L143.087 121.142L141.143 132.172L145.444 132.93C146.316 133.084 147.091 133.112 147.769 133.015C148.449 132.908 149.001 132.664 149.425 132.284C149.862 131.895 150.145 131.333 150.275 130.598C150.375 130.031 150.339 129.526 150.168 129.084C149.997 128.642 149.728 128.259 149.363 127.935C148.998 127.611 148.568 127.345 148.074 127.139C147.59 126.935 147.08 126.785 146.544 126.691L144.212 126.279L143.957 127.729L145.99 128.088C146.242 128.132 146.473 128.2 146.685 128.291C146.908 128.374 147.09 128.482 147.229 128.615C147.378 128.749 147.486 128.909 147.55 129.094C147.617 129.268 147.629 129.476 147.587 129.718C147.526 130.064 147.392 130.328 147.187 130.508C146.993 130.691 146.751 130.805 146.461 130.851C146.173 130.887 145.855 130.875 145.509 130.813L144.154 130.575L145.371 123.673L146.474 123.867C146.936 123.949 147.275 124.112 147.492 124.356C147.711 124.589 147.788 124.89 147.723 125.258C147.681 125.499 147.586 125.699 147.439 125.857C147.292 126.016 147.1 126.122 146.862 126.178C146.636 126.236 146.37 126.237 146.065 126.184L144.285 125.87L144.079 127.036ZM162.453 131.039L160.65 123.67L156.434 129.978L155.384 123.31L152.233 122.755L154.935 135.254L159.663 129.264L162.042 136.507L168.872 125.689L165.705 125.13L162.453 131.039ZM176.144 132.657C176.233 132.153 176.396 131.721 176.632 131.362C176.881 130.995 177.183 130.696 177.538 130.466C177.892 130.236 178.282 130.083 178.707 130.006C179.133 129.929 179.571 129.931 180.023 130.011C180.548 130.103 180.998 130.253 181.373 130.46C181.748 130.667 182.069 130.907 182.334 131.182C182.611 131.458 182.846 131.749 183.042 132.054L183.553 129.155C183.173 128.73 182.737 128.377 182.245 128.095C181.765 127.805 181.121 127.589 180.312 127.446C179.419 127.288 178.58 127.287 177.795 127.441C177.012 127.584 176.302 127.86 175.667 128.268C175.032 128.676 174.504 129.211 174.084 129.873C173.677 130.527 173.397 131.285 173.245 132.146C173.093 133.007 173.096 133.82 173.254 134.585C173.424 135.34 173.737 136.018 174.195 136.619C174.654 137.209 175.226 137.711 175.911 138.124C176.598 138.527 177.388 138.807 178.281 138.964C179.09 139.107 179.77 139.124 180.32 139.015C180.88 138.908 181.409 138.731 181.908 138.483L182.419 135.583C182.131 135.803 181.81 135.996 181.456 136.161C181.113 136.328 180.729 136.444 180.306 136.511C179.883 136.577 179.409 136.563 178.883 136.471C178.432 136.391 178.019 136.243 177.646 136.025C177.273 135.808 176.959 135.53 176.704 135.193C176.45 134.856 176.267 134.477 176.157 134.057C176.06 133.628 176.055 133.161 176.144 132.657ZM185.943 137.732C185.976 137.543 186.04 137.397 186.134 137.294C186.238 137.194 186.38 137.127 186.559 137.093C186.749 137.062 186.98 137.07 187.253 137.118C187.621 137.183 187.958 137.297 188.266 137.459C188.585 137.613 188.854 137.807 189.073 138.04L189.259 136.984C189.168 136.827 189.002 136.663 188.761 136.49C188.531 136.32 188.244 136.166 187.9 136.03C187.558 135.883 187.177 135.772 186.756 135.698C186.126 135.587 185.585 135.584 185.133 135.688C184.694 135.784 184.334 135.986 184.052 136.294C183.783 136.593 183.607 136.973 183.526 137.436C183.439 137.929 183.48 138.37 183.65 138.757C183.83 139.147 184.099 139.465 184.456 139.712C184.816 139.948 185.226 140.108 185.688 140.189C186.151 140.271 186.595 140.268 187.022 140.18C187.461 140.085 187.83 139.9 188.127 139.628C188.436 139.347 188.632 138.975 188.713 138.513L188.628 137.523C188.569 137.859 188.445 138.13 188.257 138.335C188.07 138.54 187.85 138.68 187.598 138.755C187.347 138.83 187.085 138.843 186.811 138.795C186.622 138.762 186.456 138.694 186.311 138.593C186.166 138.492 186.058 138.37 185.986 138.227C185.924 138.086 185.91 137.921 185.943 137.732ZM185.358 134.785C185.463 134.739 185.64 134.689 185.888 134.635C186.148 134.573 186.442 134.533 186.77 134.515C187.098 134.497 187.425 134.516 187.751 134.574C187.971 134.613 188.162 134.668 188.323 134.74C188.483 134.811 188.613 134.905 188.712 135.02C188.823 135.126 188.892 135.257 188.919 135.413C188.947 135.559 188.947 135.716 188.917 135.884L188.111 140.454L190.396 140.857L191.299 135.736C191.386 135.242 191.313 134.796 191.08 134.397C190.847 133.999 190.494 133.666 190.021 133.398C189.561 133.122 189.005 132.927 188.354 132.812C187.671 132.691 187.025 132.67 186.416 132.746C185.819 132.814 185.293 132.911 184.837 133.037L185.358 134.785ZM204.061 138.457C204.163 137.879 204.177 137.373 204.102 136.937C204.029 136.491 203.843 136.133 203.544 135.864C203.257 135.586 202.83 135.397 202.263 135.297C201.769 135.21 201.309 135.237 200.884 135.379C200.46 135.51 200.082 135.746 199.751 136.089C199.703 135.809 199.605 135.565 199.458 135.355C199.311 135.145 199.103 134.973 198.834 134.838C198.578 134.696 198.26 134.591 197.882 134.524C197.557 134.467 197.248 134.467 196.956 134.524C196.677 134.572 196.422 134.668 196.191 134.811C195.97 134.956 195.762 135.152 195.567 135.4L195.756 134.328L193.44 133.92L192.162 141.168L194.478 141.576L195.256 137.164C195.306 136.881 195.391 136.647 195.51 136.462C195.639 136.279 195.791 136.154 195.966 136.087C196.152 136.012 196.351 135.993 196.561 136.03C196.781 136.069 196.945 136.152 197.053 136.279C197.173 136.398 197.247 136.562 197.275 136.773C197.304 136.973 197.293 137.22 197.241 137.515L196.463 141.926L198.858 142.349L199.636 137.937C199.686 137.653 199.77 137.424 199.887 137.25C200.007 137.065 200.16 136.935 200.346 136.86C200.533 136.784 200.731 136.765 200.941 136.802C201.162 136.841 201.326 136.924 201.433 137.051C201.553 137.17 201.622 137.334 201.639 137.543C201.669 137.743 201.658 137.99 201.606 138.284L200.828 142.696L203.239 143.121L204.061 138.457ZM206.855 147.333L208.745 136.618L206.365 136.199L204.476 146.914L206.855 147.333ZM214.027 141.303C214.179 140.442 214.138 139.692 213.904 139.055C213.68 138.42 213.331 137.914 212.855 137.538C212.382 137.152 211.851 136.906 211.263 136.803C210.79 136.719 210.348 136.739 209.937 136.861C209.527 136.973 209.16 137.179 208.837 137.479C208.515 137.769 208.244 138.139 208.024 138.587C207.804 139.036 207.642 139.554 207.538 140.143C207.435 140.731 207.409 141.273 207.463 141.77C207.516 142.267 207.643 142.712 207.845 143.105C208.048 143.487 208.323 143.801 208.67 144.046C209.016 144.292 209.426 144.456 209.899 144.539C210.487 144.643 211.069 144.599 211.644 144.408C212.221 144.207 212.722 143.851 213.148 143.341C213.584 142.833 213.877 142.154 214.027 141.303ZM211.509 140.843C211.442 141.221 211.307 141.527 211.103 141.762C210.899 141.997 210.654 142.16 210.367 142.25C210.091 142.342 209.796 142.36 209.48 142.305C209.281 142.269 209.088 142.197 208.901 142.089C208.714 141.98 208.55 141.837 208.408 141.661C208.276 141.486 208.177 141.279 208.111 141.04C208.056 140.802 208.054 140.537 208.106 140.243C208.157 139.948 208.25 139.699 208.384 139.495C208.528 139.293 208.691 139.133 208.875 139.013C209.071 138.885 209.274 138.808 209.485 138.78C209.697 138.741 209.903 138.74 210.103 138.775C210.418 138.831 210.69 138.949 210.918 139.13C211.156 139.313 211.331 139.549 211.442 139.84C211.554 140.13 211.576 140.465 211.509 140.843ZM217.833 142.77L218.611 138.358L216.09 137.914L215.271 142.562C215.169 143.14 215.175 143.655 215.29 144.109C215.407 144.552 215.635 144.917 215.975 145.204C216.324 145.493 216.799 145.691 217.397 145.796C217.933 145.891 218.399 145.859 218.795 145.702C219.203 145.535 219.552 145.277 219.841 144.928L219.65 146.015L222.029 146.434L223.307 139.186L220.928 138.767L220.15 143.179C220.102 143.452 220.002 143.678 219.851 143.857C219.711 144.038 219.537 144.165 219.33 144.236C219.122 144.308 218.892 144.322 218.64 144.277C218.398 144.235 218.208 144.147 218.069 144.014C217.941 143.883 217.856 143.716 217.816 143.514C217.778 143.302 217.783 143.054 217.833 142.77ZM224.749 144.201L223.479 145.601C223.76 145.911 224.071 146.204 224.412 146.481C224.755 146.747 225.137 146.977 225.558 147.17C225.987 147.376 226.465 147.525 226.99 147.618C227.568 147.72 228.072 147.717 228.503 147.608C228.944 147.502 229.3 147.294 229.571 146.984C229.853 146.677 230.039 146.265 230.13 145.751C230.21 145.299 230.174 144.919 230.022 144.611C229.881 144.304 229.669 144.034 229.385 143.8C229.112 143.567 228.793 143.349 228.429 143.144C228.096 142.944 227.81 142.78 227.573 142.652C227.348 142.515 227.177 142.381 227.059 142.252C226.951 142.125 226.911 141.983 226.939 141.825C226.963 141.688 227.04 141.588 227.171 141.525C227.301 141.461 227.466 141.447 227.666 141.482C227.991 141.539 228.337 141.698 228.703 141.957C229.069 142.217 229.368 142.513 229.602 142.847L230.728 141.437C230.492 141.179 230.225 140.942 229.927 140.727C229.64 140.514 229.321 140.328 228.97 140.168C228.629 140.011 228.244 139.894 227.813 139.818C227.298 139.727 226.822 139.725 226.385 139.81C225.947 139.895 225.581 140.069 225.285 140.331C225.001 140.595 224.819 140.948 224.741 141.389C224.66 141.851 224.693 142.247 224.841 142.576C224.989 142.905 225.204 143.187 225.488 143.421C225.782 143.657 226.081 143.867 226.384 144.05C226.763 144.236 227.053 144.401 227.256 144.545C227.459 144.679 227.598 144.812 227.673 144.944C227.749 145.065 227.774 145.2 227.748 145.347C227.716 145.525 227.634 145.657 227.499 145.742C227.365 145.826 227.178 145.848 226.936 145.805C226.768 145.775 226.574 145.709 226.354 145.605C226.136 145.49 225.889 145.322 225.614 145.101C225.351 144.87 225.063 144.57 224.749 144.201ZM239.879 143.798L242.08 148.914L245.898 144.859L245.586 150.588L248.407 151.086L248.637 139.185L242.758 145.069L239.23 137.526L235.423 148.796L238.212 149.288L239.879 143.798ZM250.048 147.638C249.915 148.395 249.977 149.088 250.234 149.718C250.502 150.35 250.918 150.878 251.482 151.303C252.057 151.729 252.738 152.012 253.526 152.151C254.324 152.291 255.061 152.259 255.736 152.053C256.412 151.847 256.978 151.492 257.435 150.988C257.903 150.485 258.203 149.856 258.337 149.1C258.472 148.333 258.405 147.639 258.135 147.017C257.878 146.387 257.467 145.859 256.903 145.435C256.341 145 255.666 144.713 254.878 144.574C254.09 144.435 253.353 144.468 252.667 144.672C251.981 144.876 251.405 145.229 250.937 145.732C250.48 146.236 250.184 146.871 250.048 147.638ZM252.507 148.072C252.573 147.693 252.703 147.386 252.897 147.149C253.102 146.904 253.344 146.73 253.622 146.627C253.913 146.516 254.215 146.488 254.531 146.544C254.835 146.598 255.1 146.725 255.324 146.927C255.55 147.119 255.713 147.364 255.812 147.663C255.911 147.962 255.929 148.291 255.866 148.648C255.799 149.026 255.668 149.339 255.473 149.586C255.277 149.833 255.041 150.008 254.763 150.11C254.485 150.213 254.188 150.237 253.873 150.181C253.568 150.127 253.298 150.004 253.061 149.81C252.835 149.619 252.667 149.373 252.558 149.072C252.461 148.762 252.444 148.429 252.507 148.072ZM259.972 150.411L258.701 151.812C258.982 152.122 259.293 152.415 259.634 152.692C259.977 152.958 260.359 153.188 260.78 153.381C261.21 153.587 261.687 153.736 262.212 153.828C262.79 153.93 263.294 153.927 263.725 153.819C264.166 153.713 264.522 153.505 264.793 153.195C265.075 152.887 265.261 152.476 265.352 151.961C265.432 151.51 265.396 151.13 265.244 150.821C265.104 150.515 264.891 150.245 264.608 150.01C264.334 149.778 264.016 149.559 263.651 149.354C263.318 149.155 263.033 148.991 262.795 148.862C262.57 148.725 262.399 148.592 262.281 148.463C262.173 148.336 262.134 148.193 262.161 148.036C262.185 147.899 262.263 147.799 262.393 147.735C262.523 147.672 262.688 147.657 262.888 147.693C263.214 147.75 263.559 147.908 263.925 148.168C264.291 148.427 264.591 148.724 264.824 149.058L265.95 147.648C265.714 147.389 265.447 147.153 265.149 146.938C264.862 146.725 264.543 146.538 264.192 146.379C263.851 146.222 263.466 146.105 263.035 146.029C262.52 145.938 262.044 145.935 261.607 146.021C261.169 146.106 260.803 146.28 260.508 146.542C260.223 146.806 260.042 147.158 259.964 147.599C259.882 148.062 259.915 148.457 260.063 148.787C260.211 149.116 260.426 149.398 260.71 149.632C261.004 149.868 261.303 150.078 261.606 150.261C261.985 150.447 262.276 150.612 262.478 150.756C262.682 150.889 262.821 151.022 262.895 151.154C262.971 151.276 262.996 151.41 262.97 151.558C262.939 151.736 262.856 151.868 262.722 151.952C262.588 152.037 262.4 152.058 262.158 152.016C261.99 151.986 261.796 151.919 261.576 151.815C261.358 151.701 261.111 151.533 260.836 151.311C260.574 151.081 260.285 150.781 259.972 150.411ZM270.83 142.367L268.451 141.947L266.284 154.238L268.663 154.657L270.83 142.367ZM275.227 152.078C275.371 151.258 275.325 150.541 275.087 149.925C274.861 149.3 274.51 148.8 274.035 148.423C273.562 148.037 273.031 147.791 272.443 147.688C271.991 147.608 271.56 147.624 271.151 147.736C270.743 147.837 270.369 148.026 270.028 148.302C269.697 148.579 269.406 148.939 269.155 149.382C268.916 149.817 268.744 150.328 268.64 150.916C268.537 151.505 268.522 152.049 268.596 152.55C268.683 153.041 268.834 153.474 269.05 153.848C269.276 154.224 269.562 154.534 269.909 154.779C270.257 155.014 270.658 155.171 271.109 155.251C271.697 155.355 272.279 155.311 272.854 155.12C273.432 154.919 273.933 154.563 274.359 154.053C274.795 153.545 275.084 152.887 275.227 152.078ZM272.706 151.633C272.639 152.011 272.502 152.328 272.294 152.584C272.089 152.83 271.84 153.008 271.55 153.119C271.272 153.222 270.975 153.245 270.66 153.19C270.461 153.155 270.269 153.077 270.084 152.958C269.899 152.839 269.736 152.686 269.596 152.498C269.466 152.313 269.369 152.096 269.305 151.846C269.251 151.598 269.251 151.322 269.305 151.017C269.357 150.723 269.449 150.474 269.583 150.27C269.727 150.068 269.892 149.902 270.077 149.773C270.275 149.634 270.481 149.54 270.695 149.492C270.909 149.443 271.116 149.436 271.316 149.471C271.631 149.527 271.901 149.655 272.125 149.858C272.362 150.051 272.534 150.303 272.642 150.615C272.751 150.916 272.772 151.255 272.706 151.633ZM278.284 154.014C278.317 153.825 278.381 153.679 278.475 153.577C278.579 153.476 278.721 153.409 278.9 153.375C279.09 153.344 279.321 153.352 279.594 153.4C279.962 153.465 280.3 153.579 280.607 153.741C280.926 153.895 281.195 154.089 281.414 154.322L281.6 153.267C281.509 153.11 281.343 152.945 281.102 152.773C280.873 152.602 280.585 152.449 280.241 152.312C279.899 152.165 279.518 152.055 279.097 151.98C278.467 151.869 277.926 151.866 277.475 151.971C277.035 152.066 276.675 152.268 276.393 152.576C276.124 152.875 275.948 153.256 275.867 153.718C275.78 154.212 275.821 154.652 275.991 155.04C276.172 155.429 276.44 155.747 276.798 155.994C277.157 156.231 277.567 156.39 278.029 156.471C278.492 156.553 278.936 156.55 279.363 156.463C279.803 156.367 280.171 156.183 280.468 155.91C280.777 155.629 280.973 155.257 281.054 154.795L280.969 153.805C280.91 154.141 280.786 154.412 280.598 154.617C280.411 154.822 280.191 154.962 279.94 155.037C279.688 155.112 279.426 155.125 279.153 155.077C278.964 155.044 278.797 154.976 278.652 154.875C278.507 154.774 278.399 154.652 278.327 154.509C278.265 154.368 278.251 154.203 278.284 154.014ZM277.699 151.068C277.804 151.021 277.981 150.971 278.229 150.918C278.489 150.855 278.783 150.815 279.111 150.797C279.439 150.779 279.766 150.799 280.092 150.856C280.312 150.895 280.503 150.95 280.664 151.022C280.824 151.094 280.954 151.187 281.053 151.302C281.164 151.408 281.233 151.539 281.26 151.696C281.288 151.841 281.288 151.998 281.258 152.166L280.452 156.736L282.737 157.139L283.64 152.018C283.727 151.524 283.654 151.078 283.421 150.68C283.188 150.281 282.835 149.948 282.362 149.681C281.902 149.404 281.346 149.209 280.695 149.094C280.012 148.974 279.366 148.952 278.757 149.028C278.16 149.097 277.634 149.193 277.179 149.319L277.699 151.068ZM287.174 154.185C287.237 153.827 287.377 153.527 287.593 153.284C287.822 153.031 288.093 152.846 288.406 152.728C288.73 152.612 289.07 152.585 289.427 152.648C289.69 152.695 289.951 152.784 290.209 152.916C290.469 153.038 290.701 153.198 290.904 153.396C291.118 153.596 291.278 153.825 291.384 154.082L291.795 151.75C291.577 151.516 291.283 151.308 290.915 151.124C290.557 150.941 290.105 150.802 289.559 150.706C288.75 150.563 288.003 150.594 287.317 150.798C286.631 151.002 286.054 151.355 285.586 151.857C285.131 152.351 284.836 152.981 284.701 153.748C284.567 154.505 284.629 155.198 284.886 155.828C285.154 156.46 285.575 156.989 286.15 157.416C286.725 157.842 287.416 158.126 288.225 158.269C288.771 158.365 289.244 158.389 289.642 158.34C290.053 158.283 290.402 158.176 290.69 158.021L291.098 155.705C290.91 155.91 290.687 156.071 290.428 156.188C290.18 156.307 289.911 156.384 289.624 156.42C289.348 156.447 289.063 156.435 288.769 156.383C288.412 156.32 288.099 156.189 287.831 155.99C287.575 155.782 287.382 155.526 287.252 155.222C287.132 154.919 287.106 154.573 287.174 154.185ZM296.851 146.955L294.441 146.53L292.274 158.82L294.684 159.245L296.851 146.955ZM297.779 155.242L297.001 159.654L299.38 160.073L300.219 155.315C300.325 154.716 300.329 154.197 300.234 153.758C300.148 153.32 299.94 152.964 299.61 152.689C299.281 152.404 298.817 152.208 298.218 152.103C297.62 151.997 297.101 152.052 296.662 152.267C296.234 152.484 295.884 152.812 295.611 153.251C295.341 153.68 295.155 154.184 295.053 154.761L295.462 154.834C295.514 154.539 295.609 154.307 295.748 154.137C295.888 153.955 296.061 153.834 296.267 153.773C296.474 153.701 296.704 153.688 296.956 153.732C297.219 153.779 297.414 153.867 297.543 153.998C297.684 154.12 297.768 154.287 297.796 154.498C297.834 154.71 297.829 154.958 297.779 155.242ZM115.748 140.976L120.679 141.846L120.902 140.585L115.97 139.715L115.748 140.976ZM114.97 145.388L119.744 146.23L119.966 144.969L115.192 144.127L114.97 145.388ZM115.229 139.585L113.284 150.615L114.624 150.851L116.569 139.821L115.229 139.585ZM121.569 149.768C121.615 149.506 121.718 149.291 121.877 149.124C122.037 148.957 122.252 148.844 122.522 148.783C122.804 148.724 123.149 148.731 123.559 148.803C124 148.881 124.405 149.012 124.773 149.196C125.143 149.37 125.49 149.615 125.813 149.932L125.943 149.191C125.887 149.084 125.766 148.938 125.582 148.754C125.4 148.559 125.14 148.373 124.803 148.194C124.479 148.007 124.054 147.867 123.529 147.774C122.941 147.671 122.413 147.681 121.948 147.804C121.494 147.919 121.121 148.13 120.829 148.436C120.547 148.743 120.365 149.134 120.281 149.606C120.194 150.1 120.236 150.541 120.406 150.928C120.576 151.315 120.833 151.637 121.178 151.893C121.535 152.14 121.934 152.302 122.376 152.38C122.775 152.45 123.187 152.447 123.612 152.371C124.048 152.296 124.429 152.13 124.756 151.874C125.093 151.619 125.302 151.261 125.384 150.798L125.298 149.809C125.232 150.187 125.078 150.506 124.837 150.767C124.608 151.019 124.323 151.196 123.98 151.298C123.647 151.402 123.287 151.42 122.898 151.351C122.593 151.297 122.329 151.202 122.104 151.065C121.891 150.919 121.734 150.734 121.633 150.511C121.542 150.289 121.521 150.041 121.569 149.768ZM121.969 146.394C122.099 146.331 122.274 146.259 122.494 146.178C122.714 146.098 122.973 146.041 123.272 146.007C123.581 145.975 123.914 145.99 124.271 146.053C124.492 146.092 124.698 146.15 124.89 146.227C125.082 146.304 125.244 146.403 125.374 146.524C125.515 146.646 125.613 146.799 125.667 146.982C125.723 147.154 125.729 147.366 125.685 147.618L124.798 152.645L126.059 152.867L126.976 147.667C127.059 147.195 127.009 146.774 126.825 146.406C126.651 146.039 126.363 145.734 125.962 145.49C125.574 145.238 125.096 145.061 124.528 144.961C123.856 144.843 123.261 144.841 122.742 144.955C122.235 145.071 121.826 145.205 121.518 145.356L121.969 146.394ZM129.399 149.719C129.488 149.215 129.672 148.787 129.951 148.436C130.242 148.075 130.59 147.817 130.997 147.661C131.414 147.508 131.859 147.472 132.332 147.556C132.72 147.624 133.072 147.751 133.386 147.936C133.712 148.113 133.983 148.323 134.2 148.568C134.417 148.812 134.557 149.064 134.619 149.324L134.897 147.748C134.697 147.409 134.374 147.12 133.929 146.879C133.497 146.629 133.034 146.461 132.54 146.374C131.836 146.25 131.172 146.301 130.547 146.526C129.923 146.752 129.392 147.119 128.956 147.627C128.53 148.136 128.253 148.759 128.123 149.494C127.995 150.219 128.043 150.899 128.267 151.534C128.503 152.161 128.876 152.687 129.386 153.113C129.896 153.538 130.503 153.813 131.206 153.937C131.7 154.024 132.192 154.03 132.682 153.954C133.184 153.869 133.587 153.702 133.891 153.452L134.169 151.876C134.023 152.089 133.806 152.278 133.517 152.444C133.23 152.599 132.901 152.709 132.533 152.774C132.176 152.83 131.803 152.824 131.415 152.755C130.942 152.672 130.536 152.487 130.197 152.199C129.87 151.904 129.63 151.542 129.478 151.114C129.337 150.689 129.31 150.224 129.399 149.719ZM139.145 142.502L137.885 142.28L135.718 154.57L136.978 154.792L139.145 142.502ZM141.144 150.978L140.366 155.39L141.627 155.612L142.432 151.043C142.543 150.412 142.531 149.869 142.395 149.411C142.269 148.956 142.036 148.59 141.695 148.313C141.364 148.038 140.947 147.856 140.443 147.767C139.939 147.678 139.469 147.731 139.034 147.925C138.609 148.121 138.247 148.425 137.947 148.838C137.648 149.24 137.448 149.731 137.346 150.308L137.756 150.381C137.817 150.034 137.945 149.737 138.141 149.49C138.346 149.244 138.6 149.067 138.901 148.958C139.212 148.85 139.552 148.829 139.919 148.894C140.266 148.955 140.537 149.073 140.734 149.248C140.941 149.426 141.078 149.661 141.146 149.955C141.215 150.238 141.214 150.579 141.144 150.978ZM147.345 143.948L146.085 143.726L143.917 156.016L145.178 156.238L147.345 143.948ZM151.883 153.684C152.022 152.896 151.978 152.195 151.751 151.581C151.525 150.956 151.166 150.443 150.673 150.042C150.191 149.643 149.619 149.385 148.958 149.269C148.506 149.189 148.075 149.205 147.666 149.317C147.268 149.42 146.904 149.611 146.574 149.888C146.254 150.168 145.979 150.531 145.748 150.977C145.52 151.414 145.353 151.926 145.25 152.514C145.146 153.102 145.126 153.646 145.19 154.145C145.255 154.633 145.391 155.063 145.596 155.435C145.812 155.808 146.088 156.117 146.424 156.36C146.772 156.595 147.172 156.752 147.624 156.832C148.286 156.949 148.911 156.902 149.501 156.692C150.101 156.484 150.614 156.124 151.039 155.615C151.465 155.105 151.746 154.461 151.883 153.684ZM150.607 153.459C150.509 154.016 150.31 154.468 150.01 154.816C149.721 155.166 149.37 155.407 148.957 155.54C148.554 155.675 148.127 155.702 147.675 155.623C147.402 155.574 147.139 155.468 146.886 155.305C146.633 155.141 146.411 154.928 146.219 154.667C146.037 154.408 145.906 154.108 145.825 153.769C145.745 153.419 145.743 153.034 145.817 152.614C145.891 152.194 146.024 151.838 146.216 151.547C146.41 151.246 146.637 151.004 146.897 150.822C147.167 150.643 147.448 150.519 147.742 150.452C148.035 150.384 148.319 150.375 148.592 150.423C149.043 150.502 149.435 150.674 149.768 150.939C150.111 151.205 150.358 151.552 150.511 151.98C150.673 152.409 150.705 152.902 150.607 153.459ZM155.76 158.267C156.537 158.404 157.236 158.37 157.857 158.165C158.49 157.952 159.05 157.574 159.535 157.031L158.625 156.205C158.285 156.6 157.906 156.874 157.489 157.028C157.074 157.171 156.619 157.2 156.125 157.113C155.632 157.026 155.23 156.846 154.92 156.575C154.611 156.304 154.402 155.953 154.294 155.522C154.186 155.092 154.182 154.593 154.282 154.025C154.354 153.616 154.471 153.257 154.634 152.95C154.796 152.643 154.997 152.397 155.235 152.211C155.473 152.026 155.745 151.901 156.049 151.835C156.363 151.771 156.699 151.771 157.056 151.834C157.466 151.906 157.807 152.059 158.08 152.291C158.354 152.523 158.546 152.812 158.659 153.156C158.782 153.503 158.805 153.892 158.73 154.322C158.717 154.396 158.684 154.488 158.632 154.598C158.582 154.697 158.537 154.77 158.496 154.817L159.128 154.181L153.928 153.265L153.739 154.336L159.932 155.428C159.936 155.407 159.944 155.36 159.957 155.286C159.982 155.204 160.001 155.126 160.014 155.053C160.149 154.286 160.13 153.6 159.955 152.995C159.78 152.39 159.461 151.895 158.998 151.51C158.547 151.117 157.965 150.857 157.251 150.731C156.715 150.637 156.21 150.645 155.735 150.756C155.263 150.857 154.839 151.048 154.465 151.328C154.092 151.598 153.776 151.949 153.516 152.379C153.266 152.812 153.091 153.312 152.991 153.879C152.86 154.625 152.886 155.307 153.069 155.924C153.264 156.543 153.589 157.061 154.047 157.477C154.516 157.885 155.087 158.148 155.76 158.267ZM163.63 152.018L162.37 151.796L161.092 159.044L162.352 159.267L163.63 152.018ZM165.576 153.791L166.453 152.874C166.299 152.641 166.112 152.472 165.892 152.368C165.684 152.256 165.449 152.177 165.187 152.13C164.851 152.071 164.496 152.144 164.125 152.349C163.753 152.554 163.422 152.864 163.132 153.279C162.855 153.685 162.665 154.177 162.563 154.755L163.13 154.855C163.191 154.508 163.278 154.204 163.389 153.942C163.511 153.682 163.675 153.488 163.881 153.362C164.087 153.236 164.348 153.201 164.663 153.257C164.873 153.294 165.041 153.356 165.166 153.443C165.294 153.519 165.43 153.636 165.576 153.791ZM169.039 160.608C169.816 160.745 170.516 160.711 171.136 160.507C171.77 160.294 172.329 159.916 172.815 159.373L171.905 158.546C171.564 158.941 171.185 159.216 170.768 159.37C170.353 159.513 169.899 159.541 169.405 159.454C168.911 159.367 168.51 159.188 168.2 158.917C167.89 158.645 167.681 158.295 167.573 157.864C167.465 157.433 167.461 156.934 167.561 156.367C167.633 155.957 167.751 155.599 167.913 155.292C168.076 154.985 168.276 154.738 168.515 154.553C168.753 154.368 169.024 154.242 169.328 154.177C169.643 154.113 169.979 154.113 170.336 154.176C170.745 154.248 171.087 154.4 171.36 154.632C171.633 154.865 171.826 155.153 171.938 155.498C172.061 155.845 172.085 156.233 172.009 156.664C171.996 156.737 171.964 156.829 171.912 156.939C171.862 157.039 171.816 157.112 171.776 157.159L172.408 156.523L167.208 155.606L167.019 156.678L173.211 157.769C173.215 157.748 173.223 157.701 173.236 157.628C173.262 157.545 173.281 157.468 173.294 157.394C173.429 156.627 173.409 155.941 173.234 155.336C173.059 154.732 172.74 154.237 172.277 153.852C171.827 153.458 171.245 153.199 170.53 153.073C169.994 152.978 169.489 152.987 169.015 153.098C168.542 153.199 168.119 153.389 167.744 153.67C167.372 153.94 167.055 154.29 166.795 154.721C166.546 155.154 166.371 155.654 166.271 156.221C166.139 156.967 166.165 157.648 166.349 158.265C166.543 158.885 166.869 159.402 167.326 159.819C167.796 160.226 168.367 160.49 169.039 160.608ZM176.177 151.144C176.137 151.375 176.184 151.595 176.321 151.803C176.47 152.002 176.66 152.123 176.891 152.163C177.133 152.206 177.352 152.158 177.55 152.02C177.75 151.871 177.87 151.681 177.911 151.449C177.953 151.208 177.905 150.988 177.767 150.791C177.628 150.593 177.438 150.473 177.197 150.43C176.966 150.389 176.746 150.437 176.538 150.574C176.34 150.712 176.22 150.902 176.177 151.144ZM175.886 154.179L174.608 161.428L175.868 161.65L177.146 154.402L175.886 154.179ZM179.671 158.584C179.76 158.079 179.943 157.651 180.222 157.3C180.513 156.939 180.862 156.681 181.268 156.526C181.685 156.372 182.13 156.336 182.603 156.42C182.992 156.488 183.343 156.615 183.657 156.801C183.983 156.977 184.255 157.188 184.472 157.432C184.689 157.676 184.828 157.928 184.891 158.188L185.169 156.612C184.968 156.274 184.646 155.984 184.201 155.743C183.768 155.493 183.305 155.325 182.811 155.238C182.108 155.114 181.443 155.165 180.819 155.39C180.194 155.616 179.664 155.983 179.227 156.491C178.802 157.001 178.524 157.623 178.394 158.358C178.267 159.083 178.315 159.763 178.538 160.398C178.775 161.025 179.147 161.551 179.657 161.977C180.167 162.402 180.774 162.677 181.478 162.801C181.971 162.888 182.463 162.894 182.953 162.818C183.456 162.733 183.859 162.566 184.163 162.316L184.441 160.741C184.295 160.953 184.077 161.142 183.788 161.308C183.501 161.463 183.173 161.573 182.804 161.638C182.447 161.694 182.075 161.688 181.686 161.62C181.213 161.536 180.807 161.351 180.468 161.064C180.141 160.768 179.902 160.406 179.75 159.978C179.608 159.553 179.582 159.088 179.671 158.584ZM189.417 151.366L188.156 151.144L185.989 163.434L187.25 163.657L189.417 151.366ZM191.415 159.842L190.637 164.254L191.898 164.476L192.704 159.907C192.815 159.276 192.802 158.733 192.666 158.275C192.541 157.82 192.307 157.454 191.966 157.177C191.636 156.902 191.218 156.72 190.714 156.632C190.21 156.543 189.74 156.595 189.305 156.789C188.881 156.985 188.518 157.29 188.218 157.702C187.92 158.105 187.72 158.595 187.618 159.172L188.028 159.245C188.089 158.898 188.217 158.601 188.412 158.354C188.618 158.109 188.871 157.931 189.172 157.822C189.483 157.714 189.823 157.693 190.191 157.758C190.537 157.819 190.809 157.937 191.005 158.113C191.212 158.29 191.35 158.525 191.417 158.819C191.486 159.102 191.486 159.443 191.415 159.842ZM200.831 160.365C200.94 159.745 201.141 159.19 201.433 158.7C201.737 158.202 202.113 157.791 202.56 157.469C203.006 157.147 203.5 156.926 204.042 156.804C204.595 156.675 205.171 156.662 205.77 156.768C206.369 156.874 206.901 157.081 207.366 157.391C207.844 157.692 208.238 158.07 208.547 158.525C208.857 158.98 209.064 159.493 209.169 160.064C209.287 160.627 209.291 161.218 209.182 161.837C209.073 162.457 208.866 163.017 208.561 163.515C208.269 164.005 207.899 164.411 207.453 164.733C207.006 165.055 206.506 165.281 205.952 165.411C205.411 165.532 204.841 165.54 204.242 165.434C203.643 165.329 203.105 165.126 202.627 164.825C202.162 164.515 201.775 164.133 201.465 163.677C201.155 163.222 200.942 162.713 200.824 162.151C200.719 161.58 200.721 160.985 200.831 160.365ZM199.412 160.115C199.272 160.913 199.277 161.683 199.428 162.425C199.589 163.168 199.876 163.841 200.29 164.445C200.705 165.038 201.228 165.542 201.859 165.957C202.492 166.361 203.208 166.633 204.006 166.774C204.815 166.916 205.58 166.905 206.303 166.74C207.037 166.566 207.701 166.272 208.294 165.856C208.889 165.431 209.385 164.895 209.78 164.25C210.186 163.607 210.459 162.886 210.6 162.088C210.743 161.279 210.732 160.508 210.569 159.775C210.418 159.034 210.135 158.366 209.72 157.773C209.306 157.17 208.783 156.666 208.15 156.262C207.53 155.849 206.815 155.571 206.006 155.429C205.208 155.288 204.442 155.304 203.707 155.478C202.974 155.641 202.31 155.936 201.715 156.362C201.122 156.777 200.623 157.306 200.217 157.95C199.823 158.584 199.555 159.306 199.412 160.115ZM216.866 164.33L216.088 168.742L217.349 168.964L218.155 164.394C218.258 163.806 218.242 163.283 218.106 162.826C217.981 162.371 217.755 161.995 217.428 161.699C217.101 161.403 216.68 161.21 216.165 161.119C215.693 161.036 215.254 161.067 214.849 161.212C214.455 161.359 214.098 161.632 213.779 162.031L213.979 160.896L212.718 160.674L211.44 167.922L212.701 168.144L213.479 163.732C213.542 163.375 213.671 163.073 213.866 162.826C214.072 162.581 214.324 162.408 214.623 162.31C214.935 162.202 215.274 162.181 215.642 162.245C215.978 162.305 216.249 162.423 216.456 162.6C216.663 162.778 216.801 163.013 216.868 163.307C216.937 163.59 216.937 163.931 216.866 164.33ZM221.886 157.091L219.719 169.382L220.979 169.604L223.146 157.314L221.886 157.091ZM225.156 159.78C225.115 160.011 225.163 160.231 225.3 160.439C225.449 160.639 225.639 160.759 225.87 160.8C226.112 160.842 226.331 160.794 226.529 160.656C226.728 160.507 226.849 160.317 226.889 160.086C226.932 159.844 226.884 159.625 226.746 159.427C226.607 159.229 226.417 159.109 226.176 159.066C225.944 159.026 225.725 159.074 225.517 159.21C225.319 159.349 225.199 159.539 225.156 159.78ZM224.865 162.816L223.587 170.064L224.847 170.286L226.125 163.038L224.865 162.816ZM232.87 167.152L232.092 171.563L233.352 171.786L234.158 167.216C234.262 166.628 234.245 166.105 234.109 165.648C233.984 165.193 233.758 164.817 233.431 164.521C233.104 164.225 232.683 164.032 232.168 163.941C231.696 163.858 231.257 163.889 230.852 164.034C230.458 164.181 230.101 164.454 229.782 164.852L229.982 163.718L228.721 163.496L227.443 170.744L228.704 170.966L229.482 166.554C229.545 166.197 229.674 165.895 229.869 165.648C230.075 165.402 230.327 165.23 230.626 165.131C230.938 165.024 231.277 165.002 231.645 165.067C231.981 165.127 232.253 165.245 232.46 165.422C232.667 165.599 232.804 165.835 232.871 166.128C232.94 166.411 232.94 166.752 232.87 167.152ZM238.499 172.856C239.276 172.993 239.975 172.959 240.596 172.754C241.23 172.541 241.789 172.163 242.275 171.621L241.364 170.794C241.024 171.189 240.645 171.463 240.228 171.617C239.813 171.761 239.358 171.789 238.865 171.702C238.371 171.615 237.969 171.436 237.66 171.164C237.35 170.893 237.141 170.542 237.033 170.112C236.925 169.681 236.921 169.182 237.021 168.615C237.093 168.205 237.21 167.847 237.373 167.539C237.535 167.232 237.736 166.986 237.974 166.801C238.213 166.615 238.484 166.49 238.788 166.424C239.102 166.361 239.438 166.36 239.795 166.423C240.205 166.495 240.547 166.648 240.82 166.88C241.093 167.112 241.286 167.401 241.398 167.746C241.521 168.092 241.545 168.481 241.469 168.912C241.456 168.985 241.423 169.077 241.372 169.187C241.321 169.286 241.276 169.36 241.235 169.407L241.867 168.771L236.668 167.854L236.479 168.925L242.671 170.017C242.675 169.996 242.683 169.949 242.696 169.875C242.721 169.793 242.741 169.715 242.754 169.642C242.889 168.875 242.869 168.189 242.694 167.584C242.519 166.979 242.2 166.484 241.737 166.099C241.287 165.706 240.704 165.446 239.99 165.32C239.454 165.226 238.949 165.234 238.475 165.345C238.002 165.446 237.578 165.637 237.204 165.917C236.831 166.188 236.515 166.538 236.255 166.969C236.005 167.401 235.831 167.901 235.731 168.468C235.599 169.214 235.625 169.896 235.809 170.513C236.003 171.132 236.329 171.65 236.786 172.066C237.255 172.474 237.826 172.737 238.499 172.856ZM254.564 170.814C254.669 170.216 254.665 169.689 254.55 169.236C254.447 168.774 254.242 168.402 253.934 168.12C253.626 167.838 253.225 167.654 252.732 167.567C252.249 167.482 251.797 167.521 251.379 167.686C250.962 167.84 250.587 168.12 250.255 168.527C250.202 168.215 250.088 167.94 249.913 167.704C249.749 167.469 249.539 167.275 249.285 167.122C249.03 166.968 248.735 166.862 248.399 166.803C248.104 166.751 247.823 166.75 247.554 166.8C247.287 166.84 247.038 166.931 246.807 167.075C246.587 167.22 246.379 167.416 246.184 167.663L246.37 166.608L245.109 166.385L243.831 173.633L245.092 173.856L245.87 169.444C245.936 169.066 246.062 168.752 246.247 168.503C246.431 168.254 246.662 168.083 246.938 167.991C247.216 167.889 247.528 167.868 247.875 167.929C248.19 167.985 248.436 168.098 248.611 168.27C248.799 168.433 248.917 168.654 248.965 168.934C249.024 169.215 249.016 169.565 248.942 169.986L248.164 174.398L249.425 174.62L250.203 170.208C250.269 169.83 250.395 169.516 250.58 169.267C250.765 169.018 250.995 168.847 251.271 168.755C251.549 168.653 251.862 168.632 252.208 168.693C252.523 168.749 252.769 168.862 252.944 169.034C253.132 169.197 253.25 169.418 253.298 169.698C253.357 169.979 253.349 170.329 253.275 170.75L252.497 175.162L253.758 175.384L254.564 170.814ZM258.903 176.454C259.68 176.591 260.379 176.557 261 176.352C261.634 176.139 262.193 175.761 262.679 175.218L261.768 174.392C261.428 174.787 261.049 175.061 260.632 175.215C260.217 175.358 259.762 175.387 259.269 175.3C258.775 175.212 258.373 175.033 258.064 174.762C257.754 174.491 257.545 174.14 257.437 173.709C257.329 173.279 257.325 172.78 257.425 172.212C257.497 171.803 257.614 171.444 257.777 171.137C257.939 170.83 258.14 170.584 258.378 170.398C258.617 170.213 258.888 170.088 259.192 170.022C259.506 169.958 259.842 169.958 260.199 170.021C260.609 170.093 260.951 170.245 261.224 170.478C261.497 170.71 261.69 170.999 261.802 171.343C261.925 171.69 261.949 172.079 261.873 172.509C261.86 172.583 261.827 172.675 261.775 172.785C261.725 172.884 261.68 172.957 261.639 173.004L262.271 172.368L257.072 171.452L256.883 172.523L263.075 173.615C263.079 173.594 263.087 173.547 263.1 173.473C263.125 173.391 263.145 173.313 263.157 173.24C263.293 172.473 263.273 171.787 263.098 171.182C262.923 170.577 262.604 170.082 262.141 169.697C261.691 169.304 261.108 169.044 260.394 168.918C259.858 168.823 259.353 168.832 258.879 168.943C258.406 169.044 257.982 169.235 257.608 169.515C257.235 169.785 256.919 170.136 256.659 170.566C256.409 170.999 256.235 171.499 256.135 172.066C256.003 172.812 256.029 173.494 256.213 174.111C256.407 174.73 256.733 175.248 257.19 175.664C257.659 176.072 258.23 176.335 258.903 176.454ZM271.838 165.899L269.671 178.19L270.932 178.412L273.099 166.122L271.838 165.899ZM264.244 173.496C264.107 174.273 264.151 174.974 264.377 175.599C264.602 176.224 264.961 176.737 265.454 177.137C265.946 177.538 266.518 177.796 267.17 177.911C267.621 177.991 268.046 177.979 268.443 177.876C268.853 177.764 269.218 177.568 269.538 177.289C269.868 177.011 270.148 176.655 270.376 176.218C270.607 175.772 270.774 175.254 270.877 174.666C270.981 174.077 271 173.539 270.935 173.051C270.871 172.553 270.731 172.116 270.516 171.742C270.31 171.371 270.034 171.067 269.685 170.832C269.349 170.589 268.955 170.427 268.503 170.348C267.852 170.233 267.226 170.28 266.626 170.488C266.026 170.696 265.514 171.055 265.088 171.565C264.664 172.065 264.383 172.708 264.244 173.496ZM265.52 173.721C265.618 173.164 265.812 172.711 266.101 172.361C266.401 172.013 266.757 171.773 267.171 171.64C267.584 171.507 268.011 171.48 268.452 171.557C268.726 171.606 268.988 171.711 269.241 171.875C269.494 172.039 269.711 172.251 269.893 172.51C270.085 172.771 270.221 173.077 270.3 173.427C270.381 173.766 270.384 174.146 270.31 174.566C270.236 174.986 270.102 175.347 269.908 175.648C269.716 175.939 269.485 176.175 269.215 176.355C268.955 176.536 268.679 176.661 268.385 176.728C268.092 176.796 267.809 176.805 267.536 176.757C267.094 176.679 266.702 176.507 266.359 176.241C266.016 175.975 265.764 175.627 265.601 175.198C265.449 174.77 265.422 174.278 265.52 173.721ZM275.027 168.574C274.987 168.805 275.035 169.025 275.171 169.233C275.32 169.432 275.51 169.552 275.741 169.593C275.983 169.636 276.202 169.588 276.4 169.449C276.6 169.301 276.72 169.111 276.761 168.879C276.803 168.638 276.755 168.418 276.617 168.22C276.478 168.023 276.288 167.903 276.047 167.86C275.816 167.819 275.596 167.867 275.388 168.004C275.19 168.142 275.07 168.332 275.027 168.574ZM274.736 171.609L273.458 178.857L274.718 179.08L275.996 171.832L274.736 171.609ZM280.092 180.19C280.869 180.327 281.568 180.293 282.189 180.088C282.822 179.875 283.382 179.497 283.867 178.955L282.957 178.128C282.617 178.523 282.238 178.797 281.821 178.951C281.406 179.095 280.951 179.123 280.457 179.036C279.964 178.949 279.562 178.769 279.252 178.498C278.943 178.227 278.734 177.876 278.626 177.445C278.518 177.015 278.513 176.516 278.614 175.949C278.686 175.539 278.803 175.18 278.966 174.873C279.128 174.566 279.329 174.32 279.567 174.135C279.805 173.949 280.077 173.824 280.381 173.758C280.695 173.694 281.031 173.694 281.388 173.757C281.798 173.829 282.139 173.982 282.412 174.214C282.686 174.446 282.878 174.735 282.991 175.079C283.114 175.426 283.137 175.815 283.062 176.245C283.049 176.319 283.016 176.411 282.964 176.521C282.914 176.62 282.869 176.693 282.828 176.74L283.46 176.105L278.26 175.188L278.071 176.259L284.264 177.351C284.268 177.33 284.276 177.283 284.289 177.209C284.314 177.127 284.333 177.049 284.346 176.976C284.481 176.209 284.462 175.523 284.287 174.918C284.112 174.313 283.793 173.818 283.33 173.433C282.879 173.04 282.297 172.78 281.583 172.654C281.047 172.56 280.542 172.568 280.067 172.679C279.595 172.78 279.171 172.971 278.797 173.251C278.424 173.521 278.108 173.872 277.848 174.303C277.598 174.735 277.423 175.235 277.323 175.802C277.192 176.548 277.218 177.23 277.401 177.847C277.596 178.466 277.921 178.984 278.379 179.4C278.848 179.808 279.419 180.071 280.092 180.19ZM290.85 177.375L290.072 181.787L291.333 182.009L292.138 177.44C292.242 176.852 292.226 176.329 292.09 175.872C291.964 175.416 291.738 175.041 291.411 174.745C291.084 174.449 290.664 174.255 290.149 174.165C289.676 174.081 289.238 174.112 288.833 174.257C288.439 174.405 288.082 174.677 287.762 175.076L287.962 173.942L286.702 173.719L285.424 180.967L286.684 181.19L287.462 176.778C287.525 176.421 287.654 176.118 287.85 175.871C288.055 175.626 288.308 175.454 288.607 175.355C288.918 175.247 289.258 175.226 289.625 175.291C289.962 175.35 290.233 175.468 290.44 175.646C290.647 175.823 290.784 176.058 290.852 176.352C290.921 176.635 290.92 176.976 290.85 177.375ZM111.235 162.235L109.29 173.265L114.963 174.265L115.185 173.005L110.852 172.241L112.575 162.471L111.235 162.235ZM116.314 170.767C116.186 171.492 116.234 172.172 116.458 172.807C116.694 173.433 117.067 173.959 117.577 174.385C118.087 174.811 118.694 175.086 119.397 175.21C120.112 175.336 120.776 175.285 121.39 175.057C122.015 174.832 122.54 174.464 122.966 173.954C123.404 173.436 123.687 172.814 123.814 172.089C123.944 171.354 123.891 170.673 123.655 170.047C123.429 169.422 123.061 168.897 122.552 168.471C122.052 168.047 121.445 167.772 120.731 167.646C120.027 167.522 119.363 167.573 118.738 167.799C118.114 168.024 117.583 168.391 117.147 168.899C116.721 169.409 116.444 170.032 116.314 170.767ZM117.59 170.992C117.679 170.488 117.863 170.06 118.142 169.708C118.433 169.348 118.781 169.09 119.188 168.934C119.605 168.78 120.05 168.745 120.523 168.828C120.995 168.912 121.396 169.096 121.725 169.381C122.064 169.669 122.304 170.03 122.443 170.467C122.595 170.894 122.627 171.36 122.538 171.864C122.449 172.369 122.26 172.796 121.971 173.145C121.692 173.497 121.344 173.755 120.925 173.919C120.518 174.075 120.079 174.111 119.606 174.028C119.133 173.945 118.727 173.759 118.388 173.472C118.061 173.176 117.821 172.814 117.669 172.387C117.528 171.961 117.502 171.496 117.59 170.992ZM128.335 163.951L127.074 163.728L124.907 176.019L126.168 176.241L128.335 163.951ZM130.333 172.426L129.555 176.838L130.816 177.061L131.622 172.491C131.733 171.861 131.72 171.317 131.584 170.86C131.459 170.405 131.225 170.038 130.884 169.762C130.554 169.487 130.136 169.305 129.632 169.216C129.128 169.127 128.658 169.18 128.223 169.374C127.799 169.57 127.436 169.874 127.136 170.287C126.838 170.689 126.638 171.179 126.536 171.757L126.946 171.829C127.007 171.482 127.135 171.186 127.33 170.938C127.536 170.693 127.789 170.516 128.09 170.406C128.401 170.299 128.741 170.277 129.109 170.342C129.455 170.403 129.727 170.522 129.923 170.697C130.13 170.874 130.268 171.11 130.335 171.403C130.404 171.686 130.404 172.027 130.333 172.426ZM135.724 170.453L134.464 170.23L133.186 177.479L134.446 177.701L135.724 170.453ZM137.67 172.225L138.547 171.308C138.393 171.075 138.206 170.906 137.986 170.803C137.778 170.69 137.543 170.611 137.28 170.565C136.944 170.505 136.59 170.578 136.218 170.783C135.846 170.989 135.515 171.299 135.226 171.713C134.948 172.119 134.759 172.611 134.657 173.189L135.224 173.289C135.285 172.942 135.371 172.638 135.483 172.376C135.604 172.116 135.768 171.923 135.975 171.797C136.181 171.67 136.442 171.635 136.757 171.691C136.967 171.728 137.135 171.79 137.26 171.877C137.387 171.954 137.524 172.07 137.67 172.225ZM138.762 170.988L138.553 172.17L142.177 172.809L142.386 171.627L138.762 170.988ZM140.388 168.675L138.665 178.445L139.926 178.667L141.649 168.898L140.388 168.675ZM143.334 176.961C143.38 176.698 143.483 176.484 143.642 176.317C143.802 176.15 144.017 176.036 144.287 175.975C144.568 175.917 144.914 175.923 145.324 175.996C145.765 176.074 146.17 176.204 146.538 176.389C146.908 176.562 147.255 176.807 147.578 177.124L147.708 176.384C147.652 176.276 147.531 176.13 147.347 175.946C147.165 175.752 146.905 175.565 146.568 175.387C146.244 175.199 145.819 175.06 145.294 174.967C144.706 174.863 144.178 174.873 143.713 174.997C143.259 175.112 142.886 175.322 142.594 175.628C142.312 175.936 142.13 176.326 142.046 176.799C141.959 177.293 142.001 177.733 142.171 178.121C142.341 178.508 142.598 178.83 142.943 179.085C143.3 179.332 143.699 179.495 144.14 179.573C144.54 179.643 144.952 179.64 145.377 179.563C145.813 179.488 146.194 179.323 146.521 179.066C146.858 178.812 147.067 178.453 147.149 177.991L147.063 177.001C146.997 177.379 146.843 177.699 146.602 177.96C146.373 178.212 146.088 178.389 145.745 178.491C145.412 178.595 145.052 178.612 144.663 178.544C144.358 178.49 144.094 178.395 143.869 178.257C143.656 178.112 143.499 177.927 143.398 177.703C143.307 177.481 143.286 177.234 143.334 176.961ZM143.734 173.587C143.864 173.523 144.039 173.451 144.259 173.371C144.479 173.291 144.738 173.233 145.037 173.199C145.346 173.167 145.679 173.183 146.036 173.246C146.257 173.285 146.463 173.343 146.655 173.42C146.847 173.497 147.009 173.596 147.139 173.716C147.28 173.839 147.378 173.991 147.432 174.174C147.488 174.347 147.494 174.559 147.45 174.811L146.563 179.837L147.824 180.06L148.741 174.86C148.824 174.387 148.774 173.967 148.589 173.598C148.416 173.232 148.128 172.927 147.727 172.683C147.339 172.43 146.861 172.254 146.293 172.154C145.621 172.035 145.026 172.033 144.507 172.148C144 172.264 143.591 172.398 143.283 172.549L143.734 173.587ZM152.125 168.146L149.958 180.436L151.219 180.658L153.386 168.368L152.125 168.146ZM153.765 173.634L155.541 181.989L158.536 177.074L159.795 182.739L164.322 175.495L162.904 175.245L160.24 179.666L159.062 173.999L156.164 178.915L155.183 173.884L153.765 173.634ZM166.845 183.576C167.623 183.713 168.322 183.679 168.943 183.475C169.576 183.262 170.136 182.884 170.621 182.341L169.711 181.514C169.371 181.909 168.992 182.184 168.575 182.338C168.16 182.481 167.705 182.509 167.211 182.422C166.718 182.335 166.316 182.156 166.006 181.885C165.697 181.614 165.488 181.263 165.38 180.832C165.272 180.401 165.267 179.902 165.367 179.335C165.44 178.925 165.557 178.567 165.72 178.26C165.882 177.953 166.082 177.706 166.321 177.521C166.559 177.336 166.831 177.21 167.135 177.145C167.449 177.081 167.785 177.081 168.142 177.144C168.552 177.216 168.893 177.368 169.166 177.6C169.44 177.833 169.632 178.121 169.745 178.466C169.868 178.813 169.891 179.201 169.816 179.632C169.803 179.705 169.77 179.797 169.718 179.907C169.668 180.007 169.623 180.08 169.582 180.127L170.214 179.491L165.014 178.574L164.825 179.646L171.018 180.738C171.021 180.717 171.03 180.669 171.043 180.596C171.068 180.514 171.087 180.436 171.1 180.362C171.235 179.595 171.216 178.909 171.041 178.305C170.866 177.7 170.547 177.205 170.084 176.82C169.633 176.426 169.051 176.167 168.337 176.041C167.801 175.946 167.296 175.955 166.821 176.066C166.349 176.167 165.925 176.357 165.551 176.638C165.178 176.908 164.862 177.258 164.602 177.689C164.352 178.122 164.177 178.622 164.077 179.189C163.946 179.935 163.972 180.616 164.155 181.233C164.35 181.853 164.675 182.37 165.133 182.787C165.602 183.194 166.173 183.458 166.845 183.576ZM171.606 184.74C171.497 185.36 171.553 185.933 171.774 186.46C171.993 186.997 172.348 187.444 172.837 187.801C173.337 188.16 173.939 188.401 174.643 188.525C175.252 188.633 175.855 188.593 176.451 188.406C177.047 188.218 177.569 187.871 178.016 187.365C178.46 186.87 178.756 186.207 178.902 185.377L180.153 178.287L178.892 178.064L177.642 185.155C177.534 185.764 177.326 186.237 177.018 186.572C176.719 186.92 176.374 187.152 175.986 187.267C175.597 187.383 175.219 187.408 174.851 187.344C174.379 187.26 173.986 187.093 173.672 186.843C173.357 186.604 173.132 186.315 172.996 185.977C172.859 185.649 172.821 185.312 172.882 184.966L171.606 184.74ZM172.187 180.619C172.049 181.396 172.094 182.097 172.319 182.722C172.545 183.346 172.904 183.859 173.397 184.26C173.889 184.661 174.461 184.919 175.112 185.034C175.564 185.113 175.989 185.102 176.386 184.998C176.795 184.887 177.16 184.691 177.48 184.412C177.811 184.134 178.09 183.777 178.319 183.341C178.549 182.894 178.716 182.377 178.82 181.788C178.924 181.2 178.943 180.662 178.877 180.174C178.814 179.675 178.674 179.239 178.458 178.865C178.253 178.493 177.976 178.19 177.628 177.955C177.292 177.712 176.898 177.55 176.446 177.47C175.795 177.356 175.169 177.402 174.569 177.611C173.969 177.819 173.456 178.178 173.031 178.688C172.607 179.187 172.325 179.831 172.187 180.619ZM173.463 180.844C173.561 180.287 173.755 179.834 174.044 179.484C174.343 179.136 174.7 178.896 175.113 178.763C175.527 178.63 175.954 178.602 176.395 178.68C176.668 178.728 176.931 178.834 177.184 178.998C177.437 179.162 177.654 179.373 177.836 179.633C178.028 179.894 178.163 180.2 178.243 180.549C178.324 180.888 178.327 181.268 178.253 181.688C178.179 182.109 178.045 182.469 177.851 182.771C177.659 183.062 177.428 183.297 177.158 183.477C176.898 183.659 176.622 183.784 176.328 183.851C176.035 183.918 175.751 183.928 175.478 183.88C175.037 183.802 174.645 183.63 174.302 183.364C173.959 183.097 173.706 182.75 173.544 182.32C173.392 181.893 173.365 181.4 173.463 180.844ZM187.528 177.93L190.099 177.636L188.409 187.216L189.749 187.452L191.721 176.265L187.773 176.543L187.528 177.93ZM194.742 182.646C194.855 182.005 195.022 181.428 195.242 180.915C195.465 180.391 195.731 179.956 196.041 179.61C196.353 179.253 196.696 178.999 197.069 178.849C197.455 178.689 197.857 178.646 198.278 178.72C198.614 178.78 198.911 178.908 199.168 179.105C199.438 179.293 199.661 179.538 199.835 179.84C200.021 180.133 200.156 180.476 200.238 180.87C200.331 181.265 200.379 181.696 200.384 182.163C200.39 182.619 200.348 183.104 200.257 183.619C200.144 184.259 199.976 184.842 199.754 185.366C199.534 185.879 199.267 186.314 198.955 186.671C198.645 187.017 198.303 187.271 197.927 187.432C197.554 187.583 197.152 187.62 196.722 187.544C196.386 187.485 196.082 187.361 195.812 187.173C195.555 186.976 195.333 186.731 195.146 186.438C194.972 186.136 194.838 185.788 194.745 185.392C194.663 184.999 194.619 184.574 194.613 184.118C194.608 183.652 194.651 183.161 194.742 182.646ZM193.403 182.41C193.286 183.072 193.24 183.703 193.264 184.303C193.29 184.892 193.382 185.445 193.54 185.96C193.699 186.475 193.916 186.931 194.193 187.326C194.47 187.721 194.803 188.045 195.192 188.298C195.58 188.551 196.016 188.72 196.499 188.805C197.109 188.912 197.684 188.873 198.226 188.687C198.78 188.492 199.28 188.174 199.727 187.733C200.185 187.283 200.575 186.729 200.897 186.071C201.219 185.413 201.452 184.674 201.596 183.855C201.713 183.193 201.758 182.567 201.732 181.978C201.708 181.378 201.617 180.82 201.459 180.305C201.3 179.79 201.083 179.334 200.806 178.939C200.529 178.543 200.196 178.219 199.808 177.967C199.419 177.714 198.983 177.545 198.5 177.46C197.891 177.353 197.309 177.396 196.755 177.591C196.213 177.777 195.713 178.095 195.254 178.545C194.808 178.986 194.424 179.536 194.102 180.194C193.78 180.852 193.547 181.591 193.403 182.41ZM106.231 186.008L111.951 187.016L105.549 195.96L106.951 196.207L114.174 186.108L106.454 184.747L106.231 186.008ZM113.019 195.003L121.417 196.484L121.625 195.302L119.372 194.905L119.104 194.857L115.433 194.21L119.375 190.096L118.475 195.201L118.444 195.375L117.956 198.148L119.295 198.384L121.24 187.354L120.688 187.257L113.019 195.003ZM124.237 190.628C124.161 191.059 124.166 191.461 124.252 191.833C124.34 192.195 124.493 192.52 124.714 192.808C124.944 193.098 125.232 193.338 125.577 193.529C125.933 193.722 126.337 193.858 126.789 193.938C127.241 194.017 127.661 194.027 128.051 193.965C128.452 193.906 128.804 193.779 129.11 193.583C129.425 193.39 129.686 193.138 129.893 192.828C130.101 192.507 130.243 192.131 130.319 191.701C130.388 191.312 130.373 190.936 130.274 190.572C130.188 190.199 130.031 189.863 129.802 189.563C129.576 189.252 129.286 188.99 128.934 188.776C128.592 188.564 128.206 188.42 127.775 188.344C127.197 188.242 126.655 188.277 126.149 188.447C125.652 188.62 125.23 188.897 124.881 189.28C124.544 189.654 124.329 190.103 124.237 190.628ZM125.485 191.011C125.546 190.664 125.675 190.367 125.87 190.12C126.076 189.875 126.323 189.702 126.611 189.601C126.912 189.492 127.231 189.467 127.567 189.526C127.913 189.587 128.204 189.719 128.439 189.923C128.676 190.117 128.844 190.363 128.942 190.662C129.052 190.963 129.076 191.287 129.015 191.633C128.954 191.98 128.816 192.27 128.602 192.503C128.398 192.738 128.146 192.904 127.847 193.003C127.559 193.104 127.257 193.127 126.942 193.071C126.627 193.016 126.345 192.89 126.098 192.695C125.862 192.502 125.682 192.259 125.561 191.967C125.449 191.676 125.424 191.358 125.485 191.011ZM122.895 195.932C122.82 196.363 122.832 196.782 122.934 197.19C123.046 197.599 123.228 197.978 123.481 198.326C123.744 198.676 124.066 198.971 124.446 199.211C124.838 199.443 125.281 199.602 125.775 199.689C126.269 199.776 126.734 199.777 127.172 199.692C127.621 199.598 128.025 199.43 128.381 199.19C128.748 198.952 129.049 198.658 129.284 198.309C129.529 197.963 129.69 197.574 129.765 197.143C129.854 196.639 129.839 196.176 129.718 195.754C129.61 195.323 129.416 194.948 129.137 194.628C128.87 194.299 128.538 194.03 128.142 193.819C127.756 193.61 127.338 193.466 126.886 193.386C126.434 193.307 125.986 193.298 125.542 193.361C125.108 193.425 124.705 193.565 124.331 193.781C123.969 193.988 123.659 194.274 123.399 194.64C123.152 194.997 122.984 195.428 122.895 195.932ZM124.2 195.999C124.27 195.6 124.433 195.261 124.688 194.981C124.955 194.692 125.269 194.482 125.628 194.35C125.997 194.221 126.366 194.188 126.733 194.253C127.101 194.318 127.431 194.473 127.723 194.72C128.026 194.968 128.249 195.273 128.391 195.634C128.545 195.986 128.587 196.362 128.517 196.761C128.437 197.212 128.265 197.577 127.999 197.855C127.744 198.135 127.433 198.33 127.068 198.439C126.712 198.549 126.351 198.572 125.983 198.507C125.616 198.442 125.278 198.296 124.972 198.069C124.676 197.844 124.451 197.555 124.296 197.203C124.152 196.852 124.12 196.451 124.2 195.999ZM130.418 200.345L138.202 201.718L138.424 200.457L133.397 199.571L137.542 196.614C138.05 196.248 138.49 195.812 138.862 195.303C139.233 194.794 139.469 194.256 139.569 193.689C139.628 193.353 139.622 192.989 139.55 192.597C139.478 192.206 139.328 191.827 139.1 191.462C138.874 191.086 138.558 190.76 138.152 190.482C137.748 190.195 137.241 189.997 136.632 189.889C135.875 189.756 135.195 189.809 134.589 190.049C133.996 190.28 133.505 190.67 133.115 191.219C132.728 191.757 132.465 192.42 132.326 193.208L133.665 193.444C133.764 192.888 133.937 192.425 134.186 192.058C134.437 191.68 134.749 191.415 135.122 191.264C135.508 191.105 135.937 191.067 136.41 191.15C136.746 191.209 137.035 191.32 137.277 191.482C137.519 191.644 137.713 191.835 137.858 192.055C138.014 192.278 138.119 192.513 138.173 192.761C138.226 193.008 138.232 193.253 138.189 193.495C138.138 193.789 138.04 194.064 137.898 194.321C137.767 194.568 137.59 194.808 137.365 195.039C137.152 195.261 136.902 195.483 136.614 195.703L130.418 200.345ZM141.896 193.238L144.466 192.944L142.776 202.524L144.116 202.761L146.088 191.573L142.14 191.852L141.896 193.238ZM154.994 196.994L157.453 204.056L162.18 198.261L161.685 205.859L163.024 206.095L163.727 194.277L157.906 201.488L154.903 192.721L151.522 204.066L152.861 204.303L154.994 196.994ZM164.838 202.678C164.71 203.403 164.758 204.083 164.982 204.718C165.218 205.344 165.591 205.87 166.101 206.296C166.611 206.722 167.218 206.997 167.921 207.121C168.636 207.247 169.3 207.196 169.914 206.968C170.539 206.743 171.064 206.375 171.49 205.865C171.928 205.347 172.211 204.725 172.338 204C172.468 203.265 172.415 202.584 172.179 201.958C171.953 201.333 171.585 200.808 171.076 200.382C170.576 199.958 169.969 199.683 169.255 199.557C168.551 199.433 167.887 199.484 167.262 199.71C166.638 199.935 166.107 200.302 165.671 200.81C165.245 201.32 164.968 201.942 164.838 202.678ZM166.114 202.903C166.203 202.399 166.387 201.971 166.666 201.619C166.957 201.259 167.306 201.001 167.712 200.845C168.129 200.691 168.574 200.656 169.047 200.739C169.519 200.822 169.92 201.007 170.249 201.292C170.588 201.58 170.828 201.941 170.967 202.378C171.119 202.805 171.151 203.271 171.062 203.775C170.973 204.279 170.784 204.706 170.495 205.056C170.216 205.408 169.868 205.666 169.449 205.83C169.042 205.986 168.603 206.022 168.13 205.939C167.657 205.856 167.251 205.67 166.912 205.383C166.585 205.087 166.345 204.725 166.193 204.298C166.052 203.872 166.026 203.407 166.114 202.903ZM174.122 205.761L173.021 206.2C173.108 206.508 173.258 206.822 173.473 207.141C173.698 207.462 173.989 207.746 174.346 207.994C174.705 208.23 175.126 208.391 175.609 208.476C176.103 208.563 176.55 208.545 176.951 208.42C177.365 208.288 177.705 208.077 177.973 207.788C178.242 207.489 178.414 207.129 178.488 206.709C178.564 206.279 178.521 205.908 178.359 205.598C178.207 205.29 177.975 205.01 177.662 204.76C177.35 204.499 176.999 204.248 176.609 204.006C176.375 203.856 176.153 203.703 175.942 203.547C175.732 203.391 175.566 203.226 175.444 203.053C175.323 202.88 175.279 202.699 175.313 202.51C175.355 202.269 175.481 202.107 175.691 202.024C175.9 201.942 176.136 201.924 176.399 201.971C176.777 202.037 177.098 202.186 177.36 202.416C177.633 202.649 177.846 202.919 177.997 203.227L179.119 202.759C179.02 202.46 178.858 202.182 178.633 201.926C178.407 201.669 178.132 201.448 177.808 201.26C177.494 201.075 177.142 200.948 176.754 200.88C176.365 200.811 175.975 200.813 175.583 200.884C175.202 200.958 174.871 201.116 174.59 201.359C174.319 201.604 174.146 201.941 174.07 202.372C173.996 202.792 174.039 203.163 174.199 203.483C174.371 203.795 174.599 204.069 174.883 204.303C175.179 204.528 175.473 204.732 175.766 204.913C176.031 205.068 176.279 205.231 176.509 205.402C176.741 205.562 176.919 205.745 177.046 205.951C177.184 206.149 177.231 206.374 177.187 206.626C177.137 206.91 176.992 207.117 176.752 207.248C176.525 207.37 176.232 207.4 175.875 207.337C175.581 207.285 175.317 207.185 175.084 207.035C174.862 206.877 174.674 206.687 174.518 206.464C174.362 206.242 174.23 206.007 174.122 205.761ZM183.135 196.968L181.875 196.746L179.707 209.036L180.968 209.259L183.135 196.968ZM187.673 206.704C187.812 205.916 187.768 205.215 187.541 204.601C187.315 203.977 186.956 203.464 186.463 203.063C185.981 202.664 185.409 202.406 184.748 202.289C184.296 202.209 183.865 202.226 183.456 202.337C183.058 202.441 182.694 202.631 182.364 202.909C182.044 203.188 181.769 203.551 181.538 203.998C181.31 204.434 181.143 204.946 181.04 205.535C180.936 206.123 180.916 206.666 180.98 207.165C181.045 207.653 181.181 208.083 181.386 208.455C181.602 208.829 181.877 209.137 182.214 209.381C182.562 209.616 182.962 209.773 183.414 209.852C184.076 209.969 184.701 209.922 185.291 209.712C185.891 209.504 186.404 209.145 186.829 208.635C187.255 208.125 187.536 207.482 187.673 206.704ZM186.397 206.479C186.299 207.036 186.1 207.488 185.8 207.836C185.511 208.186 185.16 208.427 184.747 208.56C184.344 208.695 183.916 208.723 183.465 208.643C183.192 208.595 182.929 208.489 182.676 208.325C182.423 208.161 182.201 207.949 182.009 207.687C181.827 207.428 181.696 207.129 181.615 206.789C181.535 206.44 181.533 206.055 181.607 205.635C181.681 205.214 181.814 204.859 182.006 204.568C182.2 204.266 182.427 204.024 182.686 203.843C182.956 203.663 183.238 203.539 183.532 203.472C183.825 203.405 184.109 203.395 184.382 203.443C184.833 203.523 185.225 203.695 185.558 203.959C185.901 204.225 186.148 204.572 186.3 205C186.463 205.429 186.495 205.922 186.397 206.479ZM189.734 208.497C189.781 208.235 189.883 208.02 190.043 207.853C190.202 207.686 190.417 207.573 190.688 207.512C190.969 207.453 191.314 207.46 191.724 207.532C192.165 207.61 192.57 207.741 192.938 207.925C193.309 208.099 193.655 208.344 193.978 208.661L194.109 207.92C194.052 207.813 193.932 207.667 193.747 207.483C193.565 207.288 193.306 207.102 192.969 206.923C192.644 206.736 192.22 206.596 191.694 206.503C191.106 206.4 190.579 206.41 190.113 206.533C189.66 206.648 189.287 206.859 188.994 207.165C188.713 207.472 188.53 207.863 188.447 208.335C188.36 208.829 188.401 209.27 188.571 209.657C188.741 210.044 188.999 210.366 189.343 210.622C189.701 210.869 190.1 211.031 190.541 211.109C190.94 211.18 191.352 211.176 191.777 211.1C192.213 211.025 192.594 210.859 192.921 210.603C193.258 210.348 193.468 209.99 193.549 209.527L193.464 208.538C193.397 208.916 193.243 209.235 193.003 209.496C192.774 209.748 192.488 209.925 192.145 210.027C191.813 210.131 191.452 210.149 191.064 210.08C190.759 210.027 190.494 209.931 190.269 209.794C190.057 209.648 189.9 209.463 189.798 209.24C189.708 209.018 189.686 208.77 189.734 208.497ZM190.134 205.124C190.265 205.06 190.44 204.988 190.66 204.908C190.88 204.827 191.139 204.77 191.437 204.736C191.746 204.704 192.079 204.719 192.437 204.782C192.657 204.821 192.863 204.879 193.056 204.956C193.248 205.034 193.409 205.132 193.54 205.253C193.68 205.375 193.778 205.528 193.832 205.711C193.889 205.883 193.895 206.095 193.85 206.347L192.964 211.374L194.224 211.596L195.141 206.396C195.225 205.924 195.174 205.503 194.99 205.135C194.816 204.769 194.529 204.463 194.128 204.219C193.739 203.967 193.261 203.79 192.694 203.69C192.022 203.572 191.426 203.57 190.908 203.684C190.4 203.8 189.992 203.934 189.684 204.086L190.134 205.124ZM197.565 208.448C197.654 207.944 197.838 207.516 198.116 207.165C198.407 206.804 198.756 206.546 199.163 206.391C199.58 206.237 200.024 206.201 200.497 206.285C200.886 206.353 201.237 206.48 201.551 206.665C201.877 206.842 202.149 207.053 202.366 207.297C202.583 207.541 202.722 207.793 202.785 208.053L203.063 206.477C202.862 206.139 202.54 205.849 202.095 205.608C201.662 205.358 201.199 205.19 200.706 205.103C200.002 204.979 199.338 205.03 198.713 205.255C198.088 205.481 197.558 205.848 197.122 206.356C196.696 206.865 196.418 207.488 196.289 208.223C196.161 208.948 196.209 209.628 196.433 210.263C196.669 210.89 197.042 211.416 197.551 211.842C198.061 212.267 198.668 212.542 199.372 212.666C199.866 212.753 200.358 212.759 200.847 212.683C201.35 212.598 201.753 212.431 202.057 212.181L202.335 210.605C202.189 210.818 201.972 211.007 201.682 211.173C201.395 211.328 201.067 211.438 200.698 211.503C200.342 211.559 199.969 211.553 199.58 211.484C199.108 211.401 198.702 211.216 198.362 210.929C198.035 210.633 197.796 210.271 197.644 209.843C197.502 209.418 197.476 208.953 197.565 208.448ZM207.311 201.231L206.05 201.009L203.883 213.299L205.144 213.521L207.311 201.231ZM209.309 209.707L208.531 214.119L209.792 214.341L210.598 209.772C210.709 209.141 210.696 208.598 210.56 208.14C210.435 207.685 210.202 207.319 209.861 207.042C209.53 206.767 209.112 206.585 208.608 206.496C208.104 206.407 207.634 206.46 207.199 206.654C206.775 206.85 206.413 207.154 206.112 207.567C205.814 207.97 205.614 208.46 205.512 209.037L205.922 209.11C205.983 208.763 206.111 208.466 206.306 208.219C206.512 207.973 206.765 207.796 207.066 207.687C207.378 207.579 207.717 207.558 208.085 207.623C208.431 207.684 208.703 207.802 208.9 207.977C209.107 208.155 209.244 208.39 209.311 208.684C209.38 208.967 209.38 209.308 209.309 209.707ZM104.652 206.484L103.391 206.262L101.224 218.552L102.484 218.775L104.652 206.484ZM106.65 214.96L105.872 219.372L107.133 219.594L107.938 215.025C108.05 214.395 108.037 213.851 107.901 213.394C107.776 212.938 107.542 212.572 107.201 212.295C106.871 212.02 106.453 211.838 105.949 211.75C105.445 211.661 104.975 211.713 104.54 211.907C104.116 212.103 103.753 212.408 103.453 212.82C103.155 213.223 102.955 213.713 102.853 214.291L103.262 214.363C103.323 214.016 103.452 213.719 103.647 213.472C103.853 213.227 104.106 213.049 104.407 212.94C104.718 212.832 105.058 212.811 105.425 212.876C105.772 212.937 106.044 213.055 106.24 213.231C106.447 213.408 106.584 213.643 106.652 213.937C106.721 214.22 106.72 214.561 106.65 214.96ZM109.677 212.569L109.469 213.751L113.093 214.39L113.302 213.209L109.677 212.569ZM111.304 210.257L109.581 220.026L110.842 220.248L112.564 210.479L111.304 210.257ZM113.463 213.237L113.254 214.419L116.879 215.058L117.087 213.876L113.463 213.237ZM115.089 210.924L113.367 220.694L114.627 220.916L116.35 211.146L115.089 210.924ZM117.644 225.022L119.533 214.307L118.272 214.085L116.383 224.8L117.644 225.022ZM124.96 219.001C125.099 218.213 125.055 217.512 124.827 216.898C124.602 216.273 124.243 215.761 123.75 215.36C123.268 214.96 122.696 214.703 122.035 214.586C121.583 214.506 121.152 214.522 120.743 214.634C120.345 214.738 119.981 214.928 119.651 215.205C119.331 215.485 119.055 215.848 118.825 216.295C118.597 216.731 118.43 217.243 118.327 217.831C118.223 218.42 118.203 218.963 118.267 219.462C118.332 219.95 118.468 220.38 118.673 220.752C118.888 221.126 119.164 221.434 119.501 221.678C119.849 221.912 120.249 222.07 120.701 222.149C121.363 222.266 121.988 222.219 122.578 222.009C123.178 221.801 123.691 221.442 124.116 220.932C124.542 220.422 124.823 219.778 124.96 219.001ZM123.684 218.776C123.586 219.333 123.387 219.785 123.087 220.133C122.798 220.483 122.447 220.724 122.034 220.857C121.631 220.992 121.203 221.019 120.752 220.94C120.479 220.892 120.216 220.786 119.963 220.622C119.71 220.458 119.488 220.246 119.296 219.984C119.114 219.725 118.982 219.425 118.901 219.086C118.822 218.737 118.82 218.352 118.894 217.931C118.968 217.511 119.101 217.156 119.293 216.864C119.487 216.563 119.714 216.321 119.973 216.14C120.243 215.96 120.525 215.836 120.819 215.769C121.112 215.701 121.395 215.692 121.669 215.74C122.12 215.82 122.512 215.992 122.845 216.256C123.188 216.522 123.435 216.869 123.587 217.297C123.75 217.726 123.782 218.219 123.684 218.776ZM126.751 220.763L125.65 221.202C125.736 221.51 125.887 221.823 126.101 222.143C126.326 222.464 126.617 222.748 126.974 222.995C127.333 223.232 127.754 223.393 128.238 223.478C128.731 223.565 129.179 223.547 129.58 223.422C129.993 223.289 130.334 223.079 130.601 222.79C130.87 222.491 131.042 222.131 131.116 221.711C131.192 221.28 131.149 220.91 130.987 220.6C130.836 220.292 130.603 220.012 130.29 219.762C129.979 219.501 129.628 219.25 129.237 219.008C129.004 218.858 128.781 218.705 128.571 218.549C128.36 218.393 128.194 218.228 128.073 218.055C127.952 217.882 127.908 217.701 127.941 217.512C127.984 217.27 128.11 217.109 128.319 217.026C128.529 216.944 128.765 216.926 129.027 216.972C129.406 217.039 129.726 217.188 129.989 217.418C130.262 217.65 130.474 217.921 130.625 218.229L131.748 217.761C131.649 217.462 131.487 217.184 131.261 216.928C131.035 216.671 130.76 216.449 130.436 216.262C130.122 216.077 129.771 215.95 129.382 215.881C128.994 215.813 128.603 215.815 128.212 215.886C127.83 215.96 127.499 216.118 127.218 216.361C126.947 216.606 126.774 216.943 126.698 217.374C126.624 217.794 126.667 218.165 126.827 218.485C127 218.797 127.228 219.07 127.511 219.305C127.807 219.53 128.102 219.734 128.395 219.915C128.66 220.07 128.907 220.233 129.137 220.404C129.369 220.564 129.548 220.747 129.674 220.953C129.812 221.151 129.859 221.376 129.815 221.628C129.765 221.912 129.62 222.119 129.38 222.25C129.153 222.372 128.861 222.402 128.503 222.339C128.209 222.287 127.946 222.186 127.712 222.037C127.491 221.879 127.302 221.689 127.146 221.466C126.991 221.244 126.859 221.009 126.751 220.763ZM132.841 223.477C132.8 223.709 132.848 223.928 132.985 224.136C133.134 224.336 133.324 224.456 133.555 224.497C133.796 224.54 134.016 224.492 134.214 224.353C134.413 224.204 134.533 224.014 134.574 223.783C134.617 223.541 134.569 223.322 134.43 223.124C134.292 222.926 134.102 222.806 133.86 222.764C133.629 222.723 133.41 222.771 133.201 222.907C133.004 223.046 132.883 223.236 132.841 223.477ZM133.897 217.49C133.856 217.721 133.904 217.941 134.04 218.149C134.189 218.348 134.379 218.469 134.61 218.509C134.852 218.552 135.072 218.504 135.269 218.366C135.469 218.217 135.589 218.027 135.63 217.795C135.672 217.554 135.625 217.334 135.486 217.136C135.348 216.939 135.158 216.819 134.916 216.776C134.685 216.735 134.465 216.783 134.257 216.92C134.059 217.058 133.939 217.248 133.897 217.49ZM144.52 214.814L135.776 227.082L137.037 227.304L145.78 215.036L144.52 214.814ZM151.059 215.967L142.316 228.235L143.577 228.457L152.32 216.189L151.059 215.967ZM151.963 220.026L153.739 228.381L156.734 223.466L157.993 229.131L162.52 221.887L161.102 221.637L158.438 226.058L157.26 220.391L154.362 225.306L153.381 220.276L151.963 220.026ZM163.149 221.998L164.926 230.353L167.92 225.439L169.18 231.104L173.707 223.86L172.288 223.609L169.624 228.03L168.446 222.363L165.549 227.279L164.568 222.248L163.149 221.998ZM174.336 223.971L176.112 232.326L179.107 227.411L180.367 233.076L184.893 225.832L183.475 225.582L180.811 230.003L179.633 224.336L176.736 229.251L175.754 224.221L174.336 223.971ZM184.359 232.561C184.318 232.793 184.366 233.012 184.502 233.22C184.651 233.42 184.841 233.54 185.072 233.581C185.314 233.623 185.534 233.576 185.731 233.437C185.931 233.288 186.051 233.098 186.092 232.867C186.134 232.625 186.087 232.406 185.948 232.208C185.81 232.01 185.62 231.89 185.378 231.848C185.147 231.807 184.927 231.855 184.719 231.991C184.521 232.13 184.401 232.32 184.359 232.561ZM199.389 231.15C199.494 230.551 199.49 230.025 199.375 229.572C199.272 229.109 199.067 228.737 198.759 228.456C198.451 228.174 198.051 227.99 197.557 227.903C197.074 227.817 196.623 227.857 196.204 228.021C195.787 228.175 195.412 228.456 195.081 228.863C195.027 228.55 194.913 228.276 194.738 228.039C194.574 227.804 194.365 227.61 194.11 227.457C193.855 227.304 193.56 227.198 193.224 227.138C192.93 227.087 192.648 227.086 192.379 227.136C192.113 227.175 191.864 227.267 191.632 227.41C191.412 227.556 191.204 227.752 191.009 227.999L191.195 226.943L189.934 226.721L188.656 233.969L189.917 234.191L190.695 229.779C190.761 229.401 190.887 229.088 191.072 228.839C191.257 228.59 191.487 228.419 191.763 228.327C192.041 228.224 192.354 228.204 192.7 228.265C193.015 228.32 193.261 228.434 193.436 228.606C193.624 228.769 193.742 228.99 193.79 229.269C193.849 229.55 193.841 229.901 193.767 230.321L192.989 234.733L194.25 234.955L195.028 230.544C195.095 230.165 195.22 229.852 195.405 229.603C195.59 229.354 195.82 229.183 196.096 229.091C196.374 228.988 196.687 228.968 197.033 229.029C197.349 229.084 197.594 229.198 197.769 229.37C197.957 229.533 198.075 229.754 198.124 230.033C198.182 230.314 198.175 230.665 198.101 231.085L197.323 235.497L198.583 235.72L199.389 231.15ZM200.96 232.402C200.832 233.127 200.88 233.807 201.104 234.442C201.34 235.068 201.713 235.594 202.223 236.02C202.732 236.446 203.339 236.721 204.043 236.845C204.757 236.971 205.422 236.92 206.036 236.692C206.66 236.467 207.186 236.099 207.611 235.589C208.049 235.071 208.332 234.449 208.46 233.724C208.59 232.989 208.536 232.308 208.3 231.682C208.075 231.057 207.707 230.532 207.197 230.106C206.698 229.682 206.091 229.407 205.377 229.281C204.673 229.157 204.009 229.208 203.384 229.434C202.759 229.659 202.229 230.026 201.793 230.534C201.367 231.044 201.089 231.666 200.96 232.402ZM202.236 232.627C202.325 232.123 202.509 231.695 202.787 231.343C203.078 230.983 203.427 230.725 203.834 230.569C204.251 230.415 204.696 230.38 205.168 230.463C205.641 230.547 206.042 230.731 206.371 231.016C206.71 231.304 206.949 231.665 207.089 232.102C207.241 232.529 207.273 232.995 207.184 233.499C207.095 234.003 206.906 234.43 206.617 234.78C206.338 235.132 205.989 235.39 205.57 235.554C205.164 235.71 204.724 235.746 204.251 235.663C203.779 235.58 203.373 235.394 203.034 235.107C202.707 234.811 202.467 234.449 202.315 234.022C202.173 233.596 202.147 233.131 202.236 232.627ZM210.244 235.485L209.143 235.924C209.229 236.232 209.38 236.546 209.594 236.865C209.819 237.186 210.11 237.47 210.468 237.718C210.827 237.954 211.248 238.115 211.731 238.2C212.225 238.287 212.672 238.269 213.073 238.144C213.486 238.012 213.827 237.801 214.094 237.512C214.364 237.213 214.535 236.853 214.609 236.433C214.685 236.003 214.642 235.632 214.48 235.322C214.329 235.014 214.097 234.734 213.783 234.484C213.472 234.224 213.121 233.972 212.73 233.73C212.497 233.58 212.275 233.428 212.064 233.271C211.853 233.115 211.687 232.95 211.566 232.777C211.445 232.604 211.401 232.423 211.434 232.234C211.477 231.993 211.603 231.831 211.812 231.748C212.022 231.666 212.258 231.648 212.521 231.695C212.899 231.761 213.219 231.91 213.482 232.14C213.755 232.373 213.967 232.643 214.119 232.951L215.241 232.483C215.142 232.184 214.98 231.906 214.754 231.65C214.529 231.393 214.254 231.172 213.929 230.984C213.615 230.799 213.264 230.672 212.875 230.604C212.487 230.535 212.097 230.537 211.705 230.608C211.324 230.682 210.992 230.84 210.711 231.083C210.441 231.328 210.267 231.666 210.191 232.096C210.117 232.516 210.16 232.887 210.32 233.207C210.493 233.52 210.721 233.793 211.005 234.027C211.301 234.252 211.595 234.456 211.888 234.637C212.153 234.792 212.401 234.955 212.63 235.126C212.862 235.286 213.041 235.469 213.167 235.675C213.306 235.873 213.353 236.098 213.308 236.35C213.258 236.634 213.113 236.841 212.874 236.972C212.646 237.094 212.354 237.124 211.997 237.061C211.703 237.009 211.439 236.909 211.205 236.759C210.984 236.601 210.795 236.411 210.64 236.188C210.484 235.966 210.352 235.731 210.244 235.485ZM219.257 226.692L217.996 226.47L215.829 238.76L217.09 238.983L219.257 226.692ZM223.795 236.428C223.934 235.64 223.89 234.939 223.662 234.325C223.437 233.701 223.077 233.188 222.585 232.787C222.103 232.388 221.531 232.13 220.869 232.013C220.418 231.933 219.987 231.95 219.577 232.062C219.18 232.165 218.816 232.355 218.485 232.633C218.165 232.912 217.89 233.275 217.66 233.722C217.431 234.158 217.265 234.67 217.161 235.259C217.058 235.847 217.038 236.39 217.101 236.889C217.167 237.377 217.302 237.807 217.507 238.179C217.723 238.553 217.999 238.861 218.335 239.105C218.684 239.34 219.084 239.497 219.536 239.576C220.197 239.693 220.823 239.646 221.412 239.436C222.012 239.228 222.525 238.869 222.951 238.359C223.377 237.849 223.658 237.206 223.795 236.428ZM222.519 236.203C222.421 236.76 222.222 237.212 221.922 237.56C221.633 237.91 221.282 238.151 220.868 238.284C220.465 238.419 220.038 238.447 219.586 238.367C219.313 238.319 219.05 238.213 218.798 238.049C218.545 237.885 218.322 237.673 218.13 237.412C217.948 237.152 217.817 236.853 217.736 236.513C217.657 236.164 217.654 235.779 217.729 235.359C217.803 234.938 217.936 234.583 218.128 234.292C218.322 233.99 218.549 233.749 218.808 233.567C219.078 233.387 219.36 233.263 219.653 233.196C219.947 233.129 220.23 233.119 220.503 233.167C220.955 233.247 221.347 233.419 221.68 233.683C222.023 233.949 222.27 234.296 222.422 234.724C222.585 235.153 222.617 235.646 222.519 236.203ZM225.856 238.221C225.902 237.959 226.005 237.744 226.164 237.577C226.324 237.41 226.539 237.297 226.81 237.236C227.091 237.177 227.436 237.184 227.846 237.256C228.287 237.334 228.692 237.465 229.06 237.649C229.43 237.823 229.777 238.068 230.1 238.385L230.231 237.644C230.174 237.537 230.053 237.391 229.869 237.207C229.687 237.012 229.427 236.826 229.09 236.647C228.766 236.46 228.341 236.32 227.816 236.227C227.228 236.124 226.701 236.134 226.235 236.257C225.781 236.372 225.408 236.583 225.116 236.889C224.834 237.196 224.652 237.587 224.569 238.059C224.481 238.553 224.523 238.994 224.693 239.381C224.863 239.768 225.12 240.09 225.465 240.346C225.822 240.593 226.221 240.755 226.663 240.833C227.062 240.904 227.474 240.9 227.899 240.824C228.335 240.749 228.716 240.583 229.043 240.327C229.38 240.072 229.59 239.714 229.671 239.252L229.586 238.262C229.519 238.64 229.365 238.959 229.124 239.22C228.896 239.472 228.61 239.649 228.267 239.751C227.934 239.855 227.574 239.873 227.185 239.804C226.881 239.751 226.616 239.655 226.391 239.518C226.178 239.372 226.021 239.187 225.92 238.964C225.829 238.742 225.808 238.494 225.856 238.221ZM226.256 234.848C226.386 234.784 226.561 234.712 226.781 234.632C227.001 234.551 227.261 234.494 227.559 234.46C227.868 234.428 228.201 234.443 228.558 234.506C228.779 234.545 228.985 234.603 229.177 234.68C229.369 234.758 229.531 234.856 229.661 234.977C229.802 235.099 229.9 235.252 229.954 235.435C230.01 235.607 230.016 235.819 229.972 236.071L229.086 241.098L230.346 241.32L231.263 236.12C231.346 235.648 231.296 235.227 231.112 234.859C230.938 234.493 230.651 234.187 230.25 233.943C229.861 233.691 229.383 233.514 228.816 233.414C228.143 233.296 227.548 233.294 227.03 233.408C226.522 233.524 226.114 233.658 225.805 233.81L226.256 234.848ZM233.687 238.172C233.775 237.668 233.959 237.24 234.238 236.889C234.529 236.528 234.878 236.27 235.284 236.115C235.701 235.961 236.146 235.925 236.619 236.009C237.007 236.077 237.359 236.204 237.673 236.39C237.999 236.566 238.271 236.777 238.487 237.021C238.704 237.265 238.844 237.517 238.907 237.777L239.184 236.201C238.984 235.863 238.662 235.573 238.217 235.332C237.784 235.082 237.321 234.914 236.827 234.827C236.123 234.703 235.459 234.754 234.834 234.979C234.21 235.205 233.679 235.572 233.243 236.08C232.818 236.589 232.54 237.212 232.41 237.947C232.282 238.672 232.33 239.352 232.554 239.987C232.79 240.614 233.163 241.14 233.673 241.566C234.183 241.991 234.79 242.266 235.494 242.39C235.987 242.477 236.479 242.483 236.969 242.407C237.471 242.322 237.875 242.155 238.179 241.905L238.456 240.329C238.311 240.542 238.093 240.731 237.804 240.897C237.517 241.052 237.189 241.162 236.82 241.227C236.463 241.283 236.091 241.277 235.702 241.209C235.229 241.125 234.823 240.94 234.484 240.653C234.157 240.357 233.918 239.995 233.766 239.567C233.624 239.142 233.598 238.677 233.687 238.172ZM243.432 230.955L242.172 230.733L240.005 243.023L241.265 243.246L243.432 230.955ZM245.431 239.431L244.653 243.843L245.914 244.065L246.719 239.496C246.831 238.865 246.818 238.322 246.682 237.864C246.557 237.409 246.323 237.043 245.982 236.766C245.652 236.491 245.234 236.309 244.73 236.22C244.226 236.131 243.756 236.184 243.321 236.378C242.897 236.574 242.534 236.878 242.234 237.291C241.936 237.694 241.735 238.184 241.634 238.761L242.043 238.834C242.104 238.487 242.233 238.19 242.428 237.943C242.634 237.697 242.887 237.52 243.188 237.411C243.499 237.303 243.839 237.282 244.206 237.347C244.553 237.408 244.825 237.526 245.021 237.701C245.228 237.879 245.365 238.114 245.433 238.408C245.502 238.691 245.501 239.032 245.431 239.431ZM248.71 243.908C248.669 244.139 248.717 244.359 248.853 244.567C249.002 244.767 249.192 244.887 249.423 244.928C249.665 244.97 249.885 244.922 250.082 244.784C250.282 244.635 250.402 244.445 250.443 244.214C250.485 243.972 250.438 243.753 250.299 243.555C250.161 243.357 249.971 243.237 249.729 243.194C249.498 243.154 249.278 243.202 249.07 243.338C248.872 243.477 248.752 243.667 248.71 243.908ZM260.611 233.984L258.443 246.274L259.704 246.497L261.871 234.206L260.611 233.984ZM253.016 241.581C252.879 242.358 252.923 243.059 253.149 243.684C253.375 244.308 253.734 244.821 254.226 245.222C254.719 245.623 255.291 245.881 255.942 245.996C256.394 246.076 256.818 246.064 257.215 245.96C257.625 245.849 257.99 245.653 258.31 245.374C258.64 245.096 258.92 244.739 259.149 244.303C259.379 243.856 259.546 243.339 259.65 242.75C259.753 242.162 259.773 241.624 259.707 241.136C259.643 240.637 259.504 240.201 259.288 239.827C259.083 239.455 258.806 239.152 258.457 238.917C258.121 238.674 257.727 238.512 257.275 238.433C256.624 238.318 255.999 238.364 255.399 238.573C254.799 238.781 254.286 239.14 253.86 239.65C253.436 240.149 253.155 240.793 253.016 241.581ZM254.292 241.806C254.391 241.249 254.584 240.796 254.873 240.446C255.173 240.098 255.529 239.858 255.943 239.725C256.356 239.592 256.783 239.564 257.225 239.642C257.498 239.69 257.761 239.796 258.013 239.96C258.266 240.124 258.483 240.335 258.665 240.595C258.857 240.856 258.993 241.162 259.072 241.511C259.153 241.851 259.157 242.23 259.083 242.65C259.008 243.071 258.874 243.431 258.68 243.733C258.488 244.024 258.257 244.26 257.987 244.439C257.728 244.621 257.451 244.746 257.158 244.813C256.864 244.88 256.581 244.89 256.308 244.842C255.867 244.764 255.475 244.592 255.132 244.326C254.789 244.06 254.536 243.712 254.373 243.282C254.221 242.855 254.194 242.363 254.292 241.806ZM265.421 234.832L264.161 234.61L261.994 246.9L263.254 247.123L265.421 234.832ZM267.42 243.308L266.642 247.72L267.903 247.942L268.708 243.373C268.819 242.743 268.807 242.199 268.671 241.742C268.545 241.286 268.312 240.92 267.971 240.643C267.64 240.368 267.223 240.187 266.719 240.098C266.215 240.009 265.745 240.061 265.31 240.255C264.886 240.451 264.523 240.756 264.223 241.169C263.925 241.571 263.724 242.061 263.623 242.639L264.032 242.711C264.093 242.364 264.222 242.067 264.417 241.82C264.622 241.575 264.876 241.397 265.177 241.288C265.488 241.18 265.828 241.159 266.195 241.224C266.542 241.285 266.814 241.403 267.01 241.579C267.217 241.756 267.354 241.991 267.422 242.285C267.491 242.568 267.49 242.909 267.42 243.308ZM273.621 236.278L272.361 236.056L270.193 248.346L271.454 248.569L273.621 236.278ZM278.159 246.014C278.298 245.226 278.254 244.525 278.027 243.911C277.801 243.286 277.442 242.774 276.949 242.373C276.467 241.974 275.895 241.716 275.234 241.599C274.782 241.519 274.351 241.536 273.942 241.647C273.544 241.751 273.18 241.941 272.85 242.219C272.53 242.498 272.255 242.861 272.024 243.308C271.796 243.744 271.63 244.256 271.526 244.844C271.422 245.433 271.402 245.976 271.466 246.475C271.531 246.963 271.667 247.393 271.872 247.765C272.088 248.139 272.364 248.447 272.7 248.691C273.048 248.926 273.448 249.083 273.9 249.162C274.562 249.279 275.187 249.232 275.777 249.022C276.377 248.814 276.89 248.455 277.315 247.945C277.741 247.435 278.022 246.792 278.159 246.014ZM276.883 245.789C276.785 246.346 276.586 246.798 276.286 247.146C275.997 247.496 275.646 247.737 275.233 247.87C274.83 248.005 274.403 248.032 273.951 247.953C273.678 247.905 273.415 247.799 273.162 247.635C272.909 247.471 272.687 247.259 272.495 246.997C272.313 246.738 272.182 246.439 272.101 246.099C272.021 245.75 272.019 245.365 272.093 244.945C272.167 244.524 272.3 244.169 272.492 243.878C272.686 243.576 272.913 243.334 273.173 243.153C273.443 242.973 273.724 242.849 274.018 242.782C274.311 242.714 274.595 242.705 274.868 242.753C275.319 242.833 275.712 243.005 276.044 243.269C276.387 243.535 276.634 243.882 276.787 244.31C276.949 244.739 276.981 245.232 276.883 245.789ZM279.203 242.461L280.979 250.817L283.974 245.902L285.233 251.567L289.76 244.323L288.342 244.073L285.678 248.493L284.5 242.827L281.602 247.742L280.621 242.711L279.203 242.461ZM289.225 251.052C289.184 251.283 289.232 251.503 289.369 251.711C289.518 251.911 289.708 252.031 289.939 252.072C290.181 252.114 290.4 252.066 290.598 251.928C290.798 251.779 290.918 251.589 290.958 251.358C291.001 251.116 290.953 250.897 290.815 250.699C290.676 250.501 290.486 250.381 290.245 250.338C290.014 250.298 289.794 250.346 289.586 250.482C289.388 250.621 289.268 250.811 289.225 251.052ZM301.126 241.128L298.959 253.418L300.22 253.641L302.387 241.35L301.126 241.128ZM293.532 248.725C293.395 249.502 293.439 250.203 293.665 250.828C293.89 251.452 294.249 251.965 294.742 252.366C295.234 252.767 295.806 253.025 296.457 253.14C296.909 253.219 297.334 253.208 297.731 253.104C298.141 252.993 298.505 252.797 298.825 252.518C299.156 252.24 299.436 251.883 299.664 251.447C299.895 251 300.062 250.483 300.165 249.894C300.269 249.306 300.288 248.768 300.223 248.28C300.159 247.781 300.019 247.345 299.803 246.971C299.598 246.599 299.321 246.296 298.973 246.061C298.637 245.818 298.243 245.656 297.791 245.577C297.14 245.462 296.514 245.508 295.914 245.717C295.314 245.925 294.801 246.284 294.376 246.794C293.952 247.293 293.671 247.937 293.532 248.725ZM294.808 248.95C294.906 248.393 295.1 247.94 295.389 247.59C295.689 247.242 296.045 247.002 296.458 246.869C296.872 246.736 297.299 246.708 297.74 246.786C298.013 246.834 298.276 246.94 298.529 247.104C298.782 247.268 298.999 247.479 299.181 247.739C299.373 248 299.509 248.306 299.588 248.655C299.669 248.995 299.672 249.374 299.598 249.794C299.524 250.215 299.39 250.575 299.196 250.877C299.004 251.168 298.773 251.404 298.503 251.583C298.243 251.765 297.967 251.89 297.673 251.957C297.38 252.024 297.097 252.034 296.823 251.986C296.382 251.908 295.99 251.736 295.647 251.47C295.304 251.204 295.051 250.856 294.889 250.426C294.737 249.999 294.71 249.507 294.808 248.95ZM305.286 254.697C306.064 254.834 306.763 254.8 307.384 254.595C308.017 254.382 308.577 254.004 309.062 253.462L308.152 252.635C307.811 253.03 307.433 253.304 307.016 253.458C306.6 253.602 306.146 253.63 305.652 253.543C305.159 253.456 304.757 253.276 304.447 253.005C304.138 252.734 303.929 252.383 303.821 251.952C303.712 251.522 303.708 251.023 303.808 250.456C303.881 250.046 303.998 249.687 304.16 249.38C304.323 249.073 304.523 248.827 304.762 248.642C305 248.456 305.271 248.331 305.575 248.265C305.89 248.201 306.226 248.201 306.583 248.264C306.993 248.336 307.334 248.489 307.607 248.721C307.88 248.953 308.073 249.242 308.186 249.586C308.309 249.933 308.332 250.322 308.256 250.752C308.243 250.826 308.211 250.918 308.159 251.028C308.109 251.127 308.064 251.2 308.023 251.247L308.655 250.611L303.455 249.695L303.266 250.766L309.459 251.858C309.462 251.837 309.471 251.79 309.484 251.716C309.509 251.634 309.528 251.556 309.541 251.483C309.676 250.716 309.656 250.03 309.481 249.425C309.306 248.82 308.988 248.325 308.525 247.94C308.074 247.547 307.492 247.287 306.777 247.161C306.242 247.067 305.737 247.075 305.262 247.186C304.789 247.287 304.366 247.478 303.991 247.758C303.619 248.028 303.303 248.379 303.042 248.81C302.793 249.242 302.618 249.742 302.518 250.309C302.387 251.055 302.413 251.737 302.596 252.354C302.79 252.973 303.116 253.491 303.573 253.907C304.043 254.315 304.614 254.578 305.286 254.697ZM317.215 245.265L308.472 257.533L309.732 257.755L318.475 245.487L317.215 245.265Z" fill="#3D3D3D"/>
<defs>
<filter id="filter0_d" x="0" y="0" width="479" height="425" filterUnits="userSpaceOnUse" color-interpolation-filters="sRGB">
<feFlood flood-opacity="0" result="BackgroundImageFix"/>
<feColorMatrix in="SourceAlpha" type="matrix" values="0 0 0 0 0 0 0 0 0 0 0 0 0 0 0 0 0 0 127 0"/>
<feOffset dx="9" dy="5"/>
<feGaussianBlur stdDeviation="17"/>
<feColorMatrix type="matrix" values="0 0 0 0 0.770041 0 0 0 0 0.798386 0 0 0 0 0.543281 0 0 0 0.56 0"/>
<feBlend mode="normal" in2="BackgroundImageFix" result="effect1_dropShadow"/>
<feBlend mode="normal" in="SourceGraphic" in2="effect1_dropShadow" result="shape"/>
</filter>
<filter id="filter1_d" x="98.291" y="10.291" width="282.767" height="149.975" filterUnits="userSpaceOnUse" color-interpolation-filters="sRGB">
<feFlood flood-opacity="0" result="BackgroundImageFix"/>
<feColorMatrix in="SourceAlpha" type="matrix" values="0 0 0 0 0 0 0 0 0 0 0 0 0 0 0 0 0 0 127 0"/>
<feOffset dx="9" dy="5"/>
<feGaussianBlur stdDeviation="17"/>
<feColorMatrix type="matrix" values="0 0 0 0 0.770041 0 0 0 0 0.798386 0 0 0 0 0.543281 0 0 0 0.56 0"/>
<feBlend mode="normal" in2="BackgroundImageFix" result="effect1_dropShadow"/>
<feBlend mode="normal" in="SourceGraphic" in2="effect1_dropShadow" result="shape"/>
</filter>
<linearGradient id="paint0_linear" x1="25" y1="13.0828" x2="389.958" y2="378.542" gradientUnits="userSpaceOnUse">
<stop stop-color="#F6F7ED"/>
<stop offset="1" stop-color="#CFD59F"/>
</linearGradient>
<linearGradient id="paint1_linear" x1="131.814" y1="40" x2="211.563" y2="136.548" gradientUnits="userSpaceOnUse">
<stop stop-color="white"/>
<stop offset="1" stop-color="#FEF9F5"/>
</linearGradient>
<linearGradient id="paint2_linear" x1="340.52" y1="37.9936" x2="319.034" y2="124.674" gradientUnits="userSpaceOnUse">
<stop stop-color="#F6F7ED"/>
<stop offset="1" stop-color="#CFD59F"/>
</linearGradient>
</defs>
</svg>
