<svg width="375" height="289" viewBox="0 0 375 289" fill="none" xmlns="http://www.w3.org/2000/svg">
<path d="M2.17068 151.628L2.16968 151.62L2.16876 151.612C-0.0466003 131.457 -2.28613 84.2288 27.5413 48.7437L28.3068 49.3871L27.5413 48.7437C41.4848 32.1564 58.5204 22.9446 81.8573 17.1191C105.144 11.3062 134.783 8.84781 173.962 5.79934L174.039 6.79633L173.962 5.79934C220.251 2.19937 259.57 -0.750429 290.797 2.21844C322.035 5.18828 345.421 14.1015 359.591 34.4476L358.77 35.0191L359.591 34.4477C371.89 52.1087 374.572 74.6049 373.906 93.8393C373.241 113.074 369.221 129.202 367.955 134.28L367.951 134.297L367.951 134.298C364.782 146.995 360.857 155.502 355.836 165.387C355.057 166.919 354.252 168.485 353.42 170.105C348.89 178.916 343.537 189.329 337.115 204.741C323.47 237.493 316.359 265.571 312.54 283.587L312.009 286.088L310.702 283.891C302.983 270.921 290.899 255.169 272.043 243.696C252.999 232.108 235.36 224.362 210.007 221.208C184.611 218.048 151.432 219.492 101.31 226.385C96.2213 227.09 57.0846 231.817 27.4978 203.134L28.1938 202.416L27.4977 203.134C7.2464 183.496 3.17117 159.533 2.17068 151.628Z" fill="url(#paint0_linear)" stroke="#49717B" stroke-width="2"/>
<path d="M111.054 76H107.694V64.8H111.054C112.142 64.8 113.107 65.0347 113.95 65.504C114.793 65.9733 115.454 66.6293 115.934 67.472C116.414 68.304 116.654 69.28 116.654 70.4C116.654 71.52 116.414 72.5013 115.934 73.344C115.454 74.176 114.793 74.8267 113.95 75.296C113.107 75.7653 112.142 76 111.054 76ZM111.054 66.16H109.054V74.64H111.054C111.897 74.64 112.633 74.4693 113.262 74.128C113.902 73.776 114.398 73.2853 114.75 72.656C115.113 72.016 115.294 71.264 115.294 70.4C115.294 69.5253 115.113 68.7733 114.75 68.144C114.398 67.5147 113.902 67.0293 113.262 66.688C112.633 66.336 111.897 66.16 111.054 66.16ZM118.569 64.8H119.929V69.28H126.089V64.8H127.449V76H126.089V70.56H119.929V76H118.569V64.8ZM136.855 72.72C136.855 73.456 136.684 74.0693 136.343 74.56C136.012 75.04 135.559 75.4027 134.983 75.648C134.417 75.8827 133.772 76 133.047 76H130.007V64.8H132.887C133.889 64.8 134.695 65.0293 135.303 65.488C135.911 65.9467 136.215 66.6507 136.215 67.6C136.215 68.176 136.049 68.6613 135.719 69.056C135.388 69.44 134.935 69.7173 134.359 69.888C135.095 70.0373 135.692 70.3467 136.151 70.816C136.62 71.2747 136.855 71.9093 136.855 72.72ZM132.887 66H131.367V69.328H132.887C133.452 69.328 133.921 69.184 134.295 68.896C134.668 68.608 134.855 68.2027 134.855 67.68C134.855 67.1467 134.668 66.736 134.295 66.448C133.921 66.1493 133.452 66 132.887 66ZM131.367 74.8H133.047C133.772 74.8 134.359 74.6133 134.807 74.24C135.265 73.856 135.495 73.3227 135.495 72.64C135.495 71.9467 135.265 71.4187 134.807 71.056C134.359 70.6933 133.772 70.512 133.047 70.512H131.367V74.8ZM148.662 73.04L151.574 64.8H153.094L148.694 76.56L145.334 67.856L141.974 76.56L137.574 64.8H139.094L142.07 73.04L145.334 64.24L148.662 73.04ZM160.135 70.4C160.135 71.264 160.327 72.0267 160.711 72.688C161.105 73.3493 161.617 73.8667 162.247 74.24C162.876 74.6133 163.559 74.8 164.295 74.8C165.084 74.8 165.783 74.6453 166.391 74.336C166.999 74.0267 167.5 73.6267 167.895 73.136V74.928C167.425 75.344 166.913 75.6533 166.359 75.856C165.804 76.0587 165.116 76.16 164.295 76.16C163.516 76.16 162.785 76.0213 162.103 75.744C161.431 75.456 160.839 75.056 160.327 74.544C159.815 74.0213 159.415 73.408 159.127 72.704C158.839 72 158.695 71.232 158.695 70.4C158.695 69.568 158.839 68.8 159.127 68.096C159.415 67.392 159.815 66.784 160.327 66.272C160.839 65.7493 161.431 65.3493 162.103 65.072C162.785 64.784 163.516 64.64 164.295 64.64C165.116 64.64 165.804 64.7413 166.359 64.944C166.913 65.1467 167.425 65.456 167.895 65.872V67.664C167.5 67.1627 166.999 66.7627 166.391 66.464C165.783 66.1547 165.084 66 164.295 66C163.559 66 162.876 66.1867 162.247 66.56C161.617 66.9333 161.105 67.4507 160.711 68.112C160.327 68.7627 160.135 69.5253 160.135 70.4ZM170.592 70.336L169.968 69.392C170.245 69.1893 170.624 68.9867 171.104 68.784C171.594 68.5813 172.181 68.48 172.864 68.48C173.717 68.48 174.41 68.6773 174.944 69.072C175.477 69.456 175.744 70.0053 175.744 70.72V76H174.464V75.008C174.229 75.392 173.877 75.68 173.408 75.872C172.938 76.064 172.48 76.16 172.032 76.16C171.584 76.16 171.162 76.0693 170.768 75.888C170.384 75.696 170.074 75.424 169.84 75.072C169.605 74.72 169.488 74.2933 169.488 73.792C169.488 73.0773 169.738 72.5067 170.24 72.08C170.752 71.6427 171.461 71.424 172.368 71.424C172.858 71.424 173.274 71.4827 173.616 71.6C173.968 71.7067 174.25 71.8293 174.464 71.968V70.896C174.464 70.3947 174.298 70.0533 173.968 69.872C173.648 69.6907 173.258 69.6 172.8 69.6C172.245 69.6 171.781 69.6907 171.408 69.872C171.034 70.0533 170.762 70.208 170.592 70.336ZM170.784 73.728C170.784 74.1547 170.928 74.4853 171.216 74.72C171.514 74.944 171.898 75.056 172.368 75.056C172.954 75.056 173.45 74.88 173.856 74.528C174.261 74.176 174.464 73.7067 174.464 73.12V72.848C174.165 72.6987 173.861 72.592 173.552 72.528C173.242 72.464 172.917 72.432 172.576 72.432C171.957 72.432 171.504 72.5493 171.216 72.784C170.928 73.008 170.784 73.3227 170.784 73.728ZM187.991 71.36V76H186.711V71.52C186.711 70.8907 186.594 70.4267 186.359 70.128C186.135 69.8293 185.783 69.68 185.303 69.68C184.78 69.68 184.364 69.8453 184.055 70.176C183.746 70.496 183.591 70.944 183.591 71.52V76H182.311V71.52C182.311 70.8907 182.194 70.4267 181.959 70.128C181.735 69.8293 181.383 69.68 180.903 69.68C180.38 69.68 179.964 69.8453 179.655 70.176C179.346 70.496 179.191 70.944 179.191 71.52V76H177.911V68.64H179.191V69.712C179.628 68.8907 180.306 68.48 181.223 68.48C181.735 68.48 182.172 68.6027 182.535 68.848C182.908 69.0827 183.18 69.4187 183.351 69.856C183.863 68.9387 184.62 68.48 185.623 68.48C186.38 68.48 186.962 68.7307 187.367 69.232C187.783 69.7333 187.991 70.4427 187.991 71.36ZM191.595 79.52H190.315V68.64H191.595V69.904C191.862 69.4453 192.209 69.0933 192.635 68.848C193.073 68.6027 193.563 68.48 194.107 68.48C194.779 68.48 195.387 68.6347 195.931 68.944C196.486 69.2533 196.929 69.696 197.259 70.272C197.59 70.8373 197.755 71.52 197.755 72.32C197.755 73.1093 197.59 73.792 197.259 74.368C196.929 74.944 196.486 75.3867 195.931 75.696C195.387 76.0053 194.779 76.16 194.107 76.16C193.563 76.16 193.073 76.0373 192.635 75.792C192.209 75.5467 191.862 75.1947 191.595 74.736V79.52ZM196.459 72.32C196.459 71.7547 196.342 71.2747 196.107 70.88C195.883 70.4853 195.579 70.1867 195.195 69.984C194.822 69.7813 194.406 69.68 193.947 69.68C193.574 69.68 193.206 69.7813 192.843 69.984C192.481 70.1867 192.182 70.4853 191.947 70.88C191.713 71.2747 191.595 71.7547 191.595 72.32C191.595 72.8853 191.713 73.3653 191.947 73.76C192.182 74.1547 192.481 74.4533 192.843 74.656C193.206 74.8587 193.574 74.96 193.947 74.96C194.406 74.96 194.822 74.8587 195.195 74.656C195.579 74.4533 195.883 74.1547 196.107 73.76C196.342 73.3653 196.459 72.8853 196.459 72.32ZM200.8 73.12C200.8 73.7067 200.934 74.16 201.2 74.48C201.467 74.8 201.856 74.96 202.368 74.96C202.934 74.96 203.387 74.7893 203.728 74.448C204.07 74.1067 204.24 73.664 204.24 73.12V68.64H205.52V76H204.24V74.848C203.75 75.7227 203.019 76.16 202.048 76.16C201.28 76.16 200.667 75.8987 200.208 75.376C199.75 74.8533 199.52 74.1547 199.52 73.28V68.64H200.8V73.12ZM208.231 73.744C208.455 74.0853 208.727 74.3787 209.047 74.624C209.377 74.8693 209.772 74.992 210.231 74.992C210.593 74.992 210.876 74.912 211.079 74.752C211.292 74.5813 211.399 74.352 211.399 74.064C211.399 73.808 211.313 73.5947 211.143 73.424C210.983 73.2427 210.775 73.0933 210.519 72.976C210.263 72.848 209.991 72.7307 209.703 72.624C209.383 72.496 209.057 72.3467 208.727 72.176C208.407 71.9947 208.135 71.7653 207.911 71.488C207.697 71.2 207.591 70.8427 207.591 70.416C207.591 69.9787 207.703 69.616 207.927 69.328C208.161 69.04 208.46 68.8267 208.823 68.688C209.196 68.5493 209.58 68.48 209.975 68.48C210.561 68.48 211.095 68.6187 211.575 68.896C212.055 69.1733 212.407 69.5147 212.631 69.92L211.607 70.576C211.404 70.2987 211.148 70.0693 210.839 69.888C210.54 69.7067 210.199 69.616 209.815 69.616C209.548 69.616 209.319 69.6747 209.127 69.792C208.935 69.9093 208.839 70.0907 208.839 70.336C208.839 70.6347 208.993 70.88 209.303 71.072C209.623 71.2533 209.98 71.424 210.375 71.584C210.801 71.7547 211.191 71.9413 211.543 72.144C211.895 72.336 212.172 72.5707 212.375 72.848C212.588 73.1253 212.695 73.4827 212.695 73.92C212.695 74.56 212.46 75.0933 211.991 75.52C211.532 75.9467 210.924 76.16 210.167 76.16C209.676 76.16 209.233 76.0747 208.839 75.904C208.444 75.7227 208.108 75.4933 207.831 75.216C207.564 74.9387 207.361 74.656 207.223 74.368L208.231 73.744ZM220.809 68.432L219.977 76H218.617L219.977 64.24L224.457 72.352L228.937 64.24L230.297 76H228.937L228.105 68.432L224.457 74.96L220.809 68.432ZM231.49 72.32C231.49 71.5733 231.655 70.912 231.986 70.336C232.327 69.76 232.786 69.3067 233.362 68.976C233.938 68.6453 234.583 68.48 235.298 68.48C236.023 68.48 236.668 68.6453 237.234 68.976C237.81 69.3067 238.263 69.76 238.594 70.336C238.935 70.912 239.106 71.5733 239.106 72.32C239.106 73.056 238.935 73.7173 238.594 74.304C238.263 74.88 237.81 75.3333 237.234 75.664C236.668 75.9947 236.023 76.16 235.298 76.16C234.583 76.16 233.938 75.9947 233.362 75.664C232.786 75.3333 232.327 74.88 231.986 74.304C231.655 73.7173 231.49 73.056 231.49 72.32ZM232.786 72.32C232.786 72.832 232.892 73.2853 233.106 73.68C233.33 74.0747 233.628 74.3893 234.002 74.624C234.386 74.848 234.818 74.96 235.298 74.96C235.778 74.96 236.204 74.848 236.578 74.624C236.962 74.3893 237.26 74.0747 237.474 73.68C237.698 73.2853 237.81 72.832 237.81 72.32C237.81 71.808 237.698 71.3547 237.474 70.96C237.26 70.5547 236.962 70.24 236.578 70.016C236.204 69.792 235.778 69.68 235.298 69.68C234.818 69.68 234.386 69.792 234.002 70.016C233.628 70.24 233.33 70.5547 233.106 70.96C232.892 71.3547 232.786 71.808 232.786 72.32ZM241.168 73.744C241.392 74.0853 241.664 74.3787 241.984 74.624C242.315 74.8693 242.709 74.992 243.168 74.992C243.531 74.992 243.813 74.912 244.016 74.752C244.229 74.5813 244.336 74.352 244.336 74.064C244.336 73.808 244.251 73.5947 244.08 73.424C243.92 73.2427 243.712 73.0933 243.456 72.976C243.2 72.848 242.928 72.7307 242.64 72.624C242.32 72.496 241.995 72.3467 241.664 72.176C241.344 71.9947 241.072 71.7653 240.848 71.488C240.635 71.2 240.528 70.8427 240.528 70.416C240.528 69.9787 240.64 69.616 240.864 69.328C241.099 69.04 241.397 68.8267 241.76 68.688C242.133 68.5493 242.517 68.48 242.912 68.48C243.499 68.48 244.032 68.6187 244.512 68.896C244.992 69.1733 245.344 69.5147 245.568 69.92L244.544 70.576C244.341 70.2987 244.085 70.0693 243.776 69.888C243.477 69.7067 243.136 69.616 242.752 69.616C242.485 69.616 242.256 69.6747 242.064 69.792C241.872 69.9093 241.776 70.0907 241.776 70.336C241.776 70.6347 241.931 70.88 242.24 71.072C242.56 71.2533 242.917 71.424 243.312 71.584C243.739 71.7547 244.128 71.9413 244.48 72.144C244.832 72.336 245.109 72.5707 245.312 72.848C245.525 73.1253 245.632 73.4827 245.632 73.92C245.632 74.56 245.397 75.0933 244.928 75.52C244.469 75.9467 243.861 76.16 243.104 76.16C242.613 76.16 242.171 76.0747 241.776 75.904C241.381 75.7227 241.045 75.4933 240.768 75.216C240.501 74.9387 240.299 74.656 240.16 74.368L241.168 73.744ZM254.677 72.32C254.677 73.1093 254.512 73.792 254.181 74.368C253.851 74.944 253.408 75.3867 252.853 75.696C252.309 76.0053 251.701 76.16 251.029 76.16C250.485 76.16 249.995 76.0373 249.557 75.792C249.131 75.5467 248.784 75.1947 248.517 74.736V76H247.237V63.52H248.517V69.904C248.784 69.4453 249.131 69.0933 249.557 68.848C249.995 68.6027 250.485 68.48 251.029 68.48C251.701 68.48 252.309 68.6347 252.853 68.944C253.408 69.2533 253.851 69.696 254.181 70.272C254.512 70.8373 254.677 71.52 254.677 72.32ZM253.381 72.32C253.381 71.7547 253.264 71.2747 253.029 70.88C252.805 70.4853 252.501 70.1867 252.117 69.984C251.744 69.7813 251.328 69.68 250.869 69.68C250.496 69.68 250.128 69.7813 249.765 69.984C249.403 70.1867 249.104 70.4853 248.869 70.88C248.635 71.2747 248.517 71.7547 248.517 72.32C248.517 72.8853 248.635 73.3653 248.869 73.76C249.104 74.1547 249.403 74.4533 249.765 74.656C250.128 74.8587 250.496 74.96 250.869 74.96C251.328 74.96 251.744 74.8587 252.117 74.656C252.501 74.4533 252.805 74.1547 253.029 73.76C253.264 73.3653 253.381 72.8853 253.381 72.32ZM256.826 70.336L256.202 69.392C256.48 69.1893 256.858 68.9867 257.338 68.784C257.829 68.5813 258.416 68.48 259.098 68.48C259.952 68.48 260.645 68.6773 261.178 69.072C261.712 69.456 261.978 70.0053 261.978 70.72V76H260.698V75.008C260.464 75.392 260.112 75.68 259.642 75.872C259.173 76.064 258.714 76.16 258.266 76.16C257.818 76.16 257.397 76.0693 257.002 75.888C256.618 75.696 256.309 75.424 256.074 75.072C255.84 74.72 255.722 74.2933 255.722 73.792C255.722 73.0773 255.973 72.5067 256.474 72.08C256.986 71.6427 257.696 71.424 258.602 71.424C259.093 71.424 259.509 71.4827 259.85 71.6C260.202 71.7067 260.485 71.8293 260.698 71.968V70.896C260.698 70.3947 260.533 70.0533 260.202 69.872C259.882 69.6907 259.493 69.6 259.034 69.6C258.48 69.6 258.016 69.6907 257.642 69.872C257.269 70.0533 256.997 70.208 256.826 70.336ZM257.018 73.728C257.018 74.1547 257.162 74.4853 257.45 74.72C257.749 74.944 258.133 75.056 258.602 75.056C259.189 75.056 259.685 74.88 260.09 74.528C260.496 74.176 260.698 73.7067 260.698 73.12V72.848C260.4 72.6987 260.096 72.592 259.786 72.528C259.477 72.464 259.152 72.432 258.81 72.432C258.192 72.432 257.738 72.5493 257.45 72.784C257.162 73.008 257.018 73.3227 257.018 73.728ZM264.721 72.32C264.721 72.832 264.828 73.2853 265.041 73.68C265.265 74.0747 265.564 74.3893 265.937 74.624C266.321 74.848 266.753 74.96 267.233 74.96C267.831 74.96 268.364 74.8267 268.833 74.56C269.303 74.2933 269.623 73.9787 269.793 73.616V75.216C269.537 75.5147 269.169 75.7493 268.689 75.92C268.22 76.08 267.735 76.16 267.233 76.16C266.519 76.16 265.873 75.9947 265.297 75.664C264.721 75.3333 264.263 74.88 263.921 74.304C263.591 73.7173 263.425 73.056 263.425 72.32C263.425 71.5733 263.591 70.912 263.921 70.336C264.263 69.76 264.721 69.3067 265.297 68.976C265.873 68.6453 266.519 68.48 267.233 68.48C267.735 68.48 268.22 68.5653 268.689 68.736C269.169 68.896 269.537 69.1253 269.793 69.424V71.024C269.623 70.6613 269.303 70.3467 268.833 70.08C268.364 69.8133 267.831 69.68 267.233 69.68C266.753 69.68 266.321 69.792 265.937 70.016C265.564 70.24 265.265 70.5547 265.041 70.96C264.828 71.3547 264.721 71.808 264.721 72.32ZM276.506 71.52C276.506 70.2933 275.983 69.68 274.938 69.68C274.383 69.68 273.93 69.856 273.578 70.208C273.237 70.5493 273.066 70.9867 273.066 71.52V76H271.786V63.52H273.066V69.808C273.29 69.4027 273.589 69.0827 273.962 68.848C274.346 68.6027 274.778 68.48 275.258 68.48C276.015 68.48 276.623 68.7253 277.082 69.216C277.551 69.696 277.786 70.4107 277.786 71.36V76H276.506V71.52ZM102.343 87.8H108.103V89.08H103.703V92.28H107.943V93.56H103.703V99H102.343V87.8ZM110.162 93.336L109.538 92.392C109.815 92.1893 110.194 91.9867 110.674 91.784C111.165 91.5813 111.751 91.48 112.434 91.48C113.287 91.48 113.981 91.6773 114.514 92.072C115.047 92.456 115.314 93.0053 115.314 93.72V99H114.034V98.008C113.799 98.392 113.447 98.68 112.978 98.872C112.509 99.064 112.05 99.16 111.602 99.16C111.154 99.16 110.733 99.0693 110.338 98.888C109.954 98.696 109.645 98.424 109.41 98.072C109.175 97.72 109.058 97.2933 109.058 96.792C109.058 96.0773 109.309 95.5067 109.81 95.08C110.322 94.6427 111.031 94.424 111.938 94.424C112.429 94.424 112.845 94.4827 113.186 94.6C113.538 94.7067 113.821 94.8293 114.034 94.968V93.896C114.034 93.3947 113.869 93.0533 113.538 92.872C113.218 92.6907 112.829 92.6 112.37 92.6C111.815 92.6 111.351 92.6907 110.978 92.872C110.605 93.0533 110.333 93.208 110.162 93.336ZM110.354 96.728C110.354 97.1547 110.498 97.4853 110.786 97.72C111.085 97.944 111.469 98.056 111.938 98.056C112.525 98.056 113.021 97.88 113.426 97.528C113.831 97.176 114.034 96.7067 114.034 96.12V95.848C113.735 95.6987 113.431 95.592 113.122 95.528C112.813 95.464 112.487 95.432 112.146 95.432C111.527 95.432 111.074 95.5493 110.786 95.784C110.498 96.008 110.354 96.3227 110.354 96.728ZM118.057 95.32C118.057 95.832 118.164 96.2853 118.377 96.68C118.601 97.0747 118.9 97.3893 119.273 97.624C119.657 97.848 120.089 97.96 120.569 97.96C121.167 97.96 121.7 97.8267 122.169 97.56C122.639 97.2933 122.959 96.9787 123.129 96.616V98.216C122.873 98.5147 122.505 98.7493 122.025 98.92C121.556 99.08 121.071 99.16 120.569 99.16C119.855 99.16 119.209 98.9947 118.633 98.664C118.057 98.3333 117.599 97.88 117.257 97.304C116.927 96.7173 116.761 96.056 116.761 95.32C116.761 94.5733 116.927 93.912 117.257 93.336C117.599 92.76 118.057 92.3067 118.633 91.976C119.209 91.6453 119.855 91.48 120.569 91.48C121.071 91.48 121.556 91.5653 122.025 91.736C122.505 91.896 122.873 92.1253 123.129 92.424V94.024C122.959 93.6613 122.639 93.3467 122.169 93.08C121.7 92.8133 121.167 92.68 120.569 92.68C120.089 92.68 119.657 92.792 119.273 93.016C118.9 93.24 118.601 93.5547 118.377 93.96C118.164 94.3547 118.057 94.808 118.057 95.32ZM129.842 94.52C129.842 93.2933 129.319 92.68 128.274 92.68C127.719 92.68 127.266 92.856 126.914 93.208C126.573 93.5493 126.402 93.9867 126.402 94.52V99H125.122V86.52H126.402V92.808C126.626 92.4027 126.925 92.0827 127.298 91.848C127.682 91.6027 128.114 91.48 128.594 91.48C129.351 91.48 129.959 91.7253 130.418 92.216C130.887 92.696 131.122 93.4107 131.122 94.36V99H129.842V94.52ZM140.888 95.32C140.888 96.1093 140.723 96.792 140.392 97.368C140.061 97.944 139.619 98.3867 139.064 98.696C138.52 99.0053 137.912 99.16 137.24 99.16C136.696 99.16 136.205 99.0373 135.768 98.792C135.341 98.5467 134.995 98.1947 134.728 97.736V99H133.448V86.52H134.728V92.904C134.995 92.4453 135.341 92.0933 135.768 91.848C136.205 91.6027 136.696 91.48 137.24 91.48C137.912 91.48 138.52 91.6347 139.064 91.944C139.619 92.2533 140.061 92.696 140.392 93.272C140.723 93.8373 140.888 94.52 140.888 95.32ZM139.592 95.32C139.592 94.7547 139.475 94.2747 139.24 93.88C139.016 93.4853 138.712 93.1867 138.328 92.984C137.955 92.7813 137.539 92.68 137.08 92.68C136.707 92.68 136.339 92.7813 135.976 92.984C135.613 93.1867 135.315 93.4853 135.08 93.88C134.845 94.2747 134.728 94.7547 134.728 95.32C134.728 95.8853 134.845 96.3653 135.08 96.76C135.315 97.1547 135.613 97.4533 135.976 97.656C136.339 97.8587 136.707 97.96 137.08 97.96C137.539 97.96 137.955 97.8587 138.328 97.656C138.712 97.4533 139.016 97.1547 139.24 96.76C139.475 96.3653 139.592 95.8853 139.592 95.32ZM145.501 99.16C144.818 99.16 144.21 99 143.677 98.68C143.154 98.3493 142.744 97.896 142.445 97.32C142.157 96.744 142.013 96.0773 142.013 95.32C142.013 94.552 142.162 93.88 142.461 93.304C142.77 92.728 143.197 92.28 143.741 91.96C144.296 91.64 144.936 91.48 145.661 91.48C146.738 91.48 147.586 91.816 148.205 92.488C148.824 93.16 149.133 94.0827 149.133 95.256C149.133 95.3307 149.128 95.4107 149.117 95.496C149.117 95.5707 149.117 95.6187 149.117 95.64H143.325C143.378 96.376 143.608 96.9467 144.013 97.352C144.418 97.7573 144.968 97.96 145.661 97.96C146.664 97.96 147.432 97.5173 147.965 96.632L149.005 97.288C148.237 98.536 147.069 99.16 145.501 99.16ZM145.661 92.6C145.032 92.6 144.52 92.7707 144.125 93.112C143.73 93.4427 143.48 93.9227 143.373 94.552H147.741C147.698 93.9653 147.485 93.496 147.101 93.144C146.728 92.7813 146.248 92.6 145.661 92.6ZM154.391 93.048C154.221 92.92 154.066 92.8293 153.928 92.776C153.789 92.712 153.613 92.68 153.4 92.68C152.92 92.68 152.594 92.856 152.424 93.208C152.253 93.5493 152.168 93.9867 152.168 94.52V99H150.888V91.64H152.168V92.488C152.37 92.1787 152.61 91.9333 152.888 91.752C153.165 91.5707 153.442 91.48 153.72 91.48C153.986 91.48 154.232 91.5173 154.456 91.592C154.69 91.656 154.904 91.7893 155.096 91.992L154.391 93.048ZM158.986 99.16C158.303 99.16 157.695 99 157.162 98.68C156.639 98.3493 156.228 97.896 155.93 97.32C155.642 96.744 155.498 96.0773 155.498 95.32C155.498 94.552 155.647 93.88 155.946 93.304C156.255 92.728 156.682 92.28 157.226 91.96C157.78 91.64 158.42 91.48 159.146 91.48C160.223 91.48 161.071 91.816 161.69 92.488C162.308 93.16 162.618 94.0827 162.618 95.256C162.618 95.3307 162.612 95.4107 162.602 95.496C162.602 95.5707 162.602 95.6187 162.602 95.64H156.81C156.863 96.376 157.092 96.9467 157.498 97.352C157.903 97.7573 158.452 97.96 159.146 97.96C160.148 97.96 160.916 97.5173 161.45 96.632L162.49 97.288C161.722 98.536 160.554 99.16 158.986 99.16ZM159.146 92.6C158.516 92.6 158.004 92.7707 157.61 93.112C157.215 93.4427 156.964 93.9227 156.858 94.552H161.226C161.183 93.9653 160.97 93.496 160.586 93.144C160.212 92.7813 159.732 92.6 159.146 92.6ZM164.372 88.6C164.372 88.3547 164.457 88.1467 164.628 87.976C164.809 87.8053 165.017 87.72 165.252 87.72C165.497 87.72 165.705 87.8053 165.876 87.976C166.047 88.1467 166.132 88.3547 166.132 88.6C166.132 88.8347 166.047 89.0427 165.876 89.224C165.705 89.3947 165.497 89.48 165.252 89.48C165.017 89.48 164.809 89.3947 164.628 89.224C164.457 89.0427 164.372 88.8347 164.372 88.6ZM164.612 91.64H165.892V99H164.612V91.64ZM169.104 95.32C169.104 95.832 169.211 96.2853 169.424 96.68C169.648 97.0747 169.947 97.3893 170.32 97.624C170.704 97.848 171.136 97.96 171.616 97.96C172.213 97.96 172.747 97.8267 173.216 97.56C173.685 97.2933 174.005 96.9787 174.176 96.616V98.216C173.92 98.5147 173.552 98.7493 173.072 98.92C172.603 99.08 172.117 99.16 171.616 99.16C170.901 99.16 170.256 98.9947 169.68 98.664C169.104 98.3333 168.645 97.88 168.304 97.304C167.973 96.7173 167.808 96.056 167.808 95.32C167.808 94.5733 167.973 93.912 168.304 93.336C168.645 92.76 169.104 92.3067 169.68 91.976C170.256 91.6453 170.901 91.48 171.616 91.48C172.117 91.48 172.603 91.5653 173.072 91.736C173.552 91.896 173.92 92.1253 174.176 92.424V94.024C174.005 93.6613 173.685 93.3467 173.216 93.08C172.747 92.8133 172.213 92.68 171.616 92.68C171.136 92.68 170.704 92.792 170.32 93.016C169.947 93.24 169.648 93.5547 169.424 93.96C169.211 94.3547 169.104 94.808 169.104 95.32ZM180.889 94.52C180.889 93.2933 180.366 92.68 179.321 92.68C178.766 92.68 178.313 92.856 177.961 93.208C177.619 93.5493 177.449 93.9867 177.449 94.52V99H176.169V86.52H177.449V92.808C177.673 92.4027 177.971 92.0827 178.345 91.848C178.729 91.6027 179.161 91.48 179.641 91.48C180.398 91.48 181.006 91.7253 181.465 92.216C181.934 92.696 182.169 93.4107 182.169 94.36V99H180.889V94.52ZM188.812 93.4C188.812 92.5787 188.951 91.8213 189.228 91.128C189.516 90.424 189.916 89.816 190.428 89.304C190.94 88.7813 191.543 88.376 192.236 88.088C192.929 87.7893 193.681 87.64 194.492 87.64C195.313 87.64 196.065 87.7893 196.748 88.088C197.441 88.376 198.044 88.7813 198.556 89.304C199.068 89.816 199.463 90.424 199.74 91.128C200.028 91.8213 200.172 92.5787 200.172 93.4C200.172 94.2107 200.028 94.968 199.74 95.672C199.463 96.376 199.068 96.9893 198.556 97.512C198.044 98.024 197.441 98.4293 196.748 98.728C196.065 99.016 195.313 99.16 194.492 99.16C193.681 99.16 192.929 99.016 192.236 98.728C191.543 98.4293 190.94 98.024 190.428 97.512C189.916 96.9893 189.516 96.376 189.228 95.672C188.951 94.968 188.812 94.2107 188.812 93.4ZM190.252 93.4C190.252 94.2427 190.433 94.9947 190.796 95.656C191.169 96.3173 191.676 96.84 192.316 97.224C192.956 97.608 193.681 97.8 194.492 97.8C195.313 97.8 196.039 97.608 196.668 97.224C197.308 96.84 197.809 96.3173 198.172 95.656C198.545 94.9947 198.732 94.2427 198.732 93.4C198.732 92.5573 198.545 91.8053 198.172 91.144C197.809 90.4827 197.308 89.96 196.668 89.576C196.039 89.192 195.313 89 194.492 89C193.681 89 192.956 89.192 192.316 89.576C191.676 89.96 191.169 90.4827 190.796 91.144C190.433 91.8053 190.252 92.5573 190.252 93.4ZM206.733 94.52C206.733 93.2933 206.21 92.68 205.165 92.68C204.61 92.68 204.157 92.8507 203.805 93.192C203.463 93.5333 203.293 93.976 203.293 94.52V99H202.013V91.64H203.293V92.792C203.773 91.9173 204.503 91.48 205.485 91.48C206.263 91.48 206.877 91.7413 207.325 92.264C207.783 92.776 208.013 93.4747 208.013 94.36V99H206.733V94.52ZM210.419 86.52H211.699V99H210.419V86.52ZM214.106 88.6C214.106 88.3547 214.192 88.1467 214.362 87.976C214.544 87.8053 214.752 87.72 214.986 87.72C215.232 87.72 215.44 87.8053 215.61 87.976C215.781 88.1467 215.866 88.3547 215.866 88.6C215.866 88.8347 215.781 89.0427 215.61 89.224C215.44 89.3947 215.232 89.48 214.986 89.48C214.752 89.48 214.544 89.3947 214.362 89.224C214.192 89.0427 214.106 88.8347 214.106 88.6ZM214.346 91.64H215.626V99H214.346V91.64ZM222.983 94.52C222.983 93.2933 222.46 92.68 221.415 92.68C220.86 92.68 220.407 92.8507 220.055 93.192C219.713 93.5333 219.543 93.976 219.543 94.52V99H218.263V91.64H219.543V92.792C220.023 91.9173 220.753 91.48 221.735 91.48C222.513 91.48 223.127 91.7413 223.575 92.264C224.033 92.776 224.263 93.4747 224.263 94.36V99H222.983V94.52ZM229.517 99.16C228.834 99.16 228.226 99 227.693 98.68C227.17 98.3493 226.759 97.896 226.461 97.32C226.173 96.744 226.029 96.0773 226.029 95.32C226.029 94.552 226.178 93.88 226.477 93.304C226.786 92.728 227.213 92.28 227.757 91.96C228.311 91.64 228.951 91.48 229.677 91.48C230.754 91.48 231.602 91.816 232.221 92.488C232.839 93.16 233.149 94.0827 233.149 95.256C233.149 95.3307 233.143 95.4107 233.133 95.496C233.133 95.5707 233.133 95.6187 233.133 95.64H227.341C227.394 96.376 227.623 96.9467 228.029 97.352C228.434 97.7573 228.983 97.96 229.677 97.96C230.679 97.96 231.447 97.5173 231.981 96.632L233.021 97.288C232.253 98.536 231.085 99.16 229.517 99.16ZM229.677 92.6C229.047 92.6 228.535 92.7707 228.141 93.112C227.746 93.4427 227.495 93.9227 227.389 94.552H231.757C231.714 93.9653 231.501 93.496 231.117 93.144C230.743 92.7813 230.263 92.6 229.677 92.6ZM244.983 94.36V99H243.703V94.52C243.703 93.8907 243.586 93.4267 243.351 93.128C243.127 92.8293 242.775 92.68 242.295 92.68C241.772 92.68 241.356 92.8453 241.047 93.176C240.738 93.496 240.583 93.944 240.583 94.52V99H239.303V94.52C239.303 93.8907 239.186 93.4267 238.951 93.128C238.727 92.8293 238.375 92.68 237.895 92.68C237.372 92.68 236.956 92.8453 236.647 93.176C236.338 93.496 236.183 93.944 236.183 94.52V99H234.903V91.64H236.183V92.712C236.62 91.8907 237.298 91.48 238.215 91.48C238.727 91.48 239.164 91.6027 239.527 91.848C239.9 92.0827 240.172 92.4187 240.343 92.856C240.855 91.9387 241.612 91.48 242.615 91.48C243.372 91.48 243.954 91.7307 244.359 92.232C244.775 92.7333 244.983 93.4427 244.983 94.36ZM250.236 99.16C249.553 99.16 248.945 99 248.412 98.68C247.889 98.3493 247.478 97.896 247.18 97.32C246.892 96.744 246.748 96.0773 246.748 95.32C246.748 94.552 246.897 93.88 247.196 93.304C247.505 92.728 247.932 92.28 248.476 91.96C249.03 91.64 249.67 91.48 250.396 91.48C251.473 91.48 252.321 91.816 252.94 92.488C253.558 93.16 253.868 94.0827 253.868 95.256C253.868 95.3307 253.862 95.4107 253.852 95.496C253.852 95.5707 253.852 95.6187 253.852 95.64H248.06C248.113 96.376 248.342 96.9467 248.748 97.352C249.153 97.7573 249.702 97.96 250.396 97.96C251.398 97.96 252.166 97.5173 252.7 96.632L253.74 97.288C252.972 98.536 251.804 99.16 250.236 99.16ZM250.396 92.6C249.766 92.6 249.254 92.7707 248.86 93.112C248.465 93.4427 248.214 93.9227 248.108 94.552H252.476C252.433 93.9653 252.22 93.496 251.836 93.144C251.462 92.7813 250.982 92.6 250.396 92.6ZM254.982 95.32C254.982 94.52 255.147 93.8373 255.478 93.272C255.809 92.696 256.251 92.2533 256.806 91.944C257.361 91.6347 257.969 91.48 258.63 91.48C259.174 91.48 259.659 91.6027 260.086 91.848C260.523 92.0933 260.875 92.4453 261.142 92.904V86.52H262.422V99H261.142V97.736C260.875 98.1947 260.523 98.5467 260.086 98.792C259.659 99.0373 259.174 99.16 258.63 99.16C257.969 99.16 257.361 99.0053 256.806 98.696C256.251 98.3867 255.809 97.944 255.478 97.368C255.147 96.792 254.982 96.1093 254.982 95.32ZM256.278 95.32C256.278 95.8853 256.39 96.3653 256.614 96.76C256.849 97.1547 257.158 97.4533 257.542 97.656C257.926 97.8587 258.342 97.96 258.79 97.96C259.163 97.96 259.531 97.8587 259.894 97.656C260.257 97.4533 260.555 97.1547 260.79 96.76C261.025 96.3653 261.142 95.8853 261.142 95.32C261.142 94.7547 261.025 94.2747 260.79 93.88C260.555 93.4853 260.257 93.1867 259.894 92.984C259.531 92.7813 259.163 92.68 258.79 92.68C258.342 92.68 257.926 92.7813 257.542 92.984C257.158 93.1867 256.849 93.4853 256.614 93.88C256.39 94.2747 256.278 94.7547 256.278 95.32ZM264.747 88.6C264.747 88.3547 264.832 88.1467 265.003 87.976C265.184 87.8053 265.392 87.72 265.627 87.72C265.872 87.72 266.08 87.8053 266.251 87.976C266.422 88.1467 266.507 88.3547 266.507 88.6C266.507 88.8347 266.422 89.0427 266.251 89.224C266.08 89.3947 265.872 89.48 265.627 89.48C265.392 89.48 265.184 89.3947 265.003 89.224C264.832 89.0427 264.747 88.8347 264.747 88.6ZM264.987 91.64H266.267V99H264.987V91.64ZM271.751 99.16C271.068 99.16 270.46 99 269.927 98.68C269.404 98.3493 268.994 97.896 268.695 97.32C268.407 96.744 268.263 96.0773 268.263 95.32C268.263 94.552 268.412 93.88 268.711 93.304C269.02 92.728 269.447 92.28 269.991 91.96C270.546 91.64 271.186 91.48 271.911 91.48C272.988 91.48 273.836 91.816 274.455 92.488C275.074 93.16 275.383 94.0827 275.383 95.256C275.383 95.3307 275.378 95.4107 275.367 95.496C275.367 95.5707 275.367 95.6187 275.367 95.64H269.575C269.628 96.376 269.858 96.9467 270.263 97.352C270.668 97.7573 271.218 97.96 271.911 97.96C272.914 97.96 273.682 97.5173 274.215 96.632L275.255 97.288C274.487 98.536 273.319 99.16 271.751 99.16ZM271.911 92.6C271.282 92.6 270.77 92.7707 270.375 93.112C269.98 93.4427 269.73 93.9227 269.623 94.552H273.991C273.948 93.9653 273.735 93.496 273.351 93.144C272.978 92.7813 272.498 92.6 271.911 92.6ZM281.858 94.52C281.858 93.2933 281.335 92.68 280.29 92.68C279.735 92.68 279.282 92.8507 278.93 93.192C278.588 93.5333 278.418 93.976 278.418 94.52V99H277.138V91.64H278.418V92.792C278.898 91.9173 279.628 91.48 280.61 91.48C281.388 91.48 282.002 91.7413 282.45 92.264C282.908 92.776 283.138 93.4747 283.138 94.36V99H281.858V94.52ZM146.655 110.8H148.015V120.72H152.415V122H146.655V110.8ZM153.138 118.32C153.138 117.573 153.303 116.912 153.634 116.336C153.975 115.76 154.434 115.307 155.01 114.976C155.586 114.645 156.231 114.48 156.946 114.48C157.671 114.48 158.317 114.645 158.882 114.976C159.458 115.307 159.911 115.76 160.242 116.336C160.583 116.912 160.754 117.573 160.754 118.32C160.754 119.056 160.583 119.717 160.242 120.304C159.911 120.88 159.458 121.333 158.882 121.664C158.317 121.995 157.671 122.16 156.946 122.16C156.231 122.16 155.586 121.995 155.01 121.664C154.434 121.333 153.975 120.88 153.634 120.304C153.303 119.717 153.138 119.056 153.138 118.32ZM154.434 118.32C154.434 118.832 154.541 119.285 154.754 119.68C154.978 120.075 155.277 120.389 155.65 120.624C156.034 120.848 156.466 120.96 156.946 120.96C157.426 120.96 157.853 120.848 158.226 120.624C158.61 120.389 158.909 120.075 159.122 119.68C159.346 119.285 159.458 118.832 159.458 118.32C159.458 117.808 159.346 117.355 159.122 116.96C158.909 116.555 158.61 116.24 158.226 116.016C157.853 115.792 157.426 115.68 156.946 115.68C156.466 115.68 156.034 115.792 155.65 116.016C155.277 116.24 154.978 116.555 154.754 116.96C154.541 117.355 154.434 117.808 154.434 118.32ZM167.233 117.52C167.233 116.293 166.71 115.68 165.665 115.68C165.11 115.68 164.657 115.856 164.305 116.208C163.963 116.549 163.793 116.987 163.793 117.52V122H162.513V109.52H163.793V115.808C164.017 115.403 164.315 115.083 164.689 114.848C165.073 114.603 165.505 114.48 165.985 114.48C166.742 114.48 167.35 114.725 167.809 115.216C168.278 115.696 168.513 116.411 168.513 117.36V122H167.233V117.52ZM174.423 116.048C174.252 115.92 174.097 115.829 173.959 115.776C173.82 115.712 173.644 115.68 173.431 115.68C172.951 115.68 172.625 115.856 172.455 116.208C172.284 116.549 172.199 116.987 172.199 117.52V122H170.919V114.64H172.199V115.488C172.401 115.179 172.641 114.933 172.919 114.752C173.196 114.571 173.473 114.48 173.751 114.48C174.017 114.48 174.263 114.517 174.487 114.592C174.721 114.656 174.935 114.789 175.127 114.992L174.423 116.048ZM175.283 114.64H176.483V112.08H177.763V114.64H178.963V115.84H177.763V122H176.483V115.84H175.283V114.64ZM180.631 116.336L180.007 115.392C180.284 115.189 180.663 114.987 181.143 114.784C181.634 114.581 182.22 114.48 182.903 114.48C183.756 114.48 184.45 114.677 184.983 115.072C185.516 115.456 185.783 116.005 185.783 116.72V122H184.503V121.008C184.268 121.392 183.916 121.68 183.447 121.872C182.978 122.064 182.519 122.16 182.071 122.16C181.623 122.16 181.202 122.069 180.807 121.888C180.423 121.696 180.114 121.424 179.879 121.072C179.644 120.72 179.527 120.293 179.527 119.792C179.527 119.077 179.778 118.507 180.279 118.08C180.791 117.643 181.5 117.424 182.407 117.424C182.898 117.424 183.314 117.483 183.655 117.6C184.007 117.707 184.29 117.829 184.503 117.968V116.896C184.503 116.395 184.338 116.053 184.007 115.872C183.687 115.691 183.298 115.6 182.839 115.6C182.284 115.6 181.82 115.691 181.447 115.872C181.074 116.053 180.802 116.208 180.631 116.336ZM180.823 119.728C180.823 120.155 180.967 120.485 181.255 120.72C181.554 120.944 181.938 121.056 182.407 121.056C182.994 121.056 183.49 120.88 183.895 120.528C184.3 120.176 184.503 119.707 184.503 119.12V118.848C184.204 118.699 183.9 118.592 183.591 118.528C183.282 118.464 182.956 118.432 182.615 118.432C181.996 118.432 181.543 118.549 181.255 118.784C180.967 119.008 180.823 119.323 180.823 119.728ZM187.95 109.52H189.23V122H187.95V109.52ZM190.518 114.64H191.958L193.798 119.424L195.798 114.08L197.942 119.456L199.798 114.64H201.238L198.038 122.56L195.814 117.2L193.718 122.56L190.518 114.64ZM205.126 122.16C204.443 122.16 203.835 122 203.302 121.68C202.779 121.349 202.369 120.896 202.07 120.32C201.782 119.744 201.638 119.077 201.638 118.32C201.638 117.552 201.787 116.88 202.086 116.304C202.395 115.728 202.822 115.28 203.366 114.96C203.921 114.64 204.561 114.48 205.286 114.48C206.363 114.48 207.211 114.816 207.83 115.488C208.449 116.16 208.758 117.083 208.758 118.256C208.758 118.331 208.753 118.411 208.742 118.496C208.742 118.571 208.742 118.619 208.742 118.64H202.95C203.003 119.376 203.233 119.947 203.638 120.352C204.043 120.757 204.593 120.96 205.286 120.96C206.289 120.96 207.057 120.517 207.59 119.632L208.63 120.288C207.862 121.536 206.694 122.16 205.126 122.16ZM205.286 115.6C204.657 115.6 204.145 115.771 203.75 116.112C203.355 116.443 203.105 116.923 202.998 117.552H207.366C207.323 116.965 207.11 116.496 206.726 116.144C206.353 115.781 205.873 115.6 205.286 115.6ZM210.017 122.48H211.312C211.312 122.832 211.409 123.157 211.601 123.456C211.793 123.765 212.065 124.011 212.417 124.192C212.769 124.384 213.185 124.48 213.665 124.48C214.038 124.48 214.406 124.389 214.769 124.208C215.131 124.027 215.43 123.739 215.665 123.344C215.91 122.96 216.033 122.459 216.033 121.84V120.736C215.766 121.195 215.414 121.547 214.977 121.792C214.55 122.037 214.065 122.16 213.521 122.16C212.859 122.16 212.251 122.005 211.697 121.696C211.142 121.387 210.699 120.944 210.368 120.368C210.038 119.792 209.873 119.109 209.873 118.32C209.873 117.52 210.038 116.837 210.368 116.272C210.699 115.696 211.142 115.253 211.697 114.944C212.251 114.635 212.859 114.48 213.521 114.48C214.065 114.48 214.55 114.603 214.977 114.848C215.414 115.093 215.766 115.445 216.033 115.904V114.64H217.312V121.84C217.312 122.683 217.137 123.387 216.785 123.952C216.433 124.528 215.979 124.96 215.425 125.248C214.87 125.536 214.283 125.68 213.665 125.68C212.95 125.68 212.315 125.547 211.761 125.28C211.217 125.013 210.79 124.635 210.481 124.144C210.171 123.664 210.017 123.109 210.017 122.48ZM211.169 118.32C211.169 118.885 211.281 119.365 211.505 119.76C211.739 120.155 212.049 120.453 212.433 120.656C212.817 120.859 213.233 120.96 213.681 120.96C214.054 120.96 214.422 120.859 214.785 120.656C215.147 120.453 215.446 120.155 215.681 119.76C215.915 119.365 216.033 118.885 216.033 118.32C216.033 117.755 215.915 117.275 215.681 116.88C215.446 116.485 215.147 116.187 214.785 115.984C214.422 115.781 214.054 115.68 213.681 115.68C213.233 115.68 212.817 115.781 212.433 115.984C212.049 116.187 211.739 116.485 211.505 116.88C211.281 117.275 211.169 117.755 211.169 118.32ZM224.514 113.008V111.6L228.354 110.64V122H226.994V112.272L224.514 113.008ZM231.078 116.4C231.078 115.28 231.254 114.288 231.606 113.424C231.958 112.56 232.443 111.883 233.062 111.392C233.691 110.891 234.416 110.64 235.238 110.64C236.059 110.64 236.779 110.891 237.398 111.392C238.027 111.883 238.518 112.56 238.87 113.424C239.222 114.288 239.398 115.28 239.398 116.4C239.398 117.52 239.222 118.512 238.87 119.376C238.518 120.24 238.027 120.923 237.398 121.424C236.779 121.915 236.059 122.16 235.238 122.16C234.416 122.16 233.691 121.915 233.062 121.424C232.443 120.923 231.958 120.24 231.606 119.376C231.254 118.512 231.078 117.52 231.078 116.4ZM232.438 116.4C232.438 117.264 232.55 118.037 232.774 118.72C233.008 119.392 233.334 119.92 233.75 120.304C234.166 120.688 234.662 120.88 235.238 120.88C235.814 120.88 236.31 120.688 236.726 120.304C237.152 119.92 237.478 119.392 237.702 118.72C237.926 118.037 238.038 117.264 238.038 116.4C238.038 115.525 237.926 114.752 237.702 114.08C237.478 113.408 237.152 112.88 236.726 112.496C236.31 112.112 235.814 111.92 235.238 111.92C234.662 111.92 234.166 112.112 233.75 112.496C233.334 112.88 233.008 113.408 232.774 114.08C232.55 114.752 232.438 115.525 232.438 116.4ZM138.886 135.08V133.8H146.726L141.366 145H139.942L144.694 135.08H138.886ZM147.133 142.76L153.341 133.8H153.901V141.56H155.661V142.76H153.901V145H152.541V142.76H147.133ZM149.373 141.56H152.541V136.824L149.373 141.56ZM157.021 141.96C157.021 141.224 157.207 140.611 157.581 140.12C157.965 139.619 158.439 139.256 159.005 139.032C158.514 138.819 158.125 138.499 157.837 138.072C157.559 137.635 157.421 137.112 157.421 136.504C157.421 135.971 157.554 135.491 157.821 135.064C158.098 134.627 158.466 134.28 158.925 134.024C159.394 133.768 159.922 133.64 160.509 133.64C161.095 133.64 161.618 133.768 162.077 134.024C162.546 134.28 162.914 134.627 163.181 135.064C163.458 135.491 163.597 135.971 163.597 136.504C163.597 137.112 163.453 137.635 163.165 138.072C162.887 138.499 162.503 138.819 162.013 139.032C162.578 139.256 163.047 139.619 163.421 140.12C163.805 140.611 163.997 141.224 163.997 141.96C163.997 142.536 163.842 143.069 163.533 143.56C163.234 144.04 162.823 144.429 162.301 144.728C161.778 145.016 161.181 145.16 160.509 145.16C159.847 145.16 159.25 145.016 158.717 144.728C158.194 144.429 157.778 144.04 157.469 143.56C157.17 143.069 157.021 142.536 157.021 141.96ZM158.717 136.664C158.717 137.187 158.893 137.613 159.245 137.944C159.607 138.275 160.029 138.44 160.509 138.44C160.989 138.44 161.405 138.275 161.757 137.944C162.119 137.613 162.301 137.187 162.301 136.664C162.301 136.131 162.13 135.693 161.789 135.352C161.458 135.011 161.031 134.84 160.509 134.84C159.986 134.84 159.554 135.011 159.213 135.352C158.882 135.693 158.717 136.131 158.717 136.664ZM158.317 141.8C158.317 142.259 158.418 142.648 158.621 142.968C158.834 143.288 159.106 143.533 159.437 143.704C159.778 143.875 160.135 143.96 160.509 143.96C160.882 143.96 161.234 143.875 161.565 143.704C161.906 143.533 162.178 143.288 162.381 142.968C162.594 142.648 162.701 142.259 162.701 141.8C162.701 141.395 162.594 141.032 162.381 140.712C162.178 140.381 161.906 140.12 161.565 139.928C161.234 139.736 160.882 139.64 160.509 139.64C160.135 139.64 159.778 139.736 159.437 139.928C159.106 140.12 158.834 140.381 158.621 140.712C158.418 141.032 158.317 141.395 158.317 141.8ZM165.195 145L170.491 139.352C170.864 138.957 171.152 138.563 171.355 138.168C171.558 137.773 171.659 137.352 171.659 136.904C171.659 136.573 171.574 136.259 171.403 135.96C171.232 135.651 170.987 135.4 170.667 135.208C170.347 135.005 169.958 134.904 169.499 134.904C168.784 134.904 168.219 135.149 167.803 135.64C167.398 136.12 167.195 136.787 167.195 137.64H165.835C165.835 136.84 165.979 136.141 166.267 135.544C166.555 134.936 166.971 134.467 167.515 134.136C168.07 133.795 168.731 133.624 169.499 133.624C170.118 133.624 170.651 133.731 171.099 133.944C171.547 134.147 171.915 134.413 172.203 134.744C172.491 135.064 172.704 135.411 172.843 135.784C172.982 136.157 173.051 136.515 173.051 136.856C173.051 137.432 172.912 138.003 172.635 138.568C172.358 139.133 172 139.64 171.563 140.088L167.995 143.72H173.099V145H165.195ZM175.264 136.008V134.6L179.104 133.64V145H177.744V135.272L175.264 136.008ZM188.816 137.432L187.984 145H186.624L187.984 133.24L192.464 141.352L196.944 133.24L198.304 145H196.944L196.112 137.432L192.464 143.96L188.816 137.432ZM199.498 141.32C199.498 140.573 199.663 139.912 199.993 139.336C200.335 138.76 200.794 138.307 201.37 137.976C201.946 137.645 202.591 137.48 203.306 137.48C204.031 137.48 204.676 137.645 205.242 137.976C205.818 138.307 206.271 138.76 206.602 139.336C206.943 139.912 207.114 140.573 207.114 141.32C207.114 142.056 206.943 142.717 206.602 143.304C206.271 143.88 205.818 144.333 205.242 144.664C204.676 144.995 204.031 145.16 203.306 145.16C202.591 145.16 201.946 144.995 201.37 144.664C200.794 144.333 200.335 143.88 199.993 143.304C199.663 142.717 199.498 142.056 199.498 141.32ZM200.794 141.32C200.794 141.832 200.9 142.285 201.114 142.68C201.338 143.075 201.636 143.389 202.01 143.624C202.394 143.848 202.826 143.96 203.306 143.96C203.786 143.96 204.212 143.848 204.586 143.624C204.97 143.389 205.268 143.075 205.482 142.68C205.706 142.285 205.818 141.832 205.818 141.32C205.818 140.808 205.706 140.355 205.482 139.96C205.268 139.555 204.97 139.24 204.586 139.016C204.212 138.792 203.786 138.68 203.306 138.68C202.826 138.68 202.394 138.792 202.01 139.016C201.636 139.24 201.338 139.555 201.114 139.96C200.9 140.355 200.794 140.808 200.794 141.32ZM209.176 142.744C209.4 143.085 209.672 143.379 209.992 143.624C210.323 143.869 210.717 143.992 211.176 143.992C211.539 143.992 211.821 143.912 212.024 143.752C212.237 143.581 212.344 143.352 212.344 143.064C212.344 142.808 212.259 142.595 212.088 142.424C211.928 142.243 211.72 142.093 211.464 141.976C211.208 141.848 210.936 141.731 210.648 141.624C210.328 141.496 210.003 141.347 209.672 141.176C209.352 140.995 209.08 140.765 208.856 140.488C208.643 140.2 208.536 139.843 208.536 139.416C208.536 138.979 208.648 138.616 208.872 138.328C209.107 138.04 209.405 137.827 209.768 137.688C210.141 137.549 210.525 137.48 210.92 137.48C211.507 137.48 212.04 137.619 212.52 137.896C213 138.173 213.352 138.515 213.576 138.92L212.552 139.576C212.349 139.299 212.093 139.069 211.784 138.888C211.485 138.707 211.144 138.616 210.76 138.616C210.493 138.616 210.264 138.675 210.072 138.792C209.88 138.909 209.784 139.091 209.784 139.336C209.784 139.635 209.939 139.88 210.248 140.072C210.568 140.253 210.925 140.424 211.32 140.584C211.747 140.755 212.136 140.941 212.488 141.144C212.84 141.336 213.117 141.571 213.32 141.848C213.533 142.125 213.64 142.483 213.64 142.92C213.64 143.56 213.405 144.093 212.936 144.52C212.477 144.947 211.869 145.16 211.112 145.16C210.621 145.16 210.179 145.075 209.784 144.904C209.389 144.723 209.053 144.493 208.776 144.216C208.509 143.939 208.307 143.656 208.168 143.368L209.176 142.744ZM222.685 141.32C222.685 142.109 222.52 142.792 222.189 143.368C221.858 143.944 221.416 144.387 220.861 144.696C220.317 145.005 219.709 145.16 219.037 145.16C218.493 145.16 218.002 145.037 217.565 144.792C217.138 144.547 216.792 144.195 216.525 143.736V145H215.245V132.52H216.525V138.904C216.792 138.445 217.138 138.093 217.565 137.848C218.002 137.603 218.493 137.48 219.037 137.48C219.709 137.48 220.317 137.635 220.861 137.944C221.416 138.253 221.858 138.696 222.189 139.272C222.52 139.837 222.685 140.52 222.685 141.32ZM221.389 141.32C221.389 140.755 221.272 140.275 221.037 139.88C220.813 139.485 220.509 139.187 220.125 138.984C219.752 138.781 219.336 138.68 218.877 138.68C218.504 138.68 218.136 138.781 217.773 138.984C217.41 139.187 217.112 139.485 216.877 139.88C216.642 140.275 216.525 140.755 216.525 141.32C216.525 141.885 216.642 142.365 216.877 142.76C217.112 143.155 217.41 143.453 217.773 143.656C218.136 143.859 218.504 143.96 218.877 143.96C219.336 143.96 219.752 143.859 220.125 143.656C220.509 143.453 220.813 143.155 221.037 142.76C221.272 142.365 221.389 141.885 221.389 141.32ZM224.834 139.336L224.21 138.392C224.487 138.189 224.866 137.987 225.346 137.784C225.837 137.581 226.423 137.48 227.106 137.48C227.959 137.48 228.653 137.677 229.186 138.072C229.719 138.456 229.986 139.005 229.986 139.72V145H228.706V144.008C228.471 144.392 228.119 144.68 227.65 144.872C227.181 145.064 226.722 145.16 226.274 145.16C225.826 145.16 225.405 145.069 225.01 144.888C224.626 144.696 224.317 144.424 224.082 144.072C223.847 143.72 223.73 143.293 223.73 142.792C223.73 142.077 223.981 141.507 224.482 141.08C224.994 140.643 225.703 140.424 226.61 140.424C227.101 140.424 227.517 140.483 227.858 140.6C228.21 140.707 228.493 140.829 228.706 140.968V139.896C228.706 139.395 228.541 139.053 228.21 138.872C227.89 138.691 227.501 138.6 227.042 138.6C226.487 138.6 226.023 138.691 225.65 138.872C225.277 139.053 225.005 139.208 224.834 139.336ZM225.026 142.728C225.026 143.155 225.17 143.485 225.458 143.72C225.757 143.944 226.141 144.056 226.61 144.056C227.197 144.056 227.693 143.88 228.098 143.528C228.503 143.176 228.706 142.707 228.706 142.12V141.848C228.407 141.699 228.103 141.592 227.794 141.528C227.485 141.464 227.159 141.432 226.818 141.432C226.199 141.432 225.746 141.549 225.458 141.784C225.17 142.008 225.026 142.323 225.026 142.728ZM232.729 141.32C232.729 141.832 232.836 142.285 233.049 142.68C233.273 143.075 233.572 143.389 233.945 143.624C234.329 143.848 234.761 143.96 235.241 143.96C235.838 143.96 236.372 143.827 236.841 143.56C237.31 143.293 237.63 142.979 237.801 142.616V144.216C237.545 144.515 237.177 144.749 236.697 144.92C236.228 145.08 235.742 145.16 235.241 145.16C234.526 145.16 233.881 144.995 233.305 144.664C232.729 144.333 232.27 143.88 231.929 143.304C231.598 142.717 231.433 142.056 231.433 141.32C231.433 140.573 231.598 139.912 231.929 139.336C232.27 138.76 232.729 138.307 233.305 137.976C233.881 137.645 234.526 137.48 235.241 137.48C235.742 137.48 236.228 137.565 236.697 137.736C237.177 137.896 237.545 138.125 237.801 138.424V140.024C237.63 139.661 237.31 139.347 236.841 139.08C236.372 138.813 235.838 138.68 235.241 138.68C234.761 138.68 234.329 138.792 233.945 139.016C233.572 139.24 233.273 139.555 233.049 139.96C232.836 140.355 232.729 140.808 232.729 141.32ZM244.514 140.52C244.514 139.293 243.991 138.68 242.946 138.68C242.391 138.68 241.938 138.856 241.586 139.208C241.244 139.549 241.074 139.987 241.074 140.52V145H239.794V132.52H241.074V138.808C241.298 138.403 241.596 138.083 241.97 137.848C242.354 137.603 242.786 137.48 243.266 137.48C244.023 137.48 244.631 137.725 245.09 138.216C245.559 138.696 245.794 139.411 245.794 140.36V145H244.514V140.52ZM88.5919 163.52C88.5919 162.293 88.0692 161.68 87.0239 161.68C86.4692 161.68 86.0159 161.856 85.6639 162.208C85.3225 162.549 85.1519 162.987 85.1519 163.52V168H83.8719V155.52H85.1519V161.808C85.3759 161.403 85.6745 161.083 86.0479 160.848C86.4319 160.603 86.8639 160.48 87.3439 160.48C88.1012 160.48 88.7092 160.725 89.1679 161.216C89.6372 161.696 89.8719 162.411 89.8719 163.36V168H88.5919V163.52ZM91.1581 160.64H92.3581V158.08H93.6381V160.64H94.8381V161.84H93.6381V168H92.3581V161.84H91.1581V160.64ZM95.0019 160.64H96.2019V158.08H97.4819V160.64H98.6819V161.84H97.4819V168H96.2019V161.84H95.0019V160.64ZM101.166 171.52H99.8856V160.64H101.166V161.904C101.432 161.445 101.779 161.093 102.206 160.848C102.643 160.603 103.134 160.48 103.678 160.48C104.35 160.48 104.958 160.635 105.502 160.944C106.056 161.253 106.499 161.696 106.83 162.272C107.16 162.837 107.326 163.52 107.326 164.32C107.326 165.109 107.16 165.792 106.83 166.368C106.499 166.944 106.056 167.387 105.502 167.696C104.958 168.005 104.35 168.16 103.678 168.16C103.134 168.16 102.643 168.037 102.206 167.792C101.779 167.547 101.432 167.195 101.166 166.736V171.52ZM106.03 164.32C106.03 163.755 105.912 163.275 105.678 162.88C105.454 162.485 105.15 162.187 104.766 161.984C104.392 161.781 103.976 161.68 103.518 161.68C103.144 161.68 102.776 161.781 102.414 161.984C102.051 162.187 101.752 162.485 101.518 162.88C101.283 163.275 101.166 163.755 101.166 164.32C101.166 164.885 101.283 165.365 101.518 165.76C101.752 166.155 102.051 166.453 102.414 166.656C102.776 166.859 103.144 166.96 103.518 166.96C103.976 166.96 104.392 166.859 104.766 166.656C105.15 166.453 105.454 166.155 105.678 165.76C105.912 165.365 106.03 164.885 106.03 164.32ZM109.395 165.744C109.619 166.085 109.891 166.379 110.211 166.624C110.541 166.869 110.936 166.992 111.395 166.992C111.757 166.992 112.04 166.912 112.243 166.752C112.456 166.581 112.563 166.352 112.563 166.064C112.563 165.808 112.477 165.595 112.307 165.424C112.147 165.243 111.939 165.093 111.683 164.976C111.427 164.848 111.155 164.731 110.867 164.624C110.547 164.496 110.221 164.347 109.891 164.176C109.571 163.995 109.299 163.765 109.075 163.488C108.861 163.2 108.755 162.843 108.755 162.416C108.755 161.979 108.867 161.616 109.091 161.328C109.325 161.04 109.624 160.827 109.987 160.688C110.36 160.549 110.744 160.48 111.139 160.48C111.725 160.48 112.259 160.619 112.739 160.896C113.219 161.173 113.571 161.515 113.795 161.92L112.771 162.576C112.568 162.299 112.312 162.069 112.003 161.888C111.704 161.707 111.363 161.616 110.979 161.616C110.712 161.616 110.483 161.675 110.291 161.792C110.099 161.909 110.003 162.091 110.003 162.336C110.003 162.635 110.157 162.88 110.467 163.072C110.787 163.253 111.144 163.424 111.539 163.584C111.965 163.755 112.355 163.941 112.707 164.144C113.059 164.336 113.336 164.571 113.539 164.848C113.752 165.125 113.859 165.483 113.859 165.92C113.859 166.56 113.624 167.093 113.155 167.52C112.696 167.947 112.088 168.16 111.331 168.16C110.84 168.16 110.397 168.075 110.003 167.904C109.608 167.723 109.272 167.493 108.995 167.216C108.728 166.939 108.525 166.656 108.387 166.368L109.395 165.744ZM115.864 161.28C115.864 161.035 115.949 160.827 116.12 160.656C116.301 160.485 116.509 160.4 116.744 160.4C116.989 160.4 117.197 160.485 117.368 160.656C117.538 160.827 117.624 161.035 117.624 161.28C117.624 161.515 117.538 161.723 117.368 161.904C117.197 162.075 116.989 162.16 116.744 162.16C116.509 162.16 116.301 162.075 116.12 161.904C115.949 161.723 115.864 161.515 115.864 161.28ZM115.864 167.36C115.864 167.115 115.949 166.907 116.12 166.736C116.301 166.565 116.509 166.48 116.744 166.48C116.989 166.48 117.197 166.565 117.368 166.736C117.538 166.907 117.624 167.115 117.624 167.36C117.624 167.595 117.538 167.803 117.368 167.984C117.197 168.155 116.989 168.24 116.744 168.24C116.509 168.24 116.301 168.155 116.12 167.984C115.949 167.803 115.864 167.595 115.864 167.36ZM125.861 156.8H127.141L120.661 170.4H119.381L125.861 156.8ZM132.501 156.8H133.781L127.301 170.4H126.021L132.501 156.8ZM134.096 160.64H135.536L137.376 165.424L139.376 160.08L141.52 165.456L143.376 160.64H144.816L141.616 168.56L139.392 163.2L137.296 168.56L134.096 160.64ZM145.455 160.64H146.895L148.735 165.424L150.735 160.08L152.879 165.456L154.735 160.64H156.175L152.975 168.56L150.751 163.2L148.655 168.56L145.455 160.64ZM156.814 160.64H158.254L160.094 165.424L162.094 160.08L164.238 165.456L166.094 160.64H167.534L164.334 168.56L162.11 163.2L160.014 168.56L156.814 160.64ZM168.176 167.36C168.176 167.115 168.262 166.907 168.432 166.736C168.614 166.565 168.822 166.48 169.056 166.48C169.302 166.48 169.51 166.565 169.68 166.736C169.851 166.907 169.936 167.115 169.936 167.36C169.936 167.595 169.851 167.803 169.68 167.984C169.51 168.155 169.302 168.24 169.056 168.24C168.822 168.24 168.614 168.155 168.432 167.984C168.262 167.803 168.176 167.595 168.176 167.36ZM182.733 163.36V168H181.453V163.52C181.453 162.891 181.336 162.427 181.101 162.128C180.877 161.829 180.525 161.68 180.045 161.68C179.522 161.68 179.106 161.845 178.797 162.176C178.488 162.496 178.333 162.944 178.333 163.52V168H177.053V163.52C177.053 162.891 176.936 162.427 176.701 162.128C176.477 161.829 176.125 161.68 175.645 161.68C175.122 161.68 174.706 161.845 174.397 162.176C174.088 162.496 173.933 162.944 173.933 163.52V168H172.653V160.64H173.933V161.712C174.37 160.891 175.048 160.48 175.965 160.48C176.477 160.48 176.914 160.603 177.277 160.848C177.65 161.083 177.922 161.419 178.093 161.856C178.605 160.939 179.362 160.48 180.365 160.48C181.122 160.48 181.704 160.731 182.109 161.232C182.525 161.733 182.733 162.443 182.733 163.36ZM184.498 164.32C184.498 163.573 184.663 162.912 184.993 162.336C185.335 161.76 185.794 161.307 186.37 160.976C186.946 160.645 187.591 160.48 188.306 160.48C189.031 160.48 189.676 160.645 190.242 160.976C190.818 161.307 191.271 161.76 191.602 162.336C191.943 162.912 192.114 163.573 192.114 164.32C192.114 165.056 191.943 165.717 191.602 166.304C191.271 166.88 190.818 167.333 190.242 167.664C189.676 167.995 189.031 168.16 188.306 168.16C187.591 168.16 186.946 167.995 186.37 167.664C185.794 167.333 185.335 166.88 184.993 166.304C184.663 165.717 184.498 165.056 184.498 164.32ZM185.794 164.32C185.794 164.832 185.9 165.285 186.114 165.68C186.338 166.075 186.636 166.389 187.01 166.624C187.394 166.848 187.826 166.96 188.306 166.96C188.786 166.96 189.212 166.848 189.586 166.624C189.97 166.389 190.268 166.075 190.482 165.68C190.706 165.285 190.818 164.832 190.818 164.32C190.818 163.808 190.706 163.355 190.482 162.96C190.268 162.555 189.97 162.24 189.586 162.016C189.212 161.792 188.786 161.68 188.306 161.68C187.826 161.68 187.394 161.792 187.01 162.016C186.636 162.24 186.338 162.555 186.114 162.96C185.9 163.355 185.794 163.808 185.794 164.32ZM194.176 165.744C194.4 166.085 194.672 166.379 194.992 166.624C195.323 166.869 195.717 166.992 196.176 166.992C196.539 166.992 196.821 166.912 197.024 166.752C197.237 166.581 197.344 166.352 197.344 166.064C197.344 165.808 197.259 165.595 197.088 165.424C196.928 165.243 196.72 165.093 196.464 164.976C196.208 164.848 195.936 164.731 195.648 164.624C195.328 164.496 195.003 164.347 194.672 164.176C194.352 163.995 194.08 163.765 193.856 163.488C193.643 163.2 193.536 162.843 193.536 162.416C193.536 161.979 193.648 161.616 193.872 161.328C194.107 161.04 194.405 160.827 194.768 160.688C195.141 160.549 195.525 160.48 195.92 160.48C196.507 160.48 197.04 160.619 197.52 160.896C198 161.173 198.352 161.515 198.576 161.92L197.552 162.576C197.349 162.299 197.093 162.069 196.784 161.888C196.485 161.707 196.144 161.616 195.76 161.616C195.493 161.616 195.264 161.675 195.072 161.792C194.88 161.909 194.784 162.091 194.784 162.336C194.784 162.635 194.939 162.88 195.248 163.072C195.568 163.253 195.925 163.424 196.32 163.584C196.747 163.755 197.136 163.941 197.488 164.144C197.84 164.336 198.117 164.571 198.32 164.848C198.533 165.125 198.64 165.483 198.64 165.92C198.64 166.56 198.405 167.093 197.936 167.52C197.477 167.947 196.869 168.16 196.112 168.16C195.621 168.16 195.179 168.075 194.784 167.904C194.389 167.723 194.053 167.493 193.776 167.216C193.509 166.939 193.307 166.656 193.168 166.368L194.176 165.744ZM207.685 164.32C207.685 165.109 207.52 165.792 207.189 166.368C206.858 166.944 206.416 167.387 205.861 167.696C205.317 168.005 204.709 168.16 204.037 168.16C203.493 168.16 203.002 168.037 202.565 167.792C202.138 167.547 201.792 167.195 201.525 166.736V168H200.245V155.52H201.525V161.904C201.792 161.445 202.138 161.093 202.565 160.848C203.002 160.603 203.493 160.48 204.037 160.48C204.709 160.48 205.317 160.635 205.861 160.944C206.416 161.253 206.858 161.696 207.189 162.272C207.52 162.837 207.685 163.52 207.685 164.32ZM206.389 164.32C206.389 163.755 206.272 163.275 206.037 162.88C205.813 162.485 205.509 162.187 205.125 161.984C204.752 161.781 204.336 161.68 203.877 161.68C203.504 161.68 203.136 161.781 202.773 161.984C202.41 162.187 202.112 162.485 201.877 162.88C201.642 163.275 201.525 163.755 201.525 164.32C201.525 164.885 201.642 165.365 201.877 165.76C202.112 166.155 202.41 166.453 202.773 166.656C203.136 166.859 203.504 166.96 203.877 166.96C204.336 166.96 204.752 166.859 205.125 166.656C205.509 166.453 205.813 166.155 206.037 165.76C206.272 165.365 206.389 164.885 206.389 164.32ZM209.834 162.336L209.21 161.392C209.487 161.189 209.866 160.987 210.346 160.784C210.837 160.581 211.423 160.48 212.106 160.48C212.959 160.48 213.653 160.677 214.186 161.072C214.719 161.456 214.986 162.005 214.986 162.72V168H213.706V167.008C213.471 167.392 213.119 167.68 212.65 167.872C212.181 168.064 211.722 168.16 211.274 168.16C210.826 168.16 210.405 168.069 210.01 167.888C209.626 167.696 209.317 167.424 209.082 167.072C208.847 166.72 208.73 166.293 208.73 165.792C208.73 165.077 208.981 164.507 209.482 164.08C209.994 163.643 210.703 163.424 211.61 163.424C212.101 163.424 212.517 163.483 212.858 163.6C213.21 163.707 213.493 163.829 213.706 163.968V162.896C213.706 162.395 213.541 162.053 213.21 161.872C212.89 161.691 212.501 161.6 212.042 161.6C211.487 161.6 211.023 161.691 210.65 161.872C210.277 162.053 210.005 162.208 209.834 162.336ZM210.026 165.728C210.026 166.155 210.17 166.485 210.458 166.72C210.757 166.944 211.141 167.056 211.61 167.056C212.197 167.056 212.693 166.88 213.098 166.528C213.503 166.176 213.706 165.707 213.706 165.12V164.848C213.407 164.699 213.103 164.592 212.794 164.528C212.485 164.464 212.159 164.432 211.818 164.432C211.199 164.432 210.746 164.549 210.458 164.784C210.17 165.008 210.026 165.323 210.026 165.728ZM217.729 164.32C217.729 164.832 217.836 165.285 218.049 165.68C218.273 166.075 218.572 166.389 218.945 166.624C219.329 166.848 219.761 166.96 220.241 166.96C220.838 166.96 221.372 166.827 221.841 166.56C222.31 166.293 222.63 165.979 222.801 165.616V167.216C222.545 167.515 222.177 167.749 221.697 167.92C221.228 168.08 220.742 168.16 220.241 168.16C219.526 168.16 218.881 167.995 218.305 167.664C217.729 167.333 217.27 166.88 216.929 166.304C216.598 165.717 216.433 165.056 216.433 164.32C216.433 163.573 216.598 162.912 216.929 162.336C217.27 161.76 217.729 161.307 218.305 160.976C218.881 160.645 219.526 160.48 220.241 160.48C220.742 160.48 221.228 160.565 221.697 160.736C222.177 160.896 222.545 161.125 222.801 161.424V163.024C222.63 162.661 222.31 162.347 221.841 162.08C221.372 161.813 220.838 161.68 220.241 161.68C219.761 161.68 219.329 161.792 218.945 162.016C218.572 162.24 218.273 162.555 218.049 162.96C217.836 163.355 217.729 163.808 217.729 164.32ZM229.514 163.52C229.514 162.293 228.991 161.68 227.946 161.68C227.391 161.68 226.938 161.856 226.586 162.208C226.244 162.549 226.074 162.987 226.074 163.52V168H224.794V155.52H226.074V161.808C226.298 161.403 226.596 161.083 226.97 160.848C227.354 160.603 227.786 160.48 228.266 160.48C229.023 160.48 229.631 160.725 230.09 161.216C230.559 161.696 230.794 162.411 230.794 163.36V168H229.514V163.52ZM233.52 167.36C233.52 167.115 233.605 166.907 233.776 166.736C233.957 166.565 234.165 166.48 234.4 166.48C234.645 166.48 234.853 166.565 235.024 166.736C235.195 166.907 235.28 167.115 235.28 167.36C235.28 167.595 235.195 167.803 235.024 167.984C234.853 168.155 234.645 168.24 234.4 168.24C234.165 168.24 233.957 168.155 233.776 167.984C233.605 167.803 233.52 167.595 233.52 167.36ZM237.357 164.32C237.357 163.52 237.522 162.837 237.853 162.272C238.184 161.696 238.626 161.253 239.181 160.944C239.736 160.635 240.344 160.48 241.005 160.48C241.549 160.48 242.034 160.603 242.461 160.848C242.898 161.093 243.25 161.445 243.517 161.904V155.52H244.797V168H243.517V166.736C243.25 167.195 242.898 167.547 242.461 167.792C242.034 168.037 241.549 168.16 241.005 168.16C240.344 168.16 239.736 168.005 239.181 167.696C238.626 167.387 238.184 166.944 237.853 166.368C237.522 165.792 237.357 165.109 237.357 164.32ZM238.653 164.32C238.653 164.885 238.765 165.365 238.989 165.76C239.224 166.155 239.533 166.453 239.917 166.656C240.301 166.859 240.717 166.96 241.165 166.96C241.538 166.96 241.906 166.859 242.269 166.656C242.632 166.453 242.93 166.155 243.165 165.76C243.4 165.365 243.517 164.885 243.517 164.32C243.517 163.755 243.4 163.275 243.165 162.88C242.93 162.485 242.632 162.187 242.269 161.984C241.906 161.781 241.538 161.68 241.165 161.68C240.717 161.68 240.301 161.781 239.917 161.984C239.533 162.187 239.224 162.485 238.989 162.88C238.765 163.275 238.653 163.755 238.653 164.32ZM251.842 163.52C251.842 162.293 251.319 161.68 250.274 161.68C249.719 161.68 249.266 161.856 248.914 162.208C248.573 162.549 248.402 162.987 248.402 163.52V168H247.122V155.52H248.402V161.808C248.626 161.403 248.925 161.083 249.298 160.848C249.682 160.603 250.114 160.48 250.594 160.48C251.351 160.48 251.959 160.725 252.418 161.216C252.887 161.696 253.122 162.411 253.122 163.36V168H251.842V163.52ZM262.888 164.32C262.888 165.109 262.723 165.792 262.392 166.368C262.061 166.944 261.619 167.387 261.064 167.696C260.52 168.005 259.912 168.16 259.24 168.16C258.696 168.16 258.205 168.037 257.768 167.792C257.341 167.547 256.995 167.195 256.728 166.736V168H255.448V155.52H256.728V161.904C256.995 161.445 257.341 161.093 257.768 160.848C258.205 160.603 258.696 160.48 259.24 160.48C259.912 160.48 260.52 160.635 261.064 160.944C261.619 161.253 262.061 161.696 262.392 162.272C262.723 162.837 262.888 163.52 262.888 164.32ZM261.592 164.32C261.592 163.755 261.475 163.275 261.24 162.88C261.016 162.485 260.712 162.187 260.328 161.984C259.955 161.781 259.539 161.68 259.08 161.68C258.707 161.68 258.339 161.781 257.976 161.984C257.613 162.187 257.315 162.485 257.08 162.88C256.845 163.275 256.728 163.755 256.728 164.32C256.728 164.885 256.845 165.365 257.08 165.76C257.315 166.155 257.613 166.453 257.976 166.656C258.339 166.859 258.707 166.96 259.08 166.96C259.539 166.96 259.955 166.859 260.328 166.656C260.712 166.453 261.016 166.155 261.24 165.76C261.475 165.365 261.592 164.885 261.592 164.32ZM263.299 160.64H264.739L266.579 165.424L268.579 160.08L270.723 165.456L272.579 160.64H274.019L270.819 168.56L268.595 163.2L266.499 168.56L263.299 160.64ZM274.661 167.36C274.661 167.115 274.746 166.907 274.917 166.736C275.098 166.565 275.306 166.48 275.541 166.48C275.786 166.48 275.994 166.565 276.165 166.736C276.335 166.907 276.421 167.115 276.421 167.36C276.421 167.595 276.335 167.803 276.165 167.984C275.994 168.155 275.786 168.24 275.541 168.24C275.306 168.24 275.098 168.155 274.917 167.984C274.746 167.803 274.661 167.595 274.661 167.36ZM278.498 164.32C278.498 163.52 278.663 162.837 278.993 162.272C279.324 161.696 279.767 161.253 280.322 160.944C280.876 160.635 281.484 160.48 282.146 160.48C282.69 160.48 283.175 160.603 283.602 160.848C284.039 161.093 284.391 161.445 284.658 161.904V155.52H285.938V168H284.658V166.736C284.391 167.195 284.039 167.547 283.602 167.792C283.175 168.037 282.69 168.16 282.146 168.16C281.484 168.16 280.876 168.005 280.322 167.696C279.767 167.387 279.324 166.944 278.993 166.368C278.663 165.792 278.498 165.109 278.498 164.32ZM279.794 164.32C279.794 164.885 279.906 165.365 280.13 165.76C280.364 166.155 280.674 166.453 281.058 166.656C281.442 166.859 281.858 166.96 282.306 166.96C282.679 166.96 283.047 166.859 283.41 166.656C283.772 166.453 284.071 166.155 284.306 165.76C284.54 165.365 284.658 164.885 284.658 164.32C284.658 163.755 284.54 163.275 284.306 162.88C284.071 162.485 283.772 162.187 283.41 161.984C283.047 161.781 282.679 161.68 282.306 161.68C281.858 161.68 281.442 161.781 281.058 161.984C280.674 162.187 280.364 162.485 280.13 162.88C279.906 163.275 279.794 163.755 279.794 164.32ZM291.111 168.16C290.428 168.16 289.82 168 289.287 167.68C288.764 167.349 288.353 166.896 288.055 166.32C287.767 165.744 287.623 165.077 287.623 164.32C287.623 163.552 287.772 162.88 288.071 162.304C288.38 161.728 288.807 161.28 289.351 160.96C289.905 160.64 290.545 160.48 291.271 160.48C292.348 160.48 293.196 160.816 293.815 161.488C294.433 162.16 294.743 163.083 294.743 164.256C294.743 164.331 294.737 164.411 294.727 164.496C294.727 164.571 294.727 164.619 294.727 164.64H288.935C288.988 165.376 289.217 165.947 289.623 166.352C290.028 166.757 290.577 166.96 291.271 166.96C292.273 166.96 293.041 166.517 293.575 165.632L294.615 166.288C293.847 167.536 292.679 168.16 291.111 168.16ZM291.271 161.6C290.641 161.6 290.129 161.771 289.735 162.112C289.34 162.443 289.089 162.923 288.983 163.552H293.351C293.308 162.965 293.095 162.496 292.711 162.144C292.337 161.781 291.857 161.6 291.271 161.6ZM301.22 156.8H302.5L296.02 170.4H294.74L301.22 156.8Z" fill="black"/>
<defs>
<linearGradient id="paint0_linear" x1="386.51" y1="-10.8431" x2="286.003" y2="412.16" gradientUnits="userSpaceOnUse">
<stop stop-color="#EEF4F2" stop-opacity="0.63"/>
<stop offset="1" stop-color="#E4EFEB" stop-opacity="0.17"/>
</linearGradient>
</defs>
</svg>
