<svg width="479" height="368" viewBox="0 0 479 368" fill="none" xmlns="http://www.w3.org/2000/svg">
<path d="M476.503 193.537L476.504 193.529L476.505 193.521C479.34 167.726 482.193 107.364 444.084 62.0274L443.319 62.6708L444.084 62.0274C426.279 40.8464 404.526 29.0774 374.689 21.6293C344.902 14.1938 306.981 11.0475 256.812 7.14386L256.734 8.14084L256.812 7.14386C197.538 2.53409 147.224 -1.23958 107.273 2.55874C67.3103 6.35803 37.4704 17.7541 19.398 43.7037L20.2186 44.2752L19.3979 43.7037C3.70184 66.2425 0.268635 94.9723 1.11996 119.574C1.97114 144.172 7.11184 164.797 8.73108 171.294L8.73644 171.316L8.73652 171.316C12.7866 187.543 17.8006 198.413 24.2257 211.061C25.2219 213.022 26.252 215.026 27.3178 217.099C33.1176 228.381 39.9765 241.722 48.2029 261.466C65.6813 303.42 74.7908 339.387 79.6832 362.465L80.2133 364.965L81.5208 362.769C91.4176 346.139 106.918 325.931 131.112 311.209C155.518 296.359 178.14 286.423 210.649 282.379C243.202 278.329 285.71 280.182 349.889 289.008C356.392 289.908 406.379 295.942 444.159 259.316L443.487 258.622L444.159 259.316C470.019 234.238 475.225 203.636 476.503 193.537Z" fill="url(#paint0_linear)" stroke="#C19D82" stroke-width="2"/>
<path d="M125.352 102H121.544V90.8H125.352C126.536 90.8 127.565 91.0293 128.44 91.488C129.325 91.9467 130.013 92.5973 130.504 93.44C130.995 94.272 131.24 95.2587 131.24 96.4C131.24 97.5307 130.995 98.5173 130.504 99.36C130.013 100.203 129.325 100.853 128.44 101.312C127.565 101.771 126.536 102 125.352 102ZM125.288 92.896H123.912V99.904H125.288C125.949 99.904 126.547 99.7867 127.08 99.552C127.624 99.3067 128.056 98.928 128.376 98.416C128.707 97.8933 128.872 97.2213 128.872 96.4C128.872 95.5787 128.707 94.912 128.376 94.4C128.056 93.8773 127.624 93.4987 127.08 93.264C126.547 93.0187 125.949 92.896 125.288 92.896ZM132.325 98.32C132.325 97.552 132.501 96.88 132.853 96.304C133.216 95.728 133.701 95.28 134.309 94.96C134.928 94.64 135.626 94.48 136.405 94.48C137.184 94.48 137.882 94.64 138.501 94.96C139.12 95.28 139.605 95.728 139.957 96.304C140.32 96.88 140.501 97.552 140.501 98.32C140.501 99.0773 140.32 99.7493 139.957 100.336C139.605 100.912 139.12 101.36 138.501 101.68C137.882 102 137.184 102.16 136.405 102.16C135.626 102.16 134.928 102 134.309 101.68C133.701 101.36 133.216 100.912 132.853 100.336C132.501 99.7493 132.325 99.0773 132.325 98.32ZM134.453 98.32C134.453 98.9387 134.64 99.44 135.013 99.824C135.397 100.208 135.861 100.4 136.405 100.4C136.949 100.4 137.408 100.208 137.781 99.824C138.165 99.44 138.357 98.9387 138.357 98.32C138.357 97.6907 138.165 97.1893 137.781 96.816C137.408 96.432 136.949 96.24 136.405 96.24C135.861 96.24 135.397 96.432 135.013 96.816C134.64 97.1893 134.453 97.6907 134.453 98.32ZM145.085 96.544H141.645V94.64H148.605L144.653 100.096H148.141V102H141.021L145.085 96.544ZM153.106 102.16C152.295 102.16 151.591 102.005 150.994 101.696C150.396 101.376 149.932 100.928 149.602 100.352C149.282 99.776 149.122 99.0987 149.122 98.32C149.122 97.1467 149.479 96.2133 150.194 95.52C150.908 94.8267 151.879 94.48 153.106 94.48C154.322 94.48 155.266 94.8107 155.938 95.472C156.61 96.1227 156.946 97.04 156.946 98.224C156.946 98.3307 156.94 98.432 156.93 98.528C156.919 98.624 156.914 98.704 156.914 98.768H151.234C151.298 99.344 151.49 99.792 151.81 100.112C152.14 100.421 152.572 100.576 153.106 100.576C154.012 100.576 154.674 100.219 155.09 99.504L156.914 100.08C156.146 101.467 154.876 102.16 153.106 102.16ZM153.074 95.952C152.071 95.952 151.474 96.4693 151.282 97.504H154.706C154.663 97.0347 154.492 96.6613 154.194 96.384C153.906 96.096 153.532 95.952 153.074 95.952ZM163.261 97.52C163.261 97.04 163.165 96.672 162.973 96.416C162.791 96.1493 162.482 96.016 162.045 96.016C161.618 96.016 161.266 96.1493 160.989 96.416C160.711 96.6827 160.573 97.0507 160.573 97.52V102H158.493V94.64H160.573V95.76C161.031 94.9067 161.778 94.48 162.813 94.48C163.687 94.48 164.338 94.7307 164.765 95.232C165.191 95.7227 165.405 96.4107 165.405 97.296V102H163.261V97.52ZM166.502 94.64H167.766V92.08H169.782V94.64H171.062V96.4H169.782V102H167.766V96.4H166.502V94.64ZM172.341 95.024C172.341 94.672 172.464 94.3733 172.709 94.128C172.954 93.872 173.269 93.744 173.653 93.744C174.037 93.744 174.352 93.872 174.597 94.128C174.842 94.3733 174.965 94.672 174.965 95.024C174.965 95.376 174.842 95.6853 174.597 95.952C174.352 96.208 174.037 96.336 173.653 96.336C173.269 96.336 172.954 96.208 172.709 95.952C172.464 95.6853 172.341 95.376 172.341 95.024ZM172.341 101.04C172.341 100.688 172.464 100.384 172.709 100.128C172.954 99.872 173.269 99.744 173.653 99.744C174.037 99.744 174.352 99.872 174.597 100.128C174.842 100.384 174.965 100.688 174.965 101.04C174.965 101.392 174.842 101.701 174.597 101.968C174.352 102.224 174.037 102.352 173.653 102.352C173.269 102.352 172.954 102.224 172.709 101.968C172.464 101.701 172.341 101.392 172.341 101.04ZM185.609 102H182.249V90.8H185.609C186.697 90.8 187.662 91.0347 188.505 91.504C189.347 91.9733 190.009 92.6293 190.489 93.472C190.969 94.304 191.209 95.28 191.209 96.4C191.209 97.52 190.969 98.5013 190.489 99.344C190.009 100.176 189.347 100.827 188.505 101.296C187.662 101.765 186.697 102 185.609 102ZM185.609 92.16H183.609V100.64H185.609C186.451 100.64 187.187 100.469 187.817 100.128C188.457 99.776 188.953 99.2853 189.305 98.656C189.667 98.016 189.849 97.264 189.849 96.4C189.849 95.5253 189.667 94.7733 189.305 94.144C188.953 93.5147 188.457 93.0293 187.817 92.688C187.187 92.336 186.451 92.16 185.609 92.16ZM193.044 91.6C193.044 91.3547 193.129 91.1467 193.3 90.976C193.481 90.8053 193.689 90.72 193.924 90.72C194.169 90.72 194.377 90.8053 194.548 90.976C194.718 91.1467 194.804 91.3547 194.804 91.6C194.804 91.8347 194.718 92.0427 194.548 92.224C194.377 92.3947 194.169 92.48 193.924 92.48C193.689 92.48 193.481 92.3947 193.3 92.224C193.129 92.0427 193.044 91.8347 193.044 91.6ZM193.284 94.64H194.564V102H193.284V94.64ZM198.4 105.52H197.12V94.64H198.4V95.904C198.667 95.4453 199.013 95.0933 199.44 94.848C199.877 94.6027 200.368 94.48 200.912 94.48C201.584 94.48 202.192 94.6347 202.736 94.944C203.291 95.2533 203.733 95.696 204.064 96.272C204.395 96.8373 204.56 97.52 204.56 98.32C204.56 99.1093 204.395 99.792 204.064 100.368C203.733 100.944 203.291 101.387 202.736 101.696C202.192 102.005 201.584 102.16 200.912 102.16C200.368 102.16 199.877 102.037 199.44 101.792C199.013 101.547 198.667 101.195 198.4 100.736V105.52ZM203.264 98.32C203.264 97.7547 203.147 97.2747 202.912 96.88C202.688 96.4853 202.384 96.1867 202 95.984C201.627 95.7813 201.211 95.68 200.752 95.68C200.379 95.68 200.011 95.7813 199.648 95.984C199.285 96.1867 198.987 96.4853 198.752 96.88C198.517 97.2747 198.4 97.7547 198.4 98.32C198.4 98.8853 198.517 99.3653 198.752 99.76C198.987 100.155 199.285 100.453 199.648 100.656C200.011 100.859 200.379 100.96 200.752 100.96C201.211 100.96 201.627 100.859 202 100.656C202.384 100.453 202.688 100.155 202.912 99.76C203.147 99.3653 203.264 98.8853 203.264 98.32ZM206.325 89.52H207.605V102H206.325V89.52ZM210.333 101.36C210.333 101.115 210.418 100.907 210.589 100.736C210.77 100.565 210.978 100.48 211.213 100.48C211.458 100.48 211.666 100.565 211.837 100.736C212.007 100.907 212.093 101.115 212.093 101.36C212.093 101.595 212.007 101.803 211.837 101.984C211.666 102.155 211.458 102.24 211.213 102.24C210.978 102.24 210.77 102.155 210.589 101.984C210.418 101.803 210.333 101.595 210.333 101.36ZM213.689 98.8V97.6H216.889V98.8H213.689ZM221.609 102H218.249V90.8H221.609C222.697 90.8 223.662 91.0347 224.505 91.504C225.347 91.9733 226.009 92.6293 226.489 93.472C226.969 94.304 227.209 95.28 227.209 96.4C227.209 97.52 226.969 98.5013 226.489 99.344C226.009 100.176 225.347 100.827 224.505 101.296C223.662 101.765 222.697 102 221.609 102ZM221.609 92.16H219.609V100.64H221.609C222.451 100.64 223.187 100.469 223.817 100.128C224.457 99.776 224.953 99.2853 225.305 98.656C225.667 98.016 225.849 97.264 225.849 96.4C225.849 95.5253 225.667 94.7733 225.305 94.144C224.953 93.5147 224.457 93.0293 223.817 92.688C223.187 92.336 222.451 92.16 221.609 92.16ZM231.892 102.16C231.209 102.16 230.601 102 230.068 101.68C229.545 101.349 229.134 100.896 228.836 100.32C228.548 99.744 228.404 99.0773 228.404 98.32C228.404 97.552 228.553 96.88 228.852 96.304C229.161 95.728 229.588 95.28 230.132 94.96C230.686 94.64 231.326 94.48 232.052 94.48C233.129 94.48 233.977 94.816 234.596 95.488C235.214 96.16 235.524 97.0827 235.524 98.256C235.524 98.3307 235.518 98.4107 235.508 98.496C235.508 98.5707 235.508 98.6187 235.508 98.64H229.716C229.769 99.376 229.998 99.9467 230.404 100.352C230.809 100.757 231.358 100.96 232.052 100.96C233.054 100.96 233.822 100.517 234.356 99.632L235.396 100.288C234.628 101.536 233.46 102.16 231.892 102.16ZM232.052 95.6C231.422 95.6 230.91 95.7707 230.516 96.112C230.121 96.4427 229.87 96.9227 229.764 97.552H234.132C234.089 96.9653 233.876 96.496 233.492 96.144C233.118 95.7813 232.638 95.6 232.052 95.6ZM237.582 99.744C237.806 100.085 238.078 100.379 238.398 100.624C238.729 100.869 239.123 100.992 239.582 100.992C239.945 100.992 240.227 100.912 240.43 100.752C240.643 100.581 240.75 100.352 240.75 100.064C240.75 99.808 240.665 99.5947 240.494 99.424C240.334 99.2427 240.126 99.0933 239.87 98.976C239.614 98.848 239.342 98.7307 239.054 98.624C238.734 98.496 238.409 98.3467 238.078 98.176C237.758 97.9947 237.486 97.7653 237.262 97.488C237.049 97.2 236.942 96.8427 236.942 96.416C236.942 95.9787 237.054 95.616 237.278 95.328C237.513 95.04 237.811 94.8267 238.174 94.688C238.547 94.5493 238.931 94.48 239.326 94.48C239.913 94.48 240.446 94.6187 240.926 94.896C241.406 95.1733 241.758 95.5147 241.982 95.92L240.958 96.576C240.755 96.2987 240.499 96.0693 240.19 95.888C239.891 95.7067 239.55 95.616 239.166 95.616C238.899 95.616 238.67 95.6747 238.478 95.792C238.286 95.9093 238.19 96.0907 238.19 96.336C238.19 96.6347 238.345 96.88 238.654 97.072C238.974 97.2533 239.331 97.424 239.726 97.584C240.153 97.7547 240.542 97.9413 240.894 98.144C241.246 98.336 241.523 98.5707 241.726 98.848C241.939 99.1253 242.046 99.4827 242.046 99.92C242.046 100.56 241.811 101.093 241.342 101.52C240.883 101.947 240.275 102.16 239.518 102.16C239.027 102.16 238.585 102.075 238.19 101.904C237.795 101.723 237.459 101.493 237.182 101.216C236.915 100.939 236.713 100.656 236.574 100.368L237.582 99.744ZM244.051 101.36C244.051 101.115 244.137 100.907 244.307 100.736C244.489 100.565 244.697 100.48 244.931 100.48C245.177 100.48 245.385 100.565 245.555 100.736C245.726 100.907 245.811 101.115 245.811 101.36C245.811 101.595 245.726 101.803 245.555 101.984C245.385 102.155 245.177 102.24 244.931 102.24C244.697 102.24 244.489 102.155 244.307 101.984C244.137 101.803 244.051 101.595 244.051 101.36ZM253.405 90.8H254.765V100.72H259.165V102H253.405V90.8ZM259.888 98.32C259.888 97.5733 260.053 96.912 260.384 96.336C260.725 95.76 261.184 95.3067 261.76 94.976C262.336 94.6453 262.981 94.48 263.696 94.48C264.421 94.48 265.067 94.6453 265.632 94.976C266.208 95.3067 266.661 95.76 266.992 96.336C267.333 96.912 267.504 97.5733 267.504 98.32C267.504 99.056 267.333 99.7173 266.992 100.304C266.661 100.88 266.208 101.333 265.632 101.664C265.067 101.995 264.421 102.16 263.696 102.16C262.981 102.16 262.336 101.995 261.76 101.664C261.184 101.333 260.725 100.88 260.384 100.304C260.053 99.7173 259.888 99.056 259.888 98.32ZM261.184 98.32C261.184 98.832 261.291 99.2853 261.504 99.68C261.728 100.075 262.027 100.389 262.4 100.624C262.784 100.848 263.216 100.96 263.696 100.96C264.176 100.96 264.603 100.848 264.976 100.624C265.36 100.389 265.659 100.075 265.872 99.68C266.096 99.2853 266.208 98.832 266.208 98.32C266.208 97.808 266.096 97.3547 265.872 96.96C265.659 96.5547 265.36 96.24 264.976 96.016C264.603 95.792 264.176 95.68 263.696 95.68C263.216 95.68 262.784 95.792 262.4 96.016C262.027 96.24 261.728 96.5547 261.504 96.96C261.291 97.3547 261.184 97.808 261.184 98.32ZM268.143 94.64H269.343V92.08H270.623V94.64H271.823V95.84H270.623V102H269.343V95.84H268.143V94.64ZM277.826 97.52C277.826 96.2933 277.304 95.68 276.258 95.68C275.704 95.68 275.25 95.856 274.898 96.208C274.557 96.5493 274.386 96.9867 274.386 97.52V102H273.106V89.52H274.386V95.808C274.61 95.4027 274.909 95.0827 275.282 94.848C275.666 94.6027 276.098 94.48 276.578 94.48C277.336 94.48 277.944 94.7253 278.402 95.216C278.872 95.696 279.106 96.4107 279.106 97.36V102H277.826V97.52ZM281.897 96.336L281.273 95.392C281.55 95.1893 281.929 94.9867 282.409 94.784C282.899 94.5813 283.486 94.48 284.169 94.48C285.022 94.48 285.715 94.6773 286.249 95.072C286.782 95.456 287.049 96.0053 287.049 96.72V102H285.769V101.008C285.534 101.392 285.182 101.68 284.713 101.872C284.243 102.064 283.785 102.16 283.337 102.16C282.889 102.16 282.467 102.069 282.073 101.888C281.689 101.696 281.379 101.424 281.145 101.072C280.91 100.72 280.793 100.293 280.793 99.792C280.793 99.0773 281.043 98.5067 281.545 98.08C282.057 97.6427 282.766 97.424 283.673 97.424C284.163 97.424 284.579 97.4827 284.921 97.6C285.273 97.7067 285.555 97.8293 285.769 97.968V96.896C285.769 96.3947 285.603 96.0533 285.273 95.872C284.953 95.6907 284.563 95.6 284.105 95.6C283.55 95.6 283.086 95.6907 282.713 95.872C282.339 96.0533 282.067 96.208 281.897 96.336ZM282.089 99.728C282.089 100.155 282.233 100.485 282.521 100.72C282.819 100.944 283.203 101.056 283.673 101.056C284.259 101.056 284.755 100.88 285.161 100.528C285.566 100.176 285.769 99.7067 285.769 99.12V98.848C285.47 98.6987 285.166 98.592 284.857 98.528C284.547 98.464 284.222 98.432 283.881 98.432C283.262 98.432 282.809 98.5493 282.521 98.784C282.233 99.008 282.089 99.3227 282.089 99.728ZM292.72 96.048C292.549 95.92 292.394 95.8293 292.256 95.776C292.117 95.712 291.941 95.68 291.728 95.68C291.248 95.68 290.922 95.856 290.752 96.208C290.581 96.5493 290.496 96.9867 290.496 97.52V102H289.216V94.64H290.496V95.488C290.698 95.1787 290.938 94.9333 291.216 94.752C291.493 94.5707 291.77 94.48 292.048 94.48C292.314 94.48 292.56 94.5173 292.784 94.592C293.018 94.656 293.232 94.7893 293.424 94.992L292.72 96.048ZM306.425 98.72C306.425 99.456 306.254 100.069 305.913 100.56C305.582 101.04 305.129 101.403 304.553 101.648C303.988 101.883 303.342 102 302.617 102H299.577V90.8H302.457C303.46 90.8 304.265 91.0293 304.873 91.488C305.481 91.9467 305.785 92.6507 305.785 93.6C305.785 94.176 305.62 94.6613 305.289 95.056C304.958 95.44 304.505 95.7173 303.929 95.888C304.665 96.0373 305.262 96.3467 305.721 96.816C306.19 97.2747 306.425 97.9093 306.425 98.72ZM302.457 92H300.937V95.328H302.457C303.022 95.328 303.492 95.184 303.865 94.896C304.238 94.608 304.425 94.2027 304.425 93.68C304.425 93.1467 304.238 92.736 303.865 92.448C303.492 92.1493 303.022 92 302.457 92ZM300.937 100.8H302.617C303.342 100.8 303.929 100.613 304.377 100.24C304.836 99.856 305.065 99.3227 305.065 98.64C305.065 97.9467 304.836 97.4187 304.377 97.056C303.929 96.6933 303.342 96.512 302.617 96.512H300.937V100.8ZM308.504 101.36C308.504 101.115 308.59 100.907 308.76 100.736C308.942 100.565 309.15 100.48 309.384 100.48C309.63 100.48 309.838 100.565 310.008 100.736C310.179 100.907 310.264 101.115 310.264 101.36C310.264 101.595 310.179 101.803 310.008 101.984C309.838 102.155 309.63 102.24 309.384 102.24C309.15 102.24 308.942 102.155 308.76 101.984C308.59 101.803 308.504 101.595 308.504 101.36ZM324.706 98.72C324.706 99.456 324.535 100.069 324.194 100.56C323.863 101.04 323.41 101.403 322.834 101.648C322.269 101.883 321.623 102 320.898 102H317.858V90.8H320.738C321.741 90.8 322.546 91.0293 323.154 91.488C323.762 91.9467 324.066 92.6507 324.066 93.6C324.066 94.176 323.901 94.6613 323.57 95.056C323.239 95.44 322.786 95.7173 322.21 95.888C322.946 96.0373 323.543 96.3467 324.002 96.816C324.471 97.2747 324.706 97.9093 324.706 98.72ZM320.738 92H319.218V95.328H320.738C321.303 95.328 321.773 95.184 322.146 94.896C322.519 94.608 322.706 94.2027 322.706 93.68C322.706 93.1467 322.519 92.736 322.146 92.448C321.773 92.1493 321.303 92 320.738 92ZM319.218 100.8H320.898C321.623 100.8 322.21 100.613 322.658 100.24C323.117 99.856 323.346 99.3227 323.346 98.64C323.346 97.9467 323.117 97.4187 322.658 97.056C322.21 96.6933 321.623 96.512 320.898 96.512H319.218V100.8ZM326.7 89.52H327.98V102H326.7V89.52ZM331.668 99.12C331.668 99.7067 331.801 100.16 332.068 100.48C332.334 100.8 332.724 100.96 333.236 100.96C333.801 100.96 334.254 100.789 334.596 100.448C334.937 100.107 335.108 99.664 335.108 99.12V94.64H336.388V102H335.108V100.848C334.617 101.723 333.886 102.16 332.916 102.16C332.148 102.16 331.534 101.899 331.076 101.376C330.617 100.853 330.388 100.155 330.388 99.28V94.64H331.668V99.12ZM348.874 97.36V102H347.594V97.52C347.594 96.8907 347.476 96.4267 347.242 96.128C347.018 95.8293 346.666 95.68 346.186 95.68C345.663 95.68 345.247 95.8453 344.938 96.176C344.628 96.496 344.474 96.944 344.474 97.52V102H343.194V97.52C343.194 96.8907 343.076 96.4267 342.842 96.128C342.618 95.8293 342.266 95.68 341.786 95.68C341.263 95.68 340.847 95.8453 340.538 96.176C340.228 96.496 340.074 96.944 340.074 97.52V102H338.794V94.64H340.074V95.712C340.511 94.8907 341.188 94.48 342.106 94.48C342.618 94.48 343.055 94.6027 343.418 94.848C343.791 95.0827 344.063 95.4187 344.234 95.856C344.746 94.9387 345.503 94.48 346.506 94.48C347.263 94.48 347.844 94.7307 348.25 95.232C348.666 95.7333 348.874 96.4427 348.874 97.36ZM194.857 113.8H197.225V118.344L201.209 113.8H203.945L199.305 119.048L204.169 125H201.385L197.225 119.928V125H194.857V113.8ZM206.887 122.12C206.887 122.589 206.978 122.957 207.159 123.224C207.351 123.491 207.66 123.624 208.087 123.624C208.524 123.624 208.876 123.491 209.143 123.224C209.42 122.947 209.559 122.579 209.559 122.12V117.64H211.639V125H209.559V123.88C209.1 124.733 208.354 125.16 207.319 125.16C206.455 125.16 205.804 124.909 205.367 124.408C204.94 123.907 204.727 123.219 204.727 122.344V117.64H206.887V122.12ZM217.888 119.816C217.75 119.688 217.606 119.592 217.456 119.528C217.318 119.453 217.142 119.416 216.928 119.416C216.534 119.416 216.235 119.565 216.032 119.864C215.83 120.163 215.728 120.579 215.728 121.112V125H213.68V117.64H215.728V118.552C215.952 118.221 216.219 117.96 216.528 117.768C216.838 117.576 217.158 117.48 217.488 117.48C217.755 117.48 218.011 117.528 218.256 117.624C218.502 117.72 218.694 117.864 218.832 118.056L217.888 119.816ZM220.283 122.456C220.752 122.883 221.173 123.192 221.547 123.384C221.92 123.565 222.267 123.656 222.587 123.656C223.152 123.656 223.435 123.432 223.435 122.984C223.435 122.707 223.301 122.488 223.035 122.328C222.779 122.157 222.379 121.981 221.835 121.8C221.493 121.683 221.163 121.539 220.843 121.368C220.523 121.187 220.261 120.952 220.059 120.664C219.856 120.365 219.755 119.987 219.755 119.528C219.755 118.856 220.005 118.349 220.507 118.008C221.019 117.656 221.643 117.48 222.379 117.48C222.997 117.48 223.563 117.592 224.075 117.816C224.587 118.04 225.024 118.323 225.387 118.664L224.475 119.976C224.208 119.688 223.888 119.453 223.515 119.272C223.141 119.08 222.784 118.984 222.443 118.984C222.208 118.984 222.021 119.032 221.883 119.128C221.744 119.224 221.675 119.357 221.675 119.528C221.675 119.795 221.829 119.997 222.139 120.136C222.448 120.275 222.848 120.44 223.339 120.632C223.733 120.781 224.096 120.952 224.427 121.144C224.757 121.325 225.019 121.555 225.211 121.832C225.413 122.109 225.515 122.472 225.515 122.92C225.515 123.656 225.275 124.232 224.795 124.648C224.325 125.053 223.669 125.256 222.827 125.256C222.048 125.256 221.36 125.107 220.763 124.808C220.176 124.509 219.68 124.157 219.275 123.752L220.283 122.456ZM227.154 118.024C227.154 117.672 227.276 117.373 227.522 117.128C227.767 116.872 228.082 116.744 228.466 116.744C228.85 116.744 229.164 116.872 229.41 117.128C229.655 117.373 229.778 117.672 229.778 118.024C229.778 118.376 229.655 118.685 229.41 118.952C229.164 119.208 228.85 119.336 228.466 119.336C228.082 119.336 227.767 119.208 227.522 118.952C227.276 118.685 227.154 118.376 227.154 118.024ZM227.154 124.04C227.154 123.688 227.276 123.384 227.522 123.128C227.767 122.872 228.082 122.744 228.466 122.744C228.85 122.744 229.164 122.872 229.41 123.128C229.655 123.384 229.778 123.688 229.778 124.04C229.778 124.392 229.655 124.701 229.41 124.968C229.164 125.224 228.85 125.352 228.466 125.352C228.082 125.352 227.767 125.224 227.522 124.968C227.276 124.701 227.154 124.392 227.154 124.04ZM236.421 119.4C236.421 118.579 236.56 117.821 236.837 117.128C237.125 116.424 237.525 115.816 238.037 115.304C238.549 114.781 239.152 114.376 239.845 114.088C240.539 113.789 241.291 113.64 242.101 113.64C242.923 113.64 243.675 113.789 244.357 114.088C245.051 114.376 245.653 114.781 246.165 115.304C246.677 115.816 247.072 116.424 247.349 117.128C247.637 117.821 247.781 118.579 247.781 119.4C247.781 120.211 247.637 120.968 247.349 121.672C247.072 122.376 246.677 122.989 246.165 123.512C245.653 124.024 245.051 124.429 244.357 124.728C243.675 125.016 242.923 125.16 242.101 125.16C241.291 125.16 240.539 125.016 239.845 124.728C239.152 124.429 238.549 124.024 238.037 123.512C237.525 122.989 237.125 122.376 236.837 121.672C236.56 120.968 236.421 120.211 236.421 119.4ZM237.861 119.4C237.861 120.243 238.043 120.995 238.405 121.656C238.779 122.317 239.285 122.84 239.925 123.224C240.565 123.608 241.291 123.8 242.101 123.8C242.923 123.8 243.648 123.608 244.277 123.224C244.917 122.84 245.419 122.317 245.781 121.656C246.155 120.995 246.341 120.243 246.341 119.4C246.341 118.557 246.155 117.805 245.781 117.144C245.419 116.483 244.917 115.96 244.277 115.576C243.648 115.192 242.923 115 242.101 115C241.291 115 240.565 115.192 239.925 115.576C239.285 115.96 238.779 116.483 238.405 117.144C238.043 117.805 237.861 118.557 237.861 119.4ZM258.182 113.8H259.542V125.56L251.062 116.664V125H249.702V113.24L258.182 122.136V113.8ZM262.108 116.008V114.6L265.948 113.64V125H264.588V115.272L262.108 116.008ZM268.911 121.96C268.911 121.224 269.098 120.611 269.471 120.12C269.855 119.619 270.33 119.256 270.895 119.032C270.405 118.819 270.015 118.499 269.727 118.072C269.45 117.635 269.311 117.112 269.311 116.504C269.311 115.971 269.445 115.491 269.711 115.064C269.989 114.627 270.357 114.28 270.815 114.024C271.285 113.768 271.813 113.64 272.399 113.64C272.986 113.64 273.509 113.768 273.967 114.024C274.437 114.28 274.805 114.627 275.071 115.064C275.349 115.491 275.487 115.971 275.487 116.504C275.487 117.112 275.343 117.635 275.055 118.072C274.778 118.499 274.394 118.819 273.903 119.032C274.469 119.256 274.938 119.619 275.311 120.12C275.695 120.611 275.887 121.224 275.887 121.96C275.887 122.536 275.733 123.069 275.423 123.56C275.125 124.04 274.714 124.429 274.191 124.728C273.669 125.016 273.071 125.16 272.399 125.16C271.738 125.16 271.141 125.016 270.607 124.728C270.085 124.429 269.669 124.04 269.359 123.56C269.061 123.069 268.911 122.536 268.911 121.96ZM270.607 116.664C270.607 117.187 270.783 117.613 271.135 117.944C271.498 118.275 271.919 118.44 272.399 118.44C272.879 118.44 273.295 118.275 273.647 117.944C274.01 117.613 274.191 117.187 274.191 116.664C274.191 116.131 274.021 115.693 273.679 115.352C273.349 115.011 272.922 114.84 272.399 114.84C271.877 114.84 271.445 115.011 271.103 115.352C270.773 115.693 270.607 116.131 270.607 116.664ZM270.207 121.8C270.207 122.259 270.309 122.648 270.511 122.968C270.725 123.288 270.997 123.533 271.327 123.704C271.669 123.875 272.026 123.96 272.399 123.96C272.773 123.96 273.125 123.875 273.455 123.704C273.797 123.533 274.069 123.288 274.271 122.968C274.485 122.648 274.591 122.259 274.591 121.8C274.591 121.395 274.485 121.032 274.271 120.712C274.069 120.381 273.797 120.12 273.455 119.928C273.125 119.736 272.773 119.64 272.399 119.64C272.026 119.64 271.669 119.736 271.327 119.928C270.997 120.12 270.725 120.381 270.511 120.712C270.309 121.032 270.207 121.395 270.207 121.8ZM76.708 144.224C77.06 144.843 77.4653 145.344 77.924 145.728C78.3933 146.112 78.9267 146.304 79.524 146.304C79.9933 146.304 80.3667 146.187 80.644 145.952C80.9213 145.707 81.06 145.387 81.06 144.992C81.06 144.651 80.9693 144.373 80.788 144.16C80.6173 143.936 80.3613 143.744 80.02 143.584C79.6787 143.413 79.2573 143.232 78.756 143.04C78.4787 142.933 78.1693 142.8 77.828 142.64C77.4867 142.48 77.156 142.272 76.836 142.016C76.5267 141.749 76.2707 141.429 76.068 141.056C75.8653 140.672 75.764 140.213 75.764 139.68C75.764 139.051 75.924 138.507 76.244 138.048C76.5747 137.579 77.0173 137.216 77.572 136.96C78.1373 136.704 78.772 136.576 79.476 136.576C80.18 136.576 80.7933 136.699 81.316 136.944C81.8387 137.179 82.2707 137.483 82.612 137.856C82.964 138.219 83.236 138.592 83.428 138.976L81.636 140C81.4013 139.595 81.108 139.253 80.756 138.976C80.404 138.688 79.9773 138.544 79.476 138.544C79.028 138.544 78.692 138.651 78.468 138.864C78.244 139.067 78.132 139.307 78.132 139.584C78.132 140 78.34 140.347 78.756 140.624C79.172 140.891 79.8013 141.168 80.644 141.456C81.1347 141.627 81.5933 141.861 82.02 142.16C82.4573 142.448 82.8093 142.816 83.076 143.264C83.3533 143.701 83.492 144.235 83.492 144.864C83.492 145.589 83.3053 146.208 82.932 146.72C82.5587 147.232 82.068 147.621 81.46 147.888C80.8627 148.155 80.228 148.288 79.556 148.288C78.8627 148.288 78.2173 148.16 77.62 147.904C77.0333 147.648 76.516 147.301 76.068 146.864C75.6307 146.427 75.2893 145.941 75.044 145.408L76.708 144.224ZM84.1894 140.64H85.4534V138.08H87.4694V140.64H88.7494V142.4H87.4694V148H85.4534V142.4H84.1894V140.64ZM91.9965 145.12C91.9965 145.589 92.0872 145.957 92.2685 146.224C92.4605 146.491 92.7698 146.624 93.1965 146.624C93.6338 146.624 93.9858 146.491 94.2525 146.224C94.5298 145.947 94.6685 145.579 94.6685 145.12V140.64H96.7485V148H94.6685V146.88C94.2098 147.733 93.4632 148.16 92.4285 148.16C91.5645 148.16 90.9138 147.909 90.4765 147.408C90.0498 146.907 89.8365 146.219 89.8365 145.344V140.64H91.9965V145.12ZM98.2936 144.32C98.2936 143.499 98.459 142.805 98.7896 142.24C99.1203 141.664 99.5523 141.227 100.086 140.928C100.63 140.629 101.211 140.48 101.83 140.48C102.928 140.48 103.771 140.939 104.358 141.856V135.52H106.438V148H104.358V146.784C103.771 147.701 102.928 148.16 101.83 148.16C101.211 148.16 100.63 148.011 100.086 147.712C99.5523 147.413 99.1203 146.976 98.7896 146.4C98.459 145.824 98.2936 145.131 98.2936 144.32ZM100.454 144.32C100.454 144.971 100.646 145.488 101.03 145.872C101.424 146.245 101.894 146.432 102.438 146.432C102.736 146.432 103.03 146.352 103.318 146.192C103.616 146.021 103.862 145.781 104.054 145.472C104.256 145.152 104.358 144.768 104.358 144.32C104.358 143.872 104.256 143.493 104.054 143.184C103.862 142.864 103.616 142.624 103.318 142.464C103.03 142.293 102.736 142.208 102.438 142.208C101.894 142.208 101.424 142.395 101.03 142.768C100.646 143.141 100.454 143.659 100.454 144.32ZM111.903 148.16C111.092 148.16 110.388 148.005 109.791 147.696C109.193 147.376 108.729 146.928 108.399 146.352C108.079 145.776 107.919 145.099 107.919 144.32C107.919 143.147 108.276 142.213 108.991 141.52C109.705 140.827 110.676 140.48 111.903 140.48C113.119 140.48 114.063 140.811 114.735 141.472C115.407 142.123 115.743 143.04 115.743 144.224C115.743 144.331 115.737 144.432 115.727 144.528C115.716 144.624 115.711 144.704 115.711 144.768H110.031C110.095 145.344 110.287 145.792 110.607 146.112C110.937 146.421 111.369 146.576 111.903 146.576C112.809 146.576 113.471 146.219 113.887 145.504L115.711 146.08C114.943 147.467 113.673 148.16 111.903 148.16ZM111.871 141.952C110.868 141.952 110.271 142.469 110.079 143.504H113.503C113.46 143.035 113.289 142.661 112.991 142.384C112.703 142.096 112.329 141.952 111.871 141.952ZM122.058 143.52C122.058 143.04 121.962 142.672 121.77 142.416C121.588 142.149 121.279 142.016 120.842 142.016C120.415 142.016 120.063 142.149 119.786 142.416C119.508 142.683 119.37 143.051 119.37 143.52V148H117.29V140.64H119.37V141.76C119.828 140.907 120.575 140.48 121.61 140.48C122.484 140.48 123.135 140.731 123.562 141.232C123.988 141.723 124.202 142.411 124.202 143.296V148H122.058V143.52ZM125.299 140.64H126.563V138.08H128.579V140.64H129.859V142.4H128.579V148H126.563V142.4H125.299V140.64ZM134.434 148.16C133.623 148.16 132.919 148.005 132.322 147.696C131.725 147.376 131.261 146.928 130.93 146.352C130.61 145.776 130.45 145.099 130.45 144.32C130.45 143.147 130.807 142.213 131.522 141.52C132.237 140.827 133.207 140.48 134.434 140.48C135.65 140.48 136.594 140.811 137.266 141.472C137.938 142.123 138.274 143.04 138.274 144.224C138.274 144.331 138.269 144.432 138.258 144.528C138.247 144.624 138.242 144.704 138.242 144.768H132.562C132.626 145.344 132.818 145.792 133.138 146.112C133.469 146.421 133.901 146.576 134.434 146.576C135.341 146.576 136.002 146.219 136.418 145.504L138.242 146.08C137.474 147.467 136.205 148.16 134.434 148.16ZM134.402 141.952C133.399 141.952 132.802 142.469 132.61 143.504H136.034C135.991 143.035 135.821 142.661 135.522 142.384C135.234 142.096 134.861 141.952 134.402 141.952ZM144.589 143.52C144.589 143.04 144.493 142.672 144.301 142.416C144.12 142.149 143.81 142.016 143.373 142.016C142.946 142.016 142.594 142.149 142.317 142.416C142.04 142.683 141.901 143.051 141.901 143.52V148H139.821V140.64H141.901V141.76C142.36 140.907 143.106 140.48 144.141 140.48C145.016 140.48 145.666 140.731 146.093 141.232C146.52 141.723 146.733 142.411 146.733 143.296V148H144.589V143.52ZM148.966 141.024C148.966 140.672 149.089 140.373 149.334 140.128C149.579 139.872 149.894 139.744 150.278 139.744C150.662 139.744 150.977 139.872 151.222 140.128C151.467 140.373 151.59 140.672 151.59 141.024C151.59 141.376 151.467 141.685 151.222 141.952C150.977 142.208 150.662 142.336 150.278 142.336C149.894 142.336 149.579 142.208 149.334 141.952C149.089 141.685 148.966 141.376 148.966 141.024ZM148.966 147.04C148.966 146.688 149.089 146.384 149.334 146.128C149.579 145.872 149.894 145.744 150.278 145.744C150.662 145.744 150.977 145.872 151.222 146.128C151.467 146.384 151.59 146.688 151.59 147.04C151.59 147.392 151.467 147.701 151.222 147.968C150.977 148.224 150.662 148.352 150.278 148.352C149.894 148.352 149.579 148.224 149.334 147.968C149.089 147.701 148.966 147.392 148.966 147.04ZM167.354 136.8H168.714V148.56L160.234 139.664V148H158.874V136.24L167.354 145.136V136.8ZM171.584 142.336L170.96 141.392C171.237 141.189 171.616 140.987 172.096 140.784C172.587 140.581 173.173 140.48 173.856 140.48C174.709 140.48 175.403 140.677 175.936 141.072C176.469 141.456 176.736 142.005 176.736 142.72V148H175.456V147.008C175.221 147.392 174.869 147.68 174.4 147.872C173.931 148.064 173.472 148.16 173.024 148.16C172.576 148.16 172.155 148.069 171.76 147.888C171.376 147.696 171.067 147.424 170.832 147.072C170.597 146.72 170.48 146.293 170.48 145.792C170.48 145.077 170.731 144.507 171.232 144.08C171.744 143.643 172.453 143.424 173.36 143.424C173.851 143.424 174.267 143.483 174.608 143.6C174.96 143.707 175.243 143.829 175.456 143.968V142.896C175.456 142.395 175.291 142.053 174.96 141.872C174.64 141.691 174.251 141.6 173.792 141.6C173.237 141.6 172.773 141.691 172.4 141.872C172.027 142.053 171.755 142.208 171.584 142.336ZM171.776 145.728C171.776 146.155 171.92 146.485 172.208 146.72C172.507 146.944 172.891 147.056 173.36 147.056C173.947 147.056 174.443 146.88 174.848 146.528C175.253 146.176 175.456 145.707 175.456 145.12V144.848C175.157 144.699 174.853 144.592 174.544 144.528C174.235 144.464 173.909 144.432 173.568 144.432C172.949 144.432 172.496 144.549 172.208 144.784C171.92 145.008 171.776 145.323 171.776 145.728ZM177.783 140.64H178.983V138.08H180.263V140.64H181.463V141.84H180.263V148H178.983V141.84H177.783V140.64ZM187.467 143.52C187.467 142.293 186.944 141.68 185.899 141.68C185.344 141.68 184.891 141.856 184.539 142.208C184.198 142.549 184.027 142.987 184.027 143.52V148H182.747V135.52H184.027V141.808C184.251 141.403 184.55 141.083 184.923 140.848C185.307 140.603 185.739 140.48 186.219 140.48C186.976 140.48 187.584 140.725 188.043 141.216C188.512 141.696 188.747 142.411 188.747 143.36V148H187.467V143.52ZM191.537 142.336L190.913 141.392C191.19 141.189 191.569 140.987 192.049 140.784C192.54 140.581 193.126 140.48 193.809 140.48C194.662 140.48 195.356 140.677 195.889 141.072C196.422 141.456 196.689 142.005 196.689 142.72V148H195.409V147.008C195.174 147.392 194.822 147.68 194.353 147.872C193.884 148.064 193.425 148.16 192.977 148.16C192.529 148.16 192.108 148.069 191.713 147.888C191.329 147.696 191.02 147.424 190.785 147.072C190.55 146.72 190.433 146.293 190.433 145.792C190.433 145.077 190.684 144.507 191.185 144.08C191.697 143.643 192.406 143.424 193.313 143.424C193.804 143.424 194.22 143.483 194.561 143.6C194.913 143.707 195.196 143.829 195.409 143.968V142.896C195.409 142.395 195.244 142.053 194.913 141.872C194.593 141.691 194.204 141.6 193.745 141.6C193.19 141.6 192.726 141.691 192.353 141.872C191.98 142.053 191.708 142.208 191.537 142.336ZM191.729 145.728C191.729 146.155 191.873 146.485 192.161 146.72C192.46 146.944 192.844 147.056 193.313 147.056C193.9 147.056 194.396 146.88 194.801 146.528C195.206 146.176 195.409 145.707 195.409 145.12V144.848C195.11 144.699 194.806 144.592 194.497 144.528C194.188 144.464 193.862 144.432 193.521 144.432C192.902 144.432 192.449 144.549 192.161 144.784C191.873 145.008 191.729 145.323 191.729 145.728ZM198.856 135.52H200.136V148H198.856V135.52ZM202.544 137.6C202.544 137.355 202.629 137.147 202.8 136.976C202.981 136.805 203.189 136.72 203.424 136.72C203.669 136.72 203.877 136.805 204.048 136.976C204.218 137.147 204.304 137.355 204.304 137.6C204.304 137.835 204.218 138.043 204.048 138.224C203.877 138.395 203.669 138.48 203.424 138.48C203.189 138.48 202.981 138.395 202.8 138.224C202.629 138.043 202.544 137.835 202.544 137.6ZM202.784 140.64H204.064V148H202.784V140.64ZM209.548 148.16C208.865 148.16 208.257 148 207.724 147.68C207.201 147.349 206.791 146.896 206.492 146.32C206.204 145.744 206.06 145.077 206.06 144.32C206.06 143.552 206.209 142.88 206.508 142.304C206.817 141.728 207.244 141.28 207.788 140.96C208.343 140.64 208.983 140.48 209.708 140.48C210.785 140.48 211.633 140.816 212.252 141.488C212.871 142.16 213.18 143.083 213.18 144.256C213.18 144.331 213.175 144.411 213.164 144.496C213.164 144.571 213.164 144.619 213.164 144.64H207.372C207.425 145.376 207.655 145.947 208.06 146.352C208.465 146.757 209.015 146.96 209.708 146.96C210.711 146.96 211.479 146.517 212.012 145.632L213.052 146.288C212.284 147.536 211.116 148.16 209.548 148.16ZM209.708 141.6C209.079 141.6 208.567 141.771 208.172 142.112C207.777 142.443 207.527 142.923 207.42 143.552H211.788C211.745 142.965 211.532 142.496 211.148 142.144C210.775 141.781 210.295 141.6 209.708 141.6ZM229.779 145.04L232.691 136.8H234.211L229.811 148.56L226.451 139.856L223.091 148.56L218.691 136.8H220.211L223.187 145.04L226.451 136.24L229.779 145.04ZM235.575 137.6C235.575 137.355 235.66 137.147 235.831 136.976C236.012 136.805 236.22 136.72 236.455 136.72C236.7 136.72 236.908 136.805 237.079 136.976C237.25 137.147 237.335 137.355 237.335 137.6C237.335 137.835 237.25 138.043 237.079 138.224C236.908 138.395 236.7 138.48 236.455 138.48C236.22 138.48 236.012 138.395 235.831 138.224C235.66 138.043 235.575 137.835 235.575 137.6ZM235.815 140.64H237.095V148H235.815V140.64ZM242.579 148.16C241.897 148.16 241.289 148 240.755 147.68C240.233 147.349 239.822 146.896 239.523 146.32C239.235 145.744 239.091 145.077 239.091 144.32C239.091 143.552 239.241 142.88 239.539 142.304C239.849 141.728 240.275 141.28 240.819 140.96C241.374 140.64 242.014 140.48 242.739 140.48C243.817 140.48 244.665 140.816 245.283 141.488C245.902 142.16 246.211 143.083 246.211 144.256C246.211 144.331 246.206 144.411 246.195 144.496C246.195 144.571 246.195 144.619 246.195 144.64H240.403C240.457 145.376 240.686 145.947 241.091 146.352C241.497 146.757 242.046 146.96 242.739 146.96C243.742 146.96 244.51 146.517 245.043 145.632L246.083 146.288C245.315 147.536 244.147 148.16 242.579 148.16ZM242.739 141.6C242.11 141.6 241.598 141.771 241.203 142.112C240.809 142.443 240.558 142.923 240.451 143.552H244.819C244.777 142.965 244.563 142.496 244.179 142.144C243.806 141.781 243.326 141.6 242.739 141.6ZM248.27 145.744C248.494 146.085 248.766 146.379 249.086 146.624C249.416 146.869 249.811 146.992 250.27 146.992C250.632 146.992 250.915 146.912 251.118 146.752C251.331 146.581 251.438 146.352 251.438 146.064C251.438 145.808 251.352 145.595 251.182 145.424C251.022 145.243 250.814 145.093 250.558 144.976C250.302 144.848 250.03 144.731 249.742 144.624C249.422 144.496 249.096 144.347 248.766 144.176C248.446 143.995 248.174 143.765 247.95 143.488C247.736 143.2 247.63 142.843 247.63 142.416C247.63 141.979 247.742 141.616 247.966 141.328C248.2 141.04 248.499 140.827 248.862 140.688C249.235 140.549 249.619 140.48 250.014 140.48C250.6 140.48 251.134 140.619 251.614 140.896C252.094 141.173 252.446 141.515 252.67 141.92L251.646 142.576C251.443 142.299 251.187 142.069 250.878 141.888C250.579 141.707 250.238 141.616 249.854 141.616C249.587 141.616 249.358 141.675 249.166 141.792C248.974 141.909 248.878 142.091 248.878 142.336C248.878 142.635 249.032 142.88 249.342 143.072C249.662 143.253 250.019 143.424 250.414 143.584C250.84 143.755 251.23 143.941 251.582 144.144C251.934 144.336 252.211 144.571 252.414 144.848C252.627 145.125 252.734 145.483 252.734 145.92C252.734 146.56 252.499 147.093 252.03 147.52C251.571 147.947 250.963 148.16 250.206 148.16C249.715 148.16 249.272 148.075 248.878 147.904C248.483 147.723 248.147 147.493 247.87 147.216C247.603 146.939 247.4 146.656 247.262 146.368L248.27 145.744ZM254.419 135.52H255.699V148H254.419V135.52ZM260.954 148.16C260.272 148.16 259.664 148 259.13 147.68C258.608 147.349 258.197 146.896 257.898 146.32C257.61 145.744 257.466 145.077 257.466 144.32C257.466 143.552 257.616 142.88 257.914 142.304C258.224 141.728 258.65 141.28 259.194 140.96C259.749 140.64 260.389 140.48 261.114 140.48C262.192 140.48 263.04 140.816 263.658 141.488C264.277 142.16 264.586 143.083 264.586 144.256C264.586 144.331 264.581 144.411 264.57 144.496C264.57 144.571 264.57 144.619 264.57 144.64H258.778C258.832 145.376 259.061 145.947 259.466 146.352C259.872 146.757 260.421 146.96 261.114 146.96C262.117 146.96 262.885 146.517 263.418 145.632L264.458 146.288C263.69 147.536 262.522 148.16 260.954 148.16ZM261.114 141.6C260.485 141.6 259.973 141.771 259.578 142.112C259.184 142.443 258.933 142.923 258.826 143.552H263.194C263.152 142.965 262.938 142.496 262.554 142.144C262.181 141.781 261.701 141.6 261.114 141.6ZM269.845 142.048C269.674 141.92 269.519 141.829 269.381 141.776C269.242 141.712 269.066 141.68 268.853 141.68C268.373 141.68 268.047 141.856 267.877 142.208C267.706 142.549 267.621 142.987 267.621 143.52V148H266.341V140.64H267.621V141.488C267.823 141.179 268.063 140.933 268.341 140.752C268.618 140.571 268.895 140.48 269.173 140.48C269.439 140.48 269.685 140.517 269.909 140.592C270.143 140.656 270.357 140.789 270.549 140.992L269.845 142.048ZM272.04 146.24L273.32 146.72L271.56 150.72L270.632 150.384L272.04 146.24ZM280.671 136.8H283.711C284.436 136.8 285.081 136.939 285.647 137.216C286.223 137.483 286.676 137.867 287.007 138.368C287.348 138.869 287.519 139.467 287.519 140.16C287.519 141.003 287.268 141.707 286.767 142.272C286.276 142.827 285.636 143.2 284.847 143.392L288.191 148H286.511L283.391 143.52H282.031V148H280.671V136.8ZM283.711 138H282.031V142.32H283.711C284.436 142.32 285.023 142.133 285.471 141.76C285.929 141.376 286.159 140.843 286.159 140.16C286.159 139.467 285.929 138.933 285.471 138.56C285.023 138.187 284.436 138 283.711 138ZM288.904 144.32C288.904 143.573 289.069 142.912 289.4 142.336C289.741 141.76 290.2 141.307 290.776 140.976C291.352 140.645 291.997 140.48 292.712 140.48C293.437 140.48 294.082 140.645 294.648 140.976C295.224 141.307 295.677 141.76 296.008 142.336C296.349 142.912 296.52 143.573 296.52 144.32C296.52 145.056 296.349 145.717 296.008 146.304C295.677 146.88 295.224 147.333 294.648 147.664C294.082 147.995 293.437 148.16 292.712 148.16C291.997 148.16 291.352 147.995 290.776 147.664C290.2 147.333 289.741 146.88 289.4 146.304C289.069 145.717 288.904 145.056 288.904 144.32ZM290.2 144.32C290.2 144.832 290.306 145.285 290.52 145.68C290.744 146.075 291.042 146.389 291.416 146.624C291.8 146.848 292.232 146.96 292.712 146.96C293.192 146.96 293.618 146.848 293.992 146.624C294.376 146.389 294.674 146.075 294.888 145.68C295.112 145.285 295.224 144.832 295.224 144.32C295.224 143.808 295.112 143.355 294.888 142.96C294.674 142.555 294.376 142.24 293.992 142.016C293.618 141.792 293.192 141.68 292.712 141.68C292.232 141.68 291.8 141.792 291.416 142.016C291.042 142.24 290.744 142.555 290.52 142.96C290.306 143.355 290.2 143.808 290.2 144.32ZM302.998 143.52C302.998 142.293 302.475 141.68 301.43 141.68C300.875 141.68 300.422 141.851 300.07 142.192C299.729 142.533 299.558 142.976 299.558 143.52V148H298.278V140.64H299.558V141.792C300.038 140.917 300.769 140.48 301.75 140.48C302.529 140.48 303.142 140.741 303.59 141.264C304.049 141.776 304.278 142.475 304.278 143.36V148H302.998V143.52ZM306.476 137.6C306.476 137.355 306.562 137.152 306.732 136.992C306.903 136.821 307.106 136.736 307.34 136.736C307.586 136.736 307.788 136.821 307.948 136.992C308.119 137.152 308.204 137.355 308.204 137.6C308.204 137.835 308.119 138.037 307.948 138.208C307.788 138.379 307.586 138.464 307.34 138.464C307.106 138.464 306.903 138.379 306.732 138.208C306.562 138.037 306.476 137.835 306.476 137.6ZM305.212 149.824C305.383 150.101 305.644 150.24 305.996 150.24C306.274 150.24 306.471 150.128 306.588 149.904C306.706 149.68 306.764 149.312 306.764 148.8V140.64H308.044V148.96C308.044 149.771 307.858 150.4 307.484 150.848C307.111 151.296 306.588 151.52 305.916 151.52C305.298 151.52 304.828 151.307 304.508 150.88L305.212 149.824ZM311.068 142.336L310.444 141.392C310.722 141.189 311.1 140.987 311.58 140.784C312.071 140.581 312.658 140.48 313.34 140.48C314.194 140.48 314.887 140.677 315.42 141.072C315.954 141.456 316.22 142.005 316.22 142.72V148H314.94V147.008C314.706 147.392 314.354 147.68 313.884 147.872C313.415 148.064 312.956 148.16 312.508 148.16C312.06 148.16 311.639 148.069 311.244 147.888C310.86 147.696 310.551 147.424 310.316 147.072C310.082 146.72 309.964 146.293 309.964 145.792C309.964 145.077 310.215 144.507 310.716 144.08C311.228 143.643 311.938 143.424 312.844 143.424C313.335 143.424 313.751 143.483 314.092 143.6C314.444 143.707 314.727 143.829 314.94 143.968V142.896C314.94 142.395 314.775 142.053 314.444 141.872C314.124 141.691 313.735 141.6 313.276 141.6C312.722 141.6 312.258 141.691 311.884 141.872C311.511 142.053 311.239 142.208 311.068 142.336ZM311.26 145.728C311.26 146.155 311.404 146.485 311.692 146.72C311.991 146.944 312.375 147.056 312.844 147.056C313.431 147.056 313.927 146.88 314.332 146.528C314.738 146.176 314.94 145.707 314.94 145.12V144.848C314.642 144.699 314.338 144.592 314.028 144.528C313.719 144.464 313.394 144.432 313.052 144.432C312.434 144.432 311.98 144.549 311.692 144.784C311.404 145.008 311.26 145.323 311.26 145.728ZM333.232 145.04L336.144 136.8H337.664L333.264 148.56L329.904 139.856L326.544 148.56L322.144 136.8H323.664L326.64 145.04L329.904 136.24L333.232 145.04ZM337.818 142.336L337.194 141.392C337.472 141.189 337.85 140.987 338.33 140.784C338.821 140.581 339.408 140.48 340.09 140.48C340.944 140.48 341.637 140.677 342.17 141.072C342.704 141.456 342.97 142.005 342.97 142.72V148H341.69V147.008C341.456 147.392 341.104 147.68 340.634 147.872C340.165 148.064 339.706 148.16 339.258 148.16C338.81 148.16 338.389 148.069 337.994 147.888C337.61 147.696 337.301 147.424 337.066 147.072C336.832 146.72 336.714 146.293 336.714 145.792C336.714 145.077 336.965 144.507 337.466 144.08C337.978 143.643 338.688 143.424 339.594 143.424C340.085 143.424 340.501 143.483 340.842 143.6C341.194 143.707 341.477 143.829 341.69 143.968V142.896C341.69 142.395 341.525 142.053 341.194 141.872C340.874 141.691 340.485 141.6 340.026 141.6C339.472 141.6 339.008 141.691 338.634 141.872C338.261 142.053 337.989 142.208 337.818 142.336ZM338.01 145.728C338.01 146.155 338.154 146.485 338.442 146.72C338.741 146.944 339.125 147.056 339.594 147.056C340.181 147.056 340.677 146.88 341.082 146.528C341.488 146.176 341.69 145.707 341.69 145.12V144.848C341.392 144.699 341.088 144.592 340.778 144.528C340.469 144.464 340.144 144.432 339.802 144.432C339.184 144.432 338.73 144.549 338.442 144.784C338.154 145.008 338.01 145.323 338.01 145.728ZM345.138 135.52H346.418V148H345.138V135.52ZM347.705 140.64H348.905V138.08H350.185V140.64H351.385V141.84H350.185V148H348.905V141.84H347.705V140.64ZM355.517 148.16C354.834 148.16 354.226 148 353.693 147.68C353.17 147.349 352.759 146.896 352.461 146.32C352.173 145.744 352.029 145.077 352.029 144.32C352.029 143.552 352.178 142.88 352.477 142.304C352.786 141.728 353.213 141.28 353.757 140.96C354.311 140.64 354.951 140.48 355.677 140.48C356.754 140.48 357.602 140.816 358.221 141.488C358.839 142.16 359.149 143.083 359.149 144.256C359.149 144.331 359.143 144.411 359.133 144.496C359.133 144.571 359.133 144.619 359.133 144.64H353.341C353.394 145.376 353.623 145.947 354.029 146.352C354.434 146.757 354.983 146.96 355.677 146.96C356.679 146.96 357.447 146.517 357.981 145.632L359.021 146.288C358.253 147.536 357.085 148.16 355.517 148.16ZM355.677 141.6C355.047 141.6 354.535 141.771 354.141 142.112C353.746 142.443 353.495 142.923 353.389 143.552H357.757C357.714 142.965 357.501 142.496 357.117 142.144C356.743 141.781 356.263 141.6 355.677 141.6ZM364.407 142.048C364.236 141.92 364.082 141.829 363.943 141.776C363.804 141.712 363.628 141.68 363.415 141.68C362.935 141.68 362.61 141.856 362.439 142.208C362.268 142.549 362.183 142.987 362.183 143.52V148H360.903V140.64H362.183V141.488C362.386 141.179 362.626 140.933 362.903 140.752C363.18 140.571 363.458 140.48 363.735 140.48C364.002 140.48 364.247 140.517 364.471 140.592C364.706 140.656 364.919 140.789 365.111 140.992L364.407 142.048ZM366.602 146.24L367.882 146.72L366.122 150.72L365.194 150.384L366.602 146.24ZM375.233 136.8H376.593V146.72H380.993V148H375.233V136.8ZM385.204 148.16C384.522 148.16 383.914 148 383.38 147.68C382.858 147.349 382.447 146.896 382.148 146.32C381.86 145.744 381.716 145.077 381.716 144.32C381.716 143.552 381.866 142.88 382.164 142.304C382.474 141.728 382.9 141.28 383.444 140.96C383.999 140.64 384.639 140.48 385.364 140.48C386.442 140.48 387.29 140.816 387.908 141.488C388.527 142.16 388.836 143.083 388.836 144.256C388.836 144.331 388.831 144.411 388.82 144.496C388.82 144.571 388.82 144.619 388.82 144.64H383.028C383.082 145.376 383.311 145.947 383.716 146.352C384.122 146.757 384.671 146.96 385.364 146.96C386.367 146.96 387.135 146.517 387.668 145.632L388.708 146.288C387.94 147.536 386.772 148.16 385.204 148.16ZM385.364 141.6C384.735 141.6 384.223 141.771 383.828 142.112C383.434 142.443 383.183 142.923 383.076 143.552H387.444C387.402 142.965 387.188 142.496 386.804 142.144C386.431 141.781 385.951 141.6 385.364 141.6ZM395.311 143.52C395.311 142.293 394.788 141.68 393.743 141.68C393.188 141.68 392.735 141.851 392.383 142.192C392.041 142.533 391.871 142.976 391.871 143.52V148H390.591V140.64H391.871V141.792C392.351 140.917 393.081 140.48 394.063 140.48C394.841 140.48 395.455 140.741 395.903 141.264C396.361 141.776 396.591 142.475 396.591 143.36V148H395.311V143.52ZM399.381 142.336L398.757 141.392C399.034 141.189 399.413 140.987 399.893 140.784C400.384 140.581 400.97 140.48 401.653 140.48C402.506 140.48 403.2 140.677 403.733 141.072C404.266 141.456 404.533 142.005 404.533 142.72V148H403.253V147.008C403.018 147.392 402.666 147.68 402.197 147.872C401.728 148.064 401.269 148.16 400.821 148.16C400.373 148.16 399.952 148.069 399.557 147.888C399.173 147.696 398.864 147.424 398.629 147.072C398.394 146.72 398.277 146.293 398.277 145.792C398.277 145.077 398.528 144.507 399.029 144.08C399.541 143.643 400.25 143.424 401.157 143.424C401.648 143.424 402.064 143.483 402.405 143.6C402.757 143.707 403.04 143.829 403.253 143.968V142.896C403.253 142.395 403.088 142.053 402.757 141.872C402.437 141.691 402.048 141.6 401.589 141.6C401.034 141.6 400.57 141.691 400.197 141.872C399.824 142.053 399.552 142.208 399.381 142.336ZM399.573 145.728C399.573 146.155 399.717 146.485 400.005 146.72C400.304 146.944 400.688 147.056 401.157 147.056C401.744 147.056 402.24 146.88 402.645 146.528C403.05 146.176 403.253 145.707 403.253 145.12V144.848C402.954 144.699 402.65 144.592 402.341 144.528C402.032 144.464 401.706 144.432 401.365 144.432C400.746 144.432 400.293 144.549 400.005 144.784C399.717 145.008 399.573 145.323 399.573 145.728ZM89.5034 166.6V165.32H94.7034C94.7034 166.099 94.5861 166.84 94.3514 167.544C94.1168 168.237 93.7701 168.856 93.3114 169.4C92.8528 169.944 92.2874 170.376 91.6154 170.696C90.9541 171.005 90.1968 171.16 89.3434 171.16C88.5328 171.16 87.7808 171.021 87.0874 170.744C86.3941 170.456 85.7914 170.056 85.2794 169.544C84.7674 169.021 84.3674 168.408 84.0794 167.704C83.8021 167 83.6634 166.232 83.6634 165.4C83.6634 164.568 83.8021 163.8 84.0794 163.096C84.3674 162.392 84.7674 161.784 85.2794 161.272C85.7914 160.749 86.3941 160.349 87.0874 160.072C87.7808 159.784 88.5328 159.64 89.3434 159.64C90.3781 159.64 91.2901 159.843 92.0794 160.248C92.8794 160.653 93.5194 161.245 93.9994 162.024L93.0394 162.904C92.6874 162.307 92.1968 161.843 91.5674 161.512C90.9381 161.171 90.1968 161 89.3434 161C88.5541 161 87.8394 161.187 87.1994 161.56C86.5594 161.933 86.0474 162.451 85.6634 163.112C85.2901 163.763 85.1034 164.525 85.1034 165.4C85.1034 166.264 85.2901 167.027 85.6634 167.688C86.0474 168.349 86.5594 168.867 87.1994 169.24C87.8394 169.613 88.5541 169.8 89.3434 169.8C90.0901 169.8 90.7301 169.656 91.2634 169.368C91.7968 169.069 92.2288 168.68 92.5594 168.2C92.8901 167.709 93.1141 167.176 93.2314 166.6H89.5034ZM100.518 161.16C100.518 160.915 100.603 160.707 100.774 160.536C100.955 160.365 101.163 160.28 101.398 160.28C101.643 160.28 101.851 160.365 102.022 160.536C102.192 160.707 102.278 160.915 102.278 161.16C102.278 161.395 102.192 161.603 102.022 161.784C101.851 161.955 101.643 162.04 101.398 162.04C101.163 162.04 100.955 161.955 100.774 161.784C100.603 161.603 100.518 161.395 100.518 161.16ZM97.3177 161.16C97.3177 160.915 97.403 160.707 97.5737 160.536C97.755 160.365 97.963 160.28 98.1977 160.28C98.443 160.28 98.651 160.365 98.8217 160.536C98.9924 160.707 99.0777 160.915 99.0777 161.16C99.0777 161.395 98.9924 161.603 98.8217 161.784C98.651 161.955 98.443 162.04 98.1977 162.04C97.963 162.04 97.755 161.955 97.5737 161.784C97.403 161.603 97.3177 161.395 97.3177 161.16ZM95.9897 167.32C95.9897 166.573 96.155 165.912 96.4857 165.336C96.827 164.76 97.2857 164.307 97.8617 163.976C98.4377 163.645 99.083 163.48 99.7977 163.48C100.523 163.48 101.168 163.645 101.734 163.976C102.31 164.307 102.763 164.76 103.094 165.336C103.435 165.912 103.606 166.573 103.606 167.32C103.606 168.056 103.435 168.717 103.094 169.304C102.763 169.88 102.31 170.333 101.734 170.664C101.168 170.995 100.523 171.16 99.7977 171.16C99.083 171.16 98.4377 170.995 97.8617 170.664C97.2857 170.333 96.827 169.88 96.4857 169.304C96.155 168.717 95.9897 168.056 95.9897 167.32ZM97.2857 167.32C97.2857 167.832 97.3924 168.285 97.6057 168.68C97.8297 169.075 98.1284 169.389 98.5017 169.624C98.8857 169.848 99.3177 169.96 99.7977 169.96C100.278 169.96 100.704 169.848 101.078 169.624C101.462 169.389 101.76 169.075 101.974 168.68C102.198 168.285 102.31 167.832 102.31 167.32C102.31 166.808 102.198 166.355 101.974 165.96C101.76 165.555 101.462 165.24 101.078 165.016C100.704 164.792 100.278 164.68 99.7977 164.68C99.3177 164.68 98.8857 164.792 98.5017 165.016C98.1284 165.24 97.8297 165.555 97.6057 165.96C97.3924 166.355 97.2857 166.808 97.2857 167.32ZM104.244 163.64H105.444V161.08H106.724V163.64H107.924V164.84H106.724V171H105.444V164.84H104.244V163.64ZM112.808 164.84H108.728V163.64H115.128L110.568 169.8H114.808V171H108.248L112.808 164.84ZM116.567 160.6C116.567 160.355 116.653 160.147 116.823 159.976C117.005 159.805 117.213 159.72 117.447 159.72C117.693 159.72 117.901 159.805 118.071 159.976C118.242 160.147 118.327 160.355 118.327 160.6C118.327 160.835 118.242 161.043 118.071 161.224C117.901 161.395 117.693 161.48 117.447 161.48C117.213 161.48 117.005 161.395 116.823 161.224C116.653 161.043 116.567 160.835 116.567 160.6ZM116.807 163.64H118.087V171H116.807V163.64ZM125.443 166.52C125.443 165.293 124.921 164.68 123.875 164.68C123.321 164.68 122.867 164.851 122.515 165.192C122.174 165.533 122.003 165.976 122.003 166.52V171H120.723V163.64H122.003V164.792C122.483 163.917 123.214 163.48 124.195 163.48C124.974 163.48 125.587 163.741 126.035 164.264C126.494 164.776 126.723 165.475 126.723 166.36V171H125.443V166.52ZM128.634 171.48H129.93C129.93 171.832 130.026 172.157 130.218 172.456C130.41 172.765 130.682 173.011 131.034 173.192C131.386 173.384 131.802 173.48 132.282 173.48C132.655 173.48 133.023 173.389 133.386 173.208C133.748 173.027 134.047 172.739 134.282 172.344C134.527 171.96 134.65 171.459 134.65 170.84V169.736C134.383 170.195 134.031 170.547 133.594 170.792C133.167 171.037 132.682 171.16 132.138 171.16C131.476 171.16 130.868 171.005 130.314 170.696C129.759 170.387 129.316 169.944 128.986 169.368C128.655 168.792 128.49 168.109 128.49 167.32C128.49 166.52 128.655 165.837 128.986 165.272C129.316 164.696 129.759 164.253 130.314 163.944C130.868 163.635 131.476 163.48 132.138 163.48C132.682 163.48 133.167 163.603 133.594 163.848C134.031 164.093 134.383 164.445 134.65 164.904V163.64H135.93V170.84C135.93 171.683 135.754 172.387 135.402 172.952C135.05 173.528 134.596 173.96 134.042 174.248C133.487 174.536 132.9 174.68 132.282 174.68C131.567 174.68 130.932 174.547 130.378 174.28C129.834 174.013 129.407 173.635 129.098 173.144C128.788 172.664 128.634 172.109 128.634 171.48ZM129.786 167.32C129.786 167.885 129.898 168.365 130.122 168.76C130.356 169.155 130.666 169.453 131.05 169.656C131.434 169.859 131.85 169.96 132.298 169.96C132.671 169.96 133.039 169.859 133.402 169.656C133.764 169.453 134.063 169.155 134.298 168.76C134.532 168.365 134.65 167.885 134.65 167.32C134.65 166.755 134.532 166.275 134.298 165.88C134.063 165.485 133.764 165.187 133.402 164.984C133.039 164.781 132.671 164.68 132.298 164.68C131.85 164.68 131.434 164.781 131.05 164.984C130.666 165.187 130.356 165.485 130.122 165.88C129.898 166.275 129.786 166.755 129.786 167.32ZM141.103 171.16C140.42 171.16 139.812 171 139.279 170.68C138.756 170.349 138.345 169.896 138.047 169.32C137.759 168.744 137.615 168.077 137.615 167.32C137.615 166.552 137.764 165.88 138.063 165.304C138.372 164.728 138.799 164.28 139.343 163.96C139.897 163.64 140.537 163.48 141.263 163.48C142.34 163.48 143.188 163.816 143.807 164.488C144.425 165.16 144.735 166.083 144.735 167.256C144.735 167.331 144.729 167.411 144.719 167.496C144.719 167.571 144.719 167.619 144.719 167.64H138.927C138.98 168.376 139.209 168.947 139.615 169.352C140.02 169.757 140.569 169.96 141.263 169.96C142.265 169.96 143.033 169.517 143.567 168.632L144.607 169.288C143.839 170.536 142.671 171.16 141.103 171.16ZM141.263 164.6C140.633 164.6 140.121 164.771 139.727 165.112C139.332 165.443 139.081 165.923 138.975 166.552H143.343C143.3 165.965 143.087 165.496 142.703 165.144C142.329 164.781 141.849 164.6 141.263 164.6ZM149.993 165.048C149.822 164.92 149.668 164.829 149.529 164.776C149.39 164.712 149.214 164.68 149.001 164.68C148.521 164.68 148.196 164.856 148.025 165.208C147.854 165.549 147.769 165.987 147.769 166.52V171H146.489V163.64H147.769V164.488C147.972 164.179 148.212 163.933 148.489 163.752C148.766 163.571 149.044 163.48 149.321 163.48C149.588 163.48 149.833 163.517 150.057 163.592C150.292 163.656 150.505 163.789 150.697 163.992L149.993 165.048ZM152.188 169.24L153.468 169.72L151.708 173.72L150.78 173.384L152.188 169.24ZM160.819 159.8H162.179V169.72H166.579V171H160.819V159.8ZM170.79 171.16C170.108 171.16 169.5 171 168.966 170.68C168.444 170.349 168.033 169.896 167.734 169.32C167.446 168.744 167.302 168.077 167.302 167.32C167.302 166.552 167.452 165.88 167.75 165.304C168.06 164.728 168.486 164.28 169.03 163.96C169.585 163.64 170.225 163.48 170.95 163.48C172.028 163.48 172.876 163.816 173.494 164.488C174.113 165.16 174.422 166.083 174.422 167.256C174.422 167.331 174.417 167.411 174.406 167.496C174.406 167.571 174.406 167.619 174.406 167.64H168.614C168.668 168.376 168.897 168.947 169.302 169.352C169.708 169.757 170.257 169.96 170.95 169.96C171.953 169.96 172.721 169.517 173.254 168.632L174.294 169.288C173.526 170.536 172.358 171.16 170.79 171.16ZM170.95 164.6C170.321 164.6 169.809 164.771 169.414 165.112C169.02 165.443 168.769 165.923 168.662 166.552H173.03C172.988 165.965 172.774 165.496 172.39 165.144C172.017 164.781 171.537 164.6 170.95 164.6ZM180.897 166.52C180.897 165.293 180.374 164.68 179.329 164.68C178.774 164.68 178.321 164.851 177.969 165.192C177.627 165.533 177.457 165.976 177.457 166.52V171H176.177V163.64H177.457V164.792C177.937 163.917 178.667 163.48 179.649 163.48C180.427 163.48 181.041 163.741 181.489 164.264C181.947 164.776 182.177 165.475 182.177 166.36V171H180.897V166.52ZM184.967 165.336L184.343 164.392C184.62 164.189 184.999 163.987 185.479 163.784C185.969 163.581 186.556 163.48 187.239 163.48C188.092 163.48 188.785 163.677 189.319 164.072C189.852 164.456 190.119 165.005 190.119 165.72V171H188.839V170.008C188.604 170.392 188.252 170.68 187.783 170.872C187.313 171.064 186.855 171.16 186.407 171.16C185.959 171.16 185.537 171.069 185.143 170.888C184.759 170.696 184.449 170.424 184.215 170.072C183.98 169.72 183.863 169.293 183.863 168.792C183.863 168.077 184.113 167.507 184.615 167.08C185.127 166.643 185.836 166.424 186.743 166.424C187.233 166.424 187.649 166.483 187.991 166.6C188.343 166.707 188.625 166.829 188.839 166.968V165.896C188.839 165.395 188.673 165.053 188.343 164.872C188.023 164.691 187.633 164.6 187.175 164.6C186.62 164.6 186.156 164.691 185.783 164.872C185.409 165.053 185.137 165.208 184.967 165.336ZM185.159 168.728C185.159 169.155 185.303 169.485 185.591 169.72C185.889 169.944 186.273 170.056 186.743 170.056C187.329 170.056 187.825 169.88 188.231 169.528C188.636 169.176 188.839 168.707 188.839 168.12V167.848C188.54 167.699 188.236 167.592 187.927 167.528C187.617 167.464 187.292 167.432 186.951 167.432C186.332 167.432 185.879 167.549 185.591 167.784C185.303 168.008 185.159 168.323 185.159 168.728ZM197.163 159.8H202.923V161.08H198.523V164.28H202.763V165.56H198.523V171H197.163V159.8ZM208.274 165.048C208.104 164.92 207.949 164.829 207.81 164.776C207.672 164.712 207.496 164.68 207.282 164.68C206.802 164.68 206.477 164.856 206.306 165.208C206.136 165.549 206.05 165.987 206.05 166.52V171H204.77V163.64H206.05V164.488C206.253 164.179 206.493 163.933 206.77 163.752C207.048 163.571 207.325 163.48 207.602 163.48C207.869 163.48 208.114 163.517 208.338 163.592C208.573 163.656 208.786 163.789 208.978 163.992L208.274 165.048ZM212.868 171.16C212.186 171.16 211.578 171 211.044 170.68C210.522 170.349 210.111 169.896 209.812 169.32C209.524 168.744 209.38 168.077 209.38 167.32C209.38 166.552 209.53 165.88 209.828 165.304C210.138 164.728 210.564 164.28 211.108 163.96C211.663 163.64 212.303 163.48 213.028 163.48C214.106 163.48 214.954 163.816 215.572 164.488C216.191 165.16 216.5 166.083 216.5 167.256C216.5 167.331 216.495 167.411 216.484 167.496C216.484 167.571 216.484 167.619 216.484 167.64H210.692C210.746 168.376 210.975 168.947 211.38 169.352C211.786 169.757 212.335 169.96 213.028 169.96C214.031 169.96 214.799 169.517 215.332 168.632L216.372 169.288C215.604 170.536 214.436 171.16 212.868 171.16ZM213.028 164.6C212.399 164.6 211.887 164.771 211.492 165.112C211.098 165.443 210.847 165.923 210.74 166.552H215.108C215.066 165.965 214.852 165.496 214.468 165.144C214.095 164.781 213.615 164.6 213.028 164.6ZM221.759 165.048C221.588 164.92 221.433 164.829 221.295 164.776C221.156 164.712 220.98 164.68 220.767 164.68C220.287 164.68 219.961 164.856 219.791 165.208C219.62 165.549 219.535 165.987 219.535 166.52V171H218.255V163.64H219.535V164.488C219.737 164.179 219.977 163.933 220.255 163.752C220.532 163.571 220.809 163.48 221.087 163.48C221.353 163.48 221.599 163.517 221.823 163.592C222.057 163.656 222.271 163.789 222.463 163.992L221.759 165.048ZM223.739 160.6C223.739 160.355 223.824 160.147 223.995 159.976C224.176 159.805 224.384 159.72 224.619 159.72C224.864 159.72 225.072 159.805 225.243 159.976C225.414 160.147 225.499 160.355 225.499 160.6C225.499 160.835 225.414 161.043 225.243 161.224C225.072 161.395 224.864 161.48 224.619 161.48C224.384 161.48 224.176 161.395 223.995 161.224C223.824 161.043 223.739 160.835 223.739 160.6ZM223.979 163.64H225.259V171H223.979V163.64ZM228.471 167.32C228.471 167.832 228.578 168.285 228.791 168.68C229.015 169.075 229.314 169.389 229.687 169.624C230.071 169.848 230.503 169.96 230.983 169.96C231.581 169.96 232.114 169.827 232.583 169.56C233.053 169.293 233.373 168.979 233.543 168.616V170.216C233.287 170.515 232.919 170.749 232.439 170.92C231.97 171.08 231.485 171.16 230.983 171.16C230.269 171.16 229.623 170.995 229.047 170.664C228.471 170.333 228.013 169.88 227.671 169.304C227.341 168.717 227.175 168.056 227.175 167.32C227.175 166.573 227.341 165.912 227.671 165.336C228.013 164.76 228.471 164.307 229.047 163.976C229.623 163.645 230.269 163.48 230.983 163.48C231.485 163.48 231.97 163.565 232.439 163.736C232.919 163.896 233.287 164.125 233.543 164.424V166.024C233.373 165.661 233.053 165.347 232.583 165.08C232.114 164.813 231.581 164.68 230.983 164.68C230.503 164.68 230.071 164.792 229.687 165.016C229.314 165.24 229.015 165.555 228.791 165.96C228.578 166.355 228.471 166.808 228.471 167.32ZM240.256 166.52C240.256 165.293 239.733 164.68 238.688 164.68C238.133 164.68 237.68 164.856 237.328 165.208C236.987 165.549 236.816 165.987 236.816 166.52V171H235.536V158.52H236.816V164.808C237.04 164.403 237.339 164.083 237.712 163.848C238.096 163.603 238.528 163.48 239.008 163.48C239.765 163.48 240.373 163.725 240.832 164.216C241.301 164.696 241.536 165.411 241.536 166.36V171H240.256V166.52ZM244.246 168.744C244.47 169.085 244.742 169.379 245.062 169.624C245.393 169.869 245.788 169.992 246.246 169.992C246.609 169.992 246.892 169.912 247.094 169.752C247.308 169.581 247.414 169.352 247.414 169.064C247.414 168.808 247.329 168.595 247.158 168.424C246.998 168.243 246.79 168.093 246.534 167.976C246.278 167.848 246.006 167.731 245.718 167.624C245.398 167.496 245.073 167.347 244.742 167.176C244.422 166.995 244.15 166.765 243.926 166.488C243.713 166.2 243.606 165.843 243.606 165.416C243.606 164.979 243.718 164.616 243.942 164.328C244.177 164.04 244.476 163.827 244.838 163.688C245.212 163.549 245.596 163.48 245.99 163.48C246.577 163.48 247.11 163.619 247.59 163.896C248.07 164.173 248.422 164.515 248.646 164.92L247.622 165.576C247.42 165.299 247.164 165.069 246.854 164.888C246.556 164.707 246.214 164.616 245.83 164.616C245.564 164.616 245.334 164.675 245.142 164.792C244.95 164.909 244.854 165.091 244.854 165.336C244.854 165.635 245.009 165.88 245.318 166.072C245.638 166.253 245.996 166.424 246.39 166.584C246.817 166.755 247.206 166.941 247.558 167.144C247.91 167.336 248.188 167.571 248.39 167.848C248.604 168.125 248.71 168.483 248.71 168.92C248.71 169.56 248.476 170.093 248.006 170.52C247.548 170.947 246.94 171.16 246.182 171.16C245.692 171.16 245.249 171.075 244.854 170.904C244.46 170.723 244.124 170.493 243.846 170.216C243.58 169.939 243.377 169.656 243.238 169.368L244.246 168.744ZM256.472 168.12C256.472 168.707 256.606 169.16 256.872 169.48C257.139 169.8 257.528 169.96 258.04 169.96C258.606 169.96 259.059 169.789 259.4 169.448C259.742 169.107 259.912 168.664 259.912 168.12V163.64H261.192V171H259.912V169.848C259.422 170.723 258.691 171.16 257.72 171.16C256.952 171.16 256.339 170.899 255.88 170.376C255.422 169.853 255.192 169.155 255.192 168.28V163.64H256.472V168.12ZM268.318 166.52C268.318 165.293 267.796 164.68 266.75 164.68C266.196 164.68 265.742 164.851 265.39 165.192C265.049 165.533 264.878 165.976 264.878 166.52V171H263.598V163.64H264.878V164.792C265.358 163.917 266.089 163.48 267.07 163.48C267.849 163.48 268.462 163.741 268.91 164.264C269.369 164.776 269.598 165.475 269.598 166.36V171H268.318V166.52ZM271.365 167.32C271.365 166.52 271.53 165.837 271.861 165.272C272.191 164.696 272.634 164.253 273.189 163.944C273.743 163.635 274.351 163.48 275.013 163.48C275.557 163.48 276.042 163.603 276.469 163.848C276.906 164.093 277.258 164.445 277.525 164.904V158.52H278.805V171H277.525V169.736C277.258 170.195 276.906 170.547 276.469 170.792C276.042 171.037 275.557 171.16 275.013 171.16C274.351 171.16 273.743 171.005 273.189 170.696C272.634 170.387 272.191 169.944 271.861 169.368C271.53 168.792 271.365 168.109 271.365 167.32ZM272.661 167.32C272.661 167.885 272.773 168.365 272.997 168.76C273.231 169.155 273.541 169.453 273.925 169.656C274.309 169.859 274.725 169.96 275.173 169.96C275.546 169.96 275.914 169.859 276.277 169.656C276.639 169.453 276.938 169.155 277.173 168.76C277.407 168.365 277.525 167.885 277.525 167.32C277.525 166.755 277.407 166.275 277.173 165.88C276.938 165.485 276.639 165.187 276.277 164.984C275.914 164.781 275.546 164.68 275.173 164.68C274.725 164.68 274.309 164.781 273.925 164.984C273.541 165.187 273.231 165.485 272.997 165.88C272.773 166.275 272.661 166.755 272.661 167.32ZM283.655 172.664C283.889 173.048 284.311 173.24 284.919 173.24C285.164 173.24 285.404 173.128 285.639 172.904C285.884 172.691 286.007 172.323 286.007 171.8V159.8H287.287V171.96C287.287 172.835 287.068 173.48 286.631 173.896C286.193 174.312 285.596 174.52 284.839 174.52C284.412 174.52 284.023 174.424 283.671 174.232C283.308 174.051 283.068 173.88 282.951 173.72L283.655 172.664ZM291.05 168.12C291.05 168.707 291.184 169.16 291.45 169.48C291.717 169.8 292.106 169.96 292.618 169.96C293.184 169.96 293.637 169.789 293.978 169.448C294.32 169.107 294.49 168.664 294.49 168.12V163.64H295.77V171H294.49V169.848C294 170.723 293.269 171.16 292.298 171.16C291.53 171.16 290.917 170.899 290.458 170.376C290 169.853 289.77 169.155 289.77 168.28V163.64H291.05V168.12ZM298.177 158.52H299.457V171H298.177V158.52ZM301.864 160.6C301.864 160.355 301.949 160.147 302.12 159.976C302.301 159.805 302.509 159.72 302.744 159.72C302.989 159.72 303.197 159.805 303.368 159.976C303.539 160.147 303.624 160.355 303.624 160.6C303.624 160.835 303.539 161.043 303.368 161.224C303.197 161.395 302.989 161.48 302.744 161.48C302.509 161.48 302.301 161.395 302.12 161.224C301.949 161.043 301.864 160.835 301.864 160.6ZM302.104 163.64H303.384V171H302.104V163.64ZM306.404 165.336L305.78 164.392C306.058 164.189 306.436 163.987 306.916 163.784C307.407 163.581 307.994 163.48 308.676 163.48C309.53 163.48 310.223 163.677 310.756 164.072C311.29 164.456 311.556 165.005 311.556 165.72V171H310.276V170.008C310.042 170.392 309.69 170.68 309.22 170.872C308.751 171.064 308.292 171.16 307.844 171.16C307.396 171.16 306.975 171.069 306.58 170.888C306.196 170.696 305.887 170.424 305.652 170.072C305.418 169.72 305.3 169.293 305.3 168.792C305.3 168.077 305.551 167.507 306.052 167.08C306.564 166.643 307.274 166.424 308.18 166.424C308.671 166.424 309.087 166.483 309.428 166.6C309.78 166.707 310.063 166.829 310.276 166.968V165.896C310.276 165.395 310.111 165.053 309.78 164.872C309.46 164.691 309.071 164.6 308.612 164.6C308.058 164.6 307.594 164.691 307.22 164.872C306.847 165.053 306.575 165.208 306.404 165.336ZM306.596 168.728C306.596 169.155 306.74 169.485 307.028 169.72C307.327 169.944 307.711 170.056 308.18 170.056C308.767 170.056 309.263 169.88 309.668 169.528C310.074 169.176 310.276 168.707 310.276 168.12V167.848C309.978 167.699 309.674 167.592 309.364 167.528C309.055 167.464 308.73 167.432 308.388 167.432C307.77 167.432 307.316 167.549 307.028 167.784C306.74 168.008 306.596 168.323 306.596 168.728ZM318.6 159.8H324.36V161.08H319.96V164.28H324.2V165.56H319.96V171H318.6V159.8ZM326.52 160.6C326.52 160.355 326.606 160.147 326.776 159.976C326.958 159.805 327.166 159.72 327.4 159.72C327.646 159.72 327.854 159.805 328.024 159.976C328.195 160.147 328.28 160.355 328.28 160.6C328.28 160.835 328.195 161.043 328.024 161.224C327.854 161.395 327.646 161.48 327.4 161.48C327.166 161.48 326.958 161.395 326.776 161.224C326.606 161.043 326.52 160.835 326.52 160.6ZM326.76 163.64H328.04V171H326.76V163.64ZM330.981 168.744C331.205 169.085 331.477 169.379 331.797 169.624C332.127 169.869 332.522 169.992 332.981 169.992C333.343 169.992 333.626 169.912 333.829 169.752C334.042 169.581 334.149 169.352 334.149 169.064C334.149 168.808 334.063 168.595 333.893 168.424C333.733 168.243 333.525 168.093 333.269 167.976C333.013 167.848 332.741 167.731 332.453 167.624C332.133 167.496 331.807 167.347 331.477 167.176C331.157 166.995 330.885 166.765 330.661 166.488C330.447 166.2 330.341 165.843 330.341 165.416C330.341 164.979 330.453 164.616 330.677 164.328C330.911 164.04 331.21 163.827 331.573 163.688C331.946 163.549 332.33 163.48 332.725 163.48C333.311 163.48 333.845 163.619 334.325 163.896C334.805 164.173 335.157 164.515 335.381 164.92L334.357 165.576C334.154 165.299 333.898 165.069 333.589 164.888C333.29 164.707 332.949 164.616 332.565 164.616C332.298 164.616 332.069 164.675 331.877 164.792C331.685 164.909 331.589 165.091 331.589 165.336C331.589 165.635 331.743 165.88 332.053 166.072C332.373 166.253 332.73 166.424 333.125 166.584C333.551 166.755 333.941 166.941 334.293 167.144C334.645 167.336 334.922 167.571 335.125 167.848C335.338 168.125 335.445 168.483 335.445 168.92C335.445 169.56 335.21 170.093 334.741 170.52C334.282 170.947 333.674 171.16 332.917 171.16C332.426 171.16 331.983 171.075 331.589 170.904C331.194 170.723 330.858 170.493 330.581 170.216C330.314 169.939 330.111 169.656 329.973 169.368L330.981 168.744ZM337.706 167.32C337.706 167.832 337.812 168.285 338.026 168.68C338.25 169.075 338.548 169.389 338.922 169.624C339.306 169.848 339.738 169.96 340.218 169.96C340.815 169.96 341.348 169.827 341.818 169.56C342.287 169.293 342.607 168.979 342.778 168.616V170.216C342.522 170.515 342.154 170.749 341.674 170.92C341.204 171.08 340.719 171.16 340.218 171.16C339.503 171.16 338.858 170.995 338.282 170.664C337.706 170.333 337.247 169.88 336.906 169.304C336.575 168.717 336.41 168.056 336.41 167.32C336.41 166.573 336.575 165.912 336.906 165.336C337.247 164.76 337.706 164.307 338.282 163.976C338.858 163.645 339.503 163.48 340.218 163.48C340.719 163.48 341.204 163.565 341.674 163.736C342.154 163.896 342.522 164.125 342.778 164.424V166.024C342.607 165.661 342.287 165.347 341.818 165.08C341.348 164.813 340.815 164.68 340.218 164.68C339.738 164.68 339.306 164.792 338.922 165.016C338.548 165.24 338.25 165.555 338.026 165.96C337.812 166.355 337.706 166.808 337.706 167.32ZM349.49 166.52C349.49 165.293 348.968 164.68 347.922 164.68C347.368 164.68 346.914 164.856 346.562 165.208C346.221 165.549 346.05 165.987 346.05 166.52V171H344.77V158.52H346.05V164.808C346.274 164.403 346.573 164.083 346.946 163.848C347.33 163.603 347.762 163.48 348.242 163.48C349 163.48 349.608 163.725 350.066 164.216C350.536 164.696 350.77 165.411 350.77 166.36V171H349.49V166.52ZM353.177 160.6C353.177 160.355 353.262 160.147 353.433 159.976C353.614 159.805 353.822 159.72 354.057 159.72C354.302 159.72 354.51 159.805 354.681 159.976C354.851 160.147 354.937 160.355 354.937 160.6C354.937 160.835 354.851 161.043 354.681 161.224C354.51 161.395 354.302 161.48 354.057 161.48C353.822 161.48 353.614 161.395 353.433 161.224C353.262 161.043 353.177 160.835 353.177 160.6ZM353.417 163.64H354.697V171H353.417V163.64ZM362.053 166.52C362.053 165.293 361.53 164.68 360.485 164.68C359.93 164.68 359.477 164.851 359.125 165.192C358.783 165.533 358.613 165.976 358.613 166.52V171H357.333V163.64H358.613V164.792C359.093 163.917 359.823 163.48 360.805 163.48C361.583 163.48 362.197 163.741 362.645 164.264C363.103 164.776 363.333 165.475 363.333 166.36V171H362.053V166.52ZM365.243 171.48H366.539C366.539 171.832 366.635 172.157 366.827 172.456C367.019 172.765 367.291 173.011 367.643 173.192C367.995 173.384 368.411 173.48 368.891 173.48C369.264 173.48 369.632 173.389 369.995 173.208C370.358 173.027 370.656 172.739 370.891 172.344C371.136 171.96 371.259 171.459 371.259 170.84V169.736C370.992 170.195 370.64 170.547 370.203 170.792C369.776 171.037 369.291 171.16 368.747 171.16C368.086 171.16 367.478 171.005 366.923 170.696C366.368 170.387 365.926 169.944 365.595 169.368C365.264 168.792 365.099 168.109 365.099 167.32C365.099 166.52 365.264 165.837 365.595 165.272C365.926 164.696 366.368 164.253 366.923 163.944C367.478 163.635 368.086 163.48 368.747 163.48C369.291 163.48 369.776 163.603 370.203 163.848C370.64 164.093 370.992 164.445 371.259 164.904V163.64H372.539V170.84C372.539 171.683 372.363 172.387 372.011 172.952C371.659 173.528 371.206 173.96 370.651 174.248C370.096 174.536 369.51 174.68 368.891 174.68C368.176 174.68 367.542 174.547 366.987 174.28C366.443 174.013 366.016 173.635 365.707 173.144C365.398 172.664 365.243 172.109 365.243 171.48ZM366.395 167.32C366.395 167.885 366.507 168.365 366.731 168.76C366.966 169.155 367.275 169.453 367.659 169.656C368.043 169.859 368.459 169.96 368.907 169.96C369.28 169.96 369.648 169.859 370.011 169.656C370.374 169.453 370.672 169.155 370.907 168.76C371.142 168.365 371.259 167.885 371.259 167.32C371.259 166.755 371.142 166.275 370.907 165.88C370.672 165.485 370.374 165.187 370.011 164.984C369.648 164.781 369.28 164.68 368.907 164.68C368.459 164.68 368.043 164.781 367.659 164.984C367.275 165.187 366.966 165.485 366.731 165.88C366.507 166.275 366.395 166.755 366.395 167.32ZM377.712 171.16C377.029 171.16 376.421 171 375.888 170.68C375.365 170.349 374.955 169.896 374.656 169.32C374.368 168.744 374.224 168.077 374.224 167.32C374.224 166.552 374.373 165.88 374.672 165.304C374.981 164.728 375.408 164.28 375.952 163.96C376.507 163.64 377.147 163.48 377.872 163.48C378.949 163.48 379.797 163.816 380.416 164.488C381.035 165.16 381.344 166.083 381.344 167.256C381.344 167.331 381.339 167.411 381.328 167.496C381.328 167.571 381.328 167.619 381.328 167.64H375.536C375.589 168.376 375.819 168.947 376.224 169.352C376.629 169.757 377.179 169.96 377.872 169.96C378.875 169.96 379.643 169.517 380.176 168.632L381.216 169.288C380.448 170.536 379.28 171.16 377.712 171.16ZM377.872 164.6C377.243 164.6 376.731 164.771 376.336 165.112C375.941 165.443 375.691 165.923 375.584 166.552H379.952C379.909 165.965 379.696 165.496 379.312 165.144C378.939 164.781 378.459 164.6 377.872 164.6ZM386.602 165.048C386.432 164.92 386.277 164.829 386.138 164.776C386 164.712 385.824 164.68 385.61 164.68C385.13 164.68 384.805 164.856 384.634 165.208C384.464 165.549 384.378 165.987 384.378 166.52V171H383.098V163.64H384.378V164.488C384.581 164.179 384.821 163.933 385.098 163.752C385.376 163.571 385.653 163.48 385.93 163.48C386.197 163.48 386.442 163.517 386.666 163.592C386.901 163.656 387.114 163.789 387.306 163.992L386.602 165.048ZM171.44 194L170.272 191.472H166.432L165.28 194H162.672L168.352 182.128L174.048 194H171.44ZM168.352 186.448L166.976 189.648H169.728L168.352 186.448ZM183.167 190.32C183.167 191.131 182.996 191.824 182.655 192.4C182.324 192.976 181.887 193.413 181.343 193.712C180.81 194.011 180.234 194.16 179.615 194.16C178.538 194.16 177.706 193.712 177.119 192.816V194H175.039V181.52H177.119V187.808C177.706 186.923 178.538 186.48 179.615 186.48C180.234 186.48 180.81 186.629 181.343 186.928C181.887 187.227 182.324 187.664 182.655 188.24C182.996 188.805 183.167 189.499 183.167 190.32ZM180.991 190.32C180.991 189.659 180.794 189.141 180.399 188.768C180.015 188.395 179.551 188.208 179.007 188.208C178.708 188.208 178.415 188.293 178.127 188.464C177.839 188.624 177.599 188.864 177.407 189.184C177.215 189.493 177.119 189.872 177.119 190.32C177.119 190.768 177.215 191.152 177.407 191.472C177.599 191.781 177.839 192.021 178.127 192.192C178.415 192.352 178.708 192.432 179.007 192.432C179.551 192.432 180.015 192.245 180.399 191.872C180.794 191.488 180.991 190.971 180.991 190.32ZM184.344 194.512H186.392C186.424 194.992 186.605 195.371 186.936 195.648C187.267 195.925 187.704 196.064 188.248 196.064C188.6 196.064 188.931 195.984 189.24 195.824C189.549 195.664 189.795 195.419 189.976 195.088C190.168 194.757 190.264 194.341 190.264 193.84V192.704C189.688 193.589 188.845 194.032 187.736 194.032C187.117 194.032 186.536 193.888 185.992 193.6C185.459 193.312 185.027 192.885 184.696 192.32C184.365 191.755 184.2 191.067 184.2 190.256C184.2 189.435 184.365 188.747 184.696 188.192C185.027 187.627 185.459 187.2 185.992 186.912C186.536 186.624 187.117 186.48 187.736 186.48C188.845 186.48 189.688 186.923 190.264 187.808V186.64H192.264V193.84C192.264 194.757 192.083 195.504 191.72 196.08C191.368 196.667 190.893 197.093 190.296 197.36C189.699 197.637 189.048 197.776 188.344 197.776C187.053 197.776 186.077 197.472 185.416 196.864C184.765 196.267 184.408 195.483 184.344 194.512ZM186.36 190.256C186.36 190.907 186.552 191.413 186.936 191.776C187.331 192.128 187.8 192.304 188.344 192.304C188.643 192.304 188.936 192.229 189.224 192.08C189.523 191.92 189.768 191.691 189.96 191.392C190.163 191.083 190.264 190.704 190.264 190.256C190.264 189.808 190.163 189.435 189.96 189.136C189.768 188.827 189.523 188.597 189.224 188.448C188.936 188.288 188.643 188.208 188.344 188.208C187.8 188.208 187.331 188.384 186.936 188.736C186.552 189.088 186.36 189.595 186.36 190.256ZM194.93 188.72L194.162 187.312C194.546 187.109 195.016 186.917 195.57 186.736C196.125 186.544 196.744 186.448 197.426 186.448C198.056 186.448 198.616 186.539 199.106 186.72C199.597 186.901 199.981 187.168 200.258 187.52C200.546 187.861 200.69 188.283 200.69 188.784V194H198.674V192.992C198.45 193.376 198.109 193.669 197.65 193.872C197.202 194.064 196.733 194.16 196.242 194.16C195.773 194.16 195.341 194.069 194.946 193.888C194.552 193.707 194.237 193.445 194.002 193.104C193.768 192.752 193.65 192.325 193.65 191.824C193.65 191.12 193.901 190.56 194.402 190.144C194.904 189.717 195.613 189.504 196.53 189.504C197 189.504 197.41 189.552 197.762 189.648C198.125 189.744 198.429 189.856 198.674 189.984V189.232C198.674 188.827 198.541 188.533 198.274 188.352C198.018 188.171 197.661 188.08 197.202 188.08C196.69 188.08 196.221 188.16 195.794 188.32C195.368 188.48 195.08 188.613 194.93 188.72ZM195.746 191.696C195.746 192.027 195.858 192.283 196.082 192.464C196.306 192.635 196.594 192.72 196.946 192.72C197.416 192.72 197.821 192.581 198.162 192.304C198.504 192.016 198.674 191.6 198.674 191.056C198.194 190.843 197.672 190.736 197.106 190.736C196.626 190.736 196.28 190.821 196.066 190.992C195.853 191.152 195.746 191.387 195.746 191.696ZM210.698 190.32C210.698 191.131 210.527 191.824 210.186 192.4C209.855 192.976 209.418 193.413 208.874 193.712C208.341 194.011 207.765 194.16 207.146 194.16C206.069 194.16 205.237 193.712 204.65 192.816V194H202.57V181.52H204.65V187.808C205.237 186.923 206.069 186.48 207.146 186.48C207.765 186.48 208.341 186.629 208.874 186.928C209.418 187.227 209.855 187.664 210.186 188.24C210.527 188.805 210.698 189.499 210.698 190.32ZM208.522 190.32C208.522 189.659 208.325 189.141 207.93 188.768C207.546 188.395 207.082 188.208 206.538 188.208C206.239 188.208 205.946 188.293 205.658 188.464C205.37 188.624 205.13 188.864 204.938 189.184C204.746 189.493 204.65 189.872 204.65 190.32C204.65 190.768 204.746 191.152 204.938 191.472C205.13 191.781 205.37 192.021 205.658 192.192C205.946 192.352 206.239 192.432 206.538 192.432C207.082 192.432 207.546 192.245 207.93 191.872C208.325 191.488 208.522 190.971 208.522 190.32ZM215.715 194.16C214.904 194.16 214.2 194.005 213.603 193.696C213.006 193.376 212.542 192.928 212.211 192.352C211.891 191.776 211.731 191.099 211.731 190.32C211.731 189.147 212.088 188.213 212.803 187.52C213.518 186.827 214.488 186.48 215.715 186.48C216.931 186.48 217.875 186.811 218.547 187.472C219.219 188.123 219.555 189.04 219.555 190.224C219.555 190.331 219.55 190.432 219.539 190.528C219.528 190.624 219.523 190.704 219.523 190.768H213.843C213.907 191.344 214.099 191.792 214.419 192.112C214.75 192.421 215.182 192.576 215.715 192.576C216.622 192.576 217.283 192.219 217.699 191.504L219.523 192.08C218.755 193.467 217.486 194.16 215.715 194.16ZM215.683 187.952C214.68 187.952 214.083 188.469 213.891 189.504H217.315C217.272 189.035 217.102 188.661 216.803 188.384C216.515 188.096 216.142 187.952 215.683 187.952ZM221.294 187.024C221.294 186.672 221.417 186.373 221.662 186.128C221.907 185.872 222.222 185.744 222.606 185.744C222.99 185.744 223.305 185.872 223.55 186.128C223.795 186.373 223.918 186.672 223.918 187.024C223.918 187.376 223.795 187.685 223.55 187.952C223.305 188.208 222.99 188.336 222.606 188.336C222.222 188.336 221.907 188.208 221.662 187.952C221.417 187.685 221.294 187.376 221.294 187.024ZM221.294 193.04C221.294 192.688 221.417 192.384 221.662 192.128C221.907 191.872 222.222 191.744 222.606 191.744C222.99 191.744 223.305 191.872 223.55 192.128C223.795 192.384 223.918 192.688 223.918 193.04C223.918 193.392 223.795 193.701 223.55 193.968C223.305 194.224 222.99 194.352 222.606 194.352C222.222 194.352 221.907 194.224 221.662 193.968C221.417 193.701 221.294 193.392 221.294 193.04ZM231.202 185.008V183.6L235.042 182.64V194H233.682V184.272L231.202 185.008ZM242.405 182.8H244.117L240.965 186.96C241.146 186.853 241.338 186.784 241.541 186.752C241.754 186.709 241.984 186.688 242.229 186.688C242.837 186.688 243.392 186.848 243.893 187.168C244.394 187.488 244.794 187.92 245.093 188.464C245.392 189.008 245.541 189.627 245.541 190.32C245.541 191.088 245.37 191.76 245.029 192.336C244.698 192.912 244.245 193.36 243.669 193.68C243.104 194 242.458 194.16 241.733 194.16C241.018 194.16 240.373 194 239.797 193.68C239.221 193.36 238.762 192.912 238.421 192.336C238.09 191.76 237.925 191.088 237.925 190.32C237.925 189.861 237.989 189.435 238.117 189.04C238.245 188.645 238.416 188.299 238.629 188L242.405 182.8ZM239.221 190.32C239.221 190.832 239.328 191.285 239.541 191.68C239.765 192.064 240.064 192.368 240.437 192.592C240.821 192.816 241.253 192.928 241.733 192.928C242.213 192.928 242.64 192.816 243.013 192.592C243.397 192.368 243.696 192.064 243.909 191.68C244.133 191.285 244.245 190.832 244.245 190.32C244.245 189.808 244.133 189.355 243.909 188.96C243.696 188.555 243.397 188.24 243.013 188.016C242.64 187.792 242.213 187.68 241.733 187.68C241.253 187.68 240.821 187.792 240.437 188.016C240.064 188.24 239.765 188.555 239.541 188.96C239.328 189.355 239.221 189.808 239.221 190.32ZM247.864 193.36C247.864 193.115 247.949 192.907 248.12 192.736C248.301 192.565 248.509 192.48 248.744 192.48C248.989 192.48 249.197 192.565 249.368 192.736C249.538 192.907 249.624 193.115 249.624 193.36C249.624 193.595 249.538 193.803 249.368 193.984C249.197 194.155 248.989 194.24 248.744 194.24C248.509 194.24 248.301 194.155 248.12 193.984C247.949 193.803 247.864 193.595 247.864 193.36ZM251.781 188.4C251.781 187.28 251.957 186.288 252.309 185.424C252.661 184.56 253.146 183.883 253.765 183.392C254.394 182.891 255.119 182.64 255.941 182.64C256.762 182.64 257.482 182.891 258.101 183.392C258.73 183.883 259.221 184.56 259.573 185.424C259.925 186.288 260.101 187.28 260.101 188.4C260.101 189.52 259.925 190.512 259.573 191.376C259.221 192.24 258.73 192.923 258.101 193.424C257.482 193.915 256.762 194.16 255.941 194.16C255.119 194.16 254.394 193.915 253.765 193.424C253.146 192.923 252.661 192.24 252.309 191.376C251.957 190.512 251.781 189.52 251.781 188.4ZM253.141 188.4C253.141 189.264 253.253 190.037 253.477 190.72C253.711 191.392 254.037 191.92 254.453 192.304C254.869 192.688 255.365 192.88 255.941 192.88C256.517 192.88 257.013 192.688 257.429 192.304C257.855 191.92 258.181 191.392 258.405 190.72C258.629 190.037 258.741 189.264 258.741 188.4C258.741 187.525 258.629 186.752 258.405 186.08C258.181 185.408 257.855 184.88 257.429 184.496C257.013 184.112 256.517 183.92 255.941 183.92C255.365 183.92 254.869 184.112 254.453 184.496C254.037 184.88 253.711 185.408 253.477 186.08C253.253 186.752 253.141 187.525 253.141 188.4ZM262.014 185.008V183.6L265.854 182.64V194H264.494V184.272L262.014 185.008ZM269.458 193.36C269.458 193.115 269.543 192.907 269.714 192.736C269.895 192.565 270.103 192.48 270.338 192.48C270.583 192.48 270.791 192.565 270.962 192.736C271.132 192.907 271.218 193.115 271.218 193.36C271.218 193.595 271.132 193.803 270.962 193.984C270.791 194.155 270.583 194.24 270.338 194.24C270.103 194.24 269.895 194.155 269.714 193.984C269.543 193.803 269.458 193.595 269.458 193.36ZM273.054 194L278.35 188.352C278.724 187.957 279.012 187.563 279.214 187.168C279.417 186.773 279.518 186.352 279.518 185.904C279.518 185.573 279.433 185.259 279.262 184.96C279.092 184.651 278.846 184.4 278.526 184.208C278.206 184.005 277.817 183.904 277.358 183.904C276.644 183.904 276.078 184.149 275.662 184.64C275.257 185.12 275.054 185.787 275.054 186.64H273.694C273.694 185.84 273.838 185.141 274.126 184.544C274.414 183.936 274.83 183.467 275.374 183.136C275.929 182.795 276.59 182.624 277.358 182.624C277.977 182.624 278.51 182.731 278.958 182.944C279.406 183.147 279.774 183.413 280.062 183.744C280.35 184.064 280.564 184.411 280.702 184.784C280.841 185.157 280.91 185.515 280.91 185.856C280.91 186.432 280.772 187.003 280.494 187.568C280.217 188.133 279.86 188.64 279.422 189.088L275.854 192.72H280.958V194H273.054ZM282.484 188.4C282.484 187.28 282.66 186.288 283.012 185.424C283.364 184.56 283.849 183.883 284.468 183.392C285.097 182.891 285.822 182.64 286.644 182.64C287.465 182.64 288.185 182.891 288.804 183.392C289.433 183.883 289.924 184.56 290.276 185.424C290.628 186.288 290.804 187.28 290.804 188.4C290.804 189.52 290.628 190.512 290.276 191.376C289.924 192.24 289.433 192.923 288.804 193.424C288.185 193.915 287.465 194.16 286.644 194.16C285.822 194.16 285.097 193.915 284.468 193.424C283.849 192.923 283.364 192.24 283.012 191.376C282.66 190.512 282.484 189.52 282.484 188.4ZM283.844 188.4C283.844 189.264 283.956 190.037 284.18 190.72C284.414 191.392 284.74 191.92 285.156 192.304C285.572 192.688 286.068 192.88 286.644 192.88C287.22 192.88 287.716 192.688 288.132 192.304C288.558 191.92 288.884 191.392 289.108 190.72C289.332 190.037 289.444 189.264 289.444 188.4C289.444 187.525 289.332 186.752 289.108 186.08C288.884 185.408 288.558 184.88 288.132 184.496C287.716 184.112 287.22 183.92 286.644 183.92C286.068 183.92 285.572 184.112 285.156 184.496C284.74 184.88 284.414 185.408 284.18 186.08C283.956 186.752 283.844 187.525 283.844 188.4ZM291.758 194L297.054 188.352C297.427 187.957 297.715 187.563 297.918 187.168C298.12 186.773 298.222 186.352 298.222 185.904C298.222 185.573 298.136 185.259 297.966 184.96C297.795 184.651 297.55 184.4 297.23 184.208C296.91 184.005 296.52 183.904 296.062 183.904C295.347 183.904 294.782 184.149 294.366 184.64C293.96 185.12 293.758 185.787 293.758 186.64H292.398C292.398 185.84 292.542 185.141 292.83 184.544C293.118 183.936 293.534 183.467 294.078 183.136C294.632 182.795 295.294 182.624 296.062 182.624C296.68 182.624 297.214 182.731 297.662 182.944C298.11 183.147 298.478 183.413 298.766 183.744C299.054 184.064 299.267 184.411 299.406 184.784C299.544 185.157 299.614 185.515 299.614 185.856C299.614 186.432 299.475 187.003 299.198 187.568C298.92 188.133 298.563 188.64 298.126 189.088L294.558 192.72H299.661V194H291.758ZM301.827 185.008V183.6L305.667 182.64V194H304.307V184.272L301.827 185.008Z" fill="black"/>
<defs>
<linearGradient id="paint0_linear" x1="19.1646" y1="31.0477" x2="425.833" y2="291.157" gradientUnits="userSpaceOnUse">
<stop stop-color="#FEF9F6"/>
<stop offset="1" stop-color="#FCEBDF"/>
</linearGradient>
</defs>
</svg>
