<svg width="231" height="91" viewBox="0 0 231 91" fill="none" xmlns="http://www.w3.org/2000/svg">
<rect width="231" height="91" fill="white"/>
<path d="M131.8 44.8395L127.24 50.9995H133.8V49.7995H129.56L134.12 43.6395H127.72V44.8395H131.8Z" fill="#3D3D3D"/>
<path d="M136.683 48.1195V43.6395H135.403V48.2795C135.403 49.1542 135.632 49.8529 136.091 50.3755C136.55 50.8982 137.163 51.1595 137.931 51.1595C138.422 51.1595 138.848 51.0529 139.211 50.8395C139.574 50.6155 139.878 50.2849 140.123 49.8475V50.9995H141.403V43.6395H140.123V48.1195C140.123 48.4822 140.043 48.8022 139.883 49.0795C139.734 49.3569 139.515 49.5755 139.227 49.7355C138.95 49.8849 138.624 49.9595 138.251 49.9595C137.739 49.9595 137.35 49.7995 137.083 49.4795C136.816 49.1595 136.683 48.7062 136.683 48.1195Z" fill="#3D3D3D"/>
<path d="M154.126 38.5195V50.9995H155.406V38.5195H154.126ZM147.966 47.3195C147.966 48.1089 148.132 48.7915 148.462 49.3675C148.793 49.9435 149.236 50.3862 149.79 50.6955C150.345 51.0049 150.953 51.1595 151.614 51.1595C152.233 51.1595 152.772 51.0049 153.23 50.6955C153.689 50.3862 154.046 49.9435 154.302 49.3675C154.569 48.7915 154.702 48.1089 154.702 47.3195C154.702 46.5195 154.569 45.8369 154.302 45.2715C154.046 44.6955 153.689 44.2529 153.23 43.9435C152.772 43.6342 152.233 43.4795 151.614 43.4795C150.953 43.4795 150.345 43.6342 149.79 43.9435C149.236 44.2529 148.793 44.6955 148.462 45.2715C148.132 45.8369 147.966 46.5195 147.966 47.3195ZM149.262 47.3195C149.262 46.7542 149.374 46.2742 149.598 45.8795C149.833 45.4849 150.142 45.1862 150.526 44.9835C150.91 44.7809 151.326 44.6795 151.774 44.6795C152.148 44.6795 152.516 44.7809 152.878 44.9835C153.241 45.1862 153.54 45.4849 153.774 45.8795C154.009 46.2742 154.126 46.7542 154.126 47.3195C154.126 47.8849 154.009 48.3649 153.774 48.7595C153.54 49.1542 153.241 49.4529 152.878 49.6555C152.516 49.8582 152.148 49.9595 151.774 49.9595C151.326 49.9595 150.91 49.8582 150.526 49.6555C150.142 49.4529 149.833 49.1542 149.598 48.7595C149.374 48.3649 149.262 47.8849 149.262 47.3195Z" fill="#3D3D3D"/>
<path d="M160.579 51.1595C161.369 51.1595 162.051 51.0049 162.627 50.6955C163.214 50.3755 163.699 49.9062 164.083 49.2875L163.043 48.6315C162.777 49.0795 162.451 49.4155 162.067 49.6395C161.683 49.8529 161.241 49.9595 160.739 49.9595C160.238 49.9595 159.811 49.8529 159.459 49.6395C159.107 49.4262 158.841 49.1169 158.659 48.7115C158.478 48.3062 158.387 47.8155 158.387 47.2395C158.398 46.6742 158.494 46.1995 158.675 45.8155C158.867 45.4209 159.134 45.1222 159.475 44.9195C159.827 44.7062 160.249 44.5995 160.739 44.5995C161.155 44.5995 161.518 44.6902 161.827 44.8715C162.137 45.0529 162.377 45.3035 162.547 45.6235C162.729 45.9435 162.819 46.3222 162.819 46.7595C162.819 46.8342 162.803 46.9302 162.771 47.0475C162.739 47.1542 162.707 47.2342 162.675 47.2875L163.187 46.5515H157.907V47.6395H164.195C164.195 47.6182 164.195 47.5702 164.195 47.4955C164.206 47.4102 164.211 47.3302 164.211 47.2555C164.211 46.4769 164.073 45.8049 163.795 45.2395C163.518 44.6742 163.118 44.2422 162.595 43.9435C162.083 43.6342 161.465 43.4795 160.739 43.4795C160.014 43.4795 159.374 43.6395 158.819 43.9595C158.275 44.2795 157.849 44.7275 157.539 45.3035C157.241 45.8795 157.091 46.5515 157.091 47.3195C157.091 48.0769 157.235 48.7435 157.523 49.3195C157.822 49.8955 158.233 50.3489 158.755 50.6795C159.289 50.9995 159.897 51.1595 160.579 51.1595Z" fill="#3D3D3D"/>
<path d="M170.686 46.5195V50.9995H171.966V46.3595C171.966 45.4742 171.736 44.7755 171.278 44.2635C170.83 43.7409 170.216 43.4795 169.438 43.4795C168.958 43.4795 168.531 43.5862 168.158 43.7995C167.795 44.0129 167.491 44.3435 167.246 44.7915V43.6395H165.966V50.9995H167.246V46.5195C167.246 46.1569 167.32 45.8369 167.47 45.5595C167.63 45.2822 167.848 45.0689 168.126 44.9195C168.414 44.7595 168.744 44.6795 169.118 44.6795C169.63 44.6795 170.019 44.8342 170.286 45.1435C170.552 45.4529 170.686 45.9115 170.686 46.5195Z" fill="#3D3D3D"/>
<path d="M179.249 39.7995V50.9995H180.609V39.7995H179.249ZM182.609 50.9995C183.697 50.9995 184.662 50.7649 185.505 50.2955C186.347 49.8262 187.009 49.1755 187.489 48.3435C187.969 47.5009 188.209 46.5195 188.209 45.3995C188.209 44.2795 187.969 43.3035 187.489 42.4715C187.009 41.6289 186.347 40.9729 185.505 40.5035C184.662 40.0342 183.697 39.7995 182.609 39.7995H180.001V41.1595H182.609C183.238 41.1595 183.814 41.2609 184.337 41.4635C184.859 41.6555 185.307 41.9382 185.681 42.3115C186.054 42.6742 186.342 43.1169 186.545 43.6395C186.747 44.1622 186.849 44.7489 186.849 45.3995C186.849 46.0502 186.747 46.6369 186.545 47.1595C186.342 47.6822 186.054 48.1302 185.681 48.5035C185.307 48.8662 184.859 49.1489 184.337 49.3515C183.814 49.5435 183.238 49.6395 182.609 49.6395H180.001V50.9995H182.609Z" fill="#3D3D3D"/>
<path d="M190.62 48.7275C190.62 48.4609 190.684 48.2315 190.812 48.0395C190.94 47.8475 191.132 47.6982 191.388 47.5915C191.654 47.4849 191.996 47.4315 192.412 47.4315C192.86 47.4315 193.281 47.4902 193.676 47.6075C194.07 47.7142 194.454 47.8955 194.828 48.1515V47.3995C194.753 47.3035 194.609 47.1809 194.396 47.0315C194.182 46.8715 193.894 46.7329 193.532 46.6155C193.18 46.4875 192.737 46.4235 192.204 46.4235C191.297 46.4235 190.588 46.6422 190.076 47.0795C189.574 47.5062 189.324 48.0769 189.324 48.7915C189.324 49.2929 189.441 49.7195 189.676 50.0715C189.91 50.4235 190.22 50.6955 190.604 50.8875C190.998 51.0689 191.42 51.1595 191.868 51.1595C192.273 51.1595 192.678 51.0849 193.084 50.9355C193.5 50.7862 193.846 50.5569 194.124 50.2475C194.412 49.9382 194.556 49.5489 194.556 49.0795L194.3 48.1195C194.3 48.5035 194.204 48.8449 194.012 49.1435C193.83 49.4315 193.58 49.6555 193.26 49.8155C192.95 49.9755 192.598 50.0555 192.204 50.0555C191.894 50.0555 191.617 50.0075 191.372 49.9115C191.137 49.8049 190.95 49.6502 190.812 49.4475C190.684 49.2449 190.62 49.0049 190.62 48.7275ZM190.428 45.3355C190.545 45.2502 190.705 45.1489 190.908 45.0315C191.11 44.9142 191.356 44.8129 191.644 44.7275C191.942 44.6422 192.273 44.5995 192.636 44.5995C192.86 44.5995 193.073 44.6209 193.276 44.6635C193.478 44.7062 193.654 44.7755 193.804 44.8715C193.964 44.9675 194.086 45.1009 194.172 45.2715C194.257 45.4315 194.3 45.6395 194.3 45.8955V50.9995H195.58V45.7195C195.58 45.2395 195.457 44.8342 195.212 44.5035C194.977 44.1729 194.641 43.9222 194.204 43.7515C193.777 43.5702 193.276 43.4795 192.7 43.4795C192.017 43.4795 191.43 43.5809 190.94 43.7835C190.46 43.9862 190.081 44.1889 189.804 44.3915L190.428 45.3355Z" fill="#3D3D3D"/>
<path d="M196.627 43.6395V44.8395H200.307V43.6395H196.627ZM197.827 41.0795V50.9995H199.107V41.0795H197.827Z" fill="#3D3D3D"/>
<path d="M204.439 51.1595C205.228 51.1595 205.911 51.0049 206.487 50.6955C207.073 50.3755 207.559 49.9062 207.943 49.2875L206.903 48.6315C206.636 49.0795 206.311 49.4155 205.927 49.6395C205.543 49.8529 205.1 49.9595 204.599 49.9595C204.097 49.9595 203.671 49.8529 203.319 49.6395C202.967 49.4262 202.7 49.1169 202.519 48.7115C202.337 48.3062 202.247 47.8155 202.247 47.2395C202.257 46.6742 202.353 46.1995 202.535 45.8155C202.727 45.4209 202.993 45.1222 203.335 44.9195C203.687 44.7062 204.108 44.5995 204.599 44.5995C205.015 44.5995 205.377 44.6902 205.687 44.8715C205.996 45.0529 206.236 45.3035 206.407 45.6235C206.588 45.9435 206.679 46.3222 206.679 46.7595C206.679 46.8342 206.663 46.9302 206.631 47.0475C206.599 47.1542 206.567 47.2342 206.535 47.2875L207.047 46.5515H201.767V47.6395H208.055C208.055 47.6182 208.055 47.5702 208.055 47.4955C208.065 47.4102 208.071 47.3302 208.071 47.2555C208.071 46.4769 207.932 45.8049 207.655 45.2395C207.377 44.6742 206.977 44.2422 206.455 43.9435C205.943 43.6342 205.324 43.4795 204.599 43.4795C203.873 43.4795 203.233 43.6395 202.679 43.9595C202.135 44.2795 201.708 44.7275 201.399 45.3035C201.1 45.8795 200.951 46.5515 200.951 47.3195C200.951 48.0769 201.095 48.7435 201.383 49.3195C201.681 49.8955 202.092 50.3489 202.615 50.6795C203.148 50.9995 203.756 51.1595 204.439 51.1595Z" fill="#3D3D3D"/>
<path d="M214.545 46.5195V50.9995H215.825V46.3595C215.825 45.4742 215.596 44.7755 215.137 44.2635C214.689 43.7409 214.076 43.4795 213.297 43.4795C212.817 43.4795 212.39 43.5862 212.017 43.7995C211.654 44.0129 211.35 44.3435 211.105 44.7915V43.6395H209.825V50.9995H211.105V46.5195C211.105 46.1569 211.18 45.8369 211.329 45.5595C211.489 45.2822 211.708 45.0689 211.985 44.9195C212.273 44.7595 212.604 44.6795 212.977 44.6795C213.489 44.6795 213.878 44.8342 214.145 45.1435C214.412 45.4529 214.545 45.9115 214.545 46.5195Z" fill="#3D3D3D"/>
<circle cx="63.5" cy="45.5" r="44" fill="white" stroke="#3D3D3D"/>
<path d="M63.6464 53.3536C63.8417 53.5488 64.1583 53.5488 64.3536 53.3536L67.5355 50.1716C67.7308 49.9763 67.7308 49.6597 67.5355 49.4645C67.3403 49.2692 67.0237 49.2692 66.8284 49.4645L64 52.2929L61.1716 49.4645C60.9763 49.2692 60.6597 49.2692 60.4645 49.4645C60.2692 49.6597 60.2692 49.9763 60.4645 50.1716L63.6464 53.3536ZM63.5 38L63.5 53L64.5 53L64.5 38L63.5 38Z" fill="#3D3D3D"/>
</svg>
