<svg width="294" height="91" viewBox="0 0 294 91" fill="none" xmlns="http://www.w3.org/2000/svg">
<rect width="294" height="91" fill="white"/>
<path d="M124.8 44.8395L120.24 50.9995H126.8V49.7995H122.56L127.12 43.6395H120.72V44.8395H124.8Z" fill="#3D3D3D"/>
<path d="M129.683 48.1195V43.6395H128.403V48.2795C128.403 49.1542 128.633 49.8529 129.091 50.3755C129.55 50.8982 130.163 51.1595 130.931 51.1595C131.422 51.1595 131.849 51.0529 132.211 50.8395C132.574 50.6155 132.878 50.2849 133.123 49.8475V50.9995H134.403V43.6395H133.123V48.1195C133.123 48.4822 133.043 48.8022 132.883 49.0795C132.734 49.3569 132.515 49.5755 132.227 49.7355C131.95 49.8849 131.625 49.9595 131.251 49.9595C130.739 49.9595 130.35 49.7995 130.083 49.4795C129.817 49.1595 129.683 48.7062 129.683 48.1195Z" fill="#3D3D3D"/>
<path d="M147.126 38.5195V50.9995H148.406V38.5195H147.126ZM140.966 47.3195C140.966 48.1089 141.132 48.7915 141.462 49.3675C141.793 49.9435 142.236 50.3862 142.79 50.6955C143.345 51.0049 143.953 51.1595 144.614 51.1595C145.233 51.1595 145.772 51.0049 146.23 50.6955C146.689 50.3862 147.046 49.9435 147.302 49.3675C147.569 48.7915 147.702 48.1089 147.702 47.3195C147.702 46.5195 147.569 45.8369 147.302 45.2715C147.046 44.6955 146.689 44.2529 146.23 43.9435C145.772 43.6342 145.233 43.4795 144.614 43.4795C143.953 43.4795 143.345 43.6342 142.79 43.9435C142.236 44.2529 141.793 44.6955 141.462 45.2715C141.132 45.8369 140.966 46.5195 140.966 47.3195ZM142.262 47.3195C142.262 46.7542 142.374 46.2742 142.598 45.8795C142.833 45.4849 143.142 45.1862 143.526 44.9835C143.91 44.7809 144.326 44.6795 144.774 44.6795C145.148 44.6795 145.516 44.7809 145.878 44.9835C146.241 45.1862 146.54 45.4849 146.774 45.8795C147.009 46.2742 147.126 46.7542 147.126 47.3195C147.126 47.8849 147.009 48.3649 146.774 48.7595C146.54 49.1542 146.241 49.4529 145.878 49.6555C145.516 49.8582 145.148 49.9595 144.774 49.9595C144.326 49.9595 143.91 49.8582 143.526 49.6555C143.142 49.4529 142.833 49.1542 142.598 48.7595C142.374 48.3649 142.262 47.8849 142.262 47.3195Z" fill="#3D3D3D"/>
<path d="M153.579 51.1595C154.369 51.1595 155.051 51.0049 155.627 50.6955C156.214 50.3755 156.699 49.9062 157.083 49.2875L156.043 48.6315C155.777 49.0795 155.451 49.4155 155.067 49.6395C154.683 49.8529 154.241 49.9595 153.739 49.9595C153.238 49.9595 152.811 49.8529 152.459 49.6395C152.107 49.4262 151.841 49.1169 151.659 48.7115C151.478 48.3062 151.387 47.8155 151.387 47.2395C151.398 46.6742 151.494 46.1995 151.675 45.8155C151.867 45.4209 152.134 45.1222 152.475 44.9195C152.827 44.7062 153.249 44.5995 153.739 44.5995C154.155 44.5995 154.518 44.6902 154.827 44.8715C155.137 45.0529 155.377 45.3035 155.547 45.6235C155.729 45.9435 155.819 46.3222 155.819 46.7595C155.819 46.8342 155.803 46.9302 155.771 47.0475C155.739 47.1542 155.707 47.2342 155.675 47.2875L156.187 46.5515H150.907V47.6395H157.195C157.195 47.6182 157.195 47.5702 157.195 47.4955C157.206 47.4102 157.211 47.3302 157.211 47.2555C157.211 46.4769 157.073 45.8049 156.795 45.2395C156.518 44.6742 156.118 44.2422 155.595 43.9435C155.083 43.6342 154.465 43.4795 153.739 43.4795C153.014 43.4795 152.374 43.6395 151.819 43.9595C151.275 44.2795 150.849 44.7275 150.539 45.3035C150.241 45.8795 150.091 46.5515 150.091 47.3195C150.091 48.0769 150.235 48.7435 150.523 49.3195C150.822 49.8955 151.233 50.3489 151.755 50.6795C152.289 50.9995 152.897 51.1595 153.579 51.1595Z" fill="#3D3D3D"/>
<path d="M163.686 46.5195V50.9995H164.966V46.3595C164.966 45.4742 164.737 44.7755 164.278 44.2635C163.83 43.7409 163.217 43.4795 162.438 43.4795C161.958 43.4795 161.531 43.5862 161.158 43.7995C160.795 44.0129 160.491 44.3435 160.246 44.7915V43.6395H158.966V50.9995H160.246V46.5195C160.246 46.1569 160.321 45.8369 160.47 45.5595C160.63 45.2822 160.849 45.0689 161.126 44.9195C161.414 44.7595 161.745 44.6795 162.118 44.6795C162.63 44.6795 163.019 44.8342 163.286 45.1435C163.553 45.4529 163.686 45.9115 163.686 46.5195Z" fill="#3D3D3D"/>
<path d="M172.249 39.7995V50.9995H173.609V39.7995H172.249Z" fill="#3D3D3D"/>
<path d="M180.811 46.5195V50.9995H182.091V46.3595C182.091 45.4742 181.862 44.7755 181.403 44.2635C180.955 43.7409 180.342 43.4795 179.563 43.4795C179.083 43.4795 178.656 43.5862 178.283 43.7995C177.92 44.0129 177.616 44.3435 177.371 44.7915V43.6395H176.091V50.9995H177.371V46.5195C177.371 46.1569 177.446 45.8369 177.595 45.5595C177.755 45.2822 177.974 45.0689 178.251 44.9195C178.539 44.7595 178.87 44.6795 179.243 44.6795C179.755 44.6795 180.144 44.8342 180.411 45.1435C180.678 45.4529 180.811 45.9115 180.811 46.5195Z" fill="#3D3D3D"/>
<path d="M183.377 43.6395V44.8395H187.057V43.6395H183.377ZM184.577 41.0795V50.9995H185.857V41.0795H184.577Z" fill="#3D3D3D"/>
<path d="M191.189 51.1595C191.978 51.1595 192.661 51.0049 193.237 50.6955C193.824 50.3755 194.309 49.9062 194.693 49.2875L193.653 48.6315C193.386 49.0795 193.061 49.4155 192.677 49.6395C192.293 49.8529 191.85 49.9595 191.349 49.9595C190.848 49.9595 190.421 49.8529 190.069 49.6395C189.717 49.4262 189.45 49.1169 189.269 48.7115C189.088 48.3062 188.997 47.8155 188.997 47.2395C189.008 46.6742 189.104 46.1995 189.285 45.8155C189.477 45.4209 189.744 45.1222 190.085 44.9195C190.437 44.7062 190.858 44.5995 191.349 44.5995C191.765 44.5995 192.128 44.6902 192.437 44.8715C192.746 45.0529 192.986 45.3035 193.157 45.6235C193.338 45.9435 193.429 46.3222 193.429 46.7595C193.429 46.8342 193.413 46.9302 193.381 47.0475C193.349 47.1542 193.317 47.2342 193.285 47.2875L193.797 46.5515H188.517V47.6395H194.805C194.805 47.6182 194.805 47.5702 194.805 47.4955C194.816 47.4102 194.821 47.3302 194.821 47.2555C194.821 46.4769 194.682 45.8049 194.405 45.2395C194.128 44.6742 193.728 44.2422 193.205 43.9435C192.693 43.6342 192.074 43.4795 191.349 43.4795C190.624 43.4795 189.984 43.6395 189.429 43.9595C188.885 44.2795 188.458 44.7275 188.149 45.3035C187.85 45.8795 187.701 46.5515 187.701 47.3195C187.701 48.0769 187.845 48.7435 188.133 49.3195C188.432 49.8955 188.842 50.3489 189.365 50.6795C189.898 50.9995 190.506 51.1595 191.189 51.1595Z" fill="#3D3D3D"/>
<path d="M197.775 54.5195V43.6395H196.495V54.5195H197.775ZM203.935 47.3195C203.935 46.5195 203.77 45.8369 203.439 45.2715C203.109 44.6955 202.666 44.2529 202.111 43.9435C201.567 43.6342 200.959 43.4795 200.287 43.4795C199.679 43.4795 199.141 43.6342 198.671 43.9435C198.213 44.2529 197.85 44.6955 197.583 45.2715C197.327 45.8369 197.199 46.5195 197.199 47.3195C197.199 48.1089 197.327 48.7915 197.583 49.3675C197.85 49.9435 198.213 50.3862 198.671 50.6955C199.141 51.0049 199.679 51.1595 200.287 51.1595C200.959 51.1595 201.567 51.0049 202.111 50.6955C202.666 50.3862 203.109 49.9435 203.439 49.3675C203.77 48.7915 203.935 48.1089 203.935 47.3195ZM202.639 47.3195C202.639 47.8849 202.522 48.3649 202.287 48.7595C202.063 49.1542 201.759 49.4529 201.375 49.6555C201.002 49.8582 200.586 49.9595 200.127 49.9595C199.754 49.9595 199.386 49.8582 199.023 49.6555C198.661 49.4529 198.362 49.1542 198.127 48.7595C197.893 48.3649 197.775 47.8849 197.775 47.3195C197.775 46.7542 197.893 46.2742 198.127 45.8795C198.362 45.4849 198.661 45.1862 199.023 44.9835C199.386 44.7809 199.754 44.6795 200.127 44.6795C200.586 44.6795 201.002 44.7809 201.375 44.9835C201.759 45.1862 202.063 45.4849 202.287 45.8795C202.522 46.2742 202.639 46.7542 202.639 47.3195Z" fill="#3D3D3D"/>
<path d="M206.98 43.6395H205.7V50.9995H206.98V43.6395ZM209.204 45.0475L209.908 43.9915C209.716 43.7889 209.503 43.6555 209.268 43.5915C209.044 43.5169 208.799 43.4795 208.532 43.4795C208.191 43.4795 207.855 43.6129 207.524 43.8795C207.194 44.1462 206.922 44.5089 206.708 44.9675C206.506 45.4155 206.404 45.9329 206.404 46.5195H206.98C206.98 46.1675 207.012 45.8529 207.076 45.5755C207.151 45.2982 207.279 45.0795 207.46 44.9195C207.642 44.7595 207.892 44.6795 208.212 44.6795C208.426 44.6795 208.602 44.7115 208.74 44.7755C208.879 44.8289 209.034 44.9195 209.204 45.0475Z" fill="#3D3D3D"/>
<path d="M213.798 51.1595C214.588 51.1595 215.27 51.0049 215.846 50.6955C216.433 50.3755 216.918 49.9062 217.302 49.2875L216.262 48.6315C215.996 49.0795 215.67 49.4155 215.286 49.6395C214.902 49.8529 214.46 49.9595 213.958 49.9595C213.457 49.9595 213.03 49.8529 212.678 49.6395C212.326 49.4262 212.06 49.1169 211.878 48.7115C211.697 48.3062 211.606 47.8155 211.606 47.2395C211.617 46.6742 211.713 46.1995 211.894 45.8155C212.086 45.4209 212.353 45.1222 212.694 44.9195C213.046 44.7062 213.468 44.5995 213.958 44.5995C214.374 44.5995 214.737 44.6902 215.046 44.8715C215.356 45.0529 215.596 45.3035 215.766 45.6235C215.948 45.9435 216.038 46.3222 216.038 46.7595C216.038 46.8342 216.022 46.9302 215.99 47.0475C215.958 47.1542 215.926 47.2342 215.894 47.2875L216.406 46.5515H211.126V47.6395H217.414C217.414 47.6182 217.414 47.5702 217.414 47.4955C217.425 47.4102 217.43 47.3302 217.43 47.2555C217.43 46.4769 217.292 45.8049 217.014 45.2395C216.737 44.6742 216.337 44.2422 215.814 43.9435C215.302 43.6342 214.684 43.4795 213.958 43.4795C213.233 43.4795 212.593 43.6395 212.038 43.9595C211.494 44.2795 211.068 44.7275 210.758 45.3035C210.46 45.8795 210.31 46.5515 210.31 47.3195C210.31 48.0769 210.454 48.7435 210.742 49.3195C211.041 49.8955 211.452 50.3489 211.974 50.6795C212.508 50.9995 213.116 51.1595 213.798 51.1595Z" fill="#3D3D3D"/>
<path d="M218.065 43.6395V44.8395H221.745V43.6395H218.065ZM219.265 41.0795V50.9995H220.545V41.0795H219.265Z" fill="#3D3D3D"/>
<path d="M223.604 48.7275C223.604 48.4609 223.668 48.2315 223.796 48.0395C223.924 47.8475 224.116 47.6982 224.372 47.5915C224.639 47.4849 224.98 47.4315 225.396 47.4315C225.844 47.4315 226.266 47.4902 226.66 47.6075C227.055 47.7142 227.439 47.8955 227.812 48.1515V47.3995C227.738 47.3035 227.594 47.1809 227.38 47.0315C227.167 46.8715 226.879 46.7329 226.516 46.6155C226.164 46.4875 225.722 46.4235 225.188 46.4235C224.282 46.4235 223.572 46.6422 223.06 47.0795C222.559 47.5062 222.308 48.0769 222.308 48.7915C222.308 49.2929 222.426 49.7195 222.66 50.0715C222.895 50.4235 223.204 50.6955 223.588 50.8875C223.983 51.0689 224.404 51.1595 224.852 51.1595C225.258 51.1595 225.663 51.0849 226.068 50.9355C226.484 50.7862 226.831 50.5569 227.108 50.2475C227.396 49.9382 227.54 49.5489 227.54 49.0795L227.284 48.1195C227.284 48.5035 227.188 48.8449 226.996 49.1435C226.815 49.4315 226.564 49.6555 226.244 49.8155C225.935 49.9755 225.583 50.0555 225.188 50.0555C224.879 50.0555 224.602 50.0075 224.356 49.9115C224.122 49.8049 223.935 49.6502 223.796 49.4475C223.668 49.2449 223.604 49.0049 223.604 48.7275ZM223.412 45.3355C223.53 45.2502 223.69 45.1489 223.892 45.0315C224.095 44.9142 224.34 44.8129 224.628 44.7275C224.927 44.6422 225.258 44.5995 225.62 44.5995C225.844 44.5995 226.058 44.6209 226.26 44.6635C226.463 44.7062 226.639 44.7755 226.788 44.8715C226.948 44.9675 227.071 45.1009 227.156 45.2715C227.242 45.4315 227.284 45.6395 227.284 45.8955V50.9995H228.564V45.7195C228.564 45.2395 228.442 44.8342 228.196 44.5035C227.962 44.1729 227.626 43.9222 227.188 43.7515C226.762 43.5702 226.26 43.4795 225.684 43.4795C225.002 43.4795 224.415 43.5809 223.924 43.7835C223.444 43.9862 223.066 44.1889 222.788 44.3915L223.412 45.3355Z" fill="#3D3D3D"/>
<path d="M229.611 43.6395V44.8395H233.291V43.6395H229.611ZM230.811 41.0795V50.9995H232.091V41.0795H230.811Z" fill="#3D3D3D"/>
<path d="M234.575 40.5995C234.575 40.8342 234.661 41.0422 234.831 41.2235C235.013 41.3942 235.221 41.4795 235.455 41.4795C235.701 41.4795 235.909 41.3942 236.079 41.2235C236.25 41.0422 236.335 40.8342 236.335 40.5995C236.335 40.3542 236.25 40.1462 236.079 39.9755C235.909 39.8049 235.701 39.7195 235.455 39.7195C235.221 39.7195 235.013 39.8049 234.831 39.9755C234.661 40.1462 234.575 40.3542 234.575 40.5995ZM234.815 43.6395V50.9995H236.095V43.6395H234.815Z" fill="#3D3D3D"/>
<path d="M238.091 47.3195C238.091 48.0555 238.257 48.7169 238.587 49.3035C238.929 49.8795 239.387 50.3329 239.963 50.6635C240.539 50.9942 241.185 51.1595 241.899 51.1595C242.625 51.1595 243.27 50.9942 243.835 50.6635C244.411 50.3329 244.865 49.8795 245.195 49.3035C245.537 48.7169 245.707 48.0555 245.707 47.3195C245.707 46.5729 245.537 45.9115 245.195 45.3355C244.865 44.7595 244.411 44.3062 243.835 43.9755C243.27 43.6449 242.625 43.4795 241.899 43.4795C241.185 43.4795 240.539 43.6449 239.963 43.9755C239.387 44.3062 238.929 44.7595 238.587 45.3355C238.257 45.9115 238.091 46.5729 238.091 47.3195ZM239.387 47.3195C239.387 46.8075 239.494 46.3542 239.707 45.9595C239.931 45.5542 240.23 45.2395 240.603 45.0155C240.987 44.7915 241.419 44.6795 241.899 44.6795C242.379 44.6795 242.806 44.7915 243.179 45.0155C243.563 45.2395 243.862 45.5542 244.075 45.9595C244.299 46.3542 244.411 46.8075 244.411 47.3195C244.411 47.8315 244.299 48.2849 244.075 48.6795C243.862 49.0742 243.563 49.3889 243.179 49.6235C242.806 49.8475 242.379 49.9595 241.899 49.9595C241.419 49.9595 240.987 49.8475 240.603 49.6235C240.23 49.3889 239.931 49.0742 239.707 48.6795C239.494 48.2849 239.387 47.8315 239.387 47.3195Z" fill="#3D3D3D"/>
<path d="M252.186 46.5195V50.9995H253.466V46.3595C253.466 45.4742 253.237 44.7755 252.778 44.2635C252.33 43.7409 251.717 43.4795 250.938 43.4795C250.458 43.4795 250.031 43.5862 249.658 43.7995C249.295 44.0129 248.991 44.3435 248.746 44.7915V43.6395H247.466V50.9995H248.746V46.5195C248.746 46.1569 248.821 45.8369 248.97 45.5595C249.13 45.2822 249.349 45.0689 249.626 44.9195C249.914 44.7595 250.245 44.6795 250.618 44.6795C251.13 44.6795 251.519 44.8342 251.786 45.1435C252.053 45.4529 252.186 45.9115 252.186 46.5195Z" fill="#3D3D3D"/>
<path d="M258.72 51.1595C259.509 51.1595 260.192 51.0049 260.768 50.6955C261.355 50.3755 261.84 49.9062 262.224 49.2875L261.184 48.6315C260.917 49.0795 260.592 49.4155 260.208 49.6395C259.824 49.8529 259.381 49.9595 258.88 49.9595C258.379 49.9595 257.952 49.8529 257.6 49.6395C257.248 49.4262 256.981 49.1169 256.8 48.7115C256.619 48.3062 256.528 47.8155 256.528 47.2395C256.539 46.6742 256.635 46.1995 256.816 45.8155C257.008 45.4209 257.275 45.1222 257.616 44.9195C257.968 44.7062 258.389 44.5995 258.88 44.5995C259.296 44.5995 259.659 44.6902 259.968 44.8715C260.277 45.0529 260.517 45.3035 260.688 45.6235C260.869 45.9435 260.96 46.3222 260.96 46.7595C260.96 46.8342 260.944 46.9302 260.912 47.0475C260.88 47.1542 260.848 47.2342 260.816 47.2875L261.328 46.5515H256.048V47.6395H262.336C262.336 47.6182 262.336 47.5702 262.336 47.4955C262.347 47.4102 262.352 47.3302 262.352 47.2555C262.352 46.4769 262.213 45.8049 261.936 45.2395C261.659 44.6742 261.259 44.2422 260.736 43.9435C260.224 43.6342 259.605 43.4795 258.88 43.4795C258.155 43.4795 257.515 43.6395 256.96 43.9595C256.416 44.2795 255.989 44.7275 255.68 45.3035C255.381 45.8795 255.232 46.5515 255.232 47.3195C255.232 48.0769 255.376 48.7435 255.664 49.3195C255.963 49.8955 256.373 50.3489 256.896 50.6795C257.429 50.9995 258.037 51.1595 258.72 51.1595Z" fill="#3D3D3D"/>
<path d="M268.826 46.5195V50.9995H270.106V46.3595C270.106 45.4742 269.877 44.7755 269.418 44.2635C268.97 43.7409 268.357 43.4795 267.578 43.4795C267.098 43.4795 266.672 43.5862 266.298 43.7995C265.936 44.0129 265.632 44.3435 265.386 44.7915V43.6395H264.106V50.9995H265.386V46.5195C265.386 46.1569 265.461 45.8369 265.61 45.5595C265.77 45.2822 265.989 45.0689 266.266 44.9195C266.554 44.7595 266.885 44.6795 267.258 44.6795C267.77 44.6795 268.16 44.8342 268.426 45.1435C268.693 45.4529 268.826 45.9115 268.826 46.5195Z" fill="#3D3D3D"/>
<circle cx="56.5" cy="45.5" r="44" stroke="#3D3D3D"/>
<path d="M56.6464 53.3536C56.8417 53.5488 57.1583 53.5488 57.3536 53.3536L60.5355 50.1716C60.7308 49.9763 60.7308 49.6597 60.5355 49.4645C60.3403 49.2692 60.0237 49.2692 59.8284 49.4645L57 52.2929L54.1716 49.4645C53.9763 49.2692 53.6597 49.2692 53.4645 49.4645C53.2692 49.6597 53.2692 49.9763 53.4645 50.1716L56.6464 53.3536ZM56.5 38L56.5 53L57.5 53L57.5 38L56.5 38Z" fill="#3D3D3D"/>
</svg>
